<?xml version="1.0" encoding="utf-8"?>
<!-- Generator: Adobe Illustrator 26.0.2, SVG Export Plug-In . SVG Version: 6.00 Build 0)  -->
<svg version="1.1" xmlns="http://www.w3.org/2000/svg" xmlns:xlink="http://www.w3.org/1999/xlink" x="0px" y="0px"
	 viewBox="0 0 50 50" style="enable-background:new 0 0 50 50;" xml:space="preserve">
<style type="text/css">
	.st0{fill:#FFFFFF;}
	.st1{fill:none;stroke:#FFFFFF;stroke-miterlimit:10;}
	.st2{fill:#222222;}
	.st3{fill:#6275B0;}
	.st4{fill:none;stroke:#5A79BA;stroke-miterlimit:10;}
	.st5{fill:#FFFBB9;}
	.st6{fill:#F7D4D9;}
	.st7{fill:#C1E7FF;}
	.st8{fill:#5A79BA;}
	.st9{fill:#EFA5AF;}
	.st10{fill:#FFFFFF;stroke:#5A79BA;stroke-width:2;stroke-miterlimit:10;}
	.st11{fill:none;stroke:#C3E5FF;stroke-width:2;stroke-linecap:round;stroke-linejoin:round;stroke-miterlimit:10;}
	.st12{fill:none;stroke:#EFA5AF;stroke-width:1.5;stroke-linecap:round;stroke-linejoin:round;stroke-miterlimit:10;}
	.st13{fill:none;stroke:#C3E5FF;stroke-width:1.5;stroke-linecap:round;stroke-linejoin:round;stroke-miterlimit:10;}
	.st14{fill:none;stroke:#5A79BA;stroke-width:2;stroke-linecap:round;stroke-linejoin:round;stroke-miterlimit:10;}
	.st15{fill:none;stroke:#EFA5AF;stroke-width:1.5;stroke-linejoin:round;stroke-miterlimit:10;}
	.st16{fill:none;stroke:#C3E5FF;stroke-width:1.5;stroke-miterlimit:10;}
	.st17{fill:#C3E5FF;}
	.st18{fill:#FFFFFF;stroke:#5A79BA;stroke-miterlimit:10;}
	.st19{fill:#FFFFFF;stroke:#EFA5AF;stroke-miterlimit:10;}
	.st20{fill:url(#SVGID_1_);}
	.st21{fill:url(#SVGID_00000103241837479530669370000015544501245437677955_);}
	.st22{fill:url(#SVGID_00000096759742642869132560000002696715639738412731_);}
	.st23{fill:url(#SVGID_00000059279116169004666310000009518197103065303947_);}
	.st24{fill:url(#SVGID_00000026848915709932354410000002274101050952847806_);}
	.st25{fill:url(#SVGID_00000137113244689689723910000002297692911772761013_);}
	.st26{fill:url(#SVGID_00000116209081330639817130000004504044577186138776_);}
	.st27{fill:url(#SVGID_00000044170253318763120270000010998263800578685319_);}
	.st28{fill:url(#SVGID_00000174586203224622494010000011523273617634988469_);}
	.st29{fill:url(#SVGID_00000106841577400464736760000005915243611811119256_);}
	.st30{fill:url(#SVGID_00000155139205410569772680000003469887058715718547_);}
	.st31{fill:url(#SVGID_00000042009596777202863930000001943391153297568908_);}
	.st32{fill:url(#SVGID_00000174592221729671309440000001597551881553488809_);}
	.st33{fill:url(#SVGID_00000182514921445433665340000014328729375728841379_);}
	.st34{fill:url(#SVGID_00000072271597755317674090000017907212424298600888_);}
	.st35{fill:url(#SVGID_00000127745960053074636920000002799823827921314712_);}
	.st36{fill:url(#SVGID_00000067945573625236232780000003899066288751966870_);}
	.st37{fill:url(#SVGID_00000177446690279746009300000014988860166596374192_);}
	.st38{fill:url(#SVGID_00000022530910150044987240000017662360832514412439_);}
	.st39{fill:url(#SVGID_00000055666832794247083560000000492556621416668861_);}
	.st40{fill:url(#SVGID_00000028325192807058478480000000709754253403380393_);}
	.st41{fill:url(#SVGID_00000101087749577638138080000009505883513236468925_);}
	.st42{fill:#255C84;}
	.st43{fill:#FFCB4A;stroke:#FFCB4A;stroke-miterlimit:10;}
	.st44{fill:none;stroke:#222222;stroke-width:2;stroke-miterlimit:10;}
	.st45{fill:none;stroke:#FFFFFF;stroke-width:2;stroke-miterlimit:10;}
</style>
<g id="BG">
</g>
<g id="GR">
	<g>
		<circle class="st9" cx="25" cy="25" r="25"/>
		<g id="h5PunY_00000173146485758331934330000002646537936094206908_">
			<g>
				<path class="st0" d="M28.02,13.86c0.37,0.03,0.75,0.06,1.12,0.09c0.26,0.02,0.52,0.05,0.78,0.07c0,1.19,0,2.35,0,3.54
					c-0.11,0-0.21,0-0.3,0c-0.75,0.01-1.5,0-2.24,0.04c-0.93,0.05-1.44,0.54-1.48,1.47c-0.04,0.97-0.01,1.94-0.01,2.95
					c1.29,0,2.58,0,3.91,0c-0.17,1.34-0.34,2.65-0.51,3.97c-1.14,0-2.26,0-3.4,0c0,3.4,0,6.77,0,10.16c-1.37,0-2.72,0-4.1,0
					c0-3.38,0-6.75,0-10.15c-1.15,0-2.28,0-3.42,0c0-1.33,0-2.63,0-3.97c1.13,0,2.25,0,3.41,0c0-0.11,0-0.2,0-0.28
					c0-1.04-0.02-2.08,0.02-3.11c0.05-1.25,0.42-2.4,1.3-3.33c0.67-0.71,1.51-1.12,2.45-1.31c0.25-0.05,0.51-0.09,0.77-0.14
					C26.88,13.86,27.45,13.86,28.02,13.86z"/>
			</g>
		</g>
	</g>
</g>
<g id="OV">
</g>
</svg>
