<?xml version="1.0" encoding="utf-8"?>
<!-- Generator: Adobe Illustrator 26.0.2, SVG Export Plug-In . SVG Version: 6.00 Build 0)  -->
<svg version="1.1" xmlns="http://www.w3.org/2000/svg" xmlns:xlink="http://www.w3.org/1999/xlink" x="0px" y="0px"
	 viewBox="0 0 20 20" style="enable-background:new 0 0 20 20;" xml:space="preserve">
<style type="text/css">
	.st0{fill:#FFFFFF;}
	.st1{fill:none;stroke:#FFFFFF;stroke-miterlimit:10;}
	.st2{fill:#222222;}
	.st3{fill:#6275B0;}
	.st4{fill:none;stroke:#5A79BA;stroke-miterlimit:10;}
	.st5{fill:#FFFBB9;}
	.st6{fill:#F7D4D9;}
	.st7{fill:#C1E7FF;}
	.st8{fill:#5A79BA;}
	.st9{fill:#EFA5AF;}
	.st10{fill:#FFFFFF;stroke:#5A79BA;stroke-width:2;stroke-miterlimit:10;}
	.st11{fill:none;stroke:#C3E5FF;stroke-width:2;stroke-linecap:round;stroke-linejoin:round;stroke-miterlimit:10;}
	.st12{fill:none;stroke:#EFA5AF;stroke-width:1.5;stroke-linecap:round;stroke-linejoin:round;stroke-miterlimit:10;}
	.st13{fill:none;stroke:#C3E5FF;stroke-width:1.5;stroke-linecap:round;stroke-linejoin:round;stroke-miterlimit:10;}
	.st14{fill:none;stroke:#5A79BA;stroke-width:2;stroke-linecap:round;stroke-linejoin:round;stroke-miterlimit:10;}
	.st15{fill:none;stroke:#EFA5AF;stroke-width:1.5;stroke-linejoin:round;stroke-miterlimit:10;}
	.st16{fill:none;stroke:#C3E5FF;stroke-width:1.5;stroke-miterlimit:10;}
	.st17{fill:#C3E5FF;}
	.st18{fill:#FFFFFF;stroke:#5A79BA;stroke-miterlimit:10;}
	.st19{fill:#FFFFFF;stroke:#EFA5AF;stroke-miterlimit:10;}
	.st20{fill:url(#SVGID_1_);}
	.st21{fill:url(#SVGID_00000011745407067555281980000002349574332675673220_);}
	.st22{fill:url(#SVGID_00000145038600343539994320000007776712552775194542_);}
	.st23{fill:url(#SVGID_00000031183480396492623180000009990695668682718891_);}
	.st24{fill:url(#SVGID_00000160876225931927106930000016361795891731070874_);}
	.st25{fill:url(#SVGID_00000095302195620696111100000005561362816947174575_);}
	.st26{fill:url(#SVGID_00000098216262255834574390000004761873565509105294_);}
	.st27{fill:url(#SVGID_00000150787048300630741000000011978361758840076713_);}
	.st28{fill:url(#SVGID_00000010297710037752136950000001475665860140519357_);}
	.st29{fill:url(#SVGID_00000036225340928327651290000016469990695221350275_);}
	.st30{fill:url(#SVGID_00000001647321444755586570000008824936093039866503_);}
	.st31{fill:url(#SVGID_00000131342845078336083280000008863709435808200869_);}
	.st32{fill:url(#SVGID_00000075162412732060451220000015477437121098991012_);}
	.st33{fill:url(#SVGID_00000096750770458952074150000012671403662620493758_);}
	.st34{fill:url(#SVGID_00000127751227387506617920000003832156665467647161_);}
	.st35{fill:url(#SVGID_00000158718672919621317210000008791105064168640657_);}
	.st36{fill:url(#SVGID_00000049913437240691225150000005558290820244976827_);}
	.st37{fill:url(#SVGID_00000055701080542572667510000003928865383818720666_);}
	.st38{fill:url(#SVGID_00000160893931612718961390000016425219782567335042_);}
	.st39{fill:url(#SVGID_00000138533369675041353970000002887312554651943325_);}
	.st40{fill:url(#SVGID_00000003816940961422455500000004309254851439212190_);}
	.st41{fill:url(#SVGID_00000048464755230654047220000016330321892104569731_);}
	.st42{fill:#255C84;}
	.st43{fill:#FFCB4A;stroke:#FFCB4A;stroke-miterlimit:10;}
	.st44{fill:none;stroke:#222222;stroke-width:2;stroke-miterlimit:10;}
	.st45{fill:none;stroke:#FFFFFF;stroke-width:2;stroke-miterlimit:10;}
</style>
<g id="BG">
</g>
<g id="GR">
	<g id="pQKerT_00000053517226026205099500000011797399482380647837_">
		<g>
			<path class="st0" d="M17.25,6.7c-0.16-0.91-0.72-1.49-1.58-1.65c-0.36-0.07-0.72-0.12-1.08-0.13c-1.54-0.07-3.08-0.12-4.62-0.18
				v0.05c-0.36,0-0.71,0-1.06,0C7.44,4.81,5.97,4.83,4.51,5.01C3.6,5.12,2.98,5.66,2.78,6.56c-0.11,0.5-0.16,1.02-0.2,1.53
				c-0.09,1.09-0.11,2.2-0.03,3.29c0.05,0.68,0.11,1.36,0.22,2.03c0.15,0.88,0.75,1.46,1.6,1.59c0.5,0.07,1.01,0.14,1.52,0.15
				c1.56,0.05,3.12,0.1,4.68,0.11c1.55,0.01,3.11-0.03,4.66-0.2c0.4-0.04,0.79-0.11,1.14-0.33c0.58-0.37,0.84-0.93,0.9-1.58
				c0.09-0.88,0.17-1.77,0.2-2.66C17.53,9.23,17.48,7.96,17.25,6.7z M8.51,12.27V7.78c1.3,0.75,2.59,1.49,3.9,2.25
				C11.11,10.77,9.82,11.52,8.51,12.27z"/>
		</g>
	</g>
</g>
<g id="OV">
</g>
</svg>
