<?xml version="1.0" encoding="utf-8"?>
<!-- Generator: Adobe Illustrator 26.0.2, SVG Export Plug-In . SVG Version: 6.00 Build 0)  -->
<svg version="1.1" xmlns="http://www.w3.org/2000/svg" xmlns:xlink="http://www.w3.org/1999/xlink" x="0px" y="0px"
	 viewBox="0 0 220.43 28" style="enable-background:new 0 0 220.43 28;" xml:space="preserve">
<style type="text/css">
	.st0{fill:#FFFFFF;}
	.st1{fill:none;stroke:#FFFFFF;stroke-miterlimit:10;}
	.st2{fill:#222222;}
	.st3{fill:#6275B0;}
	.st4{fill:none;stroke:#5A79BA;stroke-miterlimit:10;}
	.st5{fill:#FFFBB9;}
	.st6{fill:#F7D4D9;}
	.st7{fill:#C1E7FF;}
	.st8{fill:#5A79BA;}
	.st9{fill:#EFA5AF;}
	.st10{fill:#FFFFFF;stroke:#5A79BA;stroke-width:2;stroke-miterlimit:10;}
	.st11{fill:none;stroke:#C3E5FF;stroke-width:2;stroke-linecap:round;stroke-linejoin:round;stroke-miterlimit:10;}
	.st12{fill:none;stroke:#EFA5AF;stroke-width:1.5;stroke-linecap:round;stroke-linejoin:round;stroke-miterlimit:10;}
	.st13{fill:none;stroke:#C3E5FF;stroke-width:1.5;stroke-linecap:round;stroke-linejoin:round;stroke-miterlimit:10;}
	.st14{fill:none;stroke:#5A79BA;stroke-width:2;stroke-linecap:round;stroke-linejoin:round;stroke-miterlimit:10;}
	.st15{fill:none;stroke:#EFA5AF;stroke-width:1.5;stroke-linejoin:round;stroke-miterlimit:10;}
	.st16{fill:none;stroke:#C3E5FF;stroke-width:1.5;stroke-miterlimit:10;}
	.st17{fill:#C3E5FF;}
	.st18{fill:#FFFFFF;stroke:#5A79BA;stroke-miterlimit:10;}
	.st19{fill:#FFFFFF;stroke:#EFA5AF;stroke-miterlimit:10;}
	.st20{fill:url(#SVGID_1_);}
	.st21{fill:url(#SVGID_00000133522723656229911080000016024375181857460365_);}
	.st22{fill:url(#SVGID_00000091001097882210467180000008471319388441802937_);}
	.st23{fill:url(#SVGID_00000021798167357750711970000017545992078311661443_);}
	.st24{fill:url(#SVGID_00000075152262357314574490000011868482101466888343_);}
	.st25{fill:url(#SVGID_00000103979141142407077440000012738120817286962842_);}
	.st26{fill:url(#SVGID_00000003822906403590239990000015277642503204561851_);}
	.st27{fill:url(#SVGID_00000077309928874165224300000017323966191952980374_);}
	.st28{fill:url(#SVGID_00000116949033566770875720000003539286086813829308_);}
	.st29{fill:url(#SVGID_00000013893736948338274170000004954382763966913955_);}
	.st30{fill:url(#SVGID_00000153707163684338872110000009363799702271985825_);}
	.st31{fill:url(#SVGID_00000113315155833203617410000017244575091593957035_);}
	.st32{fill:url(#SVGID_00000083788888777210338210000004795690486436744601_);}
	.st33{fill:url(#SVGID_00000065061943615005623430000011744719352217526191_);}
	.st34{fill:url(#SVGID_00000046331839574297231620000003088393400387623829_);}
	.st35{fill:url(#SVGID_00000048473192523195063470000012076020282974445243_);}
	.st36{fill:url(#SVGID_00000088123258755197777050000000494150553586939563_);}
	.st37{fill:url(#SVGID_00000109742156334630131540000017932537059679926712_);}
	.st38{fill:url(#SVGID_00000124877363650135337310000005842020372634291629_);}
	.st39{fill:url(#SVGID_00000142174663069259411400000015918142092269699217_);}
	.st40{fill:url(#SVGID_00000011719614630432802750000016158816843108517553_);}
	.st41{fill:url(#SVGID_00000020391660309320377000000005836513845693149368_);}
	.st42{fill:#255C84;}
	.st43{fill:#FFCB4A;stroke:#FFCB4A;stroke-miterlimit:10;}
	.st44{fill:none;stroke:#222222;stroke-width:2;stroke-miterlimit:10;}
	.st45{fill:none;stroke:#FFFFFF;stroke-width:2;stroke-miterlimit:10;}
</style>
<g id="BG">
</g>
<g id="GR">
	<g>
		<g>
			<g>
				<path class="st0" d="M120.17,12.78l0.95,4.06c0.02,0.11,0.1,0.19,0.2,0.23l3.88,1.52c0.26,0.1,0.29,0.45,0.05,0.59l-3.56,2.16
					c-0.09,0.06-0.15,0.16-0.16,0.27l-0.24,4.16c-0.02,0.28-0.34,0.41-0.55,0.23l-3.15-2.72c-0.08-0.07-0.2-0.1-0.3-0.07l-4.03,1.06
					c-0.27,0.07-0.5-0.2-0.39-0.45l1.61-3.84c0.04-0.1,0.03-0.22-0.03-0.31l-2.25-3.51c-0.15-0.23,0.03-0.53,0.31-0.51l4.15,0.35
					c0.11,0.01,0.22-0.04,0.28-0.12l2.64-3.22C119.77,12.43,120.11,12.51,120.17,12.78z"/>
				<g>
					<path class="st0" d="M137.4,0.64c-0.46-0.36-1.07-0.53-1.65-0.45c-0.46,0.06-0.83,0.29-1.22,0.52
						c-1.29,0.77-2.56,1.56-3.74,2.49c-2.55,2.01-4.86,4.27-6.91,6.79c-0.91,1.12-1.78,2.27-2.6,3.46
						c-0.08,0.12-0.11,0.27-0.08,0.42l0.35,1.5c1.56-1.75,3.28-3.37,5.06-4.88c1.22-1.04,2.53-2,3.88-2.87
						c1.36-0.88,2.76-1.63,4.21-2.34c0.61-0.3,1.27-0.53,1.9-0.78c0.41-0.16,0.79-0.34,1.09-0.68
						C138.51,2.89,138.38,1.41,137.4,0.64z"/>
					<path class="st0" d="M146.24,3.31c-0.47-0.32-1.05-0.49-1.63-0.46c-0.41,0.02-0.8,0.16-1.2,0.27c-0.69,0.2-1.37,0.41-2.06,0.61
						c-0.74,0.25-1.48,0.54-2.22,0.81c-1.52,0.56-2.99,1.29-4.44,2.02c-1.49,0.75-2.91,1.61-4.32,2.5
						c-1.38,0.88-2.75,1.83-4.02,2.86c-1.61,1.29-3.19,2.63-4.67,4.06l0.12,0.5l0.99,0.39c0.61-0.43,1.23-0.84,1.86-1.24
						c2.27-1.43,4.63-2.74,7.09-3.82c2.95-1.3,6-2.34,9.16-3c0.76-0.15,1.52-0.31,2.29-0.41c0.56-0.07,1.13-0.15,1.69-0.22
						c1.06-0.14,1.98-0.73,2.35-1.77C147.65,5.29,147.23,3.99,146.24,3.31z"/>
					<path class="st0" d="M143.52,12.48c-0.01-1.22-1.05-2.22-2.27-2.18c-0.48,0.02-0.95,0.12-1.42,0.19
						c-0.75,0.1-1.48,0.26-2.22,0.41c-1.58,0.31-3.13,0.83-4.64,1.37c-1.56,0.56-3.09,1.23-4.57,1.98
						c-1.69,0.88-3.33,1.82-4.92,2.85l1.59,0.62c0.08,0.03,0.17,0.03,0.25,0c0.91-0.37,1.84-0.72,2.77-1.03
						c3.09-1.03,6.26-1.72,9.51-1.98c1.22-0.1,2.44-0.07,3.67-0.03C142.49,14.71,143.53,13.7,143.52,12.48z"/>
				</g>
			</g>
			<g>
				<path class="st0" d="M164.3,1.95c0.32,0,0.59,0.27,0.59,0.59v3.85c0,0.32-0.26,0.59-0.59,0.59c-0.33,0-0.58-0.27-0.58-0.59v-1.4
					h-1.9v1.4c0,0.32-0.26,0.59-0.58,0.59c-0.33,0-0.59-0.27-0.59-0.59V2.54c0-0.32,0.26-0.59,0.59-0.59c0.32,0,0.58,0.27,0.58,0.59
					v1.46h1.9V2.54C163.72,2.22,163.97,1.95,164.3,1.95z"/>
				<path class="st0" d="M171.72,4.46c0,1.51-1.23,2.55-2.49,2.55s-2.49-1.04-2.49-2.55s1.23-2.55,2.49-2.55
					S171.72,2.96,171.72,4.46z M167.97,4.46c0,0.86,0.57,1.43,1.26,1.43c0.69,0,1.26-0.57,1.26-1.43c0-0.86-0.55-1.43-1.26-1.43
					C168.54,3.03,167.97,3.61,167.97,4.46z"/>
				<path class="st0" d="M177.8,2.55v3.89c0,0.38-0.24,0.58-0.56,0.58c-0.26,0-0.46-0.14-0.61-0.34l-1.87-2.58v2.33
					c0,0.32-0.26,0.6-0.59,0.6c-0.34,0-0.61-0.28-0.61-0.6V2.52c0-0.37,0.24-0.57,0.56-0.57c0.25,0,0.46,0.14,0.6,0.34l1.87,2.57
					V2.55c0-0.32,0.26-0.6,0.59-0.6C177.53,1.95,177.8,2.23,177.8,2.55z"/>
				<path class="st0" d="M184.39,4.96c-0.06,1.38-1.14,2.05-2.2,2.05c-1.27,0-2.54-1.04-2.54-2.55s1.28-2.55,2.52-2.55
					c0.49,0,0.86,0.11,1.13,0.26c0.31,0.19,0.53,0.39,0.53,0.68c0,0.34-0.27,0.53-0.54,0.53c-0.22,0-0.37-0.11-0.44-0.15
					c-0.05-0.02-0.26-0.21-0.65-0.21c-0.72,0-1.31,0.64-1.31,1.43c0,0.79,0.58,1.43,1.31,1.43c0.4,0,0.97-0.23,1.06-0.73h-0.58
					c-0.26,0-0.51-0.19-0.51-0.47c0-0.29,0.24-0.48,0.51-0.48h1.09C184.19,4.22,184.41,4.53,184.39,4.96z"/>
				<path class="st0" d="M193.72,6.51c0,0.28-0.24,0.51-0.52,0.51c-0.14,0-0.29-0.07-0.38-0.17l-1.58-1.83l-0.69,0.72v0.7
					c0,0.32-0.26,0.58-0.58,0.58c-0.32,0-0.59-0.26-0.59-0.58V2.5c0-0.32,0.26-0.59,0.59-0.59c0.32,0,0.58,0.26,0.58,0.59v1.68
					l2.01-2.06c0.09-0.11,0.25-0.2,0.42-0.2c0.29,0,0.53,0.23,0.53,0.52c0,0.13-0.06,0.26-0.12,0.33l-1.42,1.49l1.62,1.92
					C193.67,6.26,193.72,6.38,193.72,6.51z"/>
				<path class="st0" d="M199.91,4.46c0,1.51-1.23,2.55-2.49,2.55s-2.49-1.04-2.49-2.55s1.23-2.55,2.49-2.55
					S199.91,2.96,199.91,4.46z M196.15,4.46c0,0.86,0.57,1.43,1.26,1.43c0.69,0,1.26-0.57,1.26-1.43c0-0.86-0.55-1.43-1.26-1.43
					C196.73,3.03,196.15,3.61,196.15,4.46z"/>
				<path class="st0" d="M205.99,2.55v3.89c0,0.38-0.24,0.58-0.56,0.58c-0.26,0-0.46-0.14-0.61-0.34l-1.87-2.58v2.33
					c0,0.32-0.26,0.6-0.59,0.6c-0.34,0-0.61-0.28-0.61-0.6V2.52c0-0.37,0.24-0.57,0.56-0.57c0.25,0,0.46,0.14,0.6,0.34l1.87,2.57
					V2.55c0-0.32,0.26-0.6,0.59-0.6C205.72,1.95,205.99,2.23,205.99,2.55z"/>
				<path class="st0" d="M212.57,4.96c-0.06,1.38-1.14,2.05-2.2,2.05c-1.27,0-2.54-1.04-2.54-2.55s1.28-2.55,2.52-2.55
					c0.49,0,0.86,0.11,1.13,0.26c0.31,0.19,0.53,0.39,0.53,0.68c0,0.34-0.27,0.53-0.54,0.53c-0.22,0-0.37-0.11-0.44-0.15
					c-0.05-0.02-0.26-0.21-0.65-0.21c-0.72,0-1.31,0.64-1.31,1.43c0,0.79,0.58,1.43,1.31,1.43c0.4,0,0.97-0.23,1.06-0.73h-0.59
					c-0.26,0-0.51-0.19-0.51-0.47c0-0.29,0.24-0.48,0.51-0.48h1.09C212.38,4.22,212.6,4.53,212.57,4.96z"/>
				<path class="st0" d="M165.13,11.13c0,0.12-0.04,0.24-0.08,0.34l-1.68,3.75c-0.13,0.3-0.31,0.44-0.57,0.44
					c-0.25,0-0.44-0.14-0.56-0.44l-1.68-3.75c-0.04-0.1-0.08-0.22-0.08-0.34c0-0.29,0.25-0.53,0.57-0.53c0.26,0,0.46,0.15,0.56,0.38
					l1.19,2.83l1.2-2.83c0.09-0.23,0.31-0.38,0.56-0.38C164.88,10.6,165.13,10.85,165.13,11.13z"/>
				<path class="st0" d="M168.07,11.2v3.87c0,0.32-0.28,0.6-0.6,0.6c-0.33,0-0.6-0.28-0.6-0.6V11.2c0-0.32,0.27-0.6,0.6-0.6
					C167.79,10.6,168.07,10.88,168.07,11.2z"/>
				<path class="st0" d="M173.85,15.09c0,0.3-0.23,0.55-0.53,0.55c-0.19,0-0.34-0.09-0.43-0.21l-1.18-1.51h-0.54v1.18
					c0,0.32-0.26,0.58-0.58,0.58c-0.33,0-0.59-0.26-0.59-0.58v-3.82c0-0.38,0.27-0.65,0.65-0.65h1.31c1.11,0,1.83,0.76,1.83,1.65
					c0,0.62-0.35,1.16-0.93,1.44l0.85,1.01C173.78,14.83,173.85,14.95,173.85,15.09z M171.17,12.91h0.72c0.41,0,0.76-0.11,0.76-0.63
					c0-0.53-0.36-0.66-0.76-0.66h-0.72V12.91z"/>
				<path class="st0" d="M179.24,11.15c0,0.29-0.24,0.51-0.51,0.51h-0.88v3.4c0,0.34-0.27,0.61-0.58,0.61
					c-0.32,0-0.59-0.28-0.59-0.61v-3.4h-0.88c-0.28,0-0.52-0.23-0.52-0.51c0-0.29,0.24-0.52,0.52-0.52h2.93
					C179,10.63,179.24,10.85,179.24,11.15z"/>
				<path class="st0" d="M185.04,11.17v2.68c0,1.14-0.93,1.81-2.03,1.81c-1.11,0-2.03-0.67-2.03-1.81v-2.68
					c0-0.31,0.25-0.57,0.57-0.57c0.33,0,0.6,0.26,0.6,0.57v2.67c0,0.64,0.44,0.85,0.86,0.85c0.43,0,0.86-0.21,0.86-0.85v-2.67
					c0-0.31,0.27-0.57,0.6-0.57C184.79,10.6,185.04,10.86,185.04,11.17z"/>
				<path class="st0" d="M191.19,15.12c0,0.29-0.25,0.53-0.57,0.53c-0.26,0-0.47-0.15-0.56-0.38l-0.27-0.64h-1.85l-0.27,0.64
					c-0.1,0.23-0.31,0.38-0.56,0.38c-0.32,0-0.57-0.24-0.57-0.53c0-0.12,0.04-0.24,0.08-0.34l1.68-3.75
					c0.12-0.3,0.31-0.44,0.56-0.44c0.26,0,0.44,0.14,0.57,0.44l1.68,3.75C191.16,14.88,191.19,15,191.19,15.12z M189.4,13.71
					l-0.54-1.27l-0.53,1.27H189.4z"/>
				<path class="st0" d="M195.74,14.58c0.28,0,0.51,0.23,0.51,0.52c0,0.29-0.24,0.51-0.51,0.51h-2.15c-0.38,0-0.65-0.27-0.65-0.65
					V11.2c0-0.33,0.26-0.6,0.59-0.6c0.32,0,0.58,0.27,0.58,0.6v3.38H195.74z"/>
				<path class="st0" d="M202.39,11.2v3.87c0,0.32-0.28,0.6-0.6,0.6c-0.33,0-0.6-0.28-0.6-0.6V11.2c0-0.32,0.27-0.6,0.6-0.6
					C202.11,10.6,202.39,10.88,202.39,11.2z"/>
				<path class="st0" d="M208.57,13.09c0,1.67-1.21,2.53-2.58,2.53h-1.03c-0.38,0-0.65-0.27-0.65-0.65v-3.69
					c0-0.38,0.27-0.65,0.65-0.65h1.03C207.36,10.63,208.57,11.49,208.57,13.09z M207.4,13.09c0-1.05-0.51-1.48-1.41-1.48h-0.51v3.02
					h0.51C206.88,14.63,207.4,14.21,207.4,13.09z"/>
				<path class="st0" d="M215.26,13.12c0,1.51-1.23,2.55-2.49,2.55c-1.26,0-2.49-1.04-2.49-2.55s1.23-2.55,2.49-2.55
					C214.03,10.58,215.26,11.62,215.26,13.12z M211.51,13.12c0,0.86,0.57,1.43,1.26,1.43c0.69,0,1.26-0.57,1.26-1.43
					c0-0.86-0.55-1.43-1.26-1.43C212.08,11.69,211.51,12.27,211.51,13.12z"/>
				<path class="st0" d="M219.92,14.58c0.28,0,0.51,0.23,0.51,0.52c0,0.29-0.24,0.51-0.51,0.51h-2.15c-0.38,0-0.65-0.27-0.65-0.65
					V11.2c0-0.33,0.26-0.6,0.59-0.6c0.32,0,0.58,0.27,0.58,0.6v3.38H219.92z"/>
				<path class="st0" d="M163.55,20.3h-1.73v1.13h1.43c0.28,0,0.51,0.21,0.51,0.5c0,0.28-0.24,0.49-0.51,0.49h-1.43v1.31
					c0,0.32-0.26,0.59-0.58,0.59c-0.32,0-0.59-0.27-0.59-0.59v-3.81c0-0.38,0.27-0.65,0.65-0.65h2.25c0.29,0,0.52,0.23,0.52,0.5
					C164.07,20.07,163.84,20.3,163.55,20.3z"/>
				<path class="st0" d="M169.94,23.78c0,0.29-0.25,0.53-0.57,0.53c-0.26,0-0.47-0.15-0.56-0.38l-0.27-0.64h-1.85l-0.27,0.64
					c-0.1,0.23-0.31,0.38-0.56,0.38c-0.32,0-0.57-0.24-0.57-0.53c0-0.12,0.04-0.24,0.08-0.34l1.68-3.75
					c0.12-0.3,0.31-0.44,0.56-0.44c0.26,0,0.44,0.14,0.57,0.44l1.68,3.75C169.91,23.53,169.94,23.65,169.94,23.78z M168.15,22.36
					l-0.54-1.27l-0.53,1.27H168.15z"/>
				<path class="st0" d="M175.92,19.86v3.89c0,0.38-0.24,0.58-0.56,0.58c-0.26,0-0.46-0.14-0.61-0.34l-1.87-2.58v2.33
					c0,0.32-0.26,0.6-0.59,0.6c-0.34,0-0.61-0.28-0.61-0.6v-3.89c0-0.37,0.24-0.57,0.56-0.57c0.25,0,0.46,0.14,0.6,0.34l1.87,2.57
					v-2.32c0-0.32,0.26-0.6,0.59-0.6C175.65,19.26,175.92,19.54,175.92,19.86z"/>
				<path class="st0" d="M182.32,23.78c0,0.29-0.25,0.53-0.57,0.53c-0.26,0-0.47-0.15-0.56-0.38l-0.27-0.64h-1.85l-0.27,0.64
					c-0.1,0.23-0.31,0.38-0.56,0.38c-0.32,0-0.57-0.24-0.57-0.53c0-0.12,0.04-0.24,0.08-0.34l1.68-3.75
					c0.12-0.3,0.31-0.44,0.56-0.44c0.26,0,0.44,0.14,0.57,0.44l1.68,3.75C182.28,23.53,182.32,23.65,182.32,23.78z M180.52,22.36
					l-0.54-1.27l-0.53,1.27H180.52z"/>
				<path class="st0" d="M187.03,19.8c0,0.29-0.24,0.51-0.51,0.51h-0.88v3.4c0,0.34-0.27,0.61-0.58,0.61
					c-0.32,0-0.59-0.28-0.59-0.61v-3.4h-0.88c-0.28,0-0.52-0.23-0.52-0.51c0-0.29,0.24-0.52,0.52-0.52h2.93
					C186.8,19.28,187.03,19.51,187.03,19.8z"/>
				<path class="st0" d="M189.94,19.86v3.87c0,0.32-0.28,0.6-0.6,0.6c-0.33,0-0.6-0.28-0.6-0.6v-3.87c0-0.32,0.27-0.6,0.6-0.6
					C189.66,19.26,189.94,19.54,189.94,19.86z"/>
				<path class="st0" d="M195.96,23.38c0,0.3-0.2,0.49-0.54,0.69c-0.27,0.14-0.63,0.25-1.1,0.25c-1.27,0-2.54-1.04-2.54-2.55
					c0-1.51,1.28-2.55,2.52-2.55c0.49,0,0.86,0.11,1.13,0.26c0.31,0.19,0.53,0.39,0.53,0.68c0,0.34-0.27,0.53-0.54,0.53
					c-0.22,0-0.37-0.11-0.44-0.15c-0.05-0.02-0.26-0.21-0.65-0.21c-0.72,0-1.31,0.64-1.31,1.43c0,0.79,0.58,1.43,1.33,1.43
					c0.37,0,0.58-0.19,0.63-0.21c0.07-0.04,0.21-0.15,0.44-0.15C195.69,22.86,195.96,23.04,195.96,23.38z"/>
				<path class="st0" d="M200.62,19.7c0.17,0.18,0.26,0.33,0.26,0.51c0,0.26-0.21,0.46-0.49,0.46c-0.16,0-0.35-0.1-0.46-0.21
					c-0.2-0.15-0.31-0.19-0.52-0.19c-0.36,0-0.53,0.19-0.53,0.42c0,0.14,0.05,0.34,0.44,0.49l0.2,0.07
					c1.23,0.46,1.61,0.91,1.61,1.56c0,1.03-1.03,1.53-1.86,1.53c-0.52,0-1.07-0.19-1.46-0.56c-0.09-0.11-0.26-0.31-0.26-0.59
					c0-0.24,0.16-0.49,0.48-0.49c0.25,0,0.42,0.17,0.55,0.32c0.26,0.26,0.54,0.29,0.68,0.29c0.25,0,0.66-0.08,0.66-0.49
					c0-0.28-0.16-0.45-0.69-0.66l-0.22-0.08c-0.75-0.29-1.31-0.64-1.31-1.41c0-0.88,0.73-1.43,1.65-1.43
					C199.97,19.23,200.32,19.42,200.62,19.7z"/>
			</g>
		</g>
		<g>
			<line class="st1" x1="89.65" y1="9.58" x2="97.15" y2="17.08"/>
			<line class="st1" x1="89.65" y1="17.08" x2="97.15" y2="9.58"/>
		</g>
		<g>
			<path class="st0" d="M29.68,4.31c-0.27-0.12-0.58-0.07-0.83,0.15l-3.69,3.69l-3.68-3.68c-0.19-0.19-0.56-0.31-0.86-0.15
				c-0.27,0.11-0.45,0.39-0.45,0.7v10.55c0,0.45,0.32,0.77,0.77,0.77c0.42,0,0.77-0.34,0.77-0.77V6.9c0.76,0.77,1.75,1.76,2.35,2.34
				l-0.15,0.15c-0.15,0.15-0.23,0.34-0.23,0.54c0,0.2,0.08,0.39,0.23,0.54c0.3,0.3,0.78,0.3,1.08,0.01c0.01-0.01,0.71-0.7,0.71-0.7
				s2.17-2.18,2.9-2.91c-0.01,2.33-0.03,7.19-0.03,8.47l0,0.32c0,0.42,0.39,0.77,0.82,0.77c0.44,0,0.76-0.34,0.76-0.78l0-10.63
				C30.16,4.7,29.97,4.42,29.68,4.31z"/>
			<path class="st0" d="M33.03,7.66c-0.45,0-0.77,0.32-0.77,0.77v7.15c0,0.45,0.32,0.77,0.77,0.77c0.42,0,0.77-0.34,0.77-0.77V8.42
				C33.8,8,33.45,7.66,33.03,7.66z"/>
			<path class="st0" d="M41.51,8.73c0.15,0.15,0.34,0.23,0.55,0.23c0.21,0,0.41-0.08,0.56-0.23l0.03-0.03
				c0.23-0.29,0.23-0.72,0-1.01l-1.11-1.08c-0.15-0.16-0.33-0.23-0.53-0.23c-0.31,0-0.49,0.18-0.55,0.23l-5.29,5.27l-0.03,0.03
				c-0.23,0.29-0.23,0.72,0,1.01l3.2,3.19c0.14,0.14,0.35,0.23,0.53,0.23h3.17c0.45,0,0.77-0.32,0.77-0.77
				c0-0.43-0.34-0.77-0.77-0.77h-2.83c-0.43-0.42-1.78-1.75-2.4-2.39l4.18-4.18C41.25,8.48,41.5,8.72,41.51,8.73z"/>
			<path class="st0" d="M48.15,4.3c-0.21,0-0.4,0.08-0.55,0.23c-0.15,0.15-0.23,0.35-0.23,0.55v10.58l0,0.04l0.01,0.07
				c0.03,0.1,0.08,0.26,0.24,0.42c0.15,0.15,0.3,0.2,0.41,0.23l0.05,0.01l6.64-0.03c0.22,0,0.4-0.07,0.54-0.21
				c0.13-0.13,0.22-0.35,0.22-0.55L55.5,5.06c0-0.21-0.08-0.39-0.23-0.54c-0.14-0.14-0.34-0.22-0.53-0.22L48.15,4.3z M53.96,5.83
				c0,0.6,0,1.69,0,2.82l0,0.07c0,1.72-0.01,5.28,0,6.16h-5.03c-0.01-0.84-0.01-4.28-0.01-5.91l0-0.01c0-1.32,0-2.47,0-3.1
				c0.49,0,1.26-0.01,2.04-0.01l0.94,0C52.68,5.83,53.47,5.83,53.96,5.83z"/>
			<path class="st0" d="M65.18,8.79l-0.02-0.03L63,6.57c-0.16-0.16-0.39-0.22-0.55-0.22c-0.21,0-0.39,0.07-0.54,0.22l-2.91,2.94
				V7.14c0-0.42-0.34-0.77-0.77-0.77c-0.45,0-0.77,0.32-0.77,0.77v8.43c0,0.45,0.32,0.77,0.77,0.77c0.42,0,0.77-0.34,0.77-0.77v-3.9
				C59.66,11,61.7,8.96,62.45,8.2c0.33,0.33,0.8,0.81,1.12,1.14l0.21,0.21v6.03c0,0.42,0.34,0.77,0.77,0.77
				c0.45,0,0.77-0.32,0.77-0.77V9.24C65.31,9.09,65.26,8.92,65.18,8.79z"/>
			<polygon class="st0" points="32.54,4.99 32.06,5.69 32.54,6.38 33.03,7.08 33.52,6.38 34.01,5.69 33.52,4.99 33.03,4.29 			"/>
			<g>
				<path class="st0" d="M47.91,19.17c-0.08-0.08-0.19-0.09-0.22-0.09h-1.49c-0.18,0-0.32,0.14-0.32,0.31v3.74
					c0,0.18,0.14,0.31,0.32,0.31c0.17,0,0.31-0.14,0.31-0.31v-0.81c0.1,0.02,0.2-0.01,0.28-0.09l1.88-1.87l0.01-0.01
					c0.1-0.13,0.09-0.33-0.02-0.43L47.91,19.17z M46.51,21.63v-1.91h1.05c0.05,0.05,0.13,0.13,0.23,0.23
					c0.07,0.07,0.14,0.14,0.2,0.2C47.66,20.48,46.86,21.28,46.51,21.63z"/>
				<path class="st0" d="M50.62,19.92c-0.12-0.11-0.32-0.11-0.44,0.01l-0.2,0.2c-0.01-0.17-0.15-0.3-0.31-0.3
					c-0.18,0-0.32,0.14-0.32,0.32v2.99c0,0.18,0.14,0.31,0.32,0.31c0.17,0,0.31-0.14,0.31-0.31v-2.12l0.65-0.65
					c0.07-0.07,0.1-0.16,0.09-0.25C50.72,20.04,50.68,19.96,50.62,19.92z"/>
				<path class="st0" d="M55.06,24.21c0.08,0,0.16-0.03,0.22-0.09l0.75-0.75c0.02-0.02,0.1-0.1,0.1-0.22V20.6
					c0-0.17-0.14-0.32-0.32-0.32c-0.18,0-0.31,0.14-0.31,0.32v2.4c-0.17,0.17-0.58,0.58-0.66,0.66c-0.06,0.06-0.1,0.14-0.1,0.22
					c0,0.08,0.04,0.17,0.1,0.22C54.9,24.17,54.98,24.21,55.06,24.21z"/>
				<path class="st0" d="M58.05,23.36c0.06,0.06,0.14,0.1,0.22,0.1h1.12c0.18,0,0.31-0.14,0.31-0.31c0-0.18-0.14-0.32-0.31-0.32
					h-0.98c-0.16-0.15-0.58-0.58-0.81-0.81l0.35-0.35c0.01,0.16,0.16,0.3,0.31,0.3h1.12c0.17,0,0.31-0.14,0.31-0.32v-1.12
					c0-0.09-0.03-0.15-0.05-0.19l-0.41-0.41c-0.06-0.06-0.14-0.1-0.22-0.1c-0.13,0-0.2,0.07-0.22,0.1l-1.88,1.88l-0.02,0.03
					c-0.03,0.05-0.05,0.12-0.05,0.18c0,0.09,0.03,0.15,0.05,0.19L58.05,23.36z M59.03,20.59c0.02,0.02,0.04,0.04,0.05,0.05v0.69
					h-0.79L59.03,20.59z"/>
				<path class="st0" d="M61.41,23.36c0.06,0.06,0.14,0.1,0.22,0.1h1.12c0.18,0,0.32-0.14,0.32-0.31c0-0.18-0.14-0.32-0.32-0.32
					h-0.98c-0.16-0.15-0.58-0.58-0.81-0.81l1.42-1.42c0.06,0.06,0.12,0.12,0.14,0.14l0.01,0.01c0.12,0.12,0.33,0.12,0.46,0L63,20.73
					c0.1-0.12,0.1-0.29-0.01-0.42l-0.39-0.38c-0.06-0.06-0.14-0.1-0.22-0.1c-0.09,0-0.16,0.03-0.22,0.1l-1.88,1.87l-0.01,0.01
					c-0.1,0.12-0.1,0.29,0.01,0.42L61.41,23.36z"/>
				<path class="st0" d="M63.88,20.46h0.05v2.67c0,0.18,0.14,0.31,0.32,0.31h0.37c0.18,0,0.32-0.14,0.32-0.31
					c0-0.18-0.14-0.32-0.32-0.32h-0.06v-2.36h0.43c0.18,0,0.31-0.14,0.31-0.31c0-0.18-0.14-0.32-0.31-0.32h-0.43V19.4
					c0-0.18-0.14-0.31-0.31-0.31c-0.18,0-0.32,0.14-0.32,0.31v0.44h-0.05c-0.18,0-0.31,0.14-0.31,0.32
					C63.56,20.33,63.7,20.46,63.88,20.46z"/>
				<polygon class="st0" points="55.82,19.83 56.08,19.46 56.34,19.09 56.08,18.72 55.82,18.35 55.56,18.72 55.3,19.09 55.56,19.46 
									"/>
				<path class="st0" d="M70.77,13.29c0.33-0.35,0.66-0.69,1.04-1.08c-0.55,0.08-1.01,0.14-1.49,0.2c-0.22-0.4-0.44-0.78-0.65-1.16
					c-0.03,0.01-0.05,0.01-0.08,0.02c-0.1,0.44-0.2,0.88-0.29,1.32c-0.47,0.1-0.92,0.2-1.37,0.29c0,0.02,0,0.05,0,0.07
					c0.39,0.21,0.78,0.41,1.18,0.62c-0.06,0.46-0.12,0.9-0.18,1.34c0.02,0.01,0.05,0.02,0.07,0.03c0.28-0.25,0.55-0.5,0.83-0.75
					c0.04,0.04,0.07,0.05,0.08,0.07c0.04,0.08,0.07,0.17,0.1,0.26c0.7,2.26,0.73,4.52-0.03,6.76c-0.83,2.44-2.34,4.32-4.68,5.46
					c-1.97,0.97-4.06,1.17-6.2,0.74c-2.69-0.54-4.86-1.92-6.54-4.09l0.02-0.01l1.89-1.88c0.06-0.06,0.1-0.15,0.1-0.22
					c0-0.08-0.03-0.18-0.11-0.24l-1.11-1.11c-0.12-0.12-0.32-0.12-0.44,0l-1.87,1.87c-0.08,0.08-0.08,0.18-0.08,0.22
					c0,0.05,0,0.14,0.08,0.22l1.12,1.12c2.01,2.71,4.7,4.27,8.1,4.6c1.54,0.15,3.05-0.03,4.47-0.63c3.8-1.58,5.66-4.58,6.08-8.56
					c0.16-1.49-0.04-2.95-0.51-4.38c-0.02-0.07-0.02-0.14-0.03-0.27c0.37,0.16,0.7,0.3,1.11,0.48
					C71.15,14.11,70.97,13.71,70.77,13.29z M53.13,20.59c0.07,0.07,0.15,0.15,0.24,0.24c0.15,0.15,0.32,0.32,0.44,0.43
					c-0.38,0.38-1.11,1.11-1.43,1.43c-0.18-0.18-0.49-0.49-0.67-0.68L53.13,20.59z"/>
			</g>
			<g>
				<g>
					<path class="st0" d="M0,4.04C0.23,3.6,0.57,3.26,0.91,2.92C2.3,1.54,3.95,0.6,5.88,0.22c3.5-0.69,6.56,0.21,9.14,2.68
						c0.28,0.27,0.53,0.58,0.79,0.88c0.07,0.08,0.12,0.17,0.18,0.26c0,0.07,0,0.15,0,0.22c-0.02,0.03-0.05,0.06-0.07,0.1
						c-0.19,0.42-0.66,0.5-0.98,0.16c-0.32-0.35-0.62-0.71-0.97-1.03c-1.34-1.24-2.92-1.99-4.73-2.25C7.34,0.95,5.53,1.27,3.82,2.16
						c-1.04,0.55-1.93,1.29-2.68,2.2C1.09,4.42,1.04,4.47,1,4.53C0.69,4.86,0.2,4.76,0.03,4.34C0.02,4.31,0.01,4.29,0,4.26
						C0,4.18,0,4.11,0,4.04z"/>
					<path class="st0" d="M8.35,3.1c1.75,0.04,3.5,0.87,4.85,2.51c0.22,0.27,0.19,0.61-0.05,0.82c-0.25,0.21-0.59,0.17-0.81-0.1
						c-0.59-0.73-1.31-1.28-2.17-1.66C7.96,3.71,5.29,4.34,3.74,6.19C3.7,6.25,3.66,6.3,3.61,6.35C3.38,6.6,3.05,6.63,2.81,6.43
						C2.57,6.22,2.54,5.88,2.75,5.62c0.41-0.51,0.88-0.96,1.42-1.33C5.3,3.5,6.61,3.1,8.35,3.1z"/>
					<path class="st0" d="M8.05,6.2c1.05,0.06,1.88,0.45,2.53,1.22c0.24,0.28,0.23,0.62-0.01,0.84c-0.25,0.23-0.59,0.2-0.84-0.09
						c-0.37-0.44-0.83-0.72-1.4-0.8C7.55,7.25,6.89,7.48,6.34,8.05C6.28,8.1,6.23,8.17,6.17,8.23C5.95,8.45,5.62,8.46,5.4,8.26
						c-0.23-0.2-0.26-0.54-0.06-0.79c0.32-0.4,0.72-0.72,1.19-0.94C7.02,6.29,7.55,6.19,8.05,6.2z"/>
				</g>
				<g>
					<g>
						<path class="st0" d="M11.7,14.23c0-0.55,0-1.04,0-1.28c0-2.04-1.66-3.7-3.7-3.7s-3.7,1.66-3.7,3.7c0,0.24,0,0.73,0,1.28
							c1.11-0.58,2.37-0.91,3.7-0.91C9.33,13.31,10.59,13.64,11.7,14.23z"/>
						<path class="st0" d="M4.29,14.99c0,0.58,0,1.12,0,1.37c0,2.04,1.66,3.7,3.7,3.7s3.7-1.66,3.7-3.7c0-0.25,0-0.79,0-1.37
							c-1.09-0.64-2.35-1.01-3.7-1.01S5.38,14.35,4.29,14.99z"/>
					</g>
					<path class="st0" d="M8,22.23c-3.2,0-5.8-2.6-5.8-5.8v-0.66c0-0.28,0.22-0.5,0.5-0.5s0.5,0.22,0.5,0.5v0.66
						c0,2.65,2.15,4.8,4.8,4.8s4.8-2.15,4.8-4.8v-0.66c0-0.28,0.22-0.5,0.5-0.5s0.5,0.22,0.5,0.5v0.66
						C13.79,19.63,11.19,22.23,8,22.23z"/>
					<path class="st0" d="M8.05,26.85c-0.28,0-0.5-0.22-0.5-0.5v-4.44c0-0.28,0.22-0.5,0.5-0.5c0.28,0,0.5,0.22,0.5,0.5v4.44
						C8.55,26.63,8.33,26.85,8.05,26.85z"/>
					<path class="st0" d="M10.27,26.85H5.83c-0.28,0-0.5-0.22-0.5-0.5s0.22-0.5,0.5-0.5h4.44c0.28,0,0.5,0.22,0.5,0.5
						S10.55,26.85,10.27,26.85z"/>
				</g>
			</g>
		</g>
	</g>
</g>
<g id="OV">
</g>
</svg>
