<?xml version="1.0" encoding="utf-8"?>
<!-- Generator: Adobe Illustrator 26.0.2, SVG Export Plug-In . SVG Version: 6.00 Build 0)  -->
<svg version="1.1" xmlns="http://www.w3.org/2000/svg" xmlns:xlink="http://www.w3.org/1999/xlink" x="0px" y="0px"
	 viewBox="0 0 50 50" style="enable-background:new 0 0 50 50;" xml:space="preserve">
<style type="text/css">
	.st0{fill:#FFFFFF;}
	.st1{fill:none;stroke:#FFFFFF;stroke-miterlimit:10;}
	.st2{fill:#222222;}
	.st3{fill:#6275B0;}
	.st4{fill:none;stroke:#5A79BA;stroke-miterlimit:10;}
	.st5{fill:#FFFBB9;}
	.st6{fill:#F7D4D9;}
	.st7{fill:#C1E7FF;}
	.st8{fill:#5A79BA;}
	.st9{fill:#EFA5AF;}
	.st10{fill:#FFFFFF;stroke:#5A79BA;stroke-width:2;stroke-miterlimit:10;}
	.st11{fill:none;stroke:#C3E5FF;stroke-width:2;stroke-linecap:round;stroke-linejoin:round;stroke-miterlimit:10;}
	.st12{fill:none;stroke:#EFA5AF;stroke-width:1.5;stroke-linecap:round;stroke-linejoin:round;stroke-miterlimit:10;}
	.st13{fill:none;stroke:#C3E5FF;stroke-width:1.5;stroke-linecap:round;stroke-linejoin:round;stroke-miterlimit:10;}
	.st14{fill:none;stroke:#5A79BA;stroke-width:2;stroke-linecap:round;stroke-linejoin:round;stroke-miterlimit:10;}
	.st15{fill:none;stroke:#EFA5AF;stroke-width:1.5;stroke-linejoin:round;stroke-miterlimit:10;}
	.st16{fill:none;stroke:#C3E5FF;stroke-width:1.5;stroke-miterlimit:10;}
	.st17{fill:#C3E5FF;}
	.st18{fill:#FFFFFF;stroke:#5A79BA;stroke-miterlimit:10;}
	.st19{fill:#FFFFFF;stroke:#EFA5AF;stroke-miterlimit:10;}
	.st20{fill:url(#SVGID_1_);}
	.st21{fill:url(#SVGID_00000080899491645538342040000011930658210126313374_);}
	.st22{fill:url(#SVGID_00000095331346701659554570000011001160941742496129_);}
	.st23{fill:url(#SVGID_00000173132497198155806770000005826757733786604464_);}
	.st24{fill:url(#SVGID_00000023984375847389693470000000201116867955134138_);}
	.st25{fill:url(#SVGID_00000123421383639329421050000002460809897056675251_);}
	.st26{fill:url(#SVGID_00000002378023064024013840000014176328358754250415_);}
	.st27{fill:url(#SVGID_00000137821484961258680860000000449760775885930112_);}
	.st28{fill:url(#SVGID_00000054959240378052877660000017334077768411383720_);}
	.st29{fill:url(#SVGID_00000076585679923447686530000013483160130129835407_);}
	.st30{fill:url(#SVGID_00000015318066674569769210000017551437183958271120_);}
	.st31{fill:url(#SVGID_00000041278961520003316120000017001182023606800263_);}
	.st32{fill:url(#SVGID_00000125589418638341118210000009445418667705409163_);}
	.st33{fill:url(#SVGID_00000142155591988114895340000011145803950886194563_);}
	.st34{fill:url(#SVGID_00000103943662740188257110000002414873999590366361_);}
	.st35{fill:url(#SVGID_00000140729254174023064760000014550550235420716684_);}
	.st36{fill:url(#SVGID_00000111151779193080912010000006143880138409801880_);}
	.st37{fill:url(#SVGID_00000000909584276168030800000009892050769186492602_);}
	.st38{fill:url(#SVGID_00000093173420672373164970000014376951328385177477_);}
	.st39{fill:url(#SVGID_00000101104346212195929960000005198346249260127121_);}
	.st40{fill:url(#SVGID_00000093858553381637776670000003623244725448728991_);}
	.st41{fill:url(#SVGID_00000067217555762336578380000012362317646128884381_);}
	.st42{fill:#255C84;}
	.st43{fill:#FFCB4A;stroke:#FFCB4A;stroke-miterlimit:10;}
	.st44{fill:none;stroke:#222222;stroke-width:2;stroke-miterlimit:10;}
	.st45{fill:none;stroke:#FFFFFF;stroke-width:2;stroke-miterlimit:10;}
</style>
<g id="BG">
</g>
<g id="GR">
	<g>
		<circle class="st9" cx="25" cy="25" r="25"/>
		<g id="IHJFyL_00000023257516716697034180000010104931598987840426_">
			<g>
				<path class="st0" d="M15.99,22.65c0.55,0.28,1.11,0.46,1.78,0.48c-1.01-0.73-1.58-1.67-1.73-2.85c-0.11-0.88,0.06-1.71,0.52-2.5
					c2.17,2.56,4.91,3.97,8.24,4.19c-0.01-0.4-0.05-0.79-0.04-1.17c0.05-1.64,1.31-3.21,2.9-3.62c1.49-0.38,2.8-0.04,3.92,1.01
					c0.06,0.05,0.17,0.08,0.24,0.07c0.78-0.16,1.52-0.44,2.21-0.82c0.05-0.03,0.1-0.05,0.19-0.09c-0.3,0.94-0.88,1.62-1.65,2.17
					c0.75-0.07,1.46-0.28,2.14-0.57c0.01,0.02,0.03,0.03,0.04,0.05c-0.32,0.38-0.63,0.77-0.97,1.13c-0.27,0.28-0.6,0.52-0.89,0.78
					c-0.06,0.06-0.12,0.16-0.12,0.25c0,4.14-1.63,7.46-5,9.89c-1.42,1.02-3.04,1.58-4.78,1.8c-1.64,0.21-3.26,0.11-4.85-0.35
					c-1-0.29-1.95-0.71-2.83-1.27c-0.02-0.01-0.04-0.03-0.08-0.07c2.17,0.19,4.11-0.33,5.87-1.65c-1.83-0.17-3.06-1.09-3.74-2.8
					c0.61,0.07,1.18,0.09,1.77-0.07C16.94,26.08,15.93,24.17,15.99,22.65z"/>
			</g>
		</g>
	</g>
</g>
<g id="OV">
</g>
</svg>
