<?xml version="1.0" encoding="utf-8"?>
<!-- Generator: Adobe Illustrator 26.0.2, SVG Export Plug-In . SVG Version: 6.00 Build 0)  -->
<svg version="1.1" xmlns="http://www.w3.org/2000/svg" xmlns:xlink="http://www.w3.org/1999/xlink" x="0px" y="0px"
	 viewBox="0 0 51 51" style="enable-background:new 0 0 51 51;" xml:space="preserve">
<style type="text/css">
	.st0{fill:#FFFFFF;}
	.st1{fill:none;stroke:#FFFFFF;stroke-miterlimit:10;}
	.st2{fill:#222222;}
	.st3{fill:#6275B0;}
	.st4{fill:none;stroke:#5A79BA;stroke-miterlimit:10;}
	.st5{fill:#FFFBB9;}
	.st6{fill:#F7D4D9;}
	.st7{fill:#C1E7FF;}
	.st8{fill:#5A79BA;}
	.st9{fill:#EFA5AF;}
	.st10{fill:#FFFFFF;stroke:#5A79BA;stroke-width:2;stroke-miterlimit:10;}
	.st11{fill:none;stroke:#C3E5FF;stroke-width:2;stroke-linecap:round;stroke-linejoin:round;stroke-miterlimit:10;}
	.st12{fill:none;stroke:#EFA5AF;stroke-width:1.5;stroke-linecap:round;stroke-linejoin:round;stroke-miterlimit:10;}
	.st13{fill:none;stroke:#C3E5FF;stroke-width:1.5;stroke-linecap:round;stroke-linejoin:round;stroke-miterlimit:10;}
	.st14{fill:none;stroke:#5A79BA;stroke-width:2;stroke-linecap:round;stroke-linejoin:round;stroke-miterlimit:10;}
	.st15{fill:none;stroke:#EFA5AF;stroke-width:1.5;stroke-linejoin:round;stroke-miterlimit:10;}
	.st16{fill:none;stroke:#C3E5FF;stroke-width:1.5;stroke-miterlimit:10;}
	.st17{fill:#C3E5FF;}
	.st18{fill:#FFFFFF;stroke:#5A79BA;stroke-miterlimit:10;}
	.st19{fill:#FFFFFF;stroke:#EFA5AF;stroke-miterlimit:10;}
	.st20{fill:url(#SVGID_1_);}
	.st21{fill:url(#SVGID_00000002373822416644373110000016253610073546711725_);}
	.st22{fill:url(#SVGID_00000115472886142365505230000001510202033229391764_);}
	.st23{fill:url(#SVGID_00000111182568486199074890000005108127520139431327_);}
	.st24{fill:url(#SVGID_00000013904433042367362320000010956730629091918248_);}
	.st25{fill:url(#SVGID_00000060741152815042923940000016686255303663654292_);}
	.st26{fill:url(#SVGID_00000109733961271572788580000001820076608187046050_);}
	.st27{fill:url(#SVGID_00000160905347941790552730000000983407765670003899_);}
	.st28{fill:url(#SVGID_00000160909235140217719200000006779257208660373394_);}
	.st29{fill:url(#SVGID_00000075153469441944941630000000508641295205040258_);}
	.st30{fill:url(#SVGID_00000129172382006845047960000014086827490035269548_);}
	.st31{fill:url(#SVGID_00000147925920511974856220000016930344733147310014_);}
	.st32{fill:url(#SVGID_00000111152620100623660800000001357991396082205063_);}
	.st33{fill:url(#SVGID_00000003086967333758270840000003131553746215330730_);}
	.st34{fill:url(#SVGID_00000034060118422133310930000016406550152618764472_);}
	.st35{fill:url(#SVGID_00000159460312649845619200000013520193830561558945_);}
	.st36{fill:url(#SVGID_00000052788367823107845010000008703557556896467846_);}
	.st37{fill:url(#SVGID_00000167370636636071915570000003593215977106966165_);}
	.st38{fill:url(#SVGID_00000095297525277642854550000000420008053342148527_);}
	.st39{fill:url(#SVGID_00000083062235713460817540000000146261497061979019_);}
	.st40{fill:url(#SVGID_00000045580810158440541560000009587358742244513938_);}
	.st41{fill:url(#SVGID_00000005268986600050526140000004305783840592794761_);}
	.st42{fill:#255C84;}
	.st43{fill:#FFCB4A;stroke:#FFCB4A;stroke-miterlimit:10;}
	.st44{fill:none;stroke:#222222;stroke-width:2;stroke-miterlimit:10;}
	.st45{fill:none;stroke:#FFFFFF;stroke-width:2;stroke-miterlimit:10;}
</style>
<g id="BG">
</g>
<g id="GR">
	<g>
		<circle class="st19" cx="25.5" cy="25.5" r="25"/>
		<g id="pQKerT_00000109017904536143464370000017508564323607055237_">
			<g>
				<path class="st9" d="M25.46,18.28c2.11,0.08,4.23,0.16,6.34,0.25c0.5,0.02,1,0.09,1.49,0.18c1.19,0.22,1.95,1.02,2.17,2.26
					c0.31,1.72,0.37,3.47,0.32,5.21c-0.04,1.22-0.16,2.44-0.28,3.65c-0.09,0.9-0.45,1.66-1.24,2.17c-0.48,0.31-1.02,0.4-1.57,0.45
					c-2.13,0.22-4.27,0.27-6.4,0.26c-2.14-0.01-4.29-0.08-6.43-0.14c-0.7-0.02-1.4-0.11-2.09-0.21c-1.17-0.17-2-0.97-2.2-2.18
					c-0.15-0.92-0.24-1.86-0.31-2.79c-0.11-1.51-0.08-3.02,0.05-4.52c0.06-0.7,0.14-1.41,0.28-2.1c0.26-1.23,1.12-1.98,2.37-2.13
					c2-0.25,4.02-0.27,6.03-0.31c0.49-0.01,0.97,0,1.46,0C25.46,18.32,25.46,18.3,25.46,18.28z M23.46,28.62
					c1.8-1.03,3.56-2.05,5.35-3.08c-1.8-1.04-3.57-2.05-5.35-3.08C23.46,24.52,23.46,26.55,23.46,28.62z"/>
				<path class="st9" d="M23.46,28.62c0-2.07,0-4.1,0-6.17c1.78,1.03,3.55,2.04,5.35,3.08C27.02,26.56,25.25,27.58,23.46,28.62z"/>
				<path class="st0" d="M23.46,28.62c0-2.07,0-4.1,0-6.17c1.78,1.03,3.55,2.04,5.35,3.08C27.02,26.56,25.25,27.58,23.46,28.62z"/>
			</g>
		</g>
	</g>
</g>
<g id="OV">
</g>
</svg>
