<?xml version="1.0" encoding="utf-8"?>
<!-- Generator: Adobe Illustrator 26.0.2, SVG Export Plug-In . SVG Version: 6.00 Build 0)  -->
<svg version="1.1" xmlns="http://www.w3.org/2000/svg" xmlns:xlink="http://www.w3.org/1999/xlink" x="0px" y="0px"
	 viewBox="0 0 719.92 240.03" style="enable-background:new 0 0 719.92 240.03;" xml:space="preserve">
<style type="text/css">
	.st0{fill:#FFFFFF;}
	.st1{fill:none;stroke:#FFFFFF;stroke-miterlimit:10;}
	.st2{fill:#222222;}
	.st3{fill:#6275B0;}
	.st4{fill:none;stroke:#5A79BA;stroke-miterlimit:10;}
	.st5{fill:#FFFBB9;}
	.st6{fill:#F7D4D9;}
	.st7{fill:#C1E7FF;}
	.st8{fill:#5A79BA;}
	.st9{fill:#EFA5AF;}
	.st10{fill:#FFFFFF;stroke:#5A79BA;stroke-width:2;stroke-miterlimit:10;}
	.st11{fill:none;stroke:#C3E5FF;stroke-width:2;stroke-linecap:round;stroke-linejoin:round;stroke-miterlimit:10;}
	.st12{fill:none;stroke:#EFA5AF;stroke-width:1.5;stroke-linecap:round;stroke-linejoin:round;stroke-miterlimit:10;}
	.st13{fill:none;stroke:#C3E5FF;stroke-width:1.5;stroke-linecap:round;stroke-linejoin:round;stroke-miterlimit:10;}
	.st14{fill:none;stroke:#5A79BA;stroke-width:2;stroke-linecap:round;stroke-linejoin:round;stroke-miterlimit:10;}
	.st15{fill:none;stroke:#EFA5AF;stroke-width:1.5;stroke-linejoin:round;stroke-miterlimit:10;}
	.st16{fill:none;stroke:#C3E5FF;stroke-width:1.5;stroke-miterlimit:10;}
	.st17{fill:#C3E5FF;}
	.st18{fill:#FFFFFF;stroke:#5A79BA;stroke-miterlimit:10;}
	.st19{fill:#FFFFFF;stroke:#EFA5AF;stroke-miterlimit:10;}
	.st20{fill:url(#SVGID_1_);}
	.st21{fill:url(#SVGID_00000072961340240628919030000000600870205570295210_);}
	.st22{fill:url(#SVGID_00000178185022626638864160000007224032651184755865_);}
	.st23{fill:url(#SVGID_00000171697295083210192040000008163436715801315235_);}
	.st24{fill:url(#SVGID_00000138571428302088118740000018063566908065131951_);}
	.st25{fill:url(#SVGID_00000081624180120464091490000005677793578011879808_);}
	.st26{fill:url(#SVGID_00000047763192063364511680000006034627026935804298_);}
	.st27{fill:url(#SVGID_00000087410876913999729090000017478498976109117336_);}
	.st28{fill:url(#SVGID_00000178179814902840943340000002869778759872509072_);}
	.st29{fill:url(#SVGID_00000147936119699401169160000006283071609789130389_);}
	.st30{fill:url(#SVGID_00000048477185567518879390000015688332692531864465_);}
	.st31{fill:url(#SVGID_00000115514100343876400560000015507253404967042741_);}
	.st32{fill:url(#SVGID_00000173880703984580807650000008931281705383655065_);}
	.st33{fill:url(#SVGID_00000129893832510076400060000018074854194002129339_);}
	.st34{fill:url(#SVGID_00000017507737842836757830000007418708845861472662_);}
	.st35{fill:url(#SVGID_00000017506813017334205420000008496790580712529046_);}
	.st36{fill:url(#SVGID_00000132787783322529328620000004184262732859285632_);}
	.st37{fill:url(#SVGID_00000178899543085868847810000013187048898795861900_);}
	.st38{fill:url(#SVGID_00000158016997226027598720000009854450550587804553_);}
	.st39{fill:url(#SVGID_00000172433184719655881080000013079820892255264400_);}
	.st40{fill:url(#SVGID_00000091715320438725250240000014473020066208408490_);}
	.st41{fill:url(#SVGID_00000173153904526499270390000005038761647884831386_);}
	.st42{fill:#255C84;}
	.st43{fill:#FFCB4A;stroke:#FFCB4A;stroke-miterlimit:10;}
	.st44{fill:none;stroke:#222222;stroke-width:2;stroke-miterlimit:10;}
	.st45{fill:none;stroke:#FFFFFF;stroke-width:2;stroke-miterlimit:10;}
</style>
<g id="BG">
</g>
<g id="GR">
	<g>
		<g>
			<g>
				
					<rect x="362.55" y="35.49" transform="matrix(0.7071 -0.7071 0.7071 0.7071 66.3871 273.6793)" class="st2" width="2" height="42.43"/>
			</g>
			<g>
				
					<rect x="342.34" y="55.7" transform="matrix(0.7071 -0.7071 0.7071 0.7071 66.3871 273.6793)" class="st2" width="42.43" height="2"/>
			</g>
		</g>
		<g>
			<g>
				<g>
					<path class="st2" d="M397.62,186.54v6.17h-44.73v12.52c0,9.99-0.86,24.74-6.42,34.12c-1.36-1.11-4.44-2.96-6.17-3.58
						c5.12-8.76,5.55-21.47,5.55-30.54v-18.69h22.76c-0.31-1.17-0.68-2.34-1.05-3.33l7.65-1.54c0.62,1.48,1.23,3.27,1.73,4.87
						H397.62z M383.49,229.54c5.18,1.85,10.55,3.89,13.94,5.37l-3.33,5.12c-3.89-1.79-10.24-4.57-16.1-6.72l2.34-3.76H368.5
						l4.32,3.76c-5.37,2.28-12.52,5.06-17.52,6.72c-0.93-1.36-2.53-3.58-3.82-5c4.2-1.36,10.06-3.58,14.19-5.49h-9.62v-17.71h38
						v17.71H383.49z M354,206.28h43.49v4.13H354V206.28z M368.87,193.33v2.34h11.72v-2.34h7.34v2.34h7.65v4.07h-7.65v5.18H361.9
						v-5.18h-7.09v-4.07h7.09v-2.34H368.87z M362.64,218.68h9.01v-2.65h-9.01V218.68z M362.64,225.34h9.01v-2.71h-9.01V225.34z
						 M368.87,199.74v2.1h11.72v-2.1H368.87z M387.07,216.03h-8.58v2.65h8.58V216.03z M387.07,222.63h-8.58v2.71h8.58V222.63z"/>
				</g>
				<g>
					<path class="st2" d="M460.29,203.87v6.79h-54.35v-6.79h24.8v-7.09h-13.45c-1.6,2.71-3.33,5.06-5.06,6.97
						c-1.54-1.17-4.87-3.08-6.72-3.89c4.44-4.2,8.33-10.98,10.49-17.64l7.34,1.85c-0.68,2.04-1.48,4.01-2.41,5.98h9.81v-8.02h7.77
						v8.02h18.01v6.72h-18.01v7.09H460.29z M413.04,215.04h41.33v24.74h-7.9v-2.84h-25.91v3.02h-7.53V215.04z M420.56,221.83v8.33
						h25.91v-8.33H420.56z"/>
				</g>
				<g>
					<path class="st2" d="M485.95,214.86c-0.37,2.16-0.92,4.38-1.67,6.66c2.78,2.04,6.11,4.75,7.83,6.6l-3.82,5.18
						c-1.42-1.73-4.07-4.01-6.54-6.11c-2.16,3.64-5.37,7.03-9.99,9.62c-0.86-1.67-2.9-4.38-4.38-5.68
						c8.27-3.95,10.43-11.17,11.54-16.29H485.95z M517.54,213.44c-0.37,2.28-0.86,4.69-1.54,7.09c2.04,3.45,5.74,7.96,9.69,10.43
						c-1.48,1.17-3.76,3.64-4.81,5.24c-2.84-2.16-5.55-5.61-7.65-8.82c-2.04,3.64-4.94,6.97-9.25,9.62c-0.74-1.54-2.28-3.58-3.7-5
						v7.9h-7.28v-27.58c-6.48,0.43-12.83,0.68-18.45,0.8c-1.05-1.79-2.9-5.24-4.26-6.79c16.04,0.25,36.09-0.86,47.56-2.78l5.43,5.43
						c-6.42,1.23-14.56,2.16-23.01,2.84v18.82c7.34-4.44,9.19-11.84,10.12-17.21H517.54z M521.49,201.78H471.7v-17.71h49.79V201.78z
						 M485.95,190.49h-7.28v4.87h7.28V190.49z M499.96,190.49h-7.34v4.87h7.34V190.49z M514.14,190.49h-7.53v4.87h7.53V190.49z"/>
				</g>
				<g>
					<path class="st2" d="M588.54,184.94v4.5H578.3c1.11,1.36,2.41,3.15,2.96,4.32l-6.23,1.79c-0.55-1.36-1.85-3.33-3.02-4.75
						l4.87-1.36h-8.64c-1.42,1.6-3.02,3.08-4.5,4.2v2.1h21.96v3.52h-21.96v1.67h17.58V204h-42.07v-3.08h17.4v-1.67h-21.78v-3.52
						h21.78v-2.59h4.94c-1.48-0.92-3.52-1.97-4.87-2.59c0.62-0.37,1.17-0.74,1.73-1.11h-7.9c1.05,1.42,2.28,3.15,2.78,4.38
						l-6.23,1.85c-0.49-1.29-1.6-3.33-2.65-4.75l5.12-1.48h-6.85c-1.85,2.22-3.82,4.2-5.68,5.68c-1.42-1.17-4.32-3.02-5.92-3.95
						c3.58-2.41,6.97-5.98,8.76-9.56l6.85,1.91c-0.25,0.49-0.49,0.92-0.8,1.42h13.51v3.76c2.65-1.97,4.87-4.63,6.29-7.22l6.97,1.79
						c-0.31,0.55-0.62,1.11-0.99,1.67H588.54z M532.15,220.28h56.14v3.7h-7.03v2.47h6.05v3.95h-6.05v3.58c0,2.9-0.62,4.01-2.65,4.81
						c-2.04,0.86-4.63,0.86-8.02,0.86c-0.43-1.3-1.23-2.84-2.04-4.13l-4.13,2.59c-0.93-1.54-2.96-3.83-4.87-5.43l3.83-2.28h-5.55
						v-3.95h16.35v-2.47h-42.01V220.28z M583.11,205.54l5.18,1.05c-0.68,2.78-1.6,5.98-2.34,8.21l-6.17-1.42
						c0.25-1.11,0.55-2.59,0.8-4.13h-47.87v-3.52H582L583.11,205.54z M536.04,225.53h20.3v11.84h-6.17v-1.23h-8.27v1.67h-5.86
						V225.53z M556.33,215.53v-1.67H541.9v-2.96h35.9v2.96h-14.62v1.67h17.95v3.08h-43v-3.08H556.33z M541.9,229.35v2.9h8.27v-2.9
						H541.9z M574.16,230.4h-9.19c1.54,1.3,3.15,2.9,4.13,4.2c1.79,0.06,3.52,0.06,4.07,0c0.74,0,0.99-0.19,0.99-0.86V230.4z"/>
				</g>
				<g>
					<path class="st2" d="M629.25,184.81c-0.43,0.56-0.86,1.17-1.29,1.73c8.08,8.51,16.66,12.71,25.42,15.79
						c-1.79,1.54-3.76,4.13-4.63,6.35c-8.51-3.7-16.66-8.21-25.05-17.15c-6.85,7.28-15.61,13.08-24.55,17.15
						c-1.05-1.91-3.15-4.57-5-6.23c11.04-4.32,22.33-11.66,28.5-20.91L629.25,184.81z M627.95,231.45h22.08v6.6H597.6v-6.6h6.66
						v-21.53h7.28v21.53h8.64V199.8h7.77v12.71h16.47v6.6h-16.47V231.45z"/>
				</g>
				<g>
					<path class="st2" d="M690.44,191.35h3.27v4.44h-3.27v6.17h-11.35v1.85h12.03v4.01h-12.03v1.85h14.31v4.63h-34.36v-4.63h13.51
						v-1.85h-10.86v-4.01h10.86v-1.85h-10.73v-3.95h10.73v-2.22h-13.88v-4.44h13.88v-1.97H662v-3.95h10.55v-3.33h6.54v3.33h11.35
						V191.35z M658.67,232.62c8.76-0.25,22.27-0.68,34.92-1.23l-0.19,5.49c-12.34,0.56-25.48,1.11-34.24,1.42L658.67,232.62z
						 M690.75,216.09v14.13h-28.87v-14.13H690.75z M667.55,221.52h5.68v-2.04h-5.68V221.52z M667.55,226.76h5.68v-1.97h-5.68V226.76
						z M679.09,191.35h5.18v-1.97h-5.18V191.35z M684.27,195.79h-5.18v2.22h5.18V195.79z M684.77,219.48h-5.43v2.04h5.43V219.48z
						 M684.77,224.79h-5.43v1.97h5.43V224.79z M702.1,224.29h-6.66v-34.73h6.66V224.29z M714.01,183.33v47.87
						c0,3.89-0.8,5.86-3.02,6.97c-2.22,1.17-5.55,1.48-10.43,1.42c-0.25-1.97-1.23-5.12-2.22-7.22c3.27,0.12,6.29,0.12,7.34,0.12
						c0.99,0,1.36-0.31,1.36-1.3v-47.87H714.01z"/>
				</g>
			</g>
			<g>
				<g>
					<g>
						
							<rect x="32.83" y="216.17" transform="matrix(0.7071 -0.7071 0.7071 0.7071 -151.7579 90.8885)" class="st2" width="2" height="24.92"/>
					</g>
					<g>
						
							<rect x="21.37" y="227.63" transform="matrix(0.7071 -0.7071 0.7071 0.7071 -151.7579 90.8885)" class="st2" width="24.92" height="2"/>
					</g>
				</g>
				<g>
					<g>
						<path class="st2" d="M9.19,187.63h3.61l2.78,7.62c0.35,1.01,0.66,2.09,0.99,3.15h0.11c0.35-1.06,0.64-2.14,0.99-3.15
							l2.71-7.62h3.61v16.31h-2.97v-6.81c0-1.54,0.24-3.81,0.4-5.35h-0.09l-1.32,3.83l-2.51,6.85h-1.87l-2.53-6.85l-1.3-3.83H11.7
							c0.15,1.54,0.42,3.81,0.42,5.35v6.81H9.19V187.63z"/>
					</g>
					<g>
						<path class="st2" d="M27.98,187.85c0-1.06,0.82-1.76,1.94-1.76c1.1,0,1.92,0.71,1.92,1.76c0,1.01-0.82,1.76-1.92,1.76
							C28.8,189.61,27.98,188.86,27.98,187.85z M28.29,191.59h3.22v12.34h-3.22V191.59z"/>
					</g>
					<g>
						<path class="st2" d="M34.76,197.78c0-4.12,2.95-6.5,6.3-6.5c1.52,0,2.69,0.59,3.59,1.37l-1.54,2.09
							c-0.62-0.53-1.19-0.82-1.9-0.82c-1.87,0-3.15,1.52-3.15,3.86c0,2.31,1.28,3.81,3.06,3.81c0.88,0,1.72-0.42,2.4-0.99l1.28,2.14
							c-1.17,1.04-2.67,1.5-4.03,1.5C37.36,204.24,34.76,201.86,34.76,197.78z"/>
					</g>
					<g>
						<path class="st2" d="M52.7,195.71c0-5.31,2.97-8.39,7.29-8.39c4.32,0,7.29,3.11,7.29,8.39s-2.97,8.53-7.29,8.53
							C55.67,204.24,52.7,201,52.7,195.71z M63.96,195.71c0-3.5-1.54-5.6-3.97-5.6s-3.97,2.09-3.97,5.6c0,3.48,1.54,5.71,3.97,5.71
							S63.96,199.19,63.96,195.71z"/>
					</g>
					<g>
						<path class="st2" d="M70.76,191.59h2.64l0.22,1.63h0.09c1.08-1.06,2.34-1.94,4.01-1.94c2.67,0,3.81,1.85,3.81,4.96v7.69H78.3
							v-7.29c0-1.9-0.53-2.58-1.74-2.58c-1.01,0-1.65,0.48-2.58,1.39v8.48h-3.22V191.59z"/>
					</g>
					<g>
						<path class="st2" d="M91.25,187.63h5.35c3.61,0,6.39,1.26,6.39,5.11c0,3.72-2.8,5.4-6.3,5.4h-2.18v5.79h-3.26V187.63z
							 M96.47,195.56c2.25,0,3.33-0.95,3.33-2.82c0-1.89-1.19-2.53-3.44-2.53h-1.85v5.35H96.47z"/>
					</g>
					<g>
						<path class="st2" d="M106.23,191.59h2.64l0.22,2.18h0.09c0.9-1.61,2.23-2.49,3.5-2.49c0.68,0,1.08,0.11,1.45,0.26l-0.57,2.8
							c-0.42-0.13-0.77-0.2-1.28-0.2c-0.97,0-2.14,0.64-2.84,2.42v7.36h-3.22V191.59z"/>
					</g>
					<g>
						<path class="st2" d="M115.35,197.78c0-4.12,2.84-6.5,5.93-6.5c3.08,0,5.93,2.38,5.93,6.5c0,4.08-2.84,6.46-5.93,6.46
							C118.19,204.24,115.35,201.86,115.35,197.78z M123.9,197.78c0-2.34-0.95-3.86-2.62-3.86c-1.67,0-2.62,1.52-2.62,3.86
							c0,2.31,0.95,3.81,2.62,3.81C122.95,201.6,123.9,200.1,123.9,197.78z"/>
					</g>
					<g>
						<path class="st2" d="M127.53,208.65l0.57-2.4c0.33,0.11,0.66,0.18,1.01,0.18c1.06,0,1.37-0.71,1.37-2.09v-12.74h3.24v12.65
							c0,2.64-1.01,4.74-4.12,4.74C128.66,208.98,128.02,208.82,127.53,208.65z M130.18,187.85c0-1.06,0.82-1.76,1.94-1.76
							c1.1,0,1.94,0.71,1.94,1.76c0,1.01-0.84,1.76-1.94,1.76C130.99,189.61,130.18,188.86,130.18,187.85z"/>
					</g>
					<g>
						<path class="st2" d="M136.96,197.78c0-4.01,2.8-6.5,5.75-6.5c3.39,0,5.16,2.49,5.16,5.91c0,0.59-0.07,1.19-0.15,1.48h-7.6
							c0.26,2.03,1.59,3.08,3.42,3.08c1.01,0,1.9-0.31,2.78-0.86l1.1,1.98c-1.21,0.84-2.78,1.37-4.32,1.37
							C139.65,204.24,136.96,201.84,136.96,197.78z M145.09,196.53c0-1.67-0.75-2.73-2.34-2.73c-1.3,0-2.45,0.93-2.69,2.73H145.09z"
							/>
					</g>
					<g>
						<path class="st2" d="M150.31,197.78c0-4.12,2.95-6.5,6.3-6.5c1.52,0,2.69,0.59,3.59,1.37l-1.54,2.09
							c-0.62-0.53-1.19-0.82-1.9-0.82c-1.87,0-3.15,1.52-3.15,3.86c0,2.31,1.28,3.81,3.06,3.81c0.88,0,1.72-0.42,2.4-0.99l1.28,2.14
							c-1.17,1.04-2.67,1.5-4.03,1.5C152.91,204.24,150.31,201.86,150.31,197.78z"/>
					</g>
					<g>
						<path class="st2" d="M163.44,199.61v-5.46h-1.74v-2.4l1.89-0.15l0.38-3.31h2.71v3.31h3.04v2.56h-3.04v5.46
							c0,1.41,0.57,2.07,1.67,2.07c0.4,0,0.88-0.13,1.21-0.26l0.53,2.36c-0.66,0.22-1.52,0.46-2.6,0.46
							C164.57,204.24,163.44,202.39,163.44,199.61z"/>
					</g>
				</g>
				<g>
					<g>
						<path class="st2" d="M67.31,229.14v-3.13c-1.39,1.43-3.13,2.69-4.98,3.64h13.37v8.81h-2.75v-0.66h-8.31v0.68h-2.62v-8.68
							c-0.68,0.33-1.34,0.62-2.05,0.84c-0.4-0.62-1.21-1.67-1.78-2.22c2.36-0.64,4.74-1.81,6.52-3.17h-5.84v-2.34h8.44v-1.54
							c-2.01,0.18-4.01,0.29-5.95,0.33c-0.07-0.64-0.37-1.63-0.64-2.23c4.83-0.18,10.31-0.71,13.62-1.52l1.85,2.09
							c-1.83,0.46-3.94,0.79-6.15,1.06v1.81h8.48v2.34h-5.29c2.18,1.21,4.41,2.6,5.71,3.66l-1.56,2c-1.56-1.41-4.65-3.42-7.34-4.89
							v3.13H67.31z M64.65,231.63v1.19h8.31v-1.19H64.65z M72.95,235.82v-1.21h-8.31v1.21H72.95z"/>
					</g>
					<g>
						<path class="st2" d="M84.56,228.35c-0.77-0.68-2.4-1.65-3.59-2.29l1.48-1.87c1.17,0.55,2.82,1.41,3.66,2.07L84.56,228.35z
							 M92.05,233.79v1.32c0,0.84,0.2,0.95,1.48,0.95h3.97c1.01,0,1.19-0.31,1.32-2.25c0.51,0.35,1.45,0.71,2.07,0.84
							c-0.29,2.75-0.97,3.53-3.19,3.53h-4.38c-2.71,0-3.5-0.64-3.5-3.04v-4.3c-0.64,0.73-1.3,1.39-2.01,1.92
							c-0.29-0.42-0.79-1.01-1.23-1.45c-0.84,2.18-1.83,4.56-2.78,6.59l-2.31-1.52c0.9-1.63,2.14-4.3,3.11-6.74l1.54,1.1
							c1.41-0.95,2.82-2.58,3.7-4.23h-3.35v-2.36h3.57v-1.65h-2.73v-2.33h2.73v-2.2h2.53v2.2h3.04v-2.2h2.58v2.2h2.84v2.33H98.2
							v1.65h3.48v2.36h-3.42c0.88,1.52,2.25,2.95,3.66,3.79c-0.59,0.49-1.43,1.43-1.83,2.07c-0.73-0.51-1.41-1.19-2.05-1.96v3.39
							H92.05z M85.64,222.55c-0.75-0.68-2.29-1.7-3.46-2.38l1.56-1.83c1.1,0.59,2.73,1.54,3.5,2.18L85.64,222.55z M92.43,226.5
							c-0.26,0.64-0.57,1.26-0.93,1.87h5.13c-0.35-0.62-0.68-1.23-0.95-1.87H92.43z M96,230.22h-3.94v1.72H96V230.22z M92.58,224.14
							h3.04v-1.65h-3.04V224.14z"/>
					</g>
					<g>
						<path class="st2" d="M108.35,227.11c0,3.26-0.37,8.13-2.4,11.22c-0.44-0.42-1.5-1.19-2.09-1.43c1.85-2.84,2.03-6.92,2.03-9.8
							v-5.05h6.79v-4.12h2.62v1.32h7.23v1.92h-7.23v0.88h6.39l0.42-0.09l1.85,0.42c-0.33,1.34-0.79,2.87-1.23,3.81l-2.18-0.57
							c0.15-0.44,0.29-0.99,0.42-1.56h-5.93v1.08l5.13-0.4l0.11,1.7l-5.24,0.42c0.02,0.51,0.18,0.73,0.9,0.73h4.25
							c0.77,0,2.09-0.04,2.62-0.18c0.09,0.68,0.15,1.41,0.24,1.94c-0.53,0.15-1.7,0.18-2.67,0.18h-4.65c-2.36,0-3.08-0.73-3.17-2.49
							l-3.39,0.29l-0.13-1.74l3.53-0.26v-1.26h-4.21V227.11z M123.98,235.62v2.2h-16.24v-2.2h5.05v-1.12h-3.61v-4.19h1.98v2.29h1.63
							V230h2.2v5.62h1.43V230h2.25v2.6h1.52v-2.29h2.01v4.19h-3.53v1.12H123.98z"/>
					</g>
					<g>
						<path class="st2" d="M137.02,237.03c-0.31-0.42-0.84-1.01-1.37-1.56c-0.62,1.08-1.52,2.09-2.84,3
							c-0.31-0.46-0.97-1.1-1.45-1.43c1.98-1.21,2.82-2.8,3.17-4.23h-2.56v-2.03h2.8v-0.29v-1.54h-0.46
							c-0.29,0.68-0.62,1.3-0.97,1.83c-0.37-0.31-1.17-0.88-1.63-1.15l0.09-0.13l-1.08,0.42v5.86c0,1.17-0.18,1.79-0.81,2.18
							c-0.62,0.4-1.52,0.49-2.82,0.49c-0.07-0.62-0.35-1.63-0.64-2.31c0.73,0.02,1.41,0.02,1.65,0.02c0.24,0,0.33-0.09,0.33-0.38
							v-5.04l-1.56,0.57l-0.62-2.51c0.64-0.18,1.37-0.4,2.18-0.66v-3.64h-1.81v-2.42h1.81v-4.17h2.29v4.17h1.43v2.42h-1.43v2.87
							l1.43-0.49l0.29,1.5c0.4-0.97,0.73-2.07,0.93-3.17l1.96,0.42c-0.09,0.44-0.2,0.88-0.33,1.32h3.5v2h-1.67v1.59v0.24h1.87v2.03
							h-2.09c-0.04,0.22-0.09,0.46-0.15,0.71c0.71,0.57,1.54,1.34,1.92,1.83L137.02,237.03z M135.08,225.11
							c-2.09,0-2.56-0.77-2.56-2.75v-4.41h2.16v1.7h3.5v1.87h-3.5v0.84c0,0.64,0.07,0.86,0.48,0.86h1.98c0.4,0,1.04-0.04,1.39-0.13
							c0.02,0.55,0.09,1.37,0.18,1.87c-0.35,0.13-0.97,0.15-1.54,0.15H135.08z M147.33,236.1c-0.26,0.48-0.53,1.45-0.6,2.03h-2.07
							c-1.83,0-3.33-0.44-4.41-2.25c-0.31,1.01-0.77,1.85-1.37,2.62c-0.31-0.33-1.12-0.97-1.59-1.21c1.59-1.78,1.92-4.6,1.98-8.04
							l1.94,0.09c-0.04,1.39-0.15,2.64-0.33,3.83c0.26,0.77,0.57,1.37,0.95,1.81v-6.98h-3.02v-2.09h4.76c-1.04-0.9-2.8-2.12-4.12-3
							l1.48-1.39c0.42,0.24,0.88,0.53,1.34,0.81c0.44-0.53,0.86-1.17,1.26-1.81h-4.36v-2h5.69l0.37-0.13l1.48,0.99
							c-0.73,1.39-1.76,2.89-2.75,4.1c0.62,0.42,1.17,0.81,1.56,1.15l-1.23,1.28h1.08l0.31-0.07l1.23,0.29
							c-0.22,1.39-0.53,3-0.79,4.01l-1.5-0.37c0.09-0.46,0.18-1.1,0.29-1.76h-1.08v2.82h2.51v2.05h-2.51v3.17
							c0.31,0.04,0.66,0.07,0.99,0.07H147.33z"/>
					</g>
					<g>
						<path class="st2" d="M156.27,218.76c-0.59,1.59-1.34,3.22-2.18,4.76v14.94h-2.49V227.4c-0.44,0.55-0.88,1.08-1.3,1.56
							c-0.24-0.66-0.97-2.09-1.41-2.73c1.94-1.98,3.83-5.11,4.91-8.26L156.27,218.76z M169.32,236.06c0,1.15-0.22,1.74-1.04,2.09
							c-0.79,0.33-1.92,0.38-3.48,0.35c-0.09-0.64-0.42-1.54-0.73-2.16c0.99,0.07,2.09,0.04,2.38,0.04c0.33,0,0.44-0.09,0.44-0.35
							v-0.73l-1.28,0.44c-0.07-0.29-0.18-0.64-0.31-1.01c-2.31,0.35-4.67,0.68-6.5,0.93l-0.48-2.18c0.84-0.07,1.87-0.18,2.97-0.29
							v-2.38h-3.26v7.67h-2.45v-7.67h-0.55v-2.16h0.55v-0.84h2.45v0.84h3.26v-1.3h-4.67v-8.51h11.85v8.51h-4.89v1.3h5.73V236.06z
							 M159.05,222.2h2.25v-1.39h-2.25V222.2z M161.3,225.39v-1.39h-2.25v1.39H161.3z M165.94,220.81h-2.36v1.39h2.36V220.81z
							 M165.94,224.01h-2.36v1.39h2.36V224.01z M165.57,231.28c0.46,1.04,0.99,2.33,1.32,3.3v-3.77h-3.31v2.14l1.06-0.11
							c-0.15-0.42-0.31-0.82-0.46-1.15L165.57,231.28z"/>
					</g>
					<g>
						<path class="st2" d="M191.59,229.45c-0.68,0.38-1.41,0.77-2.12,1.12c0.62,1.96,1.74,3.79,3.22,4.74
							c-0.53,0.44-1.28,1.32-1.63,1.94c-1.61-1.26-2.75-3.42-3.44-5.84l-0.57,0.24c0.73,2.4,0.37,4.83-0.57,5.77
							c-0.64,0.73-1.3,0.97-2.23,0.97c-0.42,0.02-0.9,0-1.39-0.02c-0.04-0.62-0.22-1.59-0.62-2.23c0.59,0.07,1.08,0.09,1.48,0.09
							c0.42,0,0.73-0.07,0.97-0.48c0.29-0.33,0.46-1.08,0.42-2.03c-1.83,1.52-4.23,2.89-6.37,3.64c-0.35-0.53-0.99-1.39-1.48-1.83
							c2.71-0.75,5.79-2.33,7.43-3.92c-0.09-0.24-0.18-0.46-0.29-0.71c-1.61,1.28-3.81,2.47-5.62,3.13
							c-0.33-0.51-0.93-1.23-1.37-1.63c2.07-0.57,4.65-1.72,6.08-2.89c-0.2-0.22-0.4-0.42-0.59-0.62c-1.34,0.9-2.89,1.72-4.23,2.18
							c-0.29-0.46-0.9-1.23-1.37-1.61c1.39-0.4,3-1.06,4.32-1.81h-2.69v-3.13c-0.22,0.2-0.46,0.4-0.68,0.57
							c-0.33-0.53-1.01-1.34-1.52-1.72l-0.02,0.04v15.01h-2.51v-11.02c-0.42,0.55-0.84,1.08-1.26,1.52
							c-0.24-0.64-0.97-2.07-1.41-2.71c1.9-2,3.72-5.13,4.76-8.24l2.47,0.77c-0.53,1.52-1.21,3.06-1.98,4.54
							c2.2-1.59,3.79-3.64,4.65-5.38l2.42,0.46c-0.2,0.35-0.4,0.73-0.62,1.08h3.39l0.46-0.13l1.45,1.1
							c-0.44,0.71-0.99,1.43-1.54,2.12h4.05v5.11h-6.52l-0.07,0.04c0.77,0.66,1.37,1.41,1.83,2.22c1.23-0.64,2.6-1.45,3.5-2.14
							L191.59,229.45z M181.96,221.38c-0.31,0.4-0.64,0.79-0.97,1.17h3.28c0.33-0.35,0.62-0.75,0.9-1.17H181.96z M181.25,225.79
							h2.42v-1.37h-2.42V225.79z M188.64,224.42h-2.62v1.37h2.62V224.42z"/>
					</g>
					<g>
						<path class="st2" d="M203.99,227.11c-0.13,0.15-0.29,0.31-0.42,0.44c-0.24-0.29-0.68-0.71-1.12-1.04v5.6h-2.18v-5.18
							c-0.33,0.33-0.68,0.66-0.99,0.95c-0.18-0.22-0.51-0.57-0.84-0.93c-0.07,3.55-0.48,8.4-2.14,11.55
							c-0.42-0.46-1.45-1.26-1.98-1.52c1.61-3.17,1.72-7.82,1.72-11.08v-6.46h8.39c-0.2-0.44-0.44-0.88-0.68-1.23l2.34-0.66
							c0.42,0.55,0.81,1.26,1.12,1.9h7.65v2.14h-4.58c0.4,0.51,0.77,1.08,0.97,1.52l-0.57,0.24h3.61v1.52h-3.33v0.77h2.75v1.28
							h-2.75v0.84h2.78v1.26h-2.78v0.88h3.59v1.59h-8c1.17,0.55,2.53,1.37,3.28,2.05l-1.63,1.52c-0.68-0.71-2.16-1.7-3.37-2.29
							l0.66-0.64h-1.5V227.11z M197.78,236.85c1.08-0.9,1.85-2.38,2.25-3.79l2.12,0.77c-0.46,1.56-1.15,3.22-2.36,4.27
							L197.78,236.85z M198.44,225.59c1.21-1.12,2.36-2.56,3.06-4.01h-3.06V225.59z M203.7,222.07c-0.37,0.71-0.77,1.45-1.26,2.14
							v1.32c1.06-1.1,2-2.51,2.62-3.94h-2.91L203.7,222.07z M208.38,236.3c0.59,0,0.71-0.2,0.79-1.61c0.46,0.33,1.45,0.68,2.07,0.84
							c-0.24,2.25-0.88,2.82-2.62,2.82h-2.8c-2.38,0-2.93-0.64-2.93-2.62v-2.4h2.38v2.36c0,0.55,0.13,0.62,0.88,0.62H208.38z
							 M209.06,223.34c-0.22-0.44-0.53-0.9-0.82-1.3l1.28-0.46h-3.48l1.28,0.35c-0.2,0.49-0.44,0.93-0.68,1.41H209.06z
							 M208.77,224.86h-2.62v0.77h2.62V224.86z M208.77,226.91h-2.62v0.84h2.62V226.91z M208.77,229.01h-2.62v0.88h2.62V229.01z
							 M212.19,232.82c1.15,1.28,2.4,2.97,2.91,4.21l-2.09,1.01c-0.42-1.19-1.63-3-2.73-4.27L212.19,232.82z"/>
					</g>
					<g>
						<path class="st2" d="M224.28,230.22c-0.73,0.22-1.45,0.44-2.18,0.64v4.85c0,1.21-0.22,1.87-0.88,2.29
							c-0.66,0.42-1.61,0.51-3.04,0.49c-0.07-0.64-0.35-1.72-0.68-2.42c0.81,0.04,1.56,0.04,1.83,0.02c0.26,0,0.37-0.09,0.37-0.37
							v-4.17l-2.2,0.66l-0.4-2.56c0.75-0.15,1.63-0.37,2.6-0.64v-4.52h-2.31v-2.42h2.31v-4.14h2.4v4.14h1.98v2.42h-1.98v3.88
							l1.85-0.48L224.28,230.22z M236.35,230.48c-0.55,1.96-1.39,3.48-2.53,4.69c1.26,0.55,2.67,0.95,4.23,1.19
							c-0.55,0.51-1.21,1.48-1.54,2.14c-1.74-0.37-3.3-0.95-4.65-1.7c-1.21,0.75-2.64,1.32-4.16,1.72
							c-0.26-0.55-0.97-1.52-1.41-1.94c1.32-0.26,2.53-0.66,3.59-1.21c-0.64-0.51-1.19-1.12-1.67-1.78
							c-0.86,1.85-2.12,3.57-4.08,4.85c-0.35-0.62-1.1-1.46-1.7-1.9c2.91-1.78,4.03-4.6,4.54-7.42h-2.64V227h2.93
							c0.02-0.35,0.04-0.71,0.09-1.04h-2.6v-2.05h1.37c-0.18-0.68-0.51-1.65-0.79-2.38l1.96-0.55c0.35,0.82,0.82,1.87,1.01,2.53
							l-1.23,0.4h2.53c-0.07-0.73-0.26-1.87-0.48-2.78l2.05-0.35c0.24,0.86,0.51,1.98,0.6,2.67l-2.05,0.46h2.75
							c0.62-1.04,1.32-2.47,1.72-3.55c-2.93,0.38-6.32,0.57-9.28,0.62c-0.04-0.57-0.31-1.41-0.55-1.94
							c3.86-0.13,8.37-0.46,11.08-1.06l1.48,1.96c-0.84,0.15-1.74,0.29-2.73,0.42l2.42,0.71c-0.59,0.97-1.23,1.98-1.81,2.84h2.09
							v2.05h-7.05c-0.02,0.35-0.04,0.68-0.09,1.04h7.78v2.12h-8.04c-0.07,0.29-0.11,0.57-0.18,0.86h5.22l0.42-0.07L236.35,230.48z
							 M229.61,231.87c0.55,0.84,1.28,1.56,2.2,2.2c0.66-0.62,1.23-1.34,1.63-2.2H229.61z"/>
					</g>
					<g>
						<path class="st2" d="M252.19,218.87c-0.15,0.2-0.31,0.42-0.46,0.62c2.89,3.04,5.95,4.54,9.08,5.64
							c-0.64,0.55-1.34,1.48-1.65,2.27c-3.04-1.32-5.95-2.93-8.95-6.13c-2.45,2.6-5.57,4.67-8.77,6.13
							c-0.37-0.68-1.12-1.63-1.78-2.23c3.94-1.54,7.98-4.16,10.18-7.47L252.19,218.87z M251.73,235.53h7.89v2.36h-18.73v-2.36h2.38
							v-7.69h2.6v7.69h3.08v-11.3h2.78v4.54h5.88v2.36h-5.88V235.53z"/>
					</g>
					<g>
						<path class="st2" d="M274.05,221.21h1.17v1.59h-1.17v2.2h-4.05v0.66h4.3v1.43h-4.3v0.66h5.11v1.65h-12.27v-1.65h4.83v-0.66
							h-3.88v-1.43h3.88V225h-3.83v-1.41h3.83v-0.79h-4.96v-1.59h4.96v-0.71h-3.77v-1.41h3.77v-1.19h2.34v1.19h4.05V221.21z
							 M262.7,235.95c3.13-0.09,7.95-0.24,12.47-0.44l-0.07,1.96c-4.41,0.2-9.1,0.4-12.23,0.51L262.7,235.95z M274.16,230.04v5.05
							h-10.31v-5.05H274.16z M265.87,231.98h2.03v-0.73h-2.03V231.98z M265.87,233.86h2.03v-0.71h-2.03V233.86z M269.99,221.21h1.85
							v-0.71h-1.85V221.21z M271.84,222.79h-1.85v0.79h1.85V222.79z M272.02,231.25h-1.94v0.73h1.94V231.25z M272.02,233.15h-1.94
							v0.71h1.94V233.15z M278.21,232.97h-2.38v-12.41h2.38V232.97z M282.47,218.34v17.1c0,1.39-0.29,2.09-1.08,2.49
							c-0.79,0.42-1.98,0.53-3.72,0.51c-0.09-0.71-0.44-1.83-0.79-2.58c1.17,0.04,2.25,0.04,2.62,0.04c0.35,0,0.48-0.11,0.48-0.46
							v-17.1H282.47z"/>
					</g>
					<g>
						<path class="st2" d="M292.38,231.63c-0.02-0.33-0.11-0.68-0.2-1.08c-4.74,0.71-5.53,0.86-6.06,1.12
							c-0.13-0.46-0.53-1.7-0.84-2.36c0.59-0.13,1.1-0.6,1.81-1.41c0.29-0.31,0.84-0.93,1.48-1.79c-1.76,0.2-2.29,0.33-2.62,0.48
							c-0.13-0.48-0.51-1.59-0.79-2.22c0.46-0.11,0.84-0.53,1.32-1.19c0.48-0.62,1.96-3.06,2.82-5.42l2.31,0.97
							c-0.86,1.81-1.98,3.72-3.15,5.29l1.63-0.11c0.57-0.93,1.15-1.9,1.61-2.86l2.18,1.39c-1.32,2.25-3.02,4.54-4.74,6.43l2.51-0.31
							c-0.15-0.57-0.35-1.12-0.53-1.63l1.92-0.62c0.57,1.48,1.17,3.42,1.39,4.61L292.38,231.63z M288.3,232.73
							c-0.13,1.96-0.51,4.08-0.97,5.4c-0.46-0.24-1.5-0.6-2.05-0.73c0.48-1.28,0.75-3.26,0.88-5.02L288.3,232.73z M290.9,232.27
							c0.29,1.54,0.55,3.46,0.62,4.76l-2.12,0.44c-0.02-1.28-0.26-3.28-0.51-4.8L290.9,232.27z M293.35,231.61
							c0.44,1.1,0.84,2.51,1.06,3.48l-2.03,0.71c-0.11-0.97-0.55-2.45-0.93-3.57L293.35,231.61z M305.84,235.75v2.36H293.3v-2.34
							h1.7v-16.75h9.45v16.72H305.84z M297.38,221.38v3.17h4.58v-3.17H297.38z M301.96,226.91h-4.58v3.2h4.58V226.91z
							 M297.38,235.77l4.58-0.02v-3.33h-4.58V235.77z"/>
					</g>
				</g>
			</g>
		</g>
		<g>
			<g>
				<path class="st2" d="M116.62,16.95c-1.07-0.47-2.28-0.26-3.25,0.59l-14.5,14.5L84.43,17.59c-0.76-0.76-2.19-1.22-3.36-0.6
					c-1.07,0.44-1.76,1.52-1.76,2.75V61.2c0,1.75,1.27,3.02,3.02,3.02c1.66,0,3.02-1.35,3.02-3.02V27.1
					c2.97,3.01,6.89,6.92,9.24,9.21l-0.58,0.58c-0.58,0.58-0.89,1.33-0.89,2.13c0,0.79,0.32,1.55,0.89,2.13
					c1.19,1.19,3.05,1.2,4.23,0.02c0.04-0.04,2.78-2.73,2.78-2.73s8.53-8.55,11.41-11.42c-0.03,9.15-0.11,28.24-0.13,33.29
					l-0.01,1.24c0,1.66,1.54,3.02,3.2,3.02c1.72,0,2.98-1.34,2.98-3.06l0.01-41.76C118.48,18.46,117.75,17.36,116.62,16.95z"/>
			</g>
			<g>
				<path class="st2" d="M129.76,30.08c-1.75,0-3.02,1.27-3.02,3.02v28.1c0,1.75,1.27,3.02,3.02,3.02c1.66,0,3.02-1.35,3.02-3.02
					V33.1C132.78,31.43,131.42,30.08,129.76,30.08z"/>
			</g>
			<g>
				<path class="st2" d="M163.09,34.3c0.58,0.58,1.35,0.89,2.18,0.89c0.83,0,1.6-0.32,2.2-0.91l0.11-0.12
					c0.92-1.15,0.92-2.81,0-3.96l-4.36-4.23c-0.61-0.61-1.32-0.92-2.1-0.92c-1.24,0-1.92,0.69-2.15,0.92l-20.79,20.7l-0.11,0.13
					c-0.92,1.15-0.92,2.81,0,3.96l12.59,12.55c0.57,0.57,1.37,0.92,2.1,0.92h12.45c1.75,0,3.02-1.27,3.02-3.02
					c0-1.69-1.33-3.02-3.02-3.02h-11.11c-1.71-1.64-6.98-6.89-9.43-9.41l16.44-16.44C162.07,33.3,163.04,34.25,163.09,34.3z"/>
			</g>
			<g>
				<path class="st2" d="M189.18,16.88c-0.81,0-1.58,0.32-2.17,0.91c-0.59,0.59-0.91,1.36-0.91,2.17v41.57l0,0.15l0.05,0.28
					c0.1,0.41,0.31,1.02,0.92,1.63c0.58,0.58,1.19,0.79,1.6,0.89l0.22,0.05l26.09-0.11c0.86,0,1.58-0.28,2.14-0.84
					c0.53-0.53,0.87-1.38,0.87-2.17l0.04-41.54c0-0.83-0.3-1.53-0.91-2.14c-0.55-0.55-1.33-0.87-2.1-0.87L189.18,16.88z
					 M211.99,22.9c0,2.36-0.01,6.63-0.01,11.07l0,0.26c-0.01,6.76-0.03,20.73-0.01,24.22h-19.77c-0.03-3.29-0.03-16.83-0.04-23.24
					l0-0.06c0-5.17-0.01-9.69-0.02-12.17c1.92-0.01,4.97-0.03,8.03-0.04l3.71-0.01C206.97,22.92,210.06,22.9,211.99,22.9z"/>
			</g>
			<g>
				<path class="st2" d="M256.08,34.52L256,34.39l-8.51-8.58c-0.64-0.64-1.53-0.87-2.15-0.87c-0.82,0-1.53,0.29-2.11,0.88
					l-11.41,11.53v-9.29c0-1.66-1.35-3.02-3.02-3.02c-1.75,0-3.02,1.27-3.02,3.02V61.2c0,1.75,1.27,3.02,3.02,3.02
					c1.66,0,3.02-1.35,3.02-3.02V45.86c2.55-2.66,10.55-10.67,13.53-13.65c1.3,1.31,3.14,3.19,4.39,4.47l0.81,0.83V61.2
					c0,1.66,1.35,3.02,3.02,3.02c1.75,0,3.02-1.27,3.02-3.02V36.29C256.58,35.71,256.39,35.05,256.08,34.52z"/>
			</g>
			<g>
				<polygon class="st2" points="127.86,19.59 125.93,22.34 127.86,25.08 129.78,27.82 131.7,25.08 133.62,22.34 131.7,19.59 
					129.78,16.85 				"/>
			</g>
			<g>
				<g>
					<path class="st2" d="M188.22,75.33c-0.33-0.33-0.76-0.36-0.88-0.36h-5.86c-0.71,0-1.24,0.53-1.24,1.24V90.9
						c0,0.71,0.53,1.24,1.24,1.24c0.68,0,1.24-0.56,1.24-1.24v-3.19c0.39,0.07,0.8-0.06,1.09-0.34l7.38-7.34l0.05-0.05
						c0.4-0.5,0.37-1.28-0.07-1.68L188.22,75.33z M182.72,84.97v-7.52h4.11c0.2,0.21,0.51,0.52,0.91,0.92
						c0.26,0.26,0.54,0.54,0.78,0.79C187.22,80.46,184.08,83.6,182.72,84.97z"/>
				</g>
				<g>
					<path class="st2" d="M198.88,78.26c-0.47-0.44-1.25-0.43-1.71,0.03l-0.8,0.8c-0.03-0.65-0.58-1.17-1.24-1.17
						c-0.71,0-1.24,0.53-1.24,1.24V90.9c0,0.71,0.53,1.24,1.24,1.24c0.68,0,1.24-0.56,1.24-1.24v-8.32l2.54-2.54
						c0.26-0.26,0.39-0.63,0.36-1C199.25,78.72,199.1,78.43,198.88,78.26z"/>
				</g>
				<g>
					<path class="st2" d="M216.3,95.09c0.33,0,0.64-0.13,0.87-0.37l2.95-2.95c0.09-0.09,0.37-0.37,0.37-0.88v-9.96
						c0-0.68-0.56-1.24-1.24-1.24c-0.71,0-1.24,0.53-1.24,1.24v9.44c-0.66,0.65-2.26,2.27-2.59,2.6c-0.25,0.25-0.37,0.54-0.37,0.86
						c0,0.31,0.15,0.65,0.37,0.88C215.67,94.96,215.98,95.09,216.3,95.09z"/>
				</g>
				<g>
					<path class="st2" d="M228.06,91.76c0.23,0.23,0.56,0.38,0.86,0.38h4.41c0.71,0,1.24-0.53,1.24-1.24c0-0.69-0.54-1.24-1.24-1.24
						h-3.87c-0.62-0.6-2.29-2.27-3.17-3.17l1.39-1.39c0.04,0.62,0.61,1.17,1.24,1.17h4.41c0.68,0,1.24-0.56,1.24-1.24v-4.41
						c0-0.35-0.11-0.58-0.2-0.73l-1.62-1.6c-0.25-0.25-0.54-0.38-0.86-0.38c-0.51,0-0.79,0.28-0.88,0.37l-7.4,7.37l-0.08,0.12
						c-0.13,0.21-0.2,0.48-0.2,0.71c0,0.35,0.11,0.58,0.2,0.73L228.06,91.76z M231.9,80.9c0.07,0.07,0.14,0.14,0.2,0.2v2.7h-3.11
						L231.9,80.9z"/>
				</g>
				<g>
					<path class="st2" d="M241.26,91.76c0.23,0.23,0.56,0.38,0.86,0.38h4.41c0.71,0,1.24-0.53,1.24-1.24c0-0.69-0.54-1.24-1.24-1.24
						h-3.87c-0.62-0.6-2.29-2.27-3.17-3.17l5.59-5.59c0.24,0.24,0.46,0.45,0.55,0.54l0.04,0.04c0.47,0.47,1.29,0.49,1.79-0.01
						l0.05-0.05c0.37-0.47,0.37-1.15-0.03-1.65l-1.53-1.48c-0.25-0.25-0.54-0.37-0.86-0.37c-0.34,0-0.63,0.12-0.88,0.37l-7.38,7.34
						l-0.05,0.05c-0.37,0.47-0.37,1.15,0.03,1.64L241.26,91.76z"/>
				</g>
				<g>
					<path class="st2" d="M250.96,80.39h0.21v10.5c0,0.71,0.53,1.24,1.24,1.24h1.47c0.71,0,1.24-0.53,1.24-1.24
						c0-0.69-0.54-1.24-1.24-1.24h-0.23v-9.27h1.68c0.69,0,1.24-0.54,1.24-1.24c0-0.71-0.53-1.24-1.24-1.24h-1.68v-1.71
						c0-0.69-0.54-1.24-1.24-1.24c-0.71,0-1.24,0.53-1.24,1.24v1.71h-0.21c-0.71,0-1.24,0.53-1.24,1.24
						C249.72,79.85,250.26,80.39,250.96,80.39z"/>
				</g>
				<g>
					<polygon class="st2" points="219.28,77.92 220.3,76.47 221.32,75.01 220.3,73.55 219.28,72.09 218.26,73.55 217.24,75.01 
						218.26,76.47 					"/>
				</g>
				<g>
					<path class="st2" d="M278.04,52.23c1.31-1.37,2.58-2.69,4.07-4.25c-2.17,0.3-3.98,0.54-5.84,0.8
						c-0.87-1.56-1.71-3.05-2.55-4.55c-0.1,0.02-0.2,0.04-0.3,0.06c-0.38,1.72-0.77,3.44-1.16,5.18c-1.85,0.4-3.62,0.77-5.38,1.15
						c0,0.09,0,0.18,0.01,0.27c1.53,0.81,3.07,1.61,4.66,2.45c-0.25,1.8-0.48,3.53-0.72,5.25c0.1,0.04,0.19,0.07,0.29,0.11
						c1.09-0.99,2.17-1.98,3.25-2.96c0.16,0.15,0.27,0.21,0.31,0.29c0.14,0.33,0.28,0.66,0.39,1c2.74,8.86,2.87,17.74-0.13,26.55
						c-3.26,9.57-9.2,16.96-18.37,21.46c-7.75,3.8-15.94,4.61-24.37,2.91c-10.57-2.13-19.1-7.55-25.69-16.06l0.08-0.05l7.44-7.4
						c0.23-0.23,0.37-0.57,0.37-0.88c0-0.3-0.12-0.69-0.44-0.93l-4.35-4.35c-0.47-0.47-1.27-0.47-1.74,0l-7.36,7.33
						c-0.32,0.32-0.32,0.72-0.32,0.86c0,0.2,0,0.56,0.32,0.88l4.4,4.39c7.91,10.65,18.46,16.77,31.84,18.06
						c6.05,0.58,11.96-0.14,17.55-2.47c14.91-6.22,22.22-17.98,23.89-33.61c0.63-5.85-0.18-11.61-2-17.21
						c-0.09-0.26-0.07-0.56-0.12-1.05c1.46,0.63,2.75,1.18,4.35,1.87C279.52,55.43,278.79,53.86,278.04,52.23z M208.73,80.9
						c0.27,0.27,0.6,0.6,0.96,0.95c0.6,0.6,1.26,1.24,1.72,1.71c-1.47,1.47-4.38,4.37-5.63,5.6c-0.7-0.7-1.91-1.92-2.64-2.67
						L208.73,80.9z"/>
				</g>
			</g>
			<g>
				<g>
					<g>
						<path class="st2" d="M0,15.87c0.89-1.71,2.26-3.04,3.59-4.38c5.45-5.45,11.94-9.13,19.5-10.61
							C36.84-1.82,48.86,1.7,59.02,11.4c1.12,1.07,2.09,2.3,3.11,3.47c0.27,0.31,0.47,0.67,0.7,1c0,0.29,0,0.57,0,0.86
							c-0.09,0.12-0.21,0.24-0.27,0.37c-0.73,1.66-2.6,1.96-3.83,0.61c-1.26-1.37-2.45-2.8-3.81-4.06
							C49.66,8.76,43.44,5.81,36.33,4.8c-7.5-1.07-14.62,0.17-21.32,3.7c-4.1,2.15-7.59,5.06-10.54,8.63
							c-0.18,0.22-0.36,0.44-0.56,0.65c-1.21,1.29-3.12,0.92-3.77-0.72C0.09,16.95,0.05,16.84,0,16.73C0,16.44,0,16.15,0,15.87z"/>
					</g>
					<g>
						<path class="st2" d="M32.82,12.17c6.88,0.17,13.75,3.41,19.06,9.88c0.86,1.05,0.76,2.42-0.21,3.23
							c-0.97,0.81-2.32,0.68-3.2-0.4c-2.33-2.85-5.15-5.04-8.53-6.51c-8.67-3.78-19.16-1.31-25.23,5.97
							c-0.17,0.2-0.34,0.41-0.52,0.61c-0.9,0.99-2.22,1.12-3.17,0.31c-0.94-0.81-1.05-2.15-0.22-3.19c1.6-2.01,3.45-3.76,5.56-5.22
							C20.84,13.76,25.96,12.16,32.82,12.17z"/>
					</g>
					<g>
						<path class="st2" d="M31.62,24.34c4.12,0.22,7.38,1.79,9.94,4.8c0.93,1.09,0.92,2.42-0.04,3.28
							c-0.99,0.89-2.33,0.77-3.29-0.35c-1.47-1.71-3.26-2.83-5.5-3.16c-3.06-0.44-5.68,0.46-7.83,2.68
							c-0.23,0.23-0.43,0.5-0.66,0.73c-0.87,0.86-2.15,0.9-3.04,0.11c-0.9-0.79-1-2.12-0.22-3.09c1.28-1.58,2.82-2.83,4.66-3.71
							C27.58,24.71,29.65,24.31,31.62,24.34z"/>
					</g>
				</g>
				<g>
					<g>
						<g>
							<path class="st2" d="M45.97,55.89c0-2.15,0-4.1,0-5.03c0-8.02-6.53-14.55-14.55-14.55s-14.55,6.53-14.55,14.55
								c0,0.93,0,2.88,0,5.03c4.35-2.29,9.3-3.59,14.55-3.59C36.66,52.3,41.61,53.6,45.97,55.89z"/>
						</g>
						<g>
							<path class="st2" d="M16.86,58.88c0,2.3,0,4.41,0,5.4c0,8.02,6.53,14.55,14.55,14.55s14.55-6.53,14.55-14.55
								c0-0.98,0-3.1,0-5.4c-4.27-2.51-9.25-3.96-14.55-3.96S21.14,56.37,16.86,58.88z"/>
						</g>
					</g>
					<g>
						<path class="st2" d="M31.42,87.32c-12.55,0-22.77-10.21-22.77-22.77v-2.58c0-1.08,0.88-1.96,1.96-1.96s1.96,0.88,1.96,1.96
							v2.58c0,10.39,8.45,18.85,18.85,18.85s18.85-8.46,18.85-18.85v-2.58c0-1.08,0.88-1.96,1.96-1.96s1.96,0.88,1.96,1.96v2.58
							C54.18,77.1,43.97,87.32,31.42,87.32z"/>
					</g>
					<g>
						<path class="st2" d="M31.63,105.5c-1.08,0-1.96-0.88-1.96-1.96V86.11c0-1.08,0.88-1.96,1.96-1.96s1.96,0.88,1.96,1.96v17.43
							C33.59,104.62,32.72,105.5,31.63,105.5z"/>
					</g>
					<g>
						<path class="st2" d="M40.35,105.5H22.92c-1.08,0-1.96-0.88-1.96-1.96c0-1.08,0.88-1.96,1.96-1.96h17.43
							c1.08,0,1.96,0.88,1.96,1.96C42.31,104.62,41.43,105.5,40.35,105.5z"/>
					</g>
				</g>
			</g>
		</g>
		<g>
			<g>
				<g>
					<path class="st2" d="M527.92,88c0.49,0,0.9,0.42,0.9,0.91v5.94c0,0.5-0.41,0.91-0.9,0.91c-0.51,0-0.9-0.42-0.9-0.91v-2.16
						h-2.93v2.16c0,0.5-0.4,0.91-0.89,0.91c-0.51,0-0.91-0.42-0.91-0.91v-5.94c0-0.5,0.41-0.91,0.91-0.91c0.5,0,0.89,0.42,0.89,0.91
						v2.24h2.93v-2.24C527.02,88.41,527.41,88,527.92,88z"/>
				</g>
				<g>
					<path class="st2" d="M538.53,91.88c0,2.32-1.9,3.93-3.84,3.93c-1.94,0-3.84-1.61-3.84-3.93s1.9-3.93,3.84-3.93
						C536.63,87.95,538.53,89.56,538.53,91.88z M532.75,91.88c0,1.32,0.88,2.2,1.95,2.2c1.07,0,1.94-0.88,1.94-2.2
						s-0.85-2.21-1.94-2.21C533.63,89.67,532.75,90.56,532.75,91.88z"/>
				</g>
				<g>
					<path class="st2" d="M547.09,88.92v6c0,0.58-0.37,0.89-0.86,0.89c-0.4,0-0.71-0.22-0.94-0.53l-2.88-3.98v3.59
						c0,0.5-0.41,0.92-0.91,0.92c-0.52,0-0.94-0.43-0.94-0.92v-6.01c0-0.57,0.37-0.88,0.87-0.88c0.38,0,0.7,0.21,0.92,0.53
						l2.88,3.97v-3.58c0-0.5,0.41-0.92,0.91-0.92C546.68,88,547.09,88.42,547.09,88.92z"/>
				</g>
				<g>
					<path class="st2" d="M556.43,92.64c-0.09,2.13-1.76,3.17-3.39,3.17c-1.96,0-3.92-1.61-3.92-3.93s1.98-3.93,3.88-3.93
						c0.75,0,1.32,0.18,1.74,0.4c0.48,0.3,0.81,0.6,0.81,1.06c0,0.53-0.42,0.81-0.84,0.81c-0.34,0-0.57-0.17-0.68-0.23
						c-0.08-0.03-0.4-0.32-1-0.32c-1.11,0-2.02,0.99-2.02,2.21c0,1.22,0.89,2.21,2.02,2.21c0.62,0,1.5-0.35,1.63-1.12h-0.9
						c-0.41,0-0.78-0.3-0.78-0.73c0-0.44,0.37-0.74,0.78-0.74h1.68C556.13,91.51,556.46,91.98,556.43,92.64z"/>
				</g>
				<g>
					<path class="st2" d="M569.18,95.04c0,0.43-0.36,0.78-0.8,0.78c-0.22,0-0.44-0.11-0.58-0.26l-2.43-2.83l-1.07,1.11v1.08
						c0,0.5-0.41,0.9-0.9,0.9c-0.49,0-0.9-0.4-0.9-0.89v-6.08c0-0.49,0.41-0.9,0.9-0.9c0.5,0,0.9,0.41,0.9,0.9v2.59l3.1-3.18
						c0.14-0.17,0.38-0.31,0.65-0.31c0.44,0,0.81,0.35,0.81,0.8c0,0.2-0.1,0.4-0.19,0.51l-2.19,2.3l2.5,2.96
						C569.1,94.64,569.18,94.84,569.18,95.04z"/>
				</g>
				<g>
					<path class="st2" d="M577.9,91.88c0,2.32-1.9,3.93-3.84,3.93c-1.94,0-3.84-1.61-3.84-3.93s1.9-3.93,3.84-3.93
						C576,87.95,577.9,89.56,577.9,91.88z M572.12,91.88c0,1.32,0.88,2.2,1.95,2.2c1.07,0,1.94-0.88,1.94-2.2s-0.85-2.21-1.94-2.21
						C573,89.67,572.12,90.56,572.12,91.88z"/>
				</g>
				<g>
					<path class="st2" d="M586.46,88.92v6c0,0.58-0.37,0.89-0.86,0.89c-0.4,0-0.71-0.22-0.93-0.53l-2.88-3.98v3.59
						c0,0.5-0.41,0.92-0.91,0.92c-0.52,0-0.93-0.43-0.93-0.92v-6.01c0-0.57,0.37-0.88,0.87-0.88c0.38,0,0.7,0.21,0.92,0.53
						l2.88,3.97v-3.58c0-0.5,0.41-0.92,0.91-0.92C586.05,88,586.46,88.42,586.46,88.92z"/>
				</g>
				<g>
					<path class="st2" d="M595.8,92.64c-0.09,2.13-1.76,3.17-3.39,3.17c-1.96,0-3.92-1.61-3.92-3.93s1.98-3.93,3.88-3.93
						c0.75,0,1.32,0.18,1.74,0.4c0.48,0.3,0.81,0.6,0.81,1.06c0,0.53-0.42,0.81-0.84,0.81c-0.34,0-0.57-0.17-0.68-0.23
						c-0.08-0.03-0.4-0.32-1-0.32c-1.11,0-2.03,0.99-2.03,2.21c0,1.22,0.89,2.21,2.03,2.21c0.62,0,1.5-0.35,1.63-1.12h-0.9
						c-0.41,0-0.78-0.3-0.78-0.73c0-0.44,0.37-0.74,0.78-0.74h1.68C595.5,91.51,595.83,91.98,595.8,92.64z"/>
				</g>
				<g>
					<path class="st2" d="M608.77,88.81c0,0.19-0.06,0.37-0.12,0.53l-2.6,5.79c-0.2,0.46-0.48,0.67-0.88,0.67
						c-0.39,0-0.68-0.21-0.87-0.67l-2.6-5.79c-0.07-0.15-0.12-0.34-0.12-0.53c0-0.44,0.38-0.81,0.88-0.81c0.4,0,0.71,0.23,0.87,0.58
						l1.84,4.37l1.85-4.37c0.14-0.35,0.47-0.58,0.87-0.58C608.38,88,608.77,88.37,608.77,88.81z"/>
				</g>
				<g>
					<path class="st2" d="M612.49,88.92v5.97c0,0.5-0.43,0.92-0.92,0.92c-0.51,0-0.92-0.43-0.92-0.92v-5.97
						c0-0.5,0.42-0.92,0.92-0.92C612.06,88,612.49,88.42,612.49,88.92z"/>
				</g>
				<g>
					<path class="st2" d="M620.57,94.92c0,0.46-0.35,0.85-0.83,0.85c-0.29,0-0.52-0.13-0.66-0.33l-1.83-2.33h-0.82v1.82
						c0,0.5-0.4,0.9-0.89,0.9c-0.51,0-0.91-0.41-0.91-0.9v-5.89c0-0.58,0.42-1,1-1h2.01c1.72,0,2.83,1.17,2.83,2.55
						c0,0.96-0.54,1.79-1.43,2.22l1.31,1.56C620.46,94.52,620.57,94.7,620.57,94.92z M616.43,91.56h1.11c0.63,0,1.18-0.17,1.18-0.98
						c0-0.82-0.55-1.01-1.18-1.01h-1.11V91.56z"/>
				</g>
				<g>
					<path class="st2" d="M628.06,88.83c0,0.44-0.36,0.79-0.79,0.79h-1.36v5.25c0,0.52-0.42,0.95-0.89,0.95
						c-0.5,0-0.91-0.43-0.91-0.95v-5.25h-1.35c-0.43,0-0.8-0.35-0.8-0.79c0-0.45,0.38-0.8,0.8-0.8h4.52
						C627.7,88.03,628.06,88.38,628.06,88.83z"/>
				</g>
				<g>
					<path class="st2" d="M636.19,88.88v4.14c0,1.76-1.43,2.79-3.12,2.79c-1.72,0-3.14-1.03-3.14-2.79v-4.14
						c0-0.48,0.38-0.88,0.88-0.88c0.51,0,0.92,0.4,0.92,0.88V93c0,0.99,0.67,1.31,1.33,1.31s1.32-0.32,1.32-1.31v-4.13
						c0-0.48,0.42-0.88,0.92-0.88C635.81,88,636.19,88.39,636.19,88.88z"/>
				</g>
				<g>
					<path class="st2" d="M644.86,94.96c0,0.44-0.38,0.81-0.88,0.81c-0.4,0-0.73-0.23-0.87-0.58l-0.42-0.99h-2.85l-0.42,0.99
						c-0.15,0.35-0.47,0.58-0.87,0.58c-0.5,0-0.88-0.37-0.88-0.81c0-0.19,0.05-0.37,0.12-0.53l2.6-5.79
						c0.19-0.46,0.48-0.67,0.87-0.67c0.4,0,0.68,0.21,0.88,0.67l2.6,5.79C644.8,94.59,644.86,94.77,644.86,94.96z M642.09,92.78
						l-0.83-1.96l-0.83,1.96H642.09z"/>
				</g>
				<g>
					<path class="st2" d="M651.05,94.13c0.43,0,0.79,0.35,0.79,0.8c0,0.44-0.36,0.79-0.79,0.79h-3.32c-0.58,0-1-0.42-1-1v-5.81
						c0-0.51,0.41-0.92,0.91-0.92c0.49,0,0.89,0.42,0.89,0.92v5.21H651.05z"/>
				</g>
				<g>
					<path class="st2" d="M524.13,101.92v5.97c0,0.5-0.43,0.92-0.92,0.92c-0.51,0-0.92-0.43-0.92-0.92v-5.97
						c0-0.5,0.42-0.92,0.92-0.92C523.7,101,524.13,101.42,524.13,101.92z"/>
				</g>
				<g>
					<path class="st2" d="M532.86,104.82c0,2.58-1.87,3.91-3.98,3.91h-1.59c-0.58,0-1-0.42-1-1v-5.7c0-0.58,0.42-1,1-1h1.59
						C530.99,101.03,532.86,102.36,532.86,104.82z M531.04,104.82c0-1.62-0.79-2.28-2.17-2.28h-0.79v4.67h0.79
						C530.25,107.21,531.04,106.55,531.04,104.82z"/>
				</g>
				<g>
					<path class="st2" d="M542.35,104.88c0,2.32-1.9,3.93-3.84,3.93c-1.94,0-3.84-1.61-3.84-3.93s1.9-3.93,3.84-3.93
						C540.45,100.95,542.35,102.56,542.35,104.88z M536.56,104.88c0,1.32,0.88,2.2,1.95,2.2c1.07,0,1.94-0.88,1.94-2.2
						s-0.85-2.21-1.94-2.21C537.44,102.67,536.56,103.56,536.56,104.88z"/>
				</g>
				<g>
					<path class="st2" d="M548.71,107.13c0.43,0,0.79,0.35,0.79,0.8c0,0.44-0.36,0.79-0.79,0.79h-3.32c-0.58,0-1-0.42-1-1v-5.81
						c0-0.51,0.41-0.92,0.91-0.92c0.49,0,0.89,0.42,0.89,0.92v5.21H548.71z"/>
				</g>
				<g>
					<path class="st2" d="M559.94,102.6h-2.67v1.75h2.2c0.43,0,0.79,0.33,0.79,0.77c0,0.43-0.36,0.76-0.79,0.76h-2.2v2.02
						c0,0.5-0.4,0.91-0.89,0.91c-0.49,0-0.91-0.42-0.91-0.91v-5.88c0-0.58,0.42-1,1-1h3.48c0.44,0,0.8,0.35,0.8,0.77
						C560.74,102.25,560.38,102.6,559.94,102.6z"/>
				</g>
				<g>
					<path class="st2" d="M568.97,107.96c0,0.44-0.38,0.81-0.88,0.81c-0.4,0-0.73-0.23-0.87-0.58l-0.42-0.99h-2.85l-0.42,0.99
						c-0.15,0.35-0.47,0.58-0.87,0.58c-0.5,0-0.88-0.37-0.88-0.81c0-0.19,0.05-0.37,0.12-0.53l2.6-5.79
						c0.19-0.46,0.48-0.67,0.87-0.67c0.4,0,0.68,0.21,0.88,0.67l2.6,5.79C568.92,107.59,568.97,107.77,568.97,107.96z M566.2,105.78
						l-0.83-1.96l-0.83,1.96H566.2z"/>
				</g>
				<g>
					<path class="st2" d="M577.36,101.92v6c0,0.58-0.37,0.89-0.86,0.89c-0.4,0-0.71-0.22-0.94-0.53l-2.88-3.98v3.59
						c0,0.5-0.41,0.92-0.91,0.92c-0.52,0-0.94-0.43-0.94-0.92v-6.01c0-0.57,0.38-0.88,0.87-0.88c0.38,0,0.71,0.21,0.92,0.53
						l2.88,3.97v-3.58c0-0.5,0.41-0.92,0.91-0.92C576.96,101,577.36,101.42,577.36,101.92z"/>
				</g>
				<g>
					<path class="st2" d="M586.42,107.96c0,0.44-0.39,0.81-0.88,0.81c-0.4,0-0.73-0.23-0.87-0.58l-0.42-0.99h-2.85l-0.42,0.99
						c-0.15,0.35-0.47,0.58-0.87,0.58c-0.5,0-0.88-0.37-0.88-0.81c0-0.19,0.05-0.37,0.12-0.53l2.6-5.79
						c0.19-0.46,0.48-0.67,0.87-0.67c0.4,0,0.68,0.21,0.88,0.67l2.6,5.79C586.36,107.59,586.42,107.77,586.42,107.96z
						 M583.64,105.78l-0.82-1.96l-0.83,1.96H583.64z"/>
				</g>
				<g>
					<path class="st2" d="M592.86,101.83c0,0.44-0.36,0.79-0.79,0.79h-1.36v5.25c0,0.52-0.42,0.95-0.89,0.95
						c-0.5,0-0.91-0.43-0.91-0.95v-5.25h-1.35c-0.43,0-0.8-0.35-0.8-0.79c0-0.45,0.37-0.8,0.8-0.8h4.52
						C592.5,101.03,592.86,101.38,592.86,101.83z"/>
				</g>
				<g>
					<path class="st2" d="M596.52,101.92v5.97c0,0.5-0.43,0.92-0.92,0.92c-0.51,0-0.92-0.43-0.92-0.92v-5.97
						c0-0.5,0.42-0.92,0.92-0.92C596.09,101,596.52,101.42,596.52,101.92z"/>
				</g>
				<g>
					<path class="st2" d="M605,107.35c0,0.46-0.31,0.76-0.82,1.07c-0.42,0.22-0.98,0.39-1.7,0.39c-1.96,0-3.92-1.61-3.92-3.93
						s1.98-3.93,3.88-3.93c0.75,0,1.32,0.18,1.74,0.4c0.48,0.3,0.81,0.6,0.81,1.06c0,0.53-0.42,0.81-0.84,0.81
						c-0.34,0-0.57-0.17-0.68-0.23c-0.08-0.03-0.4-0.32-1-0.32c-1.11,0-2.02,0.99-2.02,2.21c0,1.22,0.89,2.21,2.05,2.21
						c0.57,0,0.9-0.29,0.98-0.32c0.11-0.07,0.33-0.23,0.68-0.23C604.58,106.54,605,106.83,605,107.35z"/>
				</g>
				<g>
					<path class="st2" d="M611.35,101.67c0.26,0.28,0.41,0.51,0.41,0.78c0,0.41-0.33,0.71-0.75,0.71c-0.25,0-0.54-0.15-0.7-0.33
						c-0.31-0.23-0.48-0.3-0.8-0.3c-0.55,0-0.83,0.29-0.83,0.65c0,0.22,0.08,0.52,0.68,0.75l0.31,0.11c1.89,0.7,2.49,1.41,2.49,2.41
						c0,1.58-1.58,2.35-2.87,2.35c-0.8,0-1.65-0.29-2.24-0.87c-0.13-0.17-0.4-0.48-0.4-0.9c0-0.36,0.24-0.76,0.74-0.76
						c0.38,0,0.65,0.26,0.85,0.49c0.4,0.4,0.83,0.44,1.06,0.44c0.38,0,1.02-0.12,1.02-0.76c0-0.43-0.24-0.69-1.07-1.01l-0.34-0.12
						c-1.16-0.44-2.02-0.99-2.02-2.17c0-1.36,1.13-2.2,2.55-2.2C610.35,100.95,610.89,101.24,611.35,101.67z"/>
				</g>
			</g>
			<g>
				<g>
					<path class="st2" d="M527.7,68.13c-1.39,0.06-2.99,0.08-4.4,0.08c-0.42,0-1.15,0-1.15-0.77c0-0.78,0.77-0.78,1.14-0.78
						c0.42,0,2.3,0.03,2.69,0.03c2.91,0,4.83-0.16,6.4-0.37c0.24-0.03,1.34-0.22,1.57-0.22c0.45,0,0.8,0.32,0.8,0.75
						c0,0.58-0.5,0.72-0.7,0.77c-0.64,0.18-3.01,0.38-4.79,0.45v0.7h5.17c0.58,0,1.28,0,1.28,0.74s-0.72,0.74-1.28,0.74h-3.33
						c0.96,0.88,2.53,1.7,4.07,2.29c0.53,0.19,0.78,0.3,0.78,0.72c0,0.35-0.24,0.85-0.78,0.85c-0.29,0-0.5-0.08-1.15-0.34
						c0.22,0.35,0.22,0.66,0.22,0.8v4.21c0,1.38-1.26,1.38-1.68,1.38h-7.97c-0.38,0-1.67,0-1.67-1.38v-4.21
						c0-0.3,0.06-0.53,0.19-0.77c-0.35,0.16-0.78,0.37-1.14,0.37c-0.53,0-0.77-0.43-0.77-0.8c0-0.51,0.42-0.67,0.79-0.82
						c2.22-0.9,3.62-2.23,3.71-2.31h-2.99c-0.56,0-1.28,0-1.28-0.74s0.72-0.74,1.28-0.74h4.99V68.13z M529.25,71.62
						c0,0.59,0,1.28-0.77,1.28c-0.78,0-0.78-0.66-0.78-1.28v-1.3c-0.42,0.54-1.5,1.68-3.46,2.87c0.14-0.02,0.18-0.02,0.34-0.02h7.97
						h0.19c-2.14-1.12-3.09-2.26-3.49-2.85V71.62z M532.61,75.91v-0.83c0-0.32,0-0.4-0.53-0.4h-7.03c-0.5,0-0.53,0.06-0.53,0.4v0.83
						H532.61z M524.53,77.3v0.91c0,0.34,0.03,0.4,0.53,0.4h7.03c0.53,0,0.53-0.08,0.53-0.4V77.3H524.53z"/>
				</g>
				<g>
					<path class="st2" d="M543.12,74.96c0,0.53-0.67,2.16-1.36,3.38c-0.94,1.63-1.23,1.63-1.54,1.63c-0.27,0-0.75-0.19-0.75-0.69
						c0-0.24,0.06-0.38,0.3-0.74c0.95-1.41,1.12-1.86,1.87-3.73c0.18-0.43,0.4-0.51,0.74-0.51
						C542.58,74.31,543.12,74.47,543.12,74.96z M541.97,72.99c-0.32,0-0.5-0.14-1.31-1.01c-0.13-0.13-0.71-0.69-0.82-0.8
						c-0.19-0.22-0.27-0.42-0.27-0.59c0-0.4,0.35-0.74,0.72-0.74c0.43,0,1.01,0.51,1.54,1.02c0.95,0.93,0.95,1.04,0.95,1.36
						C542.77,72.64,542.34,72.99,541.97,72.99z M542.34,69.3c-0.29,0-0.38-0.1-0.8-0.54c-0.67-0.75-0.95-1.06-1.17-1.28
						c-0.26-0.27-0.35-0.42-0.35-0.61c0-0.4,0.32-0.78,0.77-0.78c0.43,0,1.12,0.72,1.57,1.25c0.7,0.82,0.78,0.91,0.78,1.2
						C543.14,68.9,542.8,69.3,542.34,69.3z M545.89,70.21v-1.44h-1.23c-0.58,0-1.28,0-1.28-0.75c0-0.75,0.71-0.75,1.28-0.75h1.23
						c0-0.77,0-1.41,0.8-1.41c0.78,0,0.78,0.64,0.78,1.41h2.32c0-0.86,0-1.49,0.8-1.49c0.8,0,0.8,0.62,0.8,1.49h1.28
						c0.58,0,1.28,0,1.28,0.75c0,0.75-0.7,0.75-1.28,0.75h-1.28v1.44h1.46c0.58,0,1.28,0,1.28,0.75c0,0.75-0.7,0.75-1.28,0.75h-1.52
						c0.3,0.5,0.85,1.22,1.94,1.65c0.78,0.3,0.99,0.4,0.99,0.83c0,0.14-0.03,0.78-0.8,0.78c-0.29,0-0.86-0.14-1.63-0.62v1.31
						c0,0.96-0.61,1.31-1.25,1.31h-4.07c-0.16,0-0.43,0.02-0.43,0.37v0.85c0,0.59,0.48,0.59,0.75,0.59h4.45c0.29,0,0.93,0,1.04-1.1
						c0.05-0.4,0.11-1.01,0.79-1.01c0.18,0,0.74,0.1,0.74,0.83c0,0.96-0.22,2.75-2.34,2.75h-4.95c-0.86,0-2.06-0.26-2.06-1.7V76.9
						c0-0.98,0.62-1.38,1.49-1.38h3.84c0.35,0,0.37-0.21,0.37-0.34v-0.5c0-0.29-0.22-0.32-0.37-0.32h-3.03c-0.71,0-0.85,0-1.1-0.26
						c-0.29,0.22-1.17,0.9-1.78,0.9c-0.53,0-0.71-0.48-0.71-0.74c0-0.4,0.08-0.46,0.95-0.99c1.02-0.64,1.58-1.28,1.82-1.57h-1.57
						c-0.58,0-1.28,0-1.28-0.75c0-0.75,0.71-0.75,1.28-0.75H545.89z M550.24,72.83c-0.18-0.22-0.4-0.61-0.61-1.12h-1.76
						c-0.29,0.45-0.67,0.9-0.86,1.12H550.24z M547.47,68.77v1.44h2.32v-1.44H547.47z"/>
				</g>
				<g>
					<path class="st2" d="M562.58,71.87c-0.75,0.02-1.25,0.03-1.25-0.59c0-0.56,0.51-0.58,1.22-0.59l1.75-0.05
						c0.02-0.21,0.05-0.42,0.35-0.62h-3.94c-0.38,0-0.45,0.26-0.45,0.56v2.54c0,1.9,0,3.28-0.51,5.54c-0.3,1.31-0.54,1.66-1.04,1.66
						c-0.06,0-0.74,0-0.74-0.72c0-0.32,0.42-1.71,0.48-2c0.16-0.77,0.34-1.6,0.34-4.47v-2.96c0-0.96,0.74-1.55,1.31-1.55h4.58v-1.65
						c0-0.56,0-1.26,0.75-1.26c0.75,0,0.75,0.72,0.75,1.02h4.03c0.77,0,1.25,0,1.25,0.66c0,0.64-0.48,0.64-1.25,0.64h-4.03v0.59
						h5.33c0.48,0,0.94,0.4,0.94,0.91c0,0.7-0.54,1.76-0.96,2.34c-0.16,0.22-0.4,0.35-0.7,0.35c-0.54,0-0.67-0.42-0.67-0.62
						c0-0.24,0.11-0.43,0.21-0.58c0.4-0.66,0.43-0.72,0.43-0.82c0-0.16-0.1-0.19-0.22-0.19h-5.11c0.3,0.21,0.32,0.42,0.34,0.59
						l2.59-0.06c0.85-0.02,1.26-0.03,1.26,0.59c0,0.56-0.43,0.58-1.23,0.59l-2.61,0.06v0.37c0,0.3,0.02,0.4,0.53,0.4h2.48
						c0.24,0,0.38-0.11,0.46-0.18c0.19-0.14,0.32-0.26,0.53-0.26c0.29,0,0.67,0.27,0.67,0.7c0,0.32-0.32,1.07-1.35,1.07h-3.54
						c-0.77,0-1.28-0.7-1.28-1.23v-0.85L562.58,71.87z M564.1,78.74v-1.01h-1.94c-0.3,0-0.48,0-0.69-0.14
						c-0.24-0.16-0.45-0.46-0.45-0.82V75.6c0-0.67,0-1.26,0.72-1.26c0.66,0,0.66,0.43,0.66,1.26v0.45c0,0.22,0.18,0.45,0.45,0.45
						h1.25v-0.9c0-0.56,0-1.28,0.74-1.28c0.75,0,0.75,0.7,0.75,1.28v3.14h1.11V75.6c0-0.56,0.02-1.26,0.72-1.26
						c0.74,0,0.74,0.7,0.74,1.26v0.9h1.14c0.4,0,0.45-0.27,0.45-0.53V75.6c0-0.56,0-1.28,0.74-1.28s0.74,0.7,0.74,1.28v1.23
						c0,0.26-0.21,0.9-1.02,0.9h-2.03v1.01h3.14c0.54,0,1.26,0,1.26,0.69c0,0.72-0.72,0.72-1.26,0.72h-9.57c-0.54,0-1.28,0-1.28-0.7
						c0-0.7,0.72-0.7,1.28-0.7H564.1z"/>
				</g>
				<g>
					<path class="st2" d="M581.17,76.55c-0.61,0-1.25,0-1.25-0.67s0.64-0.67,1.25-0.67h0.94v-1.41h-0.34
						c-0.19,0.54-0.32,0.9-0.83,0.9c-0.48,0-0.75-0.27-0.67-0.69c-0.21,0.16-0.29,0.19-1.04,0.54v4.37c0,0.86,0,1.5-1.79,1.5
						c-0.18,0-0.99,0-0.99-0.74c0-0.26,0.16-0.67,0.66-0.67c0.77,0,0.79,0,0.79-0.59v-3.35c-0.16,0.06-0.54,0.19-0.79,0.19
						c-0.37,0-0.75-0.34-0.75-0.88c0-0.16,0-0.51,0.56-0.7c0.16-0.05,0.83-0.22,0.98-0.27V70.4c-0.8,0-1.46,0-1.46-0.74
						c0-0.75,0.66-0.75,1.46-0.75v-1.84c0-0.53,0-1.25,0.67-1.25s0.67,0.72,0.67,1.25v1.84c0.56,0,1.27,0,1.27,0.75
						c0,0.66-0.62,0.74-0.95,0.74h-0.32v2.5c0.38-0.18,0.46-0.22,0.64-0.22c0.29,0,0.56,0.21,0.66,0.58
						c0.08-0.22,0.37-1.25,0.43-1.46c0.11-0.34,0.21-0.42,0.42-0.48c-0.35-0.24-0.45-0.69-0.45-1.07v-3.17c0-0.54,0-1.26,0.71-1.26
						c0.7,0,0.7,0.66,0.7,1.47c0.48-0.08,1.12-0.24,1.73-0.5c0.19-0.08,0.37-0.14,0.62-0.14c0.29,0,0.38,0.11,0.45,0.18
						c0.05-0.66,0.66-0.67,1.26-0.67h3.46c0.18,0,0.99,0.05,0.99,1.06c0,1.2-1.02,2.29-2.02,3.07c0.1,0.16,0.35,0.53,0.35,0.77
						c0,0.29-0.1,0.4-0.16,0.48h0.96c0.62,0,0.93,0.53,0.93,0.96c0,0.46-0.38,1.42-0.61,1.87c-0.14,0.3-0.4,0.46-0.7,0.46
						c-0.45,0-0.67-0.38-0.67-0.66c0-0.18,0.34-0.93,0.34-1.09c0-0.16-0.11-0.16-0.34-0.16h-0.56v2.29h1.31c0.56,0,1.26,0,1.26,0.67
						s-0.69,0.67-1.26,0.67h-1.31v2.05c0.32,0.06,1.76,0.08,2.1,0.13c0.26,0.03,0.69,0.06,0.69,0.67c0,0.8-0.71,0.8-1.57,0.8
						c-2.43,0-3.19-0.69-3.68-1.26c-0.37,0.96-0.66,1.22-1.07,1.22c-0.48,0-0.77-0.4-0.77-0.74c0-0.16,0.03-0.22,0.16-0.53
						c-0.43-0.02-0.82-0.32-1.18-0.8c-0.66,1.23-1.92,2.13-2.45,2.13c-0.48,0-0.69-0.38-0.69-0.7c0-0.37,0.16-0.5,0.88-1.01
						c0.54-0.4,1.11-1.18,1.27-1.95H581.17z M583.78,75.2c0.61,0,1.25,0,1.25,0.67s-0.51,0.67-1.47,0.67
						c0.13,0.24,0.35,0.56,0.61,0.82c0.08,0.06,0.48,0.34,0.58,0.42c0.32-0.91,0.4-2,0.4-2.5c0-0.35,0-1.07,0.72-1.07
						c0.74,0,0.74,0.8,0.74,1.07c0,0.37-0.13,1.23-0.21,1.78c0.1,0.21,0.26,0.5,0.67,0.86v-5.01h-0.9c-0.53,0-1.26,0-1.26-0.69
						c0-0.7,0.72-0.7,1.26-0.7h1.78c-0.05-0.03-0.06-0.06-0.1-0.11c-0.42-0.59-0.62-0.86-1.25-1.63c-0.51-0.66-0.58-0.74-0.58-0.98
						c0-0.51,0.38-0.7,0.69-0.7s0.56,0.11,1.22,0.96c0.48-0.35,1.12-0.8,1.12-1.36c0-0.14-0.06-0.14-0.34-0.14h-2.3
						c-0.71,0-0.83,0-1.09-0.27c0,0.32-0.14,0.48-0.19,0.51c-0.51,0.45-2.54,0.91-2.79,0.96v1.01c0,0.4,0.21,0.4,0.42,0.4h0.95
						c0.35,0,0.42-0.18,0.53-0.58c0.13-0.42,0.18-0.64,0.71-0.64c0.24,0,0.72,0.13,0.72,0.82c0,0.38-0.13,0.85-0.27,1.14
						c-0.29,0.56-0.8,0.56-1.18,0.56h-2.14c0.14,0.14,0.19,0.24,0.19,0.46c0,0.18-0.03,0.34-0.06,0.45h1.52c0.56,0,1.26,0,1.26,0.72
						c0,0.7-0.64,0.7-1.49,0.7v1.41H583.78z"/>
				</g>
				<g>
					<path class="st2" d="M597.82,79.28c0,0.59,0,1.28-0.77,1.28c-0.78,0-0.78-0.69-0.78-1.28V72.9c-0.32,0.56-0.59,1.01-1.12,1.01
						c-0.43,0-0.75-0.35-0.75-0.72c0-0.3,0.06-0.4,0.82-1.7c1.06-1.79,1.52-3.63,1.83-4.88c0.08-0.35,0.21-0.83,0.78-0.83
						c0.42,0,0.77,0.29,0.77,0.86c0,0.86-0.59,2.48-0.77,2.96V79.28z M604.48,73.17h3.06c1.49,0,1.49,0.91,1.49,1.42v4.16
						c0,0.53,0,1.76-2.19,1.76c-1.99,0-2.26-0.45-2.26-0.94c0-0.32,0.27-0.75,0.72-0.75c0.19,0,1.09,0.13,1.26,0.13
						c0.85,0,0.88-0.24,0.88-0.7v-3.11c0-0.34-0.05-0.42-0.48-0.42h-2.48v1.94c0.19-0.03,0.4-0.06,0.82-0.16
						c-0.16-0.35-0.29-0.66-0.29-0.88c0-0.35,0.35-0.64,0.69-0.64c0.53,0,0.7,0.4,1.18,1.41c0.38,0.82,0.48,1.12,0.48,1.3
						c0,0.37-0.3,0.75-0.75,0.75c-0.5,0-0.66-0.35-0.79-0.62c-1.33,0.34-3.25,0.67-4.58,0.67c-0.26,0-0.85,0-0.85-0.75
						c0-0.62,0.53-0.77,0.69-0.78c0.27-0.05,1.55-0.1,1.81-0.11v-2.11h-2.27c-0.43,0-0.54,0.03-0.54,0.48v3.97
						c0,0.58,0,1.28-0.75,1.28c-0.74,0-0.74-0.7-0.74-1.28v-4.56c0-0.72,0.35-1.44,1.5-1.44h2.8v-0.75h-2.83
						c-0.22,0-0.99-0.19-0.99-1.09v-4.08c0-0.91,0.82-1.07,0.99-1.07h7.46c0.24,0,1.01,0.19,1.01,1.07v4.08
						c0,0.93-0.82,1.09-1.01,1.09h-3.04V73.17z M602.9,68.59V67.6h-2.06c-0.22,0-0.22,0.1-0.22,0.27v0.72H602.9z M600.61,70.02v0.75
						c0,0.18,0,0.26,0.22,0.26h2.06v-1.01H600.61z M607.03,68.59v-0.72c0-0.18,0-0.27-0.21-0.27h-2.34v0.99H607.03z M604.48,70.02
						v1.01h2.34c0.21,0,0.21-0.08,0.21-0.26v-0.75H604.48z"/>
				</g>
				<g>
					<path class="st2" d="M616.27,79.48c0,0.4,0,1.07-0.8,1.07c-0.72,0-0.78-0.53-0.78-1.07V72.8c-0.34,0.53-0.59,0.9-1.07,0.9
						c-0.22,0-0.7-0.16-0.7-0.74c0-0.29,0.11-0.51,0.3-0.83c1.42-2.43,1.97-4.42,2.19-5.36c0.08-0.34,0.26-1.01,0.8-1.01
						c0.67,0,0.83,0.4,0.83,0.78c0,0.51-0.5,1.95-0.77,2.79V79.48z M624.67,72.91c0.1,0.64,0.24,1.2,0.51,1.9
						c0.24-0.18,0.32-0.24,0.83-0.67c0.35-0.3,0.46-0.4,0.75-0.4c0.34,0,0.69,0.24,0.69,0.7c0,0.27-0.1,0.42-0.48,0.75
						c-0.45,0.4-0.91,0.72-1.18,0.9c0.38,0.62,0.78,1.18,1.68,1.98c0.14,0.13,0.38,0.34,0.38,0.64c0,0.48-0.38,0.77-0.8,0.77
						c-0.16,0-0.38,0-1.23-0.88c-0.82-0.86-1.98-2.51-2.59-5.46c-0.53,0.34-0.58,0.37-0.98,0.59c1.01,1.39,1.63,2.98,1.63,4.32
						c0,1.78-0.77,2.5-2.1,2.5c-0.61,0-1.71-0.1-1.71-0.85c0-0.37,0.24-0.72,0.71-0.72c0.13,0,0.8,0.13,0.94,0.13
						c0.75,0,0.71-1.07,0.67-1.36c-1.01,0.62-3.57,1.9-4.31,1.9c-0.67,0-0.77-0.48-0.77-0.66c0-0.42,0.34-0.59,0.8-0.74
						c1.34-0.45,2.75-1.01,3.97-1.73c-0.06-0.19-0.18-0.42-0.22-0.53c-1.12,0.61-3.59,1.55-4.21,1.55c-0.64,0-0.74-0.45-0.74-0.67
						c0-0.4,0.38-0.61,0.74-0.7c2-0.56,2.43-0.69,3.6-1.28c-0.1-0.16-0.16-0.24-0.35-0.53c-1.23,0.53-2.8,0.94-3.27,0.94
						c-0.69,0-0.72-0.54-0.72-0.62c0-0.54,0.53-0.64,0.88-0.7c1.55-0.3,2.77-0.75,3.39-1.09h-2.56c-0.93,0-1.15-0.69-1.15-0.94
						v-2.08c0-0.13,0.06-0.34,0.13-0.43c-0.53-0.03-0.64-0.53-0.64-0.7c0-0.42,0.35-0.62,0.45-0.69c1.44-0.86,1.71-1.02,2.48-1.71
						c0.48-0.43,0.72-0.66,0.99-0.66c0.4,0,0.82,0.34,0.82,0.78c0,0.11-0.03,0.18-0.06,0.26h2.29c0.29,0,1.15,0.02,1.15,0.86
						c0,0.43-0.56,1.01-0.86,1.34h1.84c0.99,0,1.15,0.77,1.15,0.94v2.08c0,0.13-0.13,0.94-1.15,0.94H624.67z M622.34,68.94
						c0.19-0.18,0.69-0.64,0.69-0.8c0-0.05-0.02-0.13-0.21-0.13h-2.48c-0.21,0.16-0.72,0.54-1.41,0.93H622.34z M619.39,70.24
						c-0.29,0-0.38,0.13-0.38,0.35v0.67c0,0.24,0.14,0.34,0.38,0.34h2.19v-1.36H619.39z M625.33,71.6c0.27,0,0.38-0.11,0.38-0.34
						v-0.69c0-0.29-0.18-0.34-0.37-0.34h-2.21v1.36H625.33z"/>
				</g>
				<g>
					<path class="st2" d="M635.07,72.3c-0.35,0.45-0.5,0.62-0.9,0.62c-0.08,0-0.13-0.02-0.24-0.03c-0.03,1.94-0.08,4.43-0.62,6.43
						c-0.16,0.58-0.34,1.14-0.94,1.14c-0.46,0-0.75-0.35-0.75-0.74c0-0.16,0.38-1.38,0.43-1.63c0.5-2.29,0.5-4.24,0.5-7.51
						c0-0.54,0-2.74,0.06-2.98c0.02-0.06,0.22-0.77,1.19-0.77h4.93c0-0.42,0-1.1,0.8-1.1c0.78,0,0.78,0.69,0.78,1.1h4.64
						c0.54,0,1.26,0,1.26,0.72c0,0.74-0.72,0.74-1.26,0.74h-10.5c-0.42,0-0.5,0.18-0.5,0.4v2.88c0.8-1.09,0.98-1.33,1.5-2.39
						c0.26-0.5,0.35-0.67,0.71-0.67c0.35,0,0.66,0.26,0.66,0.69c0,0.18-0.03,0.26-0.43,1.06v5.04c0,0.61,0,1.25-0.67,1.25
						c-0.64,0-0.64-0.67-0.64-1.25V72.3z M634.1,79.7c0-0.1,0.16-0.38,0.38-0.86c0.14-0.32,0.51-1.2,0.64-1.38
						c0.1-0.14,0.27-0.24,0.46-0.24c0.42,0,0.66,0.34,0.66,0.66c0,0.37-0.45,1.38-0.83,2.03c-0.1,0.16-0.3,0.53-0.77,0.45
						C634.21,80.28,634.1,79.91,634.1,79.7z M644.6,71.44c0.58,0,1.25,0,1.25,0.58c0,0.56-0.67,0.56-1.25,0.56h-1.97v0.69h1.97
						c0.67,0,1.25,0.02,1.25,0.62c0,0.61-0.58,0.61-1.25,0.61h-1.97v0.61h2.21c0.59,0,1.26,0,1.26,0.7c0,0.62-0.71,0.62-1.26,0.62
						h-4.58c1.34,0.8,1.34,1.1,1.34,1.36c0,0.38-0.3,0.58-0.62,0.58c-0.26,0-0.32-0.06-0.98-0.64c-0.75-0.64-0.83-0.72-0.83-1.01
						c0-0.16,0.05-0.22,0.1-0.29h-0.3c-0.19,0-1.17,0-1.17-1.02v-3.33c-0.06,0.05-0.16,0.1-0.34,0.1c-0.4,0-0.66-0.27-0.66-0.64
						c0-0.32,0.11-0.43,0.58-0.93c0.64-0.67,0.72-0.78,1.42-1.84c0.13-0.18,0.29-0.37,0.59-0.37c0.4,0,0.72,0.32,0.72,0.72
						c0,0.18-0.06,0.29-0.16,0.45h1.63c0.05-0.1,0.24-0.58,0.29-0.67c0.11-0.24,0.24-0.45,0.59-0.45c0.19,0,0.67,0.11,0.67,0.64
						c0,0.18-0.05,0.29-0.11,0.48h1.7c0.56,0,1.25,0,1.25,0.66c0,0.61-0.67,0.61-1.25,0.61h-2.1v0.61H644.6z M638.56,78.76
						c0,0.45,0.14,0.45,0.75,0.45h1.95c0.4,0,0.69,0,0.88-0.43c0.19-0.42,0.3-0.67,0.7-0.67c0.46,0,0.66,0.43,0.66,0.69
						c0,0.3-0.21,0.91-0.5,1.25c-0.27,0.34-0.8,0.48-1.68,0.48h-2.35c-1.86,0-1.82-0.77-1.82-1.44v-0.77c0-0.54,0-1.26,0.7-1.26
						c0.71,0,0.71,0.72,0.71,1.26V78.76z M641.23,71.44v-0.61h-1.65c-0.38,0-0.38,0.06-0.38,0.61H641.23z M639.2,72.58v0.69h2.03
						v-0.69H639.2z M641.23,75.11V74.5h-2.03v0.3c0,0.13,0,0.3,0.38,0.3H641.23z M644.2,77.07c0.38,0,0.46,0.11,1.15,1.15
						c0.58,0.88,0.64,1.02,0.64,1.26c0,0.51-0.42,0.69-0.64,0.69c-0.4,0-0.53-0.3-1.03-1.1c-0.16-0.26-0.66-1.04-0.7-1.25
						C643.54,77.43,643.8,77.07,644.2,77.07z"/>
				</g>
				<g>
					<path class="st2" d="M663.49,72.13c0.53,0,1.26,0,1.26,0.67c0,0.66-0.75,0.66-1.26,0.66h-5.07c-0.06,0.21-0.13,0.42-0.32,0.91
						h5.14c0.8,0,0.98,0.66,0.98,0.96c0,0.72-0.91,1.89-2.22,2.86c0.8,0.32,1.06,0.37,2.05,0.59c0.16,0.03,0.77,0.18,0.77,0.78
						c0,0.26-0.16,0.74-0.75,0.74c-0.18,0-2.03-0.19-3.7-1.12c-2.24,1.09-4.08,1.23-4.19,1.23c-0.4,0-0.72-0.34-0.72-0.72
						c0-0.66,0.53-0.77,0.79-0.82c1.52-0.34,1.81-0.37,2.64-0.69c-1.01-0.82-1.46-1.44-1.74-1.86c-0.34,0.54-1.76,2.58-2.55,2.58
						c-0.4,0-0.77-0.35-0.77-0.82c0-0.26,0.16-0.42,0.53-0.82c0.83-0.9,1.81-1.92,2.5-3.83h-1.33c-0.71,0-0.96,0-1.18-0.4
						c0.13,0.67-0.34,0.85-1.31,1.22v4.79c0,0.59-0.08,1.31-1.44,1.31c-0.66,0-1.73-0.1-1.73-0.91c0-0.45,0.35-0.69,0.61-0.69
						c0.13,0,0.69,0.08,0.8,0.08c0.27,0,0.32-0.06,0.32-0.37v-3.73c-0.18,0.05-0.64,0.18-0.93,0.18c-0.48,0-0.78-0.38-0.78-0.77
						c0-0.64,0.59-0.77,0.74-0.8c0.34-0.06,0.93-0.19,0.98-0.21v-3.09h-0.46c-0.56,0-1.28,0-1.28-0.74s0.72-0.74,1.28-0.74h0.46
						v-1.57c0-0.54,0-1.26,0.72-1.26c0.72,0,0.72,0.72,0.72,1.26v1.57c0.9,0,1.54,0,1.54,0.74s-0.64,0.74-1.54,0.74v2.67
						c0.5-0.18,0.54-0.19,0.69-0.19c0.08,0,0.37,0,0.58,0.37c-0.11-0.78,0.72-0.78,1.23-0.78h1.7c0.08-0.48,0.1-0.59,0.13-0.8h-1.54
						c-0.54,0-1.26,0-1.26-0.69c0-0.67,0.75-0.67,1.26-0.67h0.45c-0.3-0.22-0.69-1.38-0.69-1.5c0-0.34,0.22-0.69,0.69-0.69
						c0.45,0,0.61,0.34,0.67,0.46c0.18,0.37,0.37,0.9,0.37,1.18c0,0.22-0.11,0.4-0.32,0.54h2.06c-0.37-0.24-0.72-1.38-0.72-1.54
						c0-0.3,0.21-0.72,0.69-0.72c0.78,0,1.07,1.31,1.07,1.66c0,0.4-0.21,0.5-0.35,0.59h1.63c0.29-0.61,0.29-0.62,0.74-1.86
						c0.05-0.13,0.21-0.56,0.75-0.56c0.4,0,0.74,0.4,0.74,0.77c0,0.3-0.21,0.78-0.58,1.65h0.29c0.54,0,1.26,0,1.26,0.69
						c0,0.67-0.74,0.67-1.26,0.67h-4.35c-0.03,0.19-0.05,0.3-0.14,0.8H663.49z M658.07,66.25c0.9,0,2.53-0.02,4.19-0.24
						c0.21-0.03,1.07-0.19,1.27-0.19c0.56,0,0.8,0.4,0.8,0.7c0,0.51-0.48,0.69-0.83,0.74c-1.15,0.16-3.23,0.37-6.23,0.37
						c-2.07,0-2.82,0-2.82-0.72s0.61-0.72,1.22-0.72C655.92,66.19,657.71,66.25,658.07,66.25z M658.67,75.76
						c0.24,0.32,0.75,0.98,1.78,1.66c1.33-0.82,1.44-1.41,1.44-1.46c0-0.13-0.13-0.21-0.27-0.21H658.67z"/>
				</g>
				<g>
					<path class="st2" d="M677.88,67.28c1.78,1.46,3.41,2.38,4.61,3.07c0.38,0.21,0.58,0.4,0.58,0.8c0,0.53-0.42,0.83-0.79,0.83
						c-0.72,0-4.29-2.53-6.1-4.1c-0.16-0.14-0.34-0.3-0.54-0.3c-0.16,0-0.22,0.05-0.7,0.43c-3.19,2.61-5.25,3.84-5.84,3.84
						c-0.43,0-0.77-0.37-0.77-0.8c0-0.48,0.29-0.64,0.83-0.93c1.39-0.74,3.25-1.92,4.69-3.19c0.61-0.53,1.22-0.98,1.44-1.06
						c0.16-0.06,0.32-0.08,0.43-0.08C675.99,65.81,676.1,65.81,677.88,67.28z M676.56,73.17h3.67c0.62,0,1.28,0.02,1.28,0.82
						c0,0.82-0.66,0.82-1.28,0.82h-3.67v3.87h4.83c0.56,0,1.28,0,1.28,0.75c0,0.77-0.7,0.77-1.28,0.77h-11.48
						c-0.56,0-1.26,0-1.26-0.75c0-0.77,0.7-0.77,1.26-0.77h0.91v-5.52c0-0.53,0-1.28,0.8-1.28c0.79,0,0.79,0.75,0.79,1.28v5.52h2.56
						v-7.8c0-0.51,0-1.28,0.78-1.28c0.8,0,0.8,0.77,0.8,1.28V73.17z"/>
				</g>
				<g>
					<path class="st2" d="M695.15,68.11h0.82c0.24,0,0.5,0.24,0.5,0.54c0,0.05-0.02,0.56-0.64,0.56h-0.67v0.58
						c0,0.59-0.46,1.02-1.12,1.02h-1.91v0.53h2.21c0.88,0,1.22,0.02,1.22,0.48c0,0.46-0.34,0.46-1.22,0.46h-2.21v0.53h2.95
						c0.85,0,1.23,0,1.23,0.51s-0.38,0.51-1.23,0.51h-7.09c-0.83,0-1.22,0-1.22-0.51s0.38-0.51,1.22-0.51h2.77v-0.53h-2.07
						c-0.88,0-1.22,0-1.22-0.46c0-0.46,0.34-0.48,1.22-0.48h2.07v-0.53h-1.84c-0.72,0-1.22,0-1.22-0.51s0.54-0.51,1.22-0.51h1.84
						v-0.58h-2.71c-0.79,0-1.23,0-1.23-0.56c0-0.54,0.43-0.54,1.23-0.54h2.71V67.6h-1.84c-0.77,0-1.22,0-1.22-0.5
						c0-0.48,0.43-0.48,1.22-0.48h1.84c0-0.16,0-0.96,0.69-0.96c0.69,0,0.69,0.8,0.69,0.96h1.84c0.69,0,1.18,0.59,1.18,1.02V68.11z
						 M692.9,79.04c0.53-0.05,1.38-0.19,1.9-0.19c0.32,0,0.82,0.05,0.82,0.62c0,0.53-0.35,0.58-0.9,0.66
						c-0.38,0.05-3.27,0.34-5.83,0.34c-1.1,0-1.44-0.02-1.65-0.11c-0.24-0.11-0.3-0.38-0.3-0.56c0-0.66,0.71-0.62,1.23-0.62
						C690.1,79.19,691.55,79.17,692.9,79.04z M694.24,74.35c0.58,0,1.15,0.5,1.15,1.17v1.7c0,0.53-0.46,1.17-1.15,1.17h-5.47
						c-0.58,0-1.14-0.56-1.14-1.17v-1.7c0-0.62,0.58-1.17,1.14-1.17H694.24z M690.75,75.89v-0.51h-1.44c-0.27,0-0.27,0.29-0.27,0.51
						H690.75z M689.04,76.74v0.29c0,0.16,0.14,0.27,0.27,0.27h1.44v-0.56H689.04z M693.81,68.11c0-0.21,0-0.51-0.3-0.51h-1.38v0.51
						H693.81z M692.13,69.22v0.58h1.28c0.4,0,0.4-0.11,0.4-0.58H692.13z M693.97,75.89c0-0.29-0.02-0.51-0.27-0.51h-1.57v0.51
						H693.97z M692.13,76.74v0.56h1.55c0.13,0,0.29-0.11,0.29-0.27v-0.29H692.13z M701.12,79c0,1.46-1.41,1.52-1.68,1.52
						c-0.64,0-2-0.19-2.43-0.5c-0.18-0.13-0.27-0.35-0.27-0.56c0-0.38,0.32-0.69,0.7-0.69c0.32,0,1.26,0.22,1.55,0.22
						c0.53,0,0.59-0.18,0.59-0.61V67.1c0-0.67,0-1.28,0.77-1.28c0.75,0,0.77,0.53,0.77,1.28V79z M698.15,75.27
						c0,0.88,0,1.23-0.69,1.23s-0.69-0.35-0.69-1.23v-7.55c0-0.9,0-1.25,0.69-1.25s0.69,0.37,0.69,1.25V75.27z"/>
				</g>
				<g>
					<path class="st2" d="M709.42,79.19c0,0.58,0,1.26-0.72,1.26s-0.74-0.69-0.74-1.26V74.1c-0.48,0.03-1.82-0.03-2.1-0.06
						c-0.43-0.05-0.66-0.4-0.66-0.72c0-0.29,0.21-0.75,0.85-0.75c0.1,0,0.37,0.02,0.59,0.03c0.35-0.42,0.85-1.06,1.07-1.36
						c-0.72-0.67-0.86-0.8-2.18-1.97c-0.19-0.18-0.4-0.34-0.4-0.64c0-0.5,0.38-0.8,0.78-0.8c0.26,0,0.46,0.14,0.69,0.32
						c0.21-0.3,1.02-1.71,1.18-1.98c0.08-0.13,0.27-0.38,0.61-0.38c0.42,0,0.85,0.32,0.85,0.78c0,0.66-1.04,2.02-1.49,2.59
						c0.3,0.27,0.69,0.61,0.88,0.8c0.54-0.85,0.62-1.02,1.42-2.56c0.21-0.42,0.56-0.45,0.69-0.45c0.32,0,0.82,0.26,0.82,0.77
						c0,0.29-0.58,1.78-3.06,4.91c0.59-0.02,1.18-0.08,1.78-0.16c-0.22-0.83-0.24-0.93-0.24-1.09c0-0.43,0.43-0.62,0.72-0.62
						c0.5,0,0.66,0.51,0.75,0.82c0.24,0.83,0.51,2.21,0.51,2.45c0,0.48-0.3,0.74-0.69,0.74c-0.58,0-0.7-0.58-0.75-0.85
						c-0.35,0.05-0.78,0.1-1.18,0.13V79.19z M705.23,78.96c0-0.21,0.29-1.1,0.34-1.3c0.16-0.67,0.18-0.86,0.32-2.13
						c0.05-0.4,0.32-0.74,0.7-0.74c0.32,0,0.74,0.26,0.74,0.78c0,0.06-0.02,1.17-0.46,2.98c-0.21,0.86-0.45,1.07-0.93,1.07
						C705.71,79.64,705.23,79.49,705.23,78.96z M710.71,74.96c0.51,0,0.59,0.38,0.75,1.17c0.06,0.35,0.18,0.85,0.32,1.31
						c0.02,0.06,0.06,0.24,0.06,0.35c0,0.35-0.27,0.62-0.69,0.62c-0.48,0-0.59-0.32-0.66-0.54c-0.16-0.51-0.42-1.87-0.45-2.08
						C709.97,75.15,710.48,74.96,710.71,74.96z M712.4,67.29c0-0.99,0.9-1.14,1.09-1.14h4.13c0.86,0,1.26,0.62,1.26,1.23v11.22
						c0.32,0,1.04,0,1.04,0.75c0,0.77-0.71,0.77-1.28,0.77h-6.05c-0.58,0-1.28,0-1.28-0.77c0-0.75,0.72-0.75,1.01-0.75h0.08V67.29z
						 M713.99,70.05h3.34v-1.92c0-0.29-0.16-0.42-0.43-0.42h-2.48c-0.34,0-0.43,0.08-0.43,0.35V70.05z M717.33,71.62h-3.34v2.53
						h3.34V71.62z M717.33,75.71h-3.34v2.9h3.34V75.71z"/>
				</g>
			</g>
			<g>
				<g>
					<path class="st2" d="M483,44.99l3.31,14.1c0.09,0.37,0.35,0.67,0.7,0.81l13.49,5.27c0.89,0.35,1,1.57,0.18,2.06l-12.39,7.5
						c-0.33,0.2-0.53,0.54-0.55,0.92l-0.84,14.46c-0.06,0.96-1.18,1.43-1.91,0.81l-10.96-9.46c-0.29-0.25-0.68-0.34-1.05-0.24
						l-14.01,3.67c-0.93,0.24-1.73-0.68-1.36-1.57l5.61-13.35c0.15-0.35,0.11-0.75-0.09-1.07l-7.82-12.19
						c-0.52-0.81,0.11-1.86,1.07-1.78l14.43,1.21c0.38,0.03,0.75-0.12,0.99-0.42l9.18-11.2C481.59,43.78,482.78,44.06,483,44.99z"/>
				</g>
				<g>
					<g>
						<path class="st2" d="M542.87,2.81c-1.61-1.26-3.71-1.83-5.74-1.55c-1.59,0.22-2.88,1.02-4.23,1.82
							c-4.48,2.67-8.91,5.43-13.01,8.66c-8.85,6.98-16.9,14.83-24.02,23.58c-3.16,3.88-6.2,7.9-9.04,12.04
							c-0.29,0.42-0.39,0.95-0.27,1.45l1.22,5.21c5.42-6.09,11.39-11.7,17.57-16.97c4.25-3.62,8.79-6.95,13.47-9.98
							c4.71-3.04,9.58-5.67,14.62-8.12c2.14-1.04,4.41-1.84,6.61-2.73c1.41-0.57,2.73-1.2,3.77-2.36
							C546.72,10.64,546.28,5.48,542.87,2.81z"/>
					</g>
					<g>
						<path class="st2" d="M573.6,12.11c-1.65-1.13-3.65-1.7-5.65-1.61c-1.44,0.07-2.79,0.55-4.16,0.95
							c-2.39,0.71-4.77,1.42-7.16,2.13c-2.58,0.89-5.13,1.88-7.7,2.82c-5.3,1.95-10.4,4.49-15.43,7.04
							c-5.16,2.62-10.13,5.6-15.01,8.7c-4.8,3.05-9.55,6.36-13.98,9.93c-5.59,4.5-11.08,9.13-16.22,14.11l0.4,1.72l3.43,1.34
							c2.12-1.48,4.27-2.93,6.46-4.32c7.88-4.99,16.11-9.51,24.65-13.26c10.26-4.5,20.86-8.15,31.84-10.43
							c2.66-0.52,5.28-1.07,7.97-1.42c1.96-0.26,3.92-0.52,5.88-0.78c3.7-0.49,6.87-2.52,8.18-6.15
							C578.5,18.96,577.04,14.45,573.6,12.11z"/>
					</g>
					<g>
						<path class="st2" d="M564.15,43.97c-0.02-4.23-3.64-7.73-7.88-7.57c-1.65,0.06-3.32,0.43-4.95,0.65
							c-2.59,0.35-5.15,0.9-7.72,1.41c-5.48,1.09-10.87,2.89-16.13,4.77c-5.42,1.94-10.74,4.29-15.88,6.89
							c-5.87,3.05-11.57,6.33-17.09,9.91l5.52,2.15c0.28,0.11,0.58,0.1,0.85-0.01c3.17-1.29,6.38-2.5,9.63-3.57
							c10.75-3.57,21.76-5.99,33.06-6.89c4.25-0.34,8.49-0.25,12.75-0.11C560.55,51.72,564.17,48.21,564.15,43.97z"/>
					</g>
				</g>
			</g>
		</g>
	</g>
</g>
<g id="OV">
</g>
</svg>
