<?xml version="1.0" encoding="utf-8"?>
<!-- Generator: Adobe Illustrator 26.0.2, SVG Export Plug-In . SVG Version: 6.00 Build 0)  -->
<svg version="1.1" xmlns="http://www.w3.org/2000/svg" xmlns:xlink="http://www.w3.org/1999/xlink" x="0px" y="0px"
	 viewBox="0 0 295.72 120" style="enable-background:new 0 0 295.72 120;" xml:space="preserve">
<style type="text/css">
	.st0{fill:#FFFFFF;}
	.st1{fill:none;stroke:#FFFFFF;stroke-miterlimit:10;}
	.st2{fill:#222222;}
	.st3{fill:#6275B0;}
	.st4{fill:none;stroke:#5A79BA;stroke-miterlimit:10;}
	.st5{fill:#FFFBB9;}
	.st6{fill:#F7D4D9;}
	.st7{fill:#C1E7FF;}
	.st8{fill:#5A79BA;}
	.st9{fill:#EFA5AF;}
	.st10{fill:#FFFFFF;stroke:#5A79BA;stroke-width:2;stroke-miterlimit:10;}
	.st11{fill:none;stroke:#C3E5FF;stroke-width:2;stroke-linecap:round;stroke-linejoin:round;stroke-miterlimit:10;}
	.st12{fill:none;stroke:#EFA5AF;stroke-width:1.5;stroke-linecap:round;stroke-linejoin:round;stroke-miterlimit:10;}
	.st13{fill:none;stroke:#C3E5FF;stroke-width:1.5;stroke-linecap:round;stroke-linejoin:round;stroke-miterlimit:10;}
	.st14{fill:none;stroke:#5A79BA;stroke-width:2;stroke-linecap:round;stroke-linejoin:round;stroke-miterlimit:10;}
	.st15{fill:none;stroke:#EFA5AF;stroke-width:1.5;stroke-linejoin:round;stroke-miterlimit:10;}
	.st16{fill:none;stroke:#C3E5FF;stroke-width:1.5;stroke-miterlimit:10;}
	.st17{fill:#C3E5FF;}
	.st18{fill:#FFFFFF;stroke:#5A79BA;stroke-miterlimit:10;}
	.st19{fill:#FFFFFF;stroke:#EFA5AF;stroke-miterlimit:10;}
	.st20{fill:url(#SVGID_1_);}
	.st21{fill:url(#SVGID_00000084531541166539049540000014132763746131747749_);}
	.st22{fill:url(#SVGID_00000142148830551454088460000008436650424178474431_);}
	.st23{fill:url(#SVGID_00000110438308573682383920000010177469682834628509_);}
	.st24{fill:url(#SVGID_00000010300246252156307740000013505237015147756474_);}
	.st25{fill:url(#SVGID_00000150798206236786881180000010423489797337506967_);}
	.st26{fill:url(#SVGID_00000153667754932410560720000006383523398815070619_);}
	.st27{fill:url(#SVGID_00000129899791229997287150000015290979242244589473_);}
	.st28{fill:url(#SVGID_00000129926534480747332220000014224589858495013016_);}
	.st29{fill:url(#SVGID_00000173160268479195345790000003105526201978271413_);}
	.st30{fill:url(#SVGID_00000082328553580020981880000018371649311654089655_);}
	.st31{fill:url(#SVGID_00000176735636551817878910000012999736815603493820_);}
	.st32{fill:url(#SVGID_00000067938034769603959330000007574766332675764670_);}
	.st33{fill:url(#SVGID_00000052797734092078428460000013975726178205710742_);}
	.st34{fill:url(#SVGID_00000026134551027810457600000014880840167088021129_);}
	.st35{fill:url(#SVGID_00000103955522942242698190000002064758218647062716_);}
	.st36{fill:url(#SVGID_00000146488834050793463380000003765878725778671548_);}
	.st37{fill:url(#SVGID_00000175310609890367449800000008728987581058781593_);}
	.st38{fill:url(#SVGID_00000097500316549034399620000018223821904117094072_);}
	.st39{fill:url(#SVGID_00000037666955008996764890000012775047700373953686_);}
	.st40{fill:url(#SVGID_00000106118202757665747370000006602558962162680218_);}
	.st41{fill:url(#SVGID_00000080929298473391044870000001290287352278680992_);}
	.st42{fill:#255C84;}
	.st43{fill:#FFCB4A;stroke:#FFCB4A;stroke-miterlimit:10;}
	.st44{fill:none;stroke:#222222;stroke-width:2;stroke-miterlimit:10;}
	.st45{fill:none;stroke:#FFFFFF;stroke-width:2;stroke-miterlimit:10;}
</style>
<g id="BG">
</g>
<g id="GR">
	<g>
		<g>
			<path class="st42" d="M81.66,96.79c0.55,0,1,0.47,1,1.02v6.62c0,0.55-0.45,1.02-1,1.02c-0.57,0-1.01-0.47-1.01-1.02v-2.4h-3.26
				v2.4c0,0.55-0.44,1.02-0.99,1.02c-0.56,0-1.02-0.47-1.02-1.02V97.8c0-0.55,0.45-1.02,1.02-1.02c0.55,0,0.99,0.47,0.99,1.02v2.5
				h3.26v-2.5C80.65,97.25,81.09,96.79,81.66,96.79z"/>
			<path class="st42" d="M93.49,101.12c0,2.59-2.12,4.38-4.28,4.38c-2.16,0-4.28-1.79-4.28-4.38s2.12-4.38,4.28-4.38
				C91.37,96.74,93.49,98.53,93.49,101.12z M87.04,101.12c0,1.47,0.98,2.45,2.17,2.45c1.19,0,2.16-0.98,2.16-2.45
				s-0.94-2.47-2.16-2.47C88.02,98.65,87.04,99.64,87.04,101.12z"/>
			<path class="st42" d="M103.03,97.82v6.68c0,0.65-0.42,0.99-0.96,0.99c-0.44,0-0.8-0.25-1.04-0.59l-3.21-4.44v4
				c0,0.55-0.45,1.03-1.02,1.03c-0.58,0-1.04-0.48-1.04-1.03v-6.7c0-0.64,0.42-0.98,0.97-0.98c0.43,0,0.78,0.23,1.03,0.59l3.21,4.43
				v-3.99c0-0.55,0.45-1.03,1.02-1.03C102.58,96.79,103.03,97.26,103.03,97.82z"/>
			<path class="st42" d="M113.44,101.96c-0.1,2.38-1.96,3.53-3.78,3.53c-2.18,0-4.37-1.79-4.37-4.38s2.21-4.38,4.33-4.38
				c0.83,0,1.47,0.2,1.94,0.44c0.54,0.33,0.91,0.67,0.91,1.18c0,0.59-0.47,0.91-0.93,0.91c-0.38,0-0.64-0.18-0.76-0.26
				c-0.09-0.04-0.44-0.36-1.12-0.36c-1.24,0-2.26,1.1-2.26,2.47c0,1.36,0.99,2.46,2.26,2.46c0.69,0,1.67-0.39,1.81-1.25h-1
				c-0.46,0-0.87-0.33-0.87-0.81c0-0.49,0.42-0.82,0.87-0.82h1.88C113.11,100.7,113.48,101.23,113.44,101.96z"/>
			<path class="st42" d="M127.66,104.64c0,0.48-0.41,0.87-0.89,0.87c-0.25,0-0.49-0.12-0.65-0.3l-2.71-3.15l-1.19,1.24v1.2
				c0,0.55-0.45,1.01-1.01,1.01c-0.55,0-1-0.44-1-0.99v-6.78c0-0.55,0.45-1,1-1c0.55,0,1.01,0.45,1.01,1v2.88l3.46-3.54
				c0.16-0.18,0.43-0.34,0.72-0.34c0.49,0,0.91,0.39,0.91,0.89c0,0.22-0.11,0.44-0.21,0.56l-2.44,2.56l2.79,3.3
				C127.57,104.19,127.66,104.41,127.66,104.64z"/>
			<path class="st42" d="M137.38,101.12c0,2.59-2.12,4.38-4.28,4.38c-2.16,0-4.28-1.79-4.28-4.38s2.12-4.38,4.28-4.38
				C135.26,96.74,137.38,98.53,137.38,101.12z M130.93,101.12c0,1.47,0.98,2.45,2.17,2.45c1.19,0,2.16-0.98,2.16-2.45
				s-0.94-2.47-2.16-2.47C131.91,98.65,130.93,99.64,130.93,101.12z"/>
			<path class="st42" d="M146.92,97.82v6.68c0,0.65-0.42,0.99-0.96,0.99c-0.44,0-0.8-0.25-1.04-0.59l-3.21-4.44v4
				c0,0.55-0.45,1.03-1.02,1.03c-0.58,0-1.04-0.48-1.04-1.03v-6.7c0-0.64,0.42-0.98,0.97-0.98c0.43,0,0.78,0.23,1.03,0.59l3.21,4.43
				v-3.99c0-0.55,0.45-1.03,1.02-1.03C146.47,96.79,146.92,97.26,146.92,97.82z"/>
			<path class="st42" d="M157.33,101.96c-0.1,2.38-1.96,3.53-3.78,3.53c-2.18,0-4.37-1.79-4.37-4.38s2.21-4.38,4.33-4.38
				c0.83,0,1.47,0.2,1.94,0.44c0.54,0.33,0.91,0.67,0.91,1.18c0,0.59-0.47,0.91-0.93,0.91c-0.38,0-0.64-0.18-0.76-0.26
				c-0.08-0.04-0.44-0.36-1.11-0.36c-1.24,0-2.26,1.1-2.26,2.47c0,1.36,0.99,2.46,2.26,2.46c0.69,0,1.67-0.39,1.81-1.25h-1
				c-0.45,0-0.87-0.33-0.87-0.81c0-0.49,0.42-0.82,0.87-0.82h1.88C157,100.7,157.37,101.23,157.33,101.96z"/>
			<path class="st42" d="M171.79,97.69c0,0.21-0.06,0.42-0.14,0.59l-2.9,6.45c-0.22,0.51-0.54,0.75-0.98,0.75
				c-0.43,0-0.76-0.23-0.97-0.75l-2.9-6.45c-0.07-0.17-0.13-0.38-0.13-0.59c0-0.49,0.43-0.91,0.98-0.91c0.44,0,0.8,0.26,0.97,0.65
				l2.05,4.87l2.06-4.87c0.16-0.39,0.53-0.65,0.97-0.65C171.36,96.79,171.79,97.2,171.79,97.69z"/>
			<path class="st42" d="M175.94,97.82v6.66c0,0.55-0.48,1.03-1.03,1.03c-0.56,0-1.03-0.48-1.03-1.03v-6.66
				c0-0.55,0.47-1.03,1.03-1.03C175.46,96.79,175.94,97.26,175.94,97.82z"/>
			<path class="st42" d="M184.95,104.5c0,0.51-0.39,0.95-0.92,0.95c-0.32,0-0.58-0.15-0.74-0.37l-2.04-2.6h-0.92v2.02
				c0,0.55-0.44,1.01-0.99,1.01c-0.56,0-1.02-0.45-1.02-1.01v-6.56c0-0.65,0.47-1.12,1.12-1.12h2.24c1.91,0,3.15,1.3,3.15,2.84
				c0,1.07-0.6,2-1.59,2.48l1.46,1.74C184.83,104.06,184.95,104.26,184.95,104.5z M180.34,100.76h1.24c0.7,0,1.31-0.18,1.31-1.09
				c0-0.92-0.61-1.13-1.31-1.13h-1.24V100.76z"/>
			<path class="st42" d="M193.3,97.72c0,0.49-0.41,0.88-0.88,0.88h-1.52v5.85c0,0.58-0.47,1.05-0.99,1.05
				c-0.55,0-1.02-0.48-1.02-1.05V98.6h-1.51c-0.48,0-0.9-0.39-0.9-0.88c0-0.5,0.42-0.89,0.9-0.89h5.04
				C192.9,96.82,193.3,97.21,193.3,97.72z"/>
			<path class="st42" d="M202.37,97.77v4.61c0,1.96-1.59,3.12-3.48,3.12c-1.91,0-3.5-1.15-3.5-3.12v-4.61
				c0-0.54,0.43-0.98,0.98-0.98c0.56,0,1.03,0.44,1.03,0.98v4.6c0,1.1,0.75,1.46,1.48,1.46s1.47-0.35,1.47-1.46v-4.6
				c0-0.54,0.47-0.98,1.03-0.98C201.94,96.79,202.37,97.23,202.37,97.77z"/>
			<path class="st42" d="M212.03,104.55c0,0.49-0.43,0.91-0.98,0.91c-0.44,0-0.81-0.26-0.97-0.65l-0.47-1.1h-3.18l-0.47,1.1
				c-0.17,0.39-0.53,0.65-0.97,0.65c-0.55,0-0.98-0.42-0.98-0.91c0-0.21,0.06-0.42,0.13-0.59l2.89-6.45
				c0.21-0.51,0.54-0.75,0.97-0.75c0.44,0,0.76,0.23,0.98,0.75l2.89,6.45C211.97,104.13,212.03,104.34,212.03,104.55z
				 M208.94,102.12l-0.92-2.18l-0.92,2.18H208.94z"/>
			<path class="st42" d="M218.93,103.63c0.48,0,0.88,0.39,0.88,0.9c0,0.49-0.41,0.88-0.88,0.88h-3.7c-0.65,0-1.12-0.47-1.12-1.12
				v-6.48c0-0.56,0.46-1.03,1.02-1.03c0.55,0,0.99,0.47,0.99,1.03v5.81H218.93z"/>
			<path class="st42" d="M77.44,112.31v6.66c0,0.55-0.48,1.03-1.03,1.03c-0.56,0-1.03-0.48-1.03-1.03v-6.66
				c0-0.55,0.47-1.03,1.03-1.03C76.96,111.28,77.44,111.76,77.44,112.31z"/>
			<path class="st42" d="M87.16,115.55c0,2.87-2.09,4.35-4.44,4.35h-1.78c-0.65,0-1.12-0.47-1.12-1.12v-6.35
				c0-0.65,0.47-1.12,1.12-1.12h1.78C85.08,111.32,87.16,112.8,87.16,115.55z M85.14,115.55c0-1.8-0.88-2.54-2.42-2.54h-0.88v5.2
				h0.88C84.26,118.21,85.14,117.47,85.14,115.55z"/>
			<path class="st42" d="M97.75,115.61c0,2.59-2.12,4.38-4.28,4.38c-2.16,0-4.28-1.79-4.28-4.38s2.12-4.38,4.28-4.38
				C95.62,111.23,97.75,113.02,97.75,115.61z M91.29,115.61c0,1.47,0.98,2.45,2.17,2.45c1.19,0,2.16-0.98,2.16-2.45
				s-0.94-2.47-2.16-2.47C92.28,113.14,91.29,114.14,91.29,115.61z"/>
			<path class="st42" d="M104.83,118.12c0.48,0,0.88,0.39,0.88,0.9c0,0.49-0.41,0.88-0.88,0.88h-3.7c-0.65,0-1.12-0.47-1.12-1.12
				v-6.48c0-0.56,0.46-1.03,1.02-1.03c0.55,0,0.99,0.47,0.99,1.03v5.81H104.83z"/>
			<path class="st42" d="M117.35,113.07h-2.98v1.95h2.45c0.48,0,0.88,0.37,0.88,0.86c0,0.48-0.41,0.85-0.88,0.85h-2.45v2.26
				c0,0.55-0.44,1.02-0.99,1.02c-0.55,0-1.02-0.47-1.02-1.02v-6.55c0-0.65,0.47-1.12,1.11-1.12h3.88c0.49,0,0.9,0.39,0.9,0.86
				C118.25,112.68,117.84,113.07,117.35,113.07z"/>
			<path class="st42" d="M127.42,119.04c0,0.49-0.43,0.91-0.98,0.91c-0.44,0-0.81-0.26-0.97-0.65l-0.47-1.1h-3.18l-0.47,1.1
				c-0.17,0.39-0.53,0.65-0.97,0.65c-0.55,0-0.98-0.42-0.98-0.91c0-0.21,0.06-0.42,0.14-0.59l2.89-6.45
				c0.21-0.51,0.54-0.75,0.97-0.75c0.44,0,0.76,0.23,0.98,0.75l2.89,6.45C127.36,118.63,127.42,118.84,127.42,119.04z
				 M124.33,116.62l-0.92-2.18l-0.92,2.18H124.33z"/>
			<path class="st42" d="M136.78,112.31v6.68c0,0.65-0.42,0.99-0.96,0.99c-0.44,0-0.8-0.25-1.04-0.59l-3.21-4.44v4
				c0,0.55-0.45,1.03-1.02,1.03c-0.58,0-1.04-0.48-1.04-1.03v-6.7c0-0.64,0.42-0.98,0.97-0.98c0.43,0,0.79,0.23,1.03,0.59l3.21,4.43
				v-3.99c0-0.55,0.45-1.03,1.02-1.03C136.33,111.28,136.78,111.76,136.78,112.31z"/>
			<path class="st42" d="M146.87,119.04c0,0.49-0.43,0.91-0.98,0.91c-0.44,0-0.81-0.26-0.97-0.65l-0.47-1.1h-3.18l-0.47,1.1
				c-0.17,0.39-0.53,0.65-0.97,0.65c-0.55,0-0.98-0.42-0.98-0.91c0-0.21,0.06-0.42,0.13-0.59l2.9-6.45
				c0.21-0.51,0.54-0.75,0.97-0.75c0.44,0,0.76,0.23,0.98,0.75l2.9,6.45C146.81,118.63,146.87,118.84,146.87,119.04z M143.78,116.62
				l-0.92-2.18l-0.92,2.18H143.78z"/>
			<path class="st42" d="M154.06,112.21c0,0.49-0.41,0.88-0.88,0.88h-1.52v5.85c0,0.58-0.47,1.05-0.99,1.05
				c-0.55,0-1.02-0.48-1.02-1.05v-5.85h-1.51c-0.48,0-0.89-0.39-0.89-0.88c0-0.5,0.42-0.89,0.89-0.89h5.04
				C153.65,111.32,154.06,111.71,154.06,112.21z"/>
			<path class="st42" d="M158.14,112.31v6.66c0,0.55-0.48,1.03-1.03,1.03c-0.56,0-1.03-0.48-1.03-1.03v-6.66
				c0-0.55,0.47-1.03,1.03-1.03C157.66,111.28,158.14,111.76,158.14,112.31z"/>
			<path class="st42" d="M167.59,118.37c0,0.51-0.34,0.85-0.92,1.19c-0.47,0.25-1.09,0.43-1.89,0.43c-2.18,0-4.37-1.79-4.37-4.38
				s2.21-4.38,4.33-4.38c0.83,0,1.47,0.2,1.94,0.44c0.54,0.33,0.91,0.67,0.91,1.18c0,0.59-0.47,0.91-0.93,0.91
				c-0.38,0-0.64-0.18-0.76-0.26c-0.09-0.04-0.44-0.36-1.12-0.36c-1.24,0-2.26,1.1-2.26,2.47c0,1.36,0.99,2.46,2.28,2.46
				c0.64,0,1-0.32,1.09-0.36c0.12-0.07,0.37-0.26,0.76-0.26C167.12,117.46,167.59,117.78,167.59,118.37z"/>
			<path class="st42" d="M174.67,112.03c0.29,0.31,0.45,0.56,0.45,0.87c0,0.45-0.37,0.8-0.83,0.8c-0.28,0-0.6-0.17-0.78-0.37
				c-0.34-0.26-0.54-0.33-0.89-0.33c-0.61,0-0.92,0.32-0.92,0.72c0,0.24,0.09,0.58,0.76,0.83l0.34,0.12
				c2.11,0.78,2.77,1.57,2.77,2.69c0,1.77-1.77,2.62-3.2,2.62c-0.89,0-1.84-0.32-2.5-0.97c-0.15-0.18-0.44-0.54-0.44-1.01
				c0-0.41,0.27-0.85,0.82-0.85c0.43,0,0.72,0.29,0.94,0.55c0.44,0.44,0.92,0.49,1.18,0.49c0.43,0,1.14-0.14,1.14-0.85
				c0-0.48-0.27-0.77-1.19-1.13l-0.38-0.14c-1.29-0.49-2.26-1.1-2.26-2.42c0-1.52,1.26-2.45,2.85-2.45
				C173.56,111.23,174.16,111.55,174.67,112.03z"/>
		</g>
		<g>
			<path class="st42" d="M81.41,74.64c-1.55,0.07-3.34,0.09-4.91,0.09c-0.46,0-1.28,0-1.28-0.86c0-0.87,0.86-0.87,1.27-0.87
				c0.46,0,2.57,0.04,3,0.04c3.25,0,5.39-0.18,7.14-0.41c0.27-0.04,1.5-0.25,1.75-0.25c0.5,0,0.89,0.36,0.89,0.84
				c0,0.64-0.55,0.8-0.78,0.86c-0.71,0.2-3.36,0.43-5.34,0.5v0.78h5.76c0.64,0,1.43,0,1.43,0.82s-0.8,0.82-1.43,0.82h-3.71
				c1.07,0.98,2.82,1.89,4.53,2.55c0.59,0.21,0.87,0.34,0.87,0.8c0,0.39-0.27,0.95-0.87,0.95c-0.32,0-0.55-0.09-1.28-0.37
				c0.25,0.39,0.25,0.73,0.25,0.89v4.69c0,1.53-1.41,1.53-1.87,1.53h-8.89c-0.43,0-1.86,0-1.86-1.53v-4.69
				c0-0.34,0.07-0.59,0.21-0.86c-0.39,0.18-0.87,0.41-1.27,0.41c-0.59,0-0.86-0.48-0.86-0.89c0-0.57,0.46-0.75,0.88-0.91
				c2.48-1,4.03-2.48,4.14-2.57h-3.34c-0.62,0-1.43,0-1.43-0.82s0.8-0.82,1.43-0.82h5.57V74.64z M83.14,78.53
				c0,0.66,0,1.43-0.86,1.43c-0.87,0-0.87-0.73-0.87-1.43v-1.45c-0.46,0.61-1.68,1.87-3.86,3.19c0.16-0.02,0.2-0.02,0.38-0.02h8.89
				h0.21c-2.39-1.25-3.44-2.52-3.89-3.18V78.53z M86.89,83.31v-0.93c0-0.36,0-0.45-0.59-0.45h-7.83c-0.55,0-0.59,0.07-0.59,0.45
				v0.93H86.89z M77.88,84.86v1.02c0,0.38,0.03,0.45,0.59,0.45h7.83c0.59,0,0.59-0.09,0.59-0.45v-1.02H77.88z"/>
			<path class="st42" d="M98.6,82.26c0,0.59-0.75,2.41-1.52,3.76c-1.05,1.82-1.37,1.82-1.71,1.82c-0.3,0-0.84-0.21-0.84-0.77
				c0-0.27,0.07-0.43,0.34-0.82c1.05-1.57,1.25-2.07,2.09-4.16c0.2-0.48,0.45-0.57,0.82-0.57C98,81.52,98.6,81.7,98.6,82.26z
				 M97.32,80.06c-0.36,0-0.55-0.16-1.46-1.12c-0.14-0.14-0.79-0.77-0.91-0.89c-0.21-0.25-0.3-0.46-0.3-0.66
				c0-0.45,0.39-0.82,0.8-0.82c0.48,0,1.12,0.57,1.71,1.14c1.05,1.04,1.05,1.16,1.05,1.52C98.21,79.67,97.73,80.06,97.32,80.06z
				 M97.73,75.94c-0.32,0-0.43-0.11-0.89-0.61c-0.75-0.84-1.05-1.18-1.3-1.43c-0.29-0.3-0.39-0.46-0.39-0.68
				c0-0.45,0.36-0.87,0.86-0.87c0.48,0,1.25,0.8,1.75,1.39c0.78,0.91,0.87,1.02,0.87,1.34C98.62,75.49,98.25,75.94,97.73,75.94z
				 M101.69,76.96v-1.61h-1.37c-0.64,0-1.43,0-1.43-0.84c0-0.84,0.79-0.84,1.43-0.84h1.37c0-0.86,0-1.57,0.89-1.57
				c0.87,0,0.87,0.71,0.87,1.57h2.59c0-0.96,0-1.66,0.89-1.66c0.89,0,0.89,0.7,0.89,1.66h1.43c0.64,0,1.43,0,1.43,0.84
				c0,0.84-0.78,0.84-1.43,0.84h-1.43v1.61h1.62c0.64,0,1.43,0,1.43,0.84c0,0.84-0.78,0.84-1.43,0.84h-1.7
				c0.34,0.55,0.95,1.36,2.16,1.84c0.87,0.34,1.11,0.45,1.11,0.93c0,0.16-0.04,0.87-0.89,0.87c-0.32,0-0.96-0.16-1.82-0.7v1.46
				c0,1.07-0.68,1.46-1.39,1.46h-4.53c-0.18,0-0.48,0.02-0.48,0.41v0.95c0,0.66,0.54,0.66,0.84,0.66h4.96c0.32,0,1.04,0,1.16-1.23
				c0.05-0.45,0.13-1.12,0.88-1.12c0.2,0,0.82,0.11,0.82,0.93c0,1.07-0.25,3.07-2.61,3.07h-5.51c-0.96,0-2.3-0.29-2.3-1.89v-1.86
				c0-1.09,0.7-1.53,1.66-1.53h4.28c0.39,0,0.41-0.23,0.41-0.37v-0.55c0-0.32-0.25-0.36-0.41-0.36h-3.37c-0.79,0-0.95,0-1.23-0.29
				c-0.32,0.25-1.3,1-1.98,1c-0.59,0-0.79-0.54-0.79-0.82c0-0.45,0.09-0.52,1.05-1.11c1.14-0.71,1.77-1.43,2.03-1.75h-1.75
				c-0.64,0-1.43,0-1.43-0.84c0-0.84,0.79-0.84,1.43-0.84H101.69z M106.54,79.88c-0.2-0.25-0.45-0.68-0.68-1.25h-1.96
				c-0.32,0.5-0.75,1-0.96,1.25H106.54z M103.46,75.35v1.61h2.59v-1.61H103.46z"/>
			<path class="st42" d="M120.29,78.81c-0.84,0.02-1.39,0.04-1.39-0.66c0-0.62,0.57-0.64,1.36-0.66l1.95-0.05
				c0.02-0.23,0.05-0.46,0.39-0.7h-4.39c-0.43,0-0.5,0.29-0.5,0.62v2.84c0,2.12,0,3.66-0.57,6.17c-0.34,1.46-0.61,1.86-1.16,1.86
				c-0.07,0-0.82,0-0.82-0.8c0-0.36,0.46-1.91,0.54-2.23c0.18-0.86,0.37-1.79,0.37-4.98v-3.3c0-1.07,0.82-1.73,1.46-1.73h5.1v-1.84
				c0-0.62,0-1.41,0.84-1.41c0.84,0,0.84,0.8,0.84,1.14h4.5c0.86,0,1.39,0,1.39,0.73c0,0.71-0.54,0.71-1.39,0.71h-4.5v0.66h5.94
				c0.54,0,1.05,0.45,1.05,1.02c0,0.78-0.61,1.96-1.07,2.61c-0.18,0.25-0.45,0.39-0.78,0.39c-0.61,0-0.75-0.46-0.75-0.7
				c0-0.27,0.13-0.48,0.23-0.64c0.45-0.73,0.48-0.8,0.48-0.91c0-0.18-0.11-0.21-0.25-0.21h-5.69c0.34,0.23,0.36,0.46,0.37,0.66
				l2.89-0.07c0.95-0.02,1.41-0.04,1.41,0.66c0,0.62-0.48,0.64-1.37,0.66l-2.91,0.07v0.41c0,0.34,0.02,0.45,0.59,0.45h2.77
				c0.27,0,0.43-0.12,0.52-0.2c0.21-0.16,0.36-0.29,0.59-0.29c0.32,0,0.75,0.3,0.75,0.79c0,0.36-0.36,1.2-1.5,1.2h-3.94
				c-0.86,0-1.43-0.78-1.43-1.37v-0.95L120.29,78.81z M121.99,86.47v-1.12h-2.16c-0.34,0-0.53,0-0.77-0.16
				c-0.27-0.18-0.5-0.52-0.5-0.91v-1.3c0-0.75,0-1.41,0.8-1.41c0.73,0,0.73,0.48,0.73,1.41v0.5c0,0.25,0.2,0.5,0.5,0.5h1.39v-1
				c0-0.62,0-1.43,0.82-1.43c0.84,0,0.84,0.79,0.84,1.43v3.5h1.23v-3.5c0-0.62,0.02-1.41,0.8-1.41c0.82,0,0.82,0.79,0.82,1.41v1
				h1.27c0.45,0,0.5-0.3,0.5-0.59v-0.41c0-0.62,0-1.43,0.82-1.43c0.82,0,0.82,0.79,0.82,1.43v1.37c0,0.29-0.23,1-1.14,1h-2.27v1.12
				h3.5c0.61,0,1.41,0,1.41,0.77c0,0.8-0.8,0.8-1.41,0.8h-10.67c-0.61,0-1.43,0-1.43-0.79c0-0.78,0.8-0.78,1.43-0.78H121.99z"/>
			<path class="st42" d="M141.02,84.02c-0.68,0-1.39,0-1.39-0.75s0.71-0.75,1.39-0.75h1.05v-1.57h-0.37c-0.21,0.61-0.36,1-0.93,1
				c-0.54,0-0.84-0.3-0.75-0.77c-0.23,0.18-0.32,0.21-1.16,0.61v4.87c0,0.96,0,1.68-2,1.68c-0.2,0-1.11,0-1.11-0.82
				c0-0.29,0.18-0.75,0.73-0.75c0.86,0,0.88,0,0.88-0.66v-3.73c-0.18,0.07-0.61,0.21-0.88,0.21c-0.41,0-0.84-0.37-0.84-0.98
				c0-0.18,0-0.57,0.62-0.79c0.18-0.05,0.93-0.25,1.09-0.3v-3.35c-0.89,0-1.62,0-1.62-0.82c0-0.84,0.73-0.84,1.62-0.84v-2.05
				c0-0.59,0-1.39,0.75-1.39s0.75,0.8,0.75,1.39v2.05c0.62,0,1.41,0,1.41,0.84c0,0.73-0.7,0.82-1.05,0.82h-0.36v2.78
				c0.43-0.2,0.52-0.25,0.71-0.25c0.32,0,0.62,0.23,0.73,0.64c0.09-0.25,0.41-1.39,0.48-1.62c0.13-0.37,0.23-0.46,0.46-0.54
				c-0.39-0.27-0.5-0.77-0.5-1.2v-3.53c0-0.61,0-1.41,0.79-1.41c0.78,0,0.78,0.73,0.78,1.64c0.54-0.09,1.25-0.27,1.93-0.55
				c0.22-0.09,0.41-0.16,0.7-0.16c0.32,0,0.43,0.13,0.5,0.2c0.05-0.73,0.73-0.75,1.41-0.75h3.85c0.2,0,1.11,0.05,1.11,1.18
				c0,1.34-1.14,2.55-2.25,3.43c0.11,0.18,0.39,0.59,0.39,0.86c0,0.32-0.11,0.45-0.18,0.54h1.07c0.7,0,1.04,0.59,1.04,1.07
				c0,0.52-0.43,1.59-0.68,2.09c-0.16,0.34-0.45,0.52-0.78,0.52c-0.5,0-0.75-0.43-0.75-0.73c0-0.2,0.37-1.04,0.37-1.21
				c0-0.18-0.13-0.18-0.37-0.18h-0.62v2.55h1.46c0.62,0,1.41,0,1.41,0.75s-0.77,0.75-1.41,0.75h-1.46v2.28
				c0.36,0.07,1.96,0.09,2.34,0.14c0.29,0.04,0.77,0.07,0.77,0.75c0,0.89-0.79,0.89-1.75,0.89c-2.71,0-3.55-0.77-4.1-1.41
				c-0.41,1.07-0.73,1.36-1.2,1.36c-0.54,0-0.86-0.45-0.86-0.82c0-0.18,0.04-0.25,0.18-0.59c-0.48-0.02-0.91-0.36-1.32-0.89
				c-0.73,1.37-2.14,2.37-2.73,2.37c-0.54,0-0.77-0.43-0.77-0.78c0-0.41,0.18-0.55,0.98-1.12c0.61-0.45,1.23-1.32,1.41-2.18H141.02z
				 M143.93,82.52c0.68,0,1.39,0,1.39,0.75s-0.57,0.75-1.64,0.75c0.14,0.27,0.39,0.62,0.68,0.91c0.09,0.07,0.53,0.37,0.64,0.46
				c0.36-1.02,0.45-2.23,0.45-2.78c0-0.39,0-1.2,0.8-1.2c0.82,0,0.82,0.89,0.82,1.2c0,0.41-0.14,1.37-0.23,1.98
				c0.11,0.23,0.29,0.55,0.75,0.96v-5.59h-1c-0.59,0-1.41,0-1.41-0.77c0-0.78,0.8-0.78,1.41-0.78h1.98
				c-0.05-0.04-0.07-0.07-0.11-0.13c-0.46-0.66-0.7-0.96-1.39-1.82c-0.57-0.73-0.64-0.82-0.64-1.09c0-0.57,0.43-0.79,0.77-0.79
				c0.34,0,0.62,0.13,1.36,1.07c0.53-0.39,1.25-0.89,1.25-1.52c0-0.16-0.07-0.16-0.37-0.16h-2.57c-0.79,0-0.93,0-1.21-0.3
				c0,0.36-0.16,0.54-0.21,0.57c-0.57,0.5-2.84,1.02-3.11,1.07v1.12c0,0.45,0.23,0.45,0.46,0.45h1.05c0.39,0,0.46-0.2,0.59-0.64
				c0.14-0.46,0.2-0.71,0.79-0.71c0.27,0,0.8,0.14,0.8,0.91c0,0.43-0.14,0.95-0.3,1.27c-0.32,0.62-0.89,0.62-1.32,0.62h-2.39
				c0.16,0.16,0.21,0.27,0.21,0.52c0,0.2-0.03,0.38-0.07,0.5h1.7c0.62,0,1.41,0,1.41,0.8c0,0.79-0.71,0.79-1.66,0.79v1.57H143.93z"
				/>
			<path class="st42" d="M159.59,87.07c0,0.66,0,1.43-0.86,1.43c-0.87,0-0.87-0.77-0.87-1.43v-7.12c-0.36,0.62-0.66,1.12-1.25,1.12
				c-0.48,0-0.84-0.39-0.84-0.8c0-0.34,0.07-0.45,0.91-1.89c1.18-2,1.7-4.05,2.03-5.44c0.09-0.39,0.23-0.93,0.87-0.93
				c0.46,0,0.86,0.32,0.86,0.96c0,0.96-0.66,2.77-0.86,3.3V87.07z M167.02,80.26h3.41c1.66,0,1.66,1.02,1.66,1.59v4.64
				c0,0.59,0,1.96-2.44,1.96c-2.21,0-2.52-0.5-2.52-1.05c0-0.36,0.3-0.84,0.8-0.84c0.21,0,1.21,0.14,1.41,0.14
				c0.95,0,0.98-0.27,0.98-0.78v-3.46c0-0.37-0.05-0.46-0.54-0.46h-2.77v2.16c0.21-0.04,0.45-0.07,0.91-0.18
				c-0.18-0.39-0.32-0.73-0.32-0.98c0-0.39,0.39-0.71,0.77-0.71c0.59,0,0.78,0.45,1.32,1.57c0.43,0.91,0.54,1.25,0.54,1.45
				c0,0.41-0.34,0.84-0.84,0.84c-0.55,0-0.73-0.39-0.88-0.7c-1.48,0.37-3.62,0.75-5.1,0.75c-0.29,0-0.95,0-0.95-0.84
				c0-0.7,0.59-0.86,0.77-0.87c0.3-0.05,1.73-0.11,2.02-0.12v-2.36h-2.53c-0.48,0-0.61,0.04-0.61,0.54v4.43c0,0.64,0,1.43-0.84,1.43
				c-0.82,0-0.82-0.79-0.82-1.43v-5.09c0-0.8,0.39-1.61,1.68-1.61h3.12v-0.84h-3.16c-0.25,0-1.11-0.21-1.11-1.21v-4.55
				c0-1.02,0.91-1.2,1.11-1.2h8.32c0.27,0,1.12,0.21,1.12,1.2v4.55c0,1.04-0.91,1.21-1.12,1.21h-3.39V80.26z M165.25,75.15v-1.11
				h-2.3c-0.25,0-0.25,0.11-0.25,0.3v0.8H165.25z M162.7,76.74v0.84c0,0.2,0,0.29,0.25,0.29h2.3v-1.12H162.7z M169.85,75.15v-0.8
				c0-0.2,0-0.3-0.23-0.3h-2.6v1.11H169.85z M167.02,76.74v1.12h2.6c0.23,0,0.23-0.09,0.23-0.29v-0.84H167.02z"/>
			<path class="st42" d="M180.16,87.29c0,0.45,0,1.2-0.89,1.2c-0.8,0-0.87-0.59-0.87-1.2v-7.44c-0.38,0.59-0.66,1-1.2,1
				c-0.25,0-0.78-0.18-0.78-0.82c0-0.32,0.12-0.57,0.34-0.93c1.59-2.71,2.19-4.92,2.44-5.98c0.09-0.38,0.29-1.12,0.89-1.12
				c0.75,0,0.93,0.45,0.93,0.87c0,0.57-0.55,2.18-0.86,3.11V87.29z M189.53,79.97c0.11,0.71,0.27,1.34,0.57,2.12
				c0.27-0.2,0.36-0.27,0.93-0.75c0.39-0.34,0.52-0.45,0.84-0.45c0.37,0,0.77,0.27,0.77,0.79c0,0.3-0.11,0.46-0.53,0.84
				c-0.5,0.45-1.02,0.8-1.32,1c0.43,0.7,0.87,1.32,1.87,2.21c0.16,0.14,0.43,0.37,0.43,0.71c0,0.54-0.43,0.86-0.89,0.86
				c-0.18,0-0.43,0-1.38-0.98c-0.91-0.96-2.21-2.8-2.89-6.09c-0.59,0.38-0.64,0.41-1.09,0.66c1.12,1.55,1.82,3.32,1.82,4.82
				c0,1.98-0.86,2.78-2.34,2.78c-0.68,0-1.91-0.11-1.91-0.95c0-0.41,0.27-0.8,0.79-0.8c0.14,0,0.89,0.14,1.05,0.14
				c0.84,0,0.79-1.2,0.75-1.52c-1.12,0.7-3.98,2.12-4.8,2.12c-0.75,0-0.86-0.54-0.86-0.73c0-0.46,0.37-0.66,0.89-0.82
				c1.5-0.5,3.07-1.12,4.43-1.93c-0.07-0.21-0.2-0.46-0.25-0.59c-1.25,0.68-4,1.73-4.69,1.73c-0.71,0-0.82-0.5-0.82-0.75
				c0-0.45,0.43-0.68,0.82-0.78c2.23-0.62,2.71-0.77,4.02-1.43c-0.11-0.18-0.18-0.27-0.39-0.59c-1.38,0.59-3.12,1.05-3.64,1.05
				c-0.77,0-0.8-0.61-0.8-0.7c0-0.61,0.59-0.71,0.98-0.78c1.73-0.34,3.09-0.84,3.78-1.21h-2.85c-1.04,0-1.29-0.77-1.29-1.05V76.6
				c0-0.14,0.07-0.37,0.14-0.48c-0.59-0.04-0.71-0.59-0.71-0.79c0-0.46,0.39-0.7,0.5-0.77c1.61-0.96,1.91-1.14,2.77-1.91
				c0.54-0.48,0.8-0.73,1.11-0.73c0.45,0,0.91,0.38,0.91,0.87c0,0.12-0.03,0.2-0.07,0.29h2.55c0.32,0,1.28,0.02,1.28,0.96
				c0,0.48-0.62,1.12-0.96,1.5h2.05c1.11,0,1.28,0.86,1.28,1.05v2.32c0,0.14-0.14,1.05-1.28,1.05H189.53z M186.92,75.55
				c0.21-0.2,0.77-0.71,0.77-0.89c0-0.05-0.02-0.14-0.23-0.14h-2.77c-0.23,0.18-0.8,0.61-1.57,1.03H186.92z M183.64,76.99
				c-0.32,0-0.43,0.14-0.43,0.39v0.75c0,0.27,0.16,0.38,0.43,0.38h2.44v-1.52H183.64z M190.26,78.51c0.3,0,0.43-0.13,0.43-0.38
				v-0.77c0-0.32-0.2-0.38-0.41-0.38h-2.46v1.52H190.26z"/>
			<path class="st42" d="M201.12,79.29c-0.39,0.5-0.55,0.7-1,0.7c-0.09,0-0.14-0.02-0.27-0.04c-0.04,2.16-0.09,4.94-0.7,7.17
				c-0.18,0.64-0.37,1.27-1.05,1.27c-0.52,0-0.84-0.39-0.84-0.82c0-0.18,0.43-1.53,0.48-1.82c0.55-2.55,0.55-4.73,0.55-8.37
				c0-0.61,0-3.05,0.07-3.32c0.02-0.07,0.25-0.86,1.32-0.86h5.5c0-0.46,0-1.23,0.89-1.23c0.87,0,0.87,0.77,0.87,1.23h5.18
				c0.61,0,1.41,0,1.41,0.8c0,0.82-0.8,0.82-1.41,0.82h-11.71c-0.46,0-0.55,0.2-0.55,0.45v3.21c0.89-1.21,1.09-1.48,1.68-2.66
				c0.29-0.55,0.39-0.75,0.79-0.75c0.39,0,0.73,0.29,0.73,0.77c0,0.2-0.04,0.29-0.48,1.18v5.62c0,0.68,0,1.39-0.75,1.39
				c-0.71,0-0.71-0.75-0.71-1.39V79.29z M200.03,87.54c0-0.11,0.18-0.43,0.43-0.96c0.16-0.36,0.57-1.34,0.71-1.53
				c0.11-0.16,0.3-0.27,0.52-0.27c0.46,0,0.73,0.37,0.73,0.73c0,0.41-0.5,1.53-0.93,2.27c-0.11,0.18-0.34,0.59-0.86,0.5
				C200.16,88.18,200.03,87.77,200.03,87.54z M211.74,78.33c0.64,0,1.39,0,1.39,0.64c0,0.62-0.75,0.62-1.39,0.62h-2.19v0.77h2.19
				c0.75,0,1.39,0.02,1.39,0.7c0,0.68-0.64,0.68-1.39,0.68h-2.19v0.68H212c0.66,0,1.41,0,1.41,0.78c0,0.7-0.79,0.7-1.41,0.7h-5.1
				c1.5,0.89,1.5,1.23,1.5,1.52c0,0.43-0.34,0.64-0.7,0.64c-0.29,0-0.36-0.07-1.09-0.71c-0.84-0.71-0.93-0.8-0.93-1.12
				c0-0.18,0.05-0.25,0.11-0.32h-0.34c-0.21,0-1.3,0-1.3-1.14v-3.71c-0.07,0.05-0.18,0.11-0.37,0.11c-0.45,0-0.73-0.3-0.73-0.71
				c0-0.36,0.13-0.48,0.64-1.03c0.71-0.75,0.8-0.87,1.59-2.05c0.14-0.2,0.32-0.41,0.66-0.41c0.45,0,0.8,0.36,0.8,0.8
				c0,0.2-0.07,0.32-0.18,0.5h1.82c0.05-0.11,0.27-0.64,0.32-0.75c0.13-0.27,0.27-0.5,0.66-0.5c0.21,0,0.75,0.12,0.75,0.71
				c0,0.2-0.05,0.32-0.13,0.54h1.89c0.62,0,1.39,0,1.39,0.73c0,0.68-0.75,0.68-1.39,0.68h-2.34v0.68H211.74z M205.01,86.48
				c0,0.5,0.16,0.5,0.84,0.5h2.18c0.45,0,0.77,0,0.98-0.48c0.21-0.46,0.34-0.75,0.78-0.75c0.52,0,0.73,0.48,0.73,0.77
				c0,0.34-0.23,1.02-0.55,1.39c-0.3,0.38-0.89,0.54-1.87,0.54h-2.62c-2.07,0-2.03-0.86-2.03-1.61v-0.86c0-0.61,0-1.41,0.78-1.41
				c0.79,0,0.79,0.8,0.79,1.41V86.48z M207.99,78.33v-0.68h-1.84c-0.43,0-0.43,0.07-0.43,0.68H207.99z M205.72,79.6v0.77h2.27V79.6
				H205.72z M207.99,82.42v-0.68h-2.27v0.34c0,0.14,0,0.34,0.43,0.34H207.99z M211.29,84.61c0.43,0,0.52,0.12,1.28,1.28
				c0.64,0.98,0.71,1.14,0.71,1.41c0,0.57-0.46,0.77-0.71,0.77c-0.45,0-0.59-0.34-1.14-1.23c-0.18-0.29-0.73-1.16-0.78-1.39
				C210.56,85,210.84,84.61,211.29,84.61z"/>
			<path class="st42" d="M232.8,79.1c0.59,0,1.41,0,1.41,0.75c0,0.73-0.84,0.73-1.41,0.73h-5.66c-0.07,0.23-0.14,0.46-0.36,1.02
				h5.73c0.89,0,1.09,0.73,1.09,1.07c0,0.8-1.02,2.11-2.48,3.19c0.89,0.36,1.18,0.41,2.28,0.66c0.18,0.04,0.86,0.2,0.86,0.87
				c0,0.29-0.18,0.82-0.84,0.82c-0.2,0-2.27-0.21-4.12-1.25c-2.5,1.21-4.55,1.37-4.68,1.37c-0.45,0-0.8-0.37-0.8-0.8
				c0-0.73,0.59-0.86,0.88-0.91c1.69-0.37,2.02-0.41,2.94-0.77c-1.12-0.91-1.62-1.61-1.94-2.07c-0.38,0.61-1.96,2.87-2.84,2.87
				c-0.45,0-0.86-0.39-0.86-0.91c0-0.29,0.18-0.46,0.59-0.91c0.93-1,2.02-2.14,2.78-4.27h-1.48c-0.79,0-1.07,0-1.32-0.45
				c0.14,0.75-0.37,0.95-1.46,1.36v5.34c0,0.66-0.09,1.46-1.61,1.46c-0.73,0-1.93-0.11-1.93-1.02c0-0.5,0.39-0.77,0.68-0.77
				c0.14,0,0.77,0.09,0.89,0.09c0.3,0,0.36-0.07,0.36-0.41v-4.16c-0.2,0.05-0.71,0.2-1.04,0.2c-0.53,0-0.87-0.43-0.87-0.86
				c0-0.71,0.66-0.86,0.82-0.89c0.37-0.07,1.03-0.21,1.09-0.23v-3.44h-0.52c-0.62,0-1.43,0-1.43-0.82s0.8-0.82,1.43-0.82h0.52V73.4
				c0-0.61,0-1.41,0.8-1.41c0.8,0,0.8,0.8,0.8,1.41v1.75c1,0,1.71,0,1.71,0.82s-0.71,0.82-1.71,0.82v2.98
				c0.55-0.2,0.61-0.21,0.77-0.21c0.09,0,0.41,0,0.64,0.41c-0.13-0.87,0.8-0.87,1.37-0.87h1.89c0.09-0.54,0.11-0.66,0.14-0.89h-1.71
				c-0.61,0-1.41,0-1.41-0.77c0-0.75,0.84-0.75,1.41-0.75h0.5c-0.34-0.25-0.77-1.53-0.77-1.68c0-0.37,0.25-0.77,0.77-0.77
				c0.5,0,0.68,0.37,0.75,0.52c0.2,0.41,0.41,1,0.41,1.32c0,0.25-0.13,0.45-0.36,0.61h2.3c-0.41-0.27-0.8-1.53-0.8-1.71
				c0-0.34,0.23-0.8,0.77-0.8c0.87,0,1.2,1.46,1.2,1.86c0,0.45-0.23,0.55-0.39,0.66h1.82c0.32-0.68,0.32-0.7,0.82-2.07
				c0.05-0.14,0.23-0.62,0.84-0.62c0.45,0,0.82,0.45,0.82,0.86c0,0.34-0.23,0.87-0.64,1.84h0.32c0.61,0,1.41,0,1.41,0.77
				c0,0.75-0.82,0.75-1.41,0.75h-4.85c-0.04,0.21-0.05,0.34-0.16,0.89H232.8z M226.75,72.55c1,0,2.82-0.02,4.68-0.27
				c0.23-0.04,1.2-0.21,1.41-0.21c0.62,0,0.89,0.45,0.89,0.78c0,0.57-0.53,0.77-0.93,0.82c-1.29,0.18-3.6,0.41-6.94,0.41
				c-2.3,0-3.14,0-3.14-0.8c0-0.8,0.68-0.8,1.36-0.8C224.36,72.48,226.36,72.55,226.75,72.55z M227.43,83.15
				c0.27,0.36,0.84,1.09,1.98,1.86c1.48-0.91,1.61-1.57,1.61-1.62c0-0.14-0.14-0.23-0.3-0.23H227.43z"/>
			<path class="st42" d="M248.84,73.69c1.98,1.62,3.8,2.66,5.14,3.43c0.43,0.23,0.64,0.45,0.64,0.89c0,0.59-0.46,0.93-0.88,0.93
				c-0.8,0-4.78-2.82-6.8-4.57c-0.18-0.16-0.38-0.34-0.61-0.34c-0.18,0-0.25,0.05-0.78,0.48c-3.55,2.91-5.85,4.28-6.51,4.28
				c-0.48,0-0.86-0.41-0.86-0.89c0-0.54,0.32-0.71,0.93-1.03c1.55-0.82,3.62-2.14,5.23-3.55c0.68-0.59,1.36-1.09,1.61-1.18
				c0.18-0.07,0.36-0.09,0.48-0.09C246.73,72.05,246.86,72.05,248.84,73.69z M247.37,80.26h4.09c0.7,0,1.43,0.02,1.43,0.91
				c0,0.91-0.73,0.91-1.43,0.91h-4.09v4.32h5.39c0.62,0,1.43,0,1.43,0.84c0,0.86-0.78,0.86-1.43,0.86h-12.79
				c-0.62,0-1.41,0-1.41-0.84c0-0.86,0.78-0.86,1.41-0.86h1.02v-6.16c0-0.59,0-1.43,0.89-1.43c0.88,0,0.88,0.84,0.88,1.43v6.16h2.85
				V77.7c0-0.57,0-1.43,0.87-1.43c0.89,0,0.89,0.86,0.89,1.43V80.26z"/>
			<path class="st42" d="M268.1,74.62h0.91c0.27,0,0.55,0.27,0.55,0.61c0,0.05-0.02,0.62-0.71,0.62h-0.75v0.64
				c0,0.66-0.52,1.14-1.25,1.14h-2.12v0.59h2.46c0.98,0,1.36,0.02,1.36,0.54c0,0.52-0.37,0.52-1.36,0.52h-2.46v0.59h3.28
				c0.95,0,1.37,0,1.37,0.57c0,0.57-0.43,0.57-1.37,0.57h-7.91c-0.93,0-1.36,0-1.36-0.57c0-0.57,0.43-0.57,1.36-0.57h3.09v-0.59
				h-2.3c-0.98,0-1.36,0-1.36-0.52c0-0.52,0.37-0.54,1.36-0.54h2.3v-0.59h-2.05c-0.8,0-1.36,0-1.36-0.57c0-0.57,0.61-0.57,1.36-0.57
				h2.05v-0.64h-3.02c-0.88,0-1.37,0-1.37-0.62c0-0.61,0.48-0.61,1.37-0.61h3.02v-0.57h-2.05c-0.86,0-1.36,0-1.36-0.55
				c0-0.54,0.48-0.54,1.36-0.54h2.05c0-0.18,0-1.07,0.77-1.07c0.77,0,0.77,0.89,0.77,1.07h2.05c0.77,0,1.32,0.66,1.32,1.14V74.62z
				 M265.59,86.81c0.59-0.05,1.54-0.21,2.12-0.21c0.36,0,0.91,0.05,0.91,0.7c0,0.59-0.39,0.64-1,0.73c-0.43,0.05-3.64,0.37-6.5,0.37
				c-1.23,0-1.61-0.02-1.84-0.12c-0.27-0.13-0.34-0.43-0.34-0.62c0-0.73,0.79-0.7,1.37-0.7C262.46,86.97,264.09,86.95,265.59,86.81z
				 M267.08,81.58c0.64,0,1.29,0.55,1.29,1.3v1.89c0,0.59-0.52,1.3-1.29,1.3h-6.1c-0.64,0-1.27-0.62-1.27-1.3v-1.89
				c0-0.7,0.64-1.3,1.27-1.3H267.08z M263.2,83.29v-0.57h-1.61c-0.3,0-0.3,0.32-0.3,0.57H263.2z M261.29,84.24v0.32
				c0,0.18,0.16,0.3,0.3,0.3h1.61v-0.62H261.29z M266.6,74.62c0-0.23,0-0.57-0.34-0.57h-1.53v0.57H266.6z M264.73,75.85v0.64h1.43
				c0.45,0,0.45-0.12,0.45-0.64H264.73z M266.78,83.29c0-0.32-0.02-0.57-0.3-0.57h-1.75v0.57H266.78z M264.73,84.24v0.62h1.73
				c0.14,0,0.32-0.13,0.32-0.3v-0.32H264.73z M274.76,86.75c0,1.62-1.57,1.7-1.87,1.7c-0.71,0-2.23-0.21-2.71-0.55
				c-0.2-0.14-0.3-0.39-0.3-0.62c0-0.43,0.36-0.77,0.78-0.77c0.36,0,1.41,0.25,1.73,0.25c0.59,0,0.66-0.2,0.66-0.68V73.49
				c0-0.75,0-1.43,0.86-1.43c0.84,0,0.86,0.59,0.86,1.43V86.75z M271.44,82.59c0,0.98,0,1.37-0.77,1.37c-0.77,0-0.77-0.39-0.77-1.37
				v-8.42c0-1,0-1.39,0.77-1.39c0.77,0,0.77,0.41,0.77,1.39V82.59z"/>
			<path class="st42" d="M284.01,86.97c0,0.64,0,1.41-0.8,1.41s-0.82-0.77-0.82-1.41v-5.68c-0.54,0.04-2.03-0.04-2.34-0.07
				c-0.48-0.05-0.73-0.45-0.73-0.8c0-0.32,0.23-0.84,0.95-0.84c0.11,0,0.41,0.02,0.66,0.04c0.39-0.46,0.95-1.18,1.2-1.52
				c-0.8-0.75-0.96-0.89-2.43-2.19c-0.21-0.2-0.45-0.38-0.45-0.71c0-0.55,0.43-0.89,0.87-0.89c0.29,0,0.52,0.16,0.77,0.36
				c0.23-0.34,1.14-1.91,1.32-2.21c0.09-0.14,0.3-0.43,0.68-0.43c0.46,0,0.95,0.36,0.95,0.87c0,0.73-1.16,2.25-1.66,2.89
				c0.34,0.3,0.77,0.68,0.98,0.89c0.61-0.95,0.7-1.14,1.59-2.86c0.23-0.46,0.62-0.5,0.77-0.5c0.36,0,0.91,0.29,0.91,0.86
				c0,0.32-0.64,1.98-3.41,5.48c0.66-0.02,1.32-0.09,1.98-0.18c-0.25-0.93-0.27-1.04-0.27-1.21c0-0.48,0.48-0.7,0.8-0.7
				c0.55,0,0.73,0.57,0.84,0.91c0.27,0.93,0.57,2.46,0.57,2.73c0,0.54-0.34,0.82-0.77,0.82c-0.64,0-0.79-0.64-0.84-0.95
				c-0.39,0.05-0.87,0.11-1.32,0.14V86.97z M279.34,86.72c0-0.23,0.32-1.23,0.37-1.45c0.18-0.75,0.2-0.96,0.36-2.37
				c0.05-0.45,0.36-0.82,0.78-0.82c0.36,0,0.82,0.29,0.82,0.87c0,0.07-0.02,1.3-0.52,3.32c-0.23,0.96-0.5,1.2-1.04,1.2
				C279.87,87.47,279.34,87.31,279.34,86.72z M285.44,82.26c0.57,0,0.66,0.43,0.84,1.3c0.07,0.39,0.2,0.95,0.36,1.46
				c0.02,0.07,0.07,0.27,0.07,0.39c0,0.39-0.3,0.7-0.77,0.7c-0.54,0-0.66-0.36-0.73-0.61c-0.18-0.57-0.46-2.09-0.5-2.32
				C284.62,82.47,285.19,82.26,285.44,82.26z M287.33,73.71c0-1.11,1-1.27,1.21-1.27h4.6c0.96,0,1.41,0.7,1.41,1.37v12.51
				c0.36,0,1.16,0,1.16,0.84c0,0.86-0.79,0.86-1.43,0.86h-6.74c-0.64,0-1.43,0-1.43-0.86c0-0.84,0.8-0.84,1.12-0.84h0.09V73.71z
				 M289.1,76.78h3.73v-2.14c0-0.32-0.18-0.46-0.48-0.46h-2.77c-0.37,0-0.48,0.09-0.48,0.39V76.78z M292.83,78.53h-3.73v2.82h3.73
				V78.53z M292.83,83.09h-3.73v3.23h3.73V83.09z"/>
		</g>
		<g>
			<path class="st43" d="M31.57,48.84l3.69,15.72c0.1,0.41,0.39,0.75,0.79,0.91l15.04,5.87c0.99,0.39,1.11,1.75,0.2,2.3L37.48,82
				c-0.36,0.22-0.59,0.6-0.62,1.03l-0.94,16.12c-0.06,1.07-1.32,1.6-2.13,0.9L21.57,89.5c-0.32-0.28-0.76-0.38-1.17-0.27L4.78,93.32
				c-1.03,0.27-1.93-0.76-1.51-1.75l6.26-14.88c0.16-0.39,0.13-0.84-0.1-1.19L0.71,61.9C0.13,61,0.83,59.83,1.9,59.92l16.09,1.35
				c0.42,0.04,0.84-0.14,1.1-0.47l10.23-12.49C30,47.49,31.33,47.8,31.57,48.84z"/>
			<g>
				<path class="st42" d="M98.33,1.81c-1.79-1.41-4.14-2.04-6.4-1.73c-1.78,0.25-3.21,1.14-4.71,2.03c-5,2.98-9.93,6.05-14.5,9.66
					c-9.87,7.78-18.84,16.53-26.78,26.29c-3.52,4.33-6.91,8.8-10.08,13.42c-0.32,0.47-0.43,1.06-0.3,1.62l1.36,5.81
					c6.04-6.79,12.7-13.05,19.59-18.92c4.73-4.04,9.8-7.75,15.02-11.13c5.25-3.39,10.68-6.32,16.3-9.06
					c2.38-1.16,4.91-2.05,7.37-3.04c1.57-0.64,3.05-1.33,4.21-2.63C102.62,10.54,102.12,4.79,98.33,1.81z"/>
				<path class="st42" d="M132.59,12.18c-1.84-1.26-4.07-1.9-6.3-1.8c-1.6,0.07-3.11,0.61-4.64,1.06c-2.66,0.79-5.32,1.58-7.98,2.38
					c-2.88,0.99-5.72,2.09-8.58,3.15c-5.91,2.18-11.59,5-17.2,7.85c-5.75,2.92-11.29,6.24-16.73,9.7
					c-5.36,3.4-10.64,7.09-15.59,11.07c-6.24,5.01-12.35,10.17-18.09,15.73l0.45,1.92l3.83,1.49c2.37-1.65,4.76-3.27,7.2-4.81
					c8.78-5.56,17.96-10.6,27.48-14.78c11.44-5.02,23.26-9.08,35.5-11.63c2.96-0.58,5.89-1.19,8.88-1.59
					c2.18-0.29,4.37-0.58,6.55-0.87c4.12-0.55,7.66-2.81,9.12-6.86C138.05,19.82,136.42,14.8,132.59,12.18z"/>
				<path class="st42" d="M122.05,47.7c-0.02-4.72-4.06-8.61-8.78-8.43c-1.84,0.07-3.7,0.48-5.52,0.72
					c-2.89,0.39-5.74,1.01-8.6,1.57c-6.11,1.21-12.12,3.22-17.98,5.31c-6.05,2.16-11.98,4.78-17.71,7.68
					c-6.54,3.4-12.9,7.05-19.06,11.04l6.15,2.4c0.31,0.12,0.65,0.12,0.95-0.01c3.54-1.44,7.12-2.78,10.74-3.98
					c11.99-3.98,24.26-6.68,36.86-7.68c4.74-0.38,9.47-0.27,14.21-0.12C118.04,56.35,122.07,52.43,122.05,47.7z"/>
			</g>
		</g>
	</g>
</g>
<g id="OV">
</g>
</svg>
