<?xml version="1.0" encoding="utf-8"?>
<!-- Generator: Adobe Illustrator 26.0.2, SVG Export Plug-In . SVG Version: 6.00 Build 0)  -->
<svg version="1.1" xmlns="http://www.w3.org/2000/svg" xmlns:xlink="http://www.w3.org/1999/xlink" x="0px" y="0px"
	 viewBox="0 0 307.75 120" style="enable-background:new 0 0 307.75 120;" xml:space="preserve">
<style type="text/css">
	.st0{fill:#FFFFFF;}
	.st1{fill:none;stroke:#FFFFFF;stroke-miterlimit:10;}
	.st2{fill:#222222;}
	.st3{fill:#6275B0;}
	.st4{fill:none;stroke:#5A79BA;stroke-miterlimit:10;}
	.st5{fill:#FFFBB9;}
	.st6{fill:#F7D4D9;}
	.st7{fill:#C1E7FF;}
	.st8{fill:#5A79BA;}
	.st9{fill:#EFA5AF;}
	.st10{fill:#FFFFFF;stroke:#5A79BA;stroke-width:2;stroke-miterlimit:10;}
	.st11{fill:none;stroke:#C3E5FF;stroke-width:2;stroke-linecap:round;stroke-linejoin:round;stroke-miterlimit:10;}
	.st12{fill:none;stroke:#EFA5AF;stroke-width:1.5;stroke-linecap:round;stroke-linejoin:round;stroke-miterlimit:10;}
	.st13{fill:none;stroke:#C3E5FF;stroke-width:1.5;stroke-linecap:round;stroke-linejoin:round;stroke-miterlimit:10;}
	.st14{fill:none;stroke:#5A79BA;stroke-width:2;stroke-linecap:round;stroke-linejoin:round;stroke-miterlimit:10;}
	.st15{fill:none;stroke:#EFA5AF;stroke-width:1.5;stroke-linejoin:round;stroke-miterlimit:10;}
	.st16{fill:none;stroke:#C3E5FF;stroke-width:1.5;stroke-miterlimit:10;}
	.st17{fill:#C3E5FF;}
	.st18{fill:#FFFFFF;stroke:#5A79BA;stroke-miterlimit:10;}
	.st19{fill:#FFFFFF;stroke:#EFA5AF;stroke-miterlimit:10;}
	.st20{fill:url(#SVGID_1_);}
	.st21{fill:url(#SVGID_00000088829792964212408020000015459005449667381648_);}
	.st22{fill:url(#SVGID_00000149382989622739303180000008613900303136174744_);}
	.st23{fill:url(#SVGID_00000060740319120247014980000006884510963020384906_);}
	.st24{fill:url(#SVGID_00000162322138525030202070000002782443684142070958_);}
	.st25{fill:url(#SVGID_00000042695151981043858340000007916008208551341722_);}
	.st26{fill:url(#SVGID_00000118365581247030295690000013098544762504672675_);}
	.st27{fill:url(#SVGID_00000038381568652489799250000005126910265792103812_);}
	.st28{fill:url(#SVGID_00000140014857387836224680000011330813721106429598_);}
	.st29{fill:url(#SVGID_00000032613903070741440710000000868745496964419765_);}
	.st30{fill:url(#SVGID_00000058550972449217416650000011278480407611129768_);}
	.st31{fill:url(#SVGID_00000115517199524032629740000013406629753977034630_);}
	.st32{fill:url(#SVGID_00000039130910844571496750000006238172037751830917_);}
	.st33{fill:url(#SVGID_00000139254308198730601570000016323852706837916300_);}
	.st34{fill:url(#SVGID_00000166634240838685464300000005215558764350999687_);}
	.st35{fill:url(#SVGID_00000054957615423656358350000016787647120226409366_);}
	.st36{fill:url(#SVGID_00000010305327085312364830000016975884594583205523_);}
	.st37{fill:url(#SVGID_00000177449982093304654980000003170687392554516639_);}
	.st38{fill:url(#SVGID_00000120540384271600470930000003125191947777092756_);}
	.st39{fill:url(#SVGID_00000163754830609678660960000016376118617909601197_);}
	.st40{fill:url(#SVGID_00000093145614496677411960000007856735647995268235_);}
	.st41{fill:url(#SVGID_00000031889083623744949840000001023771226769163904_);}
	.st42{fill:#255C84;}
	.st43{fill:#FFCB4A;stroke:#FFCB4A;stroke-miterlimit:10;}
	.st44{fill:none;stroke:#222222;stroke-width:2;stroke-miterlimit:10;}
	.st45{fill:none;stroke:#FFFFFF;stroke-width:2;stroke-miterlimit:10;}
</style>
<g id="BG">
</g>
<g id="GR">
	<g>
		<linearGradient id="SVGID_1_" gradientUnits="userSpaceOnUse" x1="-0.7015" y1="1.4928" x2="306.4905" y2="122.1939">
			<stop  offset="0.1" style="stop-color:#5A79BA"/>
			<stop  offset="0.2701" style="stop-color:#7B86BC"/>
			<stop  offset="0.5019" style="stop-color:#A396BD"/>
			<stop  offset="0.6867" style="stop-color:#BB9FBF"/>
			<stop  offset="0.8" style="stop-color:#C4A3BF"/>
		</linearGradient>
		<path class="st20" d="M127.22,18.49c-1.17-0.52-2.49-0.29-3.54,0.64l-15.82,15.81L92.1,19.19c-0.83-0.83-2.39-1.34-3.67-0.66
			c-1.17,0.48-1.92,1.65-1.92,3v45.22c0,1.91,1.39,3.29,3.29,3.29c1.82,0,3.29-1.48,3.29-3.29V29.57
			c3.24,3.28,7.52,7.55,10.09,10.04l-0.63,0.63c-0.63,0.63-0.97,1.45-0.97,2.32c0,0.87,0.35,1.69,0.97,2.32
			c1.3,1.3,3.33,1.31,4.61,0.03c0.04-0.04,3.04-2.98,3.04-2.98s9.31-9.33,12.44-12.45c-0.03,9.99-0.12,30.81-0.15,36.31l-0.01,1.36
			c0,1.82,1.68,3.29,3.49,3.29c1.88,0,3.25-1.46,3.25-3.34l0.01-45.56C129.25,20.14,128.45,18.94,127.22,18.49z"/>
		
			<linearGradient id="SVGID_00000033369911351480262960000011448643020711904164_" gradientUnits="userSpaceOnUse" x1="1.3212" y1="-3.6551" x2="308.5132" y2="117.0459">
			<stop  offset="0.1" style="stop-color:#5A79BA"/>
			<stop  offset="0.2701" style="stop-color:#7B86BC"/>
			<stop  offset="0.5019" style="stop-color:#A396BD"/>
			<stop  offset="0.6867" style="stop-color:#BB9FBF"/>
			<stop  offset="0.8" style="stop-color:#C4A3BF"/>
		</linearGradient>
		<path style="fill:url(#SVGID_00000033369911351480262960000011448643020711904164_);" d="M141.56,32.81
			c-1.91,0-3.29,1.39-3.29,3.29v30.65c0,1.91,1.39,3.29,3.29,3.29c1.82,0,3.29-1.48,3.29-3.29V36.11
			C144.85,34.29,143.37,32.81,141.56,32.81z"/>
		
			<linearGradient id="SVGID_00000038370939149617331230000010989424825198172565_" gradientUnits="userSpaceOnUse" x1="6.2263" y1="-16.1389" x2="313.4183" y2="104.5621">
			<stop  offset="0.1" style="stop-color:#5A79BA"/>
			<stop  offset="0.2701" style="stop-color:#7B86BC"/>
			<stop  offset="0.5019" style="stop-color:#A396BD"/>
			<stop  offset="0.6867" style="stop-color:#BB9FBF"/>
			<stop  offset="0.8" style="stop-color:#C4A3BF"/>
		</linearGradient>
		<path style="fill:url(#SVGID_00000038370939149617331230000010989424825198172565_);" d="M177.92,37.42
			c0.63,0.63,1.47,0.97,2.37,0.97c0.9,0,1.75-0.35,2.4-1l0.12-0.14c1-1.25,1-3.07,0-4.32l-4.76-4.61c-0.66-0.67-1.43-1-2.29-1
			c-1.35,0-2.1,0.75-2.34,1L150.73,50.9l-0.13,0.14c-1,1.25-1,3.07,0,4.32l13.73,13.69c0.62,0.62,1.5,1,2.29,1h13.59
			c1.91,0,3.29-1.39,3.29-3.29c0-1.85-1.45-3.29-3.29-3.29H168.1c-1.86-1.79-7.61-7.52-10.29-10.26l17.94-17.94
			C176.8,36.32,177.87,37.37,177.92,37.42z"/>
		
			<linearGradient id="SVGID_00000131368732962887440550000002657192050732039821_" gradientUnits="userSpaceOnUse" x1="14.2775" y1="-36.6299" x2="321.4696" y2="84.0712">
			<stop  offset="0.1" style="stop-color:#5A79BA"/>
			<stop  offset="0.2701" style="stop-color:#7B86BC"/>
			<stop  offset="0.5019" style="stop-color:#A396BD"/>
			<stop  offset="0.6867" style="stop-color:#BB9FBF"/>
			<stop  offset="0.8" style="stop-color:#C4A3BF"/>
		</linearGradient>
		<path style="fill:url(#SVGID_00000131368732962887440550000002657192050732039821_);" d="M206.37,18.41
			c-0.88,0-1.72,0.35-2.36,0.99c-0.64,0.64-0.99,1.48-0.99,2.36v45.35l0,0.17l0.06,0.3c0.11,0.44,0.34,1.11,1.01,1.78
			c0.64,0.64,1.3,0.86,1.74,0.97l0.24,0.06l28.46-0.12c0.94,0,1.72-0.31,2.33-0.91c0.58-0.58,0.95-1.51,0.95-2.37l0.04-45.31
			c0-0.9-0.32-1.66-0.99-2.33c-0.6-0.6-1.45-0.95-2.29-0.95L206.37,18.41z M231.26,24.98c0,2.58-0.01,7.23-0.02,12.08l0,0.29
			c-0.01,7.38-0.03,22.62-0.01,26.42h-21.57c-0.03-3.58-0.04-18.36-0.04-25.35l0-0.06c0-5.64-0.01-10.57-0.02-13.28
			c2.09-0.01,5.42-0.03,8.76-0.05l4.05-0.01C225.79,25.01,229.15,24.99,231.26,24.98z"/>
		
			<linearGradient id="SVGID_00000095299328695628797330000003515901653934074018_" gradientUnits="userSpaceOnUse" x1="17.9307" y1="-45.9274" x2="325.1227" y2="74.7736">
			<stop  offset="0.1" style="stop-color:#5A79BA"/>
			<stop  offset="0.2701" style="stop-color:#7B86BC"/>
			<stop  offset="0.5019" style="stop-color:#A396BD"/>
			<stop  offset="0.6867" style="stop-color:#BB9FBF"/>
			<stop  offset="0.8" style="stop-color:#C4A3BF"/>
		</linearGradient>
		<path style="fill:url(#SVGID_00000095299328695628797330000003515901653934074018_);" d="M279.36,37.66l-0.09-0.14l-9.28-9.36
			c-0.7-0.7-1.67-0.95-2.35-0.95c-0.89,0-1.67,0.32-2.3,0.95L252.9,40.75V30.62c0-1.82-1.48-3.29-3.29-3.29
			c-1.91,0-3.29,1.39-3.29,3.29v36.14c0,1.91,1.39,3.29,3.29,3.29c1.82,0,3.29-1.48,3.29-3.29V50.03
			c2.78-2.9,11.51-11.64,14.76-14.89c1.42,1.43,3.42,3.48,4.79,4.87l0.88,0.9v25.84c0,1.82,1.48,3.29,3.29,3.29
			c1.91,0,3.29-1.39,3.29-3.29V39.58C279.91,38.95,279.7,38.23,279.36,37.66z"/>
		
			<linearGradient id="SVGID_00000120524485015204609570000006623572729686004915_" gradientUnits="userSpaceOnUse" x1="10.54" y1="-27.1177" x2="317.7321" y2="93.5834">
			<stop  offset="0.1" style="stop-color:#5A79BA"/>
			<stop  offset="0.2701" style="stop-color:#7B86BC"/>
			<stop  offset="0.5019" style="stop-color:#A396BD"/>
			<stop  offset="0.6867" style="stop-color:#BB9FBF"/>
			<stop  offset="0.8" style="stop-color:#C4A3BF"/>
		</linearGradient>
		<polygon style="fill:url(#SVGID_00000120524485015204609570000006623572729686004915_);" points="139.48,21.37 137.38,24.37 
			139.48,27.36 141.57,30.35 143.67,27.36 145.76,24.37 143.67,21.37 141.57,18.38 		"/>
		<g>
			
				<linearGradient id="SVGID_00000075131738509118491520000008908974774620949164_" gradientUnits="userSpaceOnUse" x1="-4.2206" y1="10.4491" x2="302.9714" y2="131.1501">
				<stop  offset="0.1" style="stop-color:#5A79BA"/>
				<stop  offset="0.2701" style="stop-color:#7B86BC"/>
				<stop  offset="0.5019" style="stop-color:#A396BD"/>
				<stop  offset="0.6867" style="stop-color:#BB9FBF"/>
				<stop  offset="0.8" style="stop-color:#C4A3BF"/>
			</linearGradient>
			<path style="fill:url(#SVGID_00000075131738509118491520000008908974774620949164_);" d="M205.33,82.18
				c-0.36-0.36-0.83-0.39-0.96-0.39h-6.4c-0.77,0-1.35,0.58-1.35,1.35v16.03c0,0.77,0.58,1.35,1.35,1.35c0.74,0,1.35-0.61,1.35-1.35
				v-3.48c0.43,0.08,0.88-0.06,1.19-0.38l8.05-8.01l0.05-0.06c0.44-0.55,0.4-1.4-0.07-1.84L205.33,82.18z M199.33,92.69v-8.21h4.48
				c0.22,0.23,0.56,0.56,1,1c0.29,0.29,0.59,0.59,0.86,0.86C204.24,87.78,200.82,91.2,199.33,92.69z"/>
			
				<linearGradient id="SVGID_00000010304301717401489520000017517099651478870937_" gradientUnits="userSpaceOnUse" x1="-2.9938" y1="7.3267" x2="304.1983" y2="128.0278">
				<stop  offset="0.1" style="stop-color:#5A79BA"/>
				<stop  offset="0.2701" style="stop-color:#7B86BC"/>
				<stop  offset="0.5019" style="stop-color:#A396BD"/>
				<stop  offset="0.6867" style="stop-color:#BB9FBF"/>
				<stop  offset="0.8" style="stop-color:#C4A3BF"/>
			</linearGradient>
			<path style="fill:url(#SVGID_00000010304301717401489520000017517099651478870937_);" d="M216.96,85.37
				c-0.52-0.48-1.36-0.46-1.86,0.04l-0.87,0.87c-0.04-0.71-0.63-1.28-1.35-1.28c-0.77,0-1.35,0.58-1.35,1.35v12.81
				c0,0.77,0.58,1.35,1.35,1.35c0.74,0,1.35-0.61,1.35-1.35v-9.08l2.77-2.77c0.28-0.28,0.43-0.69,0.39-1.09
				C217.36,85.88,217.2,85.56,216.96,85.37z"/>
			
				<linearGradient id="SVGID_00000113320369027701948630000001795968612589724857_" gradientUnits="userSpaceOnUse" x1="-0.7779" y1="1.6873" x2="306.4141" y2="122.3884">
				<stop  offset="0.1" style="stop-color:#5A79BA"/>
				<stop  offset="0.2701" style="stop-color:#7B86BC"/>
				<stop  offset="0.5019" style="stop-color:#A396BD"/>
				<stop  offset="0.6867" style="stop-color:#BB9FBF"/>
				<stop  offset="0.8" style="stop-color:#C4A3BF"/>
			</linearGradient>
			<path style="fill:url(#SVGID_00000113320369027701948630000001795968612589724857_);" d="M235.97,103.74
				c0.36,0,0.7-0.14,0.95-0.4l3.22-3.22c0.1-0.1,0.41-0.41,0.41-0.96V88.3c0-0.74-0.61-1.35-1.35-1.35c-0.77,0-1.35,0.58-1.35,1.35
				v10.3c-0.72,0.71-2.47,2.48-2.83,2.84c-0.27,0.27-0.41,0.59-0.41,0.94c0,0.33,0.16,0.71,0.41,0.96
				C235.27,103.6,235.61,103.74,235.97,103.74z"/>
			
				<linearGradient id="SVGID_00000180343475397085406060000015106580624068222137_" gradientUnits="userSpaceOnUse" x1="1.9451" y1="-5.2431" x2="309.1371" y2="115.458">
				<stop  offset="0.1" style="stop-color:#5A79BA"/>
				<stop  offset="0.2701" style="stop-color:#7B86BC"/>
				<stop  offset="0.5019" style="stop-color:#A396BD"/>
				<stop  offset="0.6867" style="stop-color:#BB9FBF"/>
				<stop  offset="0.8" style="stop-color:#C4A3BF"/>
			</linearGradient>
			<path style="fill:url(#SVGID_00000180343475397085406060000015106580624068222137_);" d="M248.79,100.1
				c0.26,0.26,0.61,0.41,0.94,0.41h4.82c0.77,0,1.35-0.58,1.35-1.35c0-0.76-0.59-1.35-1.35-1.35h-4.22
				c-0.68-0.66-2.5-2.47-3.46-3.45l1.52-1.52c0.04,0.68,0.67,1.28,1.35,1.28h4.82c0.74,0,1.35-0.61,1.35-1.35v-4.82
				c0-0.38-0.13-0.64-0.22-0.79l-1.77-1.74c-0.27-0.27-0.59-0.41-0.94-0.41c-0.55,0-0.86,0.31-0.96,0.41l-8.08,8.04l-0.09,0.13
				c-0.14,0.23-0.22,0.52-0.22,0.77c0,0.38,0.13,0.64,0.22,0.8L248.79,100.1z M252.98,88.25c0.08,0.08,0.16,0.15,0.22,0.22v2.94
				h-3.39L252.98,88.25z"/>
			
				<linearGradient id="SVGID_00000077293557616269774730000012494612966804617151_" gradientUnits="userSpaceOnUse" x1="3.8704" y1="-10.143" x2="311.0624" y2="110.558">
				<stop  offset="0.1" style="stop-color:#5A79BA"/>
				<stop  offset="0.2701" style="stop-color:#7B86BC"/>
				<stop  offset="0.5019" style="stop-color:#A396BD"/>
				<stop  offset="0.6867" style="stop-color:#BB9FBF"/>
				<stop  offset="0.8" style="stop-color:#C4A3BF"/>
			</linearGradient>
			<path style="fill:url(#SVGID_00000077293557616269774730000012494612966804617151_);" d="M263.19,100.1
				c0.26,0.26,0.61,0.41,0.94,0.41h4.82c0.77,0,1.35-0.58,1.35-1.35c0-0.76-0.59-1.35-1.35-1.35h-4.22
				c-0.68-0.66-2.5-2.47-3.46-3.45l6.1-6.1c0.26,0.26,0.5,0.49,0.6,0.59l0.04,0.04c0.51,0.51,1.41,0.53,1.96-0.01l0.05-0.06
				c0.41-0.51,0.41-1.25-0.03-1.8l-1.67-1.62c-0.27-0.27-0.59-0.41-0.94-0.41c-0.37,0-0.69,0.13-0.96,0.41l-8.05,8.01l-0.05,0.06
				c-0.41,0.51-0.41,1.25,0.03,1.79L263.19,100.1z"/>
			
				<linearGradient id="SVGID_00000111903368185522039820000009771245023138014878_" gradientUnits="userSpaceOnUse" x1="5.7" y1="-14.7995" x2="312.892" y2="105.9015">
				<stop  offset="0.1" style="stop-color:#5A79BA"/>
				<stop  offset="0.2701" style="stop-color:#7B86BC"/>
				<stop  offset="0.5019" style="stop-color:#A396BD"/>
				<stop  offset="0.6867" style="stop-color:#BB9FBF"/>
				<stop  offset="0.8" style="stop-color:#C4A3BF"/>
			</linearGradient>
			<path style="fill:url(#SVGID_00000111903368185522039820000009771245023138014878_);" d="M273.77,87.7H274v11.46
				c0,0.77,0.58,1.35,1.35,1.35h1.6c0.77,0,1.35-0.58,1.35-1.35c0-0.76-0.59-1.35-1.35-1.35h-0.25V87.7h1.83
				c0.76,0,1.35-0.59,1.35-1.35c0-0.77-0.58-1.35-1.35-1.35h-1.83v-1.87c0-0.76-0.59-1.35-1.35-1.35c-0.77,0-1.35,0.58-1.35,1.35V85
				h-0.23c-0.77,0-1.35,0.58-1.35,1.35C272.42,87.11,273.01,87.7,273.77,87.7z"/>
			
				<linearGradient id="SVGID_00000031903417168527401050000009455372275331672757_" gradientUnits="userSpaceOnUse" x1="4.0408" y1="-10.5766" x2="311.2328" y2="110.1244">
				<stop  offset="0.1" style="stop-color:#5A79BA"/>
				<stop  offset="0.2701" style="stop-color:#7B86BC"/>
				<stop  offset="0.5019" style="stop-color:#A396BD"/>
				<stop  offset="0.6867" style="stop-color:#BB9FBF"/>
				<stop  offset="0.8" style="stop-color:#C4A3BF"/>
			</linearGradient>
			<polygon style="fill:url(#SVGID_00000031903417168527401050000009455372275331672757_);" points="239.22,85.01 240.33,83.42 
				241.44,81.83 240.33,80.24 239.22,78.65 238.1,80.24 236.99,81.83 238.1,83.42 			"/>
			
				<linearGradient id="SVGID_00000106146436841649906170000005665454926415825582_" gradientUnits="userSpaceOnUse" x1="8.1671" y1="-21.0783" x2="315.3591" y2="99.6228">
				<stop  offset="0.1" style="stop-color:#5A79BA"/>
				<stop  offset="0.2701" style="stop-color:#7B86BC"/>
				<stop  offset="0.5019" style="stop-color:#A396BD"/>
				<stop  offset="0.6867" style="stop-color:#BB9FBF"/>
				<stop  offset="0.8" style="stop-color:#C4A3BF"/>
			</linearGradient>
			<path style="fill:url(#SVGID_00000106146436841649906170000005665454926415825582_);" d="M303.31,56.98
				c1.43-1.5,2.81-2.94,4.44-4.64c-2.37,0.32-4.34,0.59-6.37,0.87c-0.95-1.7-1.87-3.33-2.78-4.96c-0.11,0.02-0.22,0.05-0.32,0.07
				c-0.42,1.88-0.84,3.76-1.26,5.65c-2.02,0.43-3.95,0.84-5.87,1.25c0,0.1,0,0.2,0.01,0.3c1.67,0.88,3.34,1.76,5.08,2.67
				c-0.27,1.97-0.52,3.85-0.78,5.73c0.11,0.04,0.21,0.08,0.32,0.12c1.19-1.08,2.37-2.16,3.55-3.23c0.18,0.17,0.29,0.23,0.33,0.32
				c0.16,0.36,0.31,0.72,0.42,1.09c2.99,9.67,3.13,19.35-0.15,28.97c-3.56,10.44-10.03,18.51-20.04,23.41
				c-8.46,4.14-17.39,5.02-26.59,3.17c-11.54-2.32-20.84-8.24-28.02-17.52l0.08-0.05l8.11-8.08c0.25-0.25,0.41-0.63,0.41-0.96
				c0-0.32-0.13-0.75-0.48-1.01l-4.75-4.75c-0.51-0.52-1.39-0.52-1.9,0l-8.03,7.99c-0.35,0.35-0.35,0.78-0.35,0.94
				c0,0.21,0,0.61,0.35,0.96l4.8,4.79c8.63,11.62,20.14,18.3,34.74,19.7c6.6,0.63,13.05-0.15,19.15-2.69
				c16.26-6.79,24.24-19.62,26.06-36.67c0.68-6.38-0.19-12.66-2.19-18.77c-0.09-0.29-0.07-0.61-0.13-1.14
				c1.59,0.69,3,1.29,4.75,2.04C304.93,60.47,304.14,58.76,303.31,56.98z M227.7,88.26c0.29,0.29,0.66,0.65,1.05,1.04
				c0.66,0.65,1.37,1.36,1.87,1.86c-1.61,1.61-4.78,4.77-6.14,6.11c-0.77-0.77-2.09-2.09-2.88-2.91L227.7,88.26z"/>
		</g>
		<g>
			<g>
				
					<linearGradient id="SVGID_00000178911399289531705410000010955208059901071541_" gradientUnits="userSpaceOnUse" x1="-0.5679" y1="1.1527" x2="306.6241" y2="121.8538">
					<stop  offset="0.1" style="stop-color:#5A79BA"/>
					<stop  offset="0.2701" style="stop-color:#7B86BC"/>
					<stop  offset="0.5019" style="stop-color:#A396BD"/>
					<stop  offset="0.6867" style="stop-color:#BB9FBF"/>
					<stop  offset="0.8" style="stop-color:#C4A3BF"/>
				</linearGradient>
				<path style="fill:url(#SVGID_00000178911399289531705410000010955208059901071541_);" d="M0,17.31
					c0.97-1.87,2.46-3.32,3.92-4.77C9.87,6.59,16.94,2.58,25.19,0.96C40.18-1.99,53.3,1.85,64.38,12.43
					c1.22,1.17,2.28,2.5,3.39,3.78c0.29,0.33,0.51,0.73,0.77,1.1c0,0.31,0,0.62,0,0.94c-0.1,0.14-0.23,0.26-0.29,0.41
					c-0.8,1.81-2.83,2.14-4.18,0.67c-1.37-1.49-2.67-3.06-4.15-4.43c-5.74-5.33-12.52-8.55-20.28-9.65
					c-8.18-1.17-15.95,0.19-23.26,4.03c-4.47,2.35-8.29,5.52-11.5,9.42c-0.2,0.24-0.39,0.48-0.61,0.71
					c-1.32,1.41-3.4,1.01-4.11-0.79C0.1,18.49,0.05,18.37,0,18.25C0,17.93,0,17.62,0,17.31z"/>
				
					<linearGradient id="SVGID_00000033350833078577386560000008601777131248946573_" gradientUnits="userSpaceOnUse" x1="-3.5932" y1="8.8523" x2="303.5988" y2="129.5533">
					<stop  offset="0.1" style="stop-color:#5A79BA"/>
					<stop  offset="0.2701" style="stop-color:#7B86BC"/>
					<stop  offset="0.5019" style="stop-color:#A396BD"/>
					<stop  offset="0.6867" style="stop-color:#BB9FBF"/>
					<stop  offset="0.8" style="stop-color:#C4A3BF"/>
				</linearGradient>
				<path style="fill:url(#SVGID_00000033350833078577386560000008601777131248946573_);" d="M35.8,13.27
					c7.51,0.19,15,3.72,20.8,10.77c0.94,1.15,0.83,2.64-0.23,3.52c-1.06,0.89-2.53,0.74-3.49-0.43c-2.54-3.11-5.62-5.49-9.3-7.1
					c-9.46-4.13-20.91-1.43-27.53,6.52c-0.19,0.22-0.37,0.45-0.56,0.66c-0.98,1.08-2.43,1.22-3.46,0.34
					c-1.03-0.88-1.14-2.35-0.24-3.48c1.75-2.19,3.76-4.1,6.07-5.7C22.73,15.01,28.32,13.27,35.8,13.27z"/>
				
					<linearGradient id="SVGID_00000135661738074291957060000004350754571526799256_" gradientUnits="userSpaceOnUse" x1="-6.6556" y1="16.6462" x2="300.5365" y2="137.3473">
					<stop  offset="0.1" style="stop-color:#5A79BA"/>
					<stop  offset="0.2701" style="stop-color:#7B86BC"/>
					<stop  offset="0.5019" style="stop-color:#A396BD"/>
					<stop  offset="0.6867" style="stop-color:#BB9FBF"/>
					<stop  offset="0.8" style="stop-color:#C4A3BF"/>
				</linearGradient>
				<path style="fill:url(#SVGID_00000135661738074291957060000004350754571526799256_);" d="M34.49,26.56
					c4.49,0.24,8.05,1.95,10.85,5.24c1.01,1.19,1,2.64-0.04,3.58c-1.08,0.97-2.54,0.84-3.59-0.38c-1.6-1.87-3.56-3.09-6-3.44
					c-3.33-0.48-6.19,0.5-8.55,2.93c-0.25,0.26-0.47,0.54-0.72,0.79c-0.94,0.94-2.34,0.98-3.32,0.12c-0.98-0.86-1.09-2.32-0.24-3.37
					c1.39-1.73,3.08-3.09,5.08-4.05C30.09,26.96,32.34,26.52,34.49,26.56z"/>
			</g>
			<g>
				<g>
					
						<linearGradient id="SVGID_00000137093854843400249890000016767896920143781779_" gradientUnits="userSpaceOnUse" x1="-13.4932" y1="34.0485" x2="293.6988" y2="154.7496">
						<stop  offset="0.1" style="stop-color:#5A79BA"/>
						<stop  offset="0.2701" style="stop-color:#7B86BC"/>
						<stop  offset="0.5019" style="stop-color:#A396BD"/>
						<stop  offset="0.6867" style="stop-color:#BB9FBF"/>
						<stop  offset="0.8" style="stop-color:#C4A3BF"/>
					</linearGradient>
					<path style="fill:url(#SVGID_00000137093854843400249890000016767896920143781779_);" d="M50.15,60.97c0-2.35,0-4.47,0-5.49
						c0-8.75-7.12-15.87-15.87-15.87S18.4,46.73,18.4,55.48c0,1.02,0,3.14,0,5.49c4.75-2.49,10.15-3.91,15.87-3.91
						C40,57.06,45.4,58.48,50.15,60.97z"/>
					
						<linearGradient id="SVGID_00000137108333321048193580000002633382695284627853_" gradientUnits="userSpaceOnUse" x1="-20.151" y1="50.9931" x2="287.041" y2="171.6942">
						<stop  offset="0.1" style="stop-color:#5A79BA"/>
						<stop  offset="0.2701" style="stop-color:#7B86BC"/>
						<stop  offset="0.5019" style="stop-color:#A396BD"/>
						<stop  offset="0.6867" style="stop-color:#BB9FBF"/>
						<stop  offset="0.8" style="stop-color:#C4A3BF"/>
					</linearGradient>
					<path style="fill:url(#SVGID_00000137108333321048193580000002633382695284627853_);" d="M18.4,64.23c0,2.51,0,4.82,0,5.89
						c0,8.75,7.12,15.87,15.87,15.87s15.87-7.12,15.87-15.87c0-1.07,0-3.38,0-5.89c-4.66-2.74-10.09-4.32-15.87-4.32
						S23.06,61.49,18.4,64.23z"/>
				</g>
				
					<linearGradient id="SVGID_00000047782918437360337660000015578589726329995959_" gradientUnits="userSpaceOnUse" x1="-21.6383" y1="54.7782" x2="285.5538" y2="175.4792">
					<stop  offset="0.1" style="stop-color:#5A79BA"/>
					<stop  offset="0.2701" style="stop-color:#7B86BC"/>
					<stop  offset="0.5019" style="stop-color:#A396BD"/>
					<stop  offset="0.6867" style="stop-color:#BB9FBF"/>
					<stop  offset="0.8" style="stop-color:#C4A3BF"/>
				</linearGradient>
				<path style="fill:url(#SVGID_00000047782918437360337660000015578589726329995959_);" d="M34.27,95.25
					c-13.7,0-24.84-11.14-24.84-24.84v-2.81c0-1.18,0.96-2.14,2.14-2.14s2.14,0.96,2.14,2.14v2.81c0,11.34,9.22,20.56,20.56,20.56
					s20.56-9.22,20.56-20.56v-2.81c0-1.18,0.96-2.14,2.14-2.14s2.14,0.96,2.14,2.14v2.81C59.11,84.11,47.97,95.25,34.27,95.25z"/>
				
					<linearGradient id="SVGID_00000129180209725169685630000011068481375429224869_" gradientUnits="userSpaceOnUse" x1="-30.6924" y1="77.8216" x2="276.4996" y2="198.5227">
					<stop  offset="0.1" style="stop-color:#5A79BA"/>
					<stop  offset="0.2701" style="stop-color:#7B86BC"/>
					<stop  offset="0.5019" style="stop-color:#A396BD"/>
					<stop  offset="0.6867" style="stop-color:#BB9FBF"/>
					<stop  offset="0.8" style="stop-color:#C4A3BF"/>
				</linearGradient>
				<path style="fill:url(#SVGID_00000129180209725169685630000011068481375429224869_);" d="M34.51,115.09
					c-1.18,0-2.14-0.96-2.14-2.14V93.93c0-1.18,0.96-2.14,2.14-2.14s2.14,0.96,2.14,2.14v19.01
					C36.65,114.13,35.69,115.09,34.51,115.09z"/>
				
					<linearGradient id="SVGID_00000036220549101970461150000009517791824966941367_" gradientUnits="userSpaceOnUse" x1="-33.9281" y1="86.0567" x2="273.2639" y2="206.7578">
					<stop  offset="0.1" style="stop-color:#5A79BA"/>
					<stop  offset="0.2701" style="stop-color:#7B86BC"/>
					<stop  offset="0.5019" style="stop-color:#A396BD"/>
					<stop  offset="0.6867" style="stop-color:#BB9FBF"/>
					<stop  offset="0.8" style="stop-color:#C4A3BF"/>
				</linearGradient>
				<path style="fill:url(#SVGID_00000036220549101970461150000009517791824966941367_);" d="M44.02,115.09H25
					c-1.18,0-2.14-0.96-2.14-2.14s0.96-2.14,2.14-2.14h19.01c1.18,0,2.14,0.96,2.14,2.14S45.2,115.09,44.02,115.09z"/>
			</g>
		</g>
	</g>
</g>
<g id="OV">
</g>
</svg>
