<?xml version="1.0" encoding="utf-8"?>
<!-- Generator: Adobe Illustrator 26.0.2, SVG Export Plug-In . SVG Version: 6.00 Build 0)  -->
<svg version="1.1" id="Layer_1" xmlns="http://www.w3.org/2000/svg" xmlns:xlink="http://www.w3.org/1999/xlink" x="0px" y="0px"
	 viewBox="0 0 887.7 239.8" style="enable-background:new 0 0 887.7 239.8;" xml:space="preserve">
<style type="text/css">	
</style>
<g>
	<g>
		
			<rect x="450.8" y="35.5" transform="matrix(0.7071 -0.7071 0.7071 0.7071 92.2719 336.0737)" class="st2" width="2" height="42.4"/>
	</g>
	<g>
		
			<rect x="430.5" y="55.7" transform="matrix(0.7071 -0.7071 0.7071 0.7071 92.2025 336.0421)" class="st2" width="42.4" height="2"/>
	</g>
</g>
<g>
	<g>
		<path class="st2" d="M204.8,17c-1.1-0.5-2.3-0.3-3.2,0.6L187.1,32l-14.4-14.4c-0.8-0.8-2.2-1.2-3.4-0.6c-1.1,0.4-1.8,1.5-1.8,2.8
			v41.5c0,1.7,1.3,3,3,3s3-1.4,3-3V27.1c3,3,6.9,6.9,9.2,9.2l-0.6,0.6c-0.6,0.6-0.9,1.3-0.9,2.1s0.3,1.5,0.9,2.1
			c1.2,1.2,3.1,1.2,4.2,0l2.8-2.7c0,0,8.5-8.6,11.4-11.4c0,9.2-0.1,28.2-0.1,33.3v1.2c0,1.7,1.5,3,3.2,3s3-1.3,3-3.1V19.6
			C206.7,18.5,205.9,17.4,204.8,17z"/>
	</g>
	<g>
		<path class="st2" d="M218,30.1c-1.7,0-3,1.3-3,3v28.1c0,1.7,1.3,3,3,3s3-1.4,3-3V33.1C221,31.4,219.6,30.1,218,30.1z"/>
	</g>
	<g>
		<path class="st2" d="M251.3,34.3c0.6,0.6,1.3,0.9,2.2,0.9c0.8,0,1.6-0.3,2.2-0.9l0.1-0.1c0.9-1.1,0.9-2.8,0-4l-4.4-4.2
			c-0.6-0.6-1.3-0.9-2.1-0.9c-1.2,0-1.9,0.7-2.1,0.9l-20.8,20.7l-0.1,0.1c-0.9,1.1-0.9,2.8,0,4l12.6,12.6c0.6,0.6,1.4,0.9,2.1,0.9
			h12.5c1.7,0,3-1.3,3-3s-1.3-3-3-3h-11.1c-1.7-1.6-7-6.9-9.4-9.4l16.4-16.4C250.3,33.3,251.2,34.3,251.3,34.3z"/>
	</g>
	<g>
		<path class="st2" d="M277.4,16.9c-0.8,0-1.6,0.3-2.2,0.9c-0.6,0.6-0.9,1.4-0.9,2.2v41.6v0.2l0.1,0.3c0.1,0.4,0.3,1,0.9,1.6
			c0.6,0.6,1.2,0.8,1.6,0.9l0.2,0.1l26.1-0.1c0.9,0,1.6-0.3,2.1-0.8s0.9-1.4,0.9-2.2V20.1c0-0.8-0.3-1.5-0.9-2.1
			c-0.5-0.5-1.3-0.9-2.1-0.9L277.4,16.9z M300.2,22.9c0,2.4,0,6.6,0,11.1v0.3c0,6.8,0,20.7,0,24.2h-19.8c0-3.3,0-16.8,0-23.2v-0.1
			c0-5.2,0-9.7,0-12.2c1.9,0,5,0,8,0h3.7C295.2,22.9,298.3,22.9,300.2,22.9z"/>
	</g>
	<g>
		<path class="st2" d="M344.3,34.5l-0.1-0.1l-8.5-8.6c-0.6-0.6-1.5-0.9-2.2-0.9c-0.8,0-1.5,0.3-2.1,0.9L320,37.3V28c0-1.7-1.4-3-3-3
			c-1.7,0-3,1.3-3,3v33.1c0,1.7,1.3,3,3,3s3-1.4,3-3V45.9c2.6-2.7,10.6-10.7,13.5-13.6c1.3,1.3,3.1,3.2,4.4,4.5l0.8,0.8v23.7
			c0,1.7,1.4,3,3,3c1.7,0,3-1.3,3-3v-25C344.8,35.7,344.6,35,344.3,34.5z"/>
	</g>
	<g>
		<polygon class="st2" points="216.1,19.6 214.1,22.3 216.1,25.1 218,27.8 219.9,25.1 221.8,22.3 219.9,19.6 218,16.8 		"/>
	</g>
	<g>
		<g>
			<path class="st2" d="M276.4,75.3c-0.3-0.3-0.8-0.4-0.9-0.4h-5.9c-0.7,0-1.2,0.5-1.2,1.2v14.7c0,0.7,0.5,1.2,1.2,1.2
				c0.7,0,1.2-0.6,1.2-1.2v-3.2c0.4,0.1,0.8-0.1,1.1-0.3l7.4-7.3v-0.1c0.4-0.5,0.4-1.3-0.1-1.7L276.4,75.3z M270.9,85v-7.5h4.1
				c0.2,0.2,0.5,0.5,0.9,0.9c0.3,0.3,0.5,0.5,0.8,0.8C275.4,80.5,272.3,83.6,270.9,85z"/>
		</g>
		<g>
			<path class="st2" d="M287.1,78.3c-0.5-0.4-1.2-0.4-1.7,0l-0.8,0.8c0-0.7-0.6-1.2-1.2-1.2c-0.7,0-1.2,0.5-1.2,1.2v11.7
				c0,0.7,0.5,1.2,1.2,1.2c0.7,0,1.2-0.6,1.2-1.2v-8.3l2.5-2.5c0.3-0.3,0.4-0.6,0.4-1C287.4,78.7,287.3,78.4,287.1,78.3z"/>
		</g>
		<g>
			<path class="st2" d="M304.5,95.1c0.3,0,0.6-0.1,0.9-0.4l2.9-2.9c0.1-0.1,0.4-0.4,0.4-0.9v-10c0-0.7-0.6-1.2-1.2-1.2
				c-0.7,0-1.2,0.5-1.2,1.2v9.4c-0.7,0.6-2.3,2.3-2.6,2.6c-0.2,0.2-0.4,0.5-0.4,0.9c0,0.3,0.1,0.7,0.4,0.9
				C303.9,95,304.2,95.1,304.5,95.1z"/>
		</g>
		<g>
			<path class="st2" d="M316.3,91.8c0.2,0.2,0.6,0.4,0.9,0.4h4.4c0.7,0,1.2-0.5,1.2-1.2s-0.5-1.2-1.2-1.2h-3.9
				c-0.6-0.6-2.3-2.3-3.2-3.2l1.4-1.4c0,0.6,0.6,1.2,1.2,1.2h4.4c0.7,0,1.2-0.6,1.2-1.2v-4.4c0-0.4-0.1-0.6-0.2-0.7l-1.6-1.6
				c-0.2-0.2-0.5-0.4-0.9-0.4c-0.5,0-0.8,0.3-0.9,0.4l-7.4,7.4l-0.1,0.1c-0.1,0.2-0.2,0.5-0.2,0.7c0,0.3,0.1,0.6,0.2,0.7L316.3,91.8
				z M320.1,80.9c0.1,0.1,0.1,0.1,0.2,0.2v2.7h-3.1L320.1,80.9z"/>
		</g>
		<g>
			<path class="st2" d="M329.5,91.8c0.2,0.2,0.6,0.4,0.9,0.4h4.4c0.7,0,1.2-0.5,1.2-1.2s-0.5-1.2-1.2-1.2h-3.9
				c-0.6-0.6-2.3-2.3-3.2-3.2l5.6-5.6c0.2,0.2,0.5,0.5,0.5,0.5l0,0c0.5,0.5,1.3,0.5,1.8,0v-0.1c0.4-0.5,0.4-1.1,0-1.6l-1.5-1.5
				c-0.2-0.2-0.5-0.4-0.9-0.4c-0.3,0-0.6,0.1-0.9,0.4l-7.4,7.3v0.1c-0.4,0.5-0.4,1.1,0,1.6L329.5,91.8z"/>
		</g>
		<g>
			<path class="st2" d="M339.2,80.4h0.2v10.5c0,0.7,0.5,1.2,1.2,1.2h1.5c0.7,0,1.2-0.5,1.2-1.2s-0.5-1.2-1.2-1.2h-0.2v-9.3h1.7
				c0.7,0,1.2-0.5,1.2-1.2s-0.5-1.2-1.2-1.2h-1.7v-1.7c0-0.7-0.5-1.2-1.2-1.2s-1.2,0.5-1.2,1.2V78h-0.3c-0.7,0-1.2,0.5-1.2,1.2
				C337.9,79.9,338.5,80.4,339.2,80.4z"/>
		</g>
		<g>
			<polygon class="st2" points="307.5,77.9 308.5,76.5 309.5,75 308.5,73.6 307.5,72.1 306.5,73.6 305.4,75 306.5,76.5 			"/>
		</g>
		<g>
			<path class="st2" d="M366.2,52.2c1.3-1.4,2.6-2.7,4.1-4.3c-2.2,0.3-4,0.5-5.8,0.8c-0.9-1.6-1.7-3.1-2.6-4.5c-0.1,0-0.2,0-0.3,0.1
				c-0.4,1.7-0.8,3.4-1.2,5.2c-1.9,0.4-3.6,0.8-5.4,1.1c0,0.1,0,0.2,0,0.3c1.5,0.8,3.1,1.6,4.7,2.5c-0.2,1.8-0.5,3.5-0.7,5.3
				c0.1,0,0.2,0.1,0.3,0.1c1.1-1,2.2-2,3.3-3c0.2,0.2,0.3,0.2,0.3,0.3c0.1,0.3,0.3,0.7,0.4,1c2.7,8.9,2.9,17.7-0.1,26.6
				c-3.3,9.6-9.2,17-18.4,21.5c-7.8,3.8-15.9,4.6-24.4,2.9c-10.6-2.1-19.1-7.6-25.7-16.1h0.1l7.4-7.4c0.2-0.2,0.4-0.6,0.4-0.9
				s-0.1-0.7-0.4-0.9l-4.4-4.4c-0.5-0.5-1.3-0.5-1.7,0l-7.4,7.3c-0.3,0.3-0.3,0.7-0.3,0.9c0,0.2,0,0.6,0.3,0.9l4.4,4.4
				c7.9,10.7,18.5,16.8,31.8,18.1c6.1,0.6,12-0.1,17.6-2.5c14.9-6.2,22.2-18,23.9-33.6c0.6-5.8-0.2-11.6-2-17.2
				c-0.1-0.3-0.1-0.6-0.1-1c1.5,0.6,2.7,1.2,4.4,1.9C367.7,55.4,367,53.9,366.2,52.2z M296.9,80.9c0.3,0.3,0.6,0.6,1,1
				c0.6,0.6,1.3,1.2,1.7,1.7c-1.5,1.5-4.4,4.4-5.6,5.6c-0.7-0.7-1.9-1.9-2.6-2.7L296.9,80.9z"/>
		</g>
	</g>
	<g>
		<g>
			<g>
				<path class="st2" d="M88.2,15.9c0.9-1.7,2.3-3,3.6-4.4c5.4-5.5,11.9-9.1,19.5-10.6c13.7-2.7,25.8,0.8,35.9,10.5
					c1.1,1.1,2.1,2.3,3.1,3.5c0.3,0.3,0.5,0.7,0.7,1c0,0.3,0,0.6,0,0.9c-0.1,0.1-0.2,0.2-0.3,0.4c-0.7,1.7-2.6,2-3.8,0.6
					c-1.3-1.4-2.5-2.8-3.8-4.1c-5.3-4.9-11.5-7.8-18.6-8.8C117,3.7,109.9,5,103.2,8.5c-4.1,2.2-7.6,5.1-10.5,8.6
					c-0.2,0.2-0.4,0.4-0.6,0.7c-1.2,1.3-3.1,0.9-3.8-0.7c0-0.1-0.1-0.2-0.1-0.3C88.2,16.4,88.2,16.2,88.2,15.9z"/>
			</g>
			<g>
				<path class="st2" d="M121,12.2c6.9,0.2,13.7,3.4,19.1,9.9c0.9,1,0.8,2.4-0.2,3.2c-1,0.8-2.3,0.7-3.2-0.4c-2.3-2.9-5.1-5-8.5-6.5
					c-8.7-3.8-19.2-1.3-25.2,6c-0.2,0.2-0.3,0.4-0.5,0.6c-0.9,1-2.2,1.1-3.2,0.3c-0.9-0.8-1-2.2-0.2-3.2c1.6-2,3.4-3.8,5.6-5.2
					C109,13.8,114.2,12.2,121,12.2z"/>
			</g>
			<g>
				<path class="st2" d="M119.8,24.3c4.1,0.2,7.4,1.8,9.9,4.8c0.9,1.1,0.9,2.4,0,3.3c-1,0.9-2.3,0.8-3.3-0.3
					c-1.5-1.7-3.3-2.8-5.5-3.2c-3.1-0.4-5.7,0.5-7.8,2.7c-0.2,0.2-0.4,0.5-0.7,0.7c-0.9,0.9-2.1,0.9-3,0.1c-0.9-0.8-1-2.1-0.2-3.1
					c1.3-1.6,2.8-2.8,4.7-3.7C115.8,24.7,117.8,24.3,119.8,24.3z"/>
			</g>
		</g>
		<g>
			<g>
				<g>
					<path class="st2" d="M134.2,55.9c0-2.2,0-4.1,0-5c0-8-6.5-14.6-14.6-14.6S105,42.8,105,50.9c0,0.9,0,2.9,0,5
						c4.4-2.3,9.3-3.6,14.6-3.6C124.9,52.3,129.8,53.6,134.2,55.9z"/>
				</g>
				<g>
					<path class="st2" d="M105.1,58.9c0,2.3,0,4.4,0,5.4c0,8,6.5,14.6,14.6,14.6s14.5-6.6,14.5-14.6c0-1,0-3.1,0-5.4
						c-4.3-2.5-9.2-4-14.6-4S109.3,56.4,105.1,58.9z"/>
				</g>
			</g>
			<g>
				<path class="st2" d="M119.6,87.3c-12.6,0-22.8-10.2-22.8-22.8V62c0-1.1,0.9-2,2-2s2,0.9,2,2v2.6c0,10.4,8.5,18.8,18.8,18.8
					s18.8-8.5,18.8-18.8V62c0-1.1,0.9-2,2-2s2,0.9,2,2v2.6C142.4,77.1,132.2,87.3,119.6,87.3z"/>
			</g>
			<g>
				<path class="st2" d="M119.8,105.5c-1.1,0-2-0.9-2-2V86.1c0-1.1,0.9-2,2-2s2,0.9,2,2v17.4C121.8,104.6,120.9,105.5,119.8,105.5z"
					/>
			</g>
			<g>
				<path class="st2" d="M128.5,105.5h-17.4c-1.1,0-2-0.9-2-2s0.9-2,2-2h17.4c1.1,0,2,0.9,2,2S129.6,105.5,128.5,105.5z"/>
			</g>
		</g>
	</g>
</g>
<g>
	<g>
		<g>
			<g>
				
					<rect x="16.3" y="216.2" transform="matrix(0.7071 -0.7071 0.7071 0.7071 -156.5978 79.2031)" class="st2" width="2" height="24.9"/>
			</g>
			<g>
				
					<rect x="4.8" y="227.6" transform="matrix(0.7071 -0.7071 0.7071 0.7071 -156.6139 79.1547)" class="st2" width="24.9" height="2"/>
			</g>
		</g>
		<g>
			<g>
				<path class="st2" d="M0,189.1h3.3l2.5,6.9c0.3,0.9,0.6,1.9,0.9,2.9h0.1c0.3-1,0.6-1.9,0.9-2.9l2.5-6.9h3.3v14.8h-2.7v-6.2
					c0-1.4,0.2-3.5,0.4-4.9H11l-1.2,3.5l-2.3,6.2H5.8l-2.3-6.2l-1.2-3.5h0c0.1,1.4,0.4,3.5,0.4,4.9v6.2H0V189.1z"/>
			</g>
			<g>
				<path class="st2" d="M17.1,189.3c0-1,0.7-1.6,1.8-1.6c1,0,1.7,0.6,1.7,1.6c0,0.9-0.7,1.6-1.7,1.6
					C17.8,190.9,17.1,190.2,17.1,189.3z M17.3,192.7h2.9v11.2h-2.9V192.7z"/>
			</g>
			<g>
				<path class="st2" d="M23.2,198.4c0-3.7,2.7-5.9,5.7-5.9c1.4,0,2.4,0.5,3.3,1.2l-1.4,1.9c-0.6-0.5-1.1-0.7-1.7-0.7
					c-1.7,0-2.9,1.4-2.9,3.5s1.2,3.5,2.8,3.5c0.8,0,1.6-0.4,2.2-0.9l1.2,1.9c-1.1,0.9-2.4,1.4-3.7,1.4
					C25.6,204.2,23.2,202.1,23.2,198.4z"/>
			</g>
			<g>
				<path class="st2" d="M39.5,196.5c0-4.8,2.7-7.6,6.6-7.6s6.6,2.8,6.6,7.6s-2.7,7.7-6.6,7.7S39.5,201.3,39.5,196.5z M49.7,196.5
					c0-3.2-1.4-5.1-3.6-5.1s-3.6,1.9-3.6,5.1c0,3.2,1.4,5.2,3.6,5.2S49.7,199.6,49.7,196.5z"/>
			</g>
			<g>
				<path class="st2" d="M55.9,192.7h2.4l0.2,1.5h0.1c1-1,2.1-1.8,3.6-1.8c2.4,0,3.5,1.7,3.5,4.5v7h-2.9v-6.6c0-1.7-0.5-2.3-1.6-2.3
					c-0.9,0-1.5,0.4-2.3,1.3v7.7H56L55.9,192.7L55.9,192.7z"/>
			</g>
			<g>
				<path class="st2" d="M74.5,189.1h4.9c3.3,0,5.8,1.1,5.8,4.6c0,3.4-2.5,4.9-5.7,4.9h-2v5.3h-3C74.5,203.9,74.5,189.1,74.5,189.1z
					 M79.2,196.3c2,0,3-0.9,3-2.6c0-1.7-1.1-2.3-3.1-2.3h-1.7v4.9L79.2,196.3L79.2,196.3z"/>
			</g>
			<g>
				<path class="st2" d="M88.1,192.7h2.4l0.2,2h0.1c0.8-1.5,2-2.3,3.2-2.3c0.6,0,1,0.1,1.3,0.2l-0.5,2.5c-0.4-0.1-0.7-0.2-1.2-0.2
					c-0.9,0-1.9,0.6-2.6,2.2v6.7h-2.9V192.7z"/>
			</g>
			<g>
				<path class="st2" d="M96.4,198.4c0-3.7,2.6-5.9,5.4-5.9s5.4,2.2,5.4,5.9s-2.6,5.9-5.4,5.9C99,204.2,96.4,202.1,96.4,198.4z
					 M104.1,198.4c0-2.1-0.9-3.5-2.4-3.5s-2.4,1.4-2.4,3.5s0.9,3.5,2.4,3.5C103.3,201.8,104.1,200.4,104.1,198.4z"/>
			</g>
			<g>
				<path class="st2" d="M107.4,208.2l0.5-2.2c0.3,0.1,0.6,0.2,0.9,0.2c1,0,1.2-0.6,1.2-1.9v-11.6h2.9v11.5c0,2.4-0.9,4.3-3.7,4.3
					C108.5,208.5,107.9,208.4,107.4,208.2z M109.8,189.3c0-1,0.7-1.6,1.8-1.6c1,0,1.8,0.6,1.8,1.6c0,0.9-0.8,1.6-1.8,1.6
					C110.6,190.9,109.8,190.2,109.8,189.3z"/>
			</g>
			<g>
				<path class="st2" d="M116,198.4c0-3.6,2.5-5.9,5.2-5.9c3.1,0,4.7,2.3,4.7,5.4c0,0.5-0.1,1.1-0.1,1.3h-6.9
					c0.2,1.8,1.4,2.8,3.1,2.8c0.9,0,1.7-0.3,2.5-0.8l1,1.8c-1.1,0.8-2.5,1.2-3.9,1.2C118.4,204.2,116,202,116,198.4z M123.4,197.2
					c0-1.5-0.7-2.5-2.1-2.5c-1.2,0-2.2,0.8-2.4,2.5H123.4z"/>
			</g>
			<g>
				<path class="st2" d="M128.1,198.4c0-3.7,2.7-5.9,5.7-5.9c1.4,0,2.4,0.5,3.3,1.2l-1.4,1.9c-0.6-0.5-1.1-0.7-1.7-0.7
					c-1.7,0-2.9,1.4-2.9,3.5s1.2,3.5,2.8,3.5c0.8,0,1.6-0.4,2.2-0.9l1.2,1.9c-1.1,0.9-2.4,1.4-3.7,1.4
					C130.5,204.2,128.1,202.1,128.1,198.4z"/>
			</g>
			<g>
				<path class="st2" d="M140,200v-5h-1.6v-2.2l1.7-0.1l0.3-3h2.5v3h2.8v2.3H143v5c0,1.3,0.5,1.9,1.5,1.9c0.4,0,0.8-0.1,1.1-0.2
					l0.5,2.1c-0.6,0.2-1.4,0.4-2.4,0.4C141.1,204.2,140,202.5,140,200z"/>
			</g>
		</g>
		<g>
			<g>
				<path class="st2" d="M61.4,229.8V227c-1.3,1.3-2.8,2.4-4.5,3.3H69v8h-2.5v-0.6H59v0.6h-2.4v-7.9c-0.6,0.3-1.2,0.6-1.9,0.8
					c-0.4-0.6-1.1-1.5-1.6-2c2.1-0.6,4.3-1.6,5.9-2.9h-5.3v-2.1h7.7v-1.4c-1.8,0.2-3.6,0.3-5.4,0.3c-0.1-0.6-0.3-1.5-0.6-2
					c4.4-0.2,9.4-0.6,12.4-1.4l1.7,1.9c-1.7,0.4-3.6,0.7-5.6,1v1.6h7.7v2.1h-4.8c2,1.1,4,2.4,5.2,3.3l-1.4,1.8
					c-1.4-1.3-4.2-3.1-6.7-4.4v2.8L61.4,229.8L61.4,229.8z M58.9,232.1v1.1h7.5v-1.1H58.9z M66.5,235.9v-1.1H59v1.1H66.5z"/>
			</g>
			<g>
				<path class="st2" d="M77,229.1c-0.7-0.6-2.2-1.5-3.3-2.1l1.3-1.7c1.1,0.5,2.6,1.3,3.3,1.9L77,229.1z M83.8,234v1.2
					c0,0.8,0.2,0.9,1.3,0.9h3.6c0.9,0,1.1-0.3,1.2-2c0.5,0.3,1.3,0.6,1.9,0.8c-0.3,2.5-0.9,3.2-2.9,3.2h-4c-2.5,0-3.2-0.6-3.2-2.8
					v-3.9c-0.6,0.7-1.2,1.3-1.8,1.7c-0.3-0.4-0.7-0.9-1.1-1.3c-0.8,2-1.7,4.1-2.5,6l-2.1-1.4c0.8-1.5,1.9-3.9,2.8-6.1l1.4,1
					c1.3-0.9,2.6-2.3,3.4-3.8h-3v-2.1H82v-1.5h-2.5v-2.1H82v-2h2.3v2h2.8v-2h2.3v2H92v2.1h-2.6v1.5h3.2v2.1h-3.1
					c0.8,1.4,2,2.7,3.3,3.4c-0.5,0.4-1.3,1.3-1.7,1.9c-0.7-0.5-1.3-1.1-1.9-1.8v3.1L83.8,234L83.8,234z M78,223.8
					c-0.7-0.6-2.1-1.5-3.1-2.2l1.4-1.7c1,0.5,2.5,1.4,3.2,2L78,223.8z M84.2,227.4c-0.2,0.6-0.5,1.1-0.8,1.7H88
					c-0.3-0.6-0.6-1.1-0.9-1.7H84.2z M87.4,230.8h-3.6v1.6h3.6V230.8z M84.3,225.3h2.8v-1.5h-2.8V225.3z"/>
			</g>
			<g>
				<path class="st2" d="M98.6,228c0,3-0.3,7.4-2.2,10.2c-0.4-0.4-1.4-1.1-1.9-1.3c1.7-2.6,1.8-6.3,1.8-8.9v-4.6h6.2v-3.7h2.4v1.2
					h6.6v1.7h-6.6v0.8h5.8l0.4-0.1l1.7,0.4c-0.3,1.2-0.7,2.6-1.1,3.5l-2-0.5c0.1-0.4,0.3-0.9,0.4-1.4h-5.4v1l4.7-0.4l0.1,1.5
					l-4.8,0.4c0,0.5,0.2,0.7,0.8,0.7h3.9c0.7,0,1.9,0,2.4-0.2c0.1,0.6,0.1,1.3,0.2,1.8c-0.5,0.1-1.5,0.2-2.4,0.2h-4.2
					c-2.1,0-2.8-0.7-2.9-2.3l-3.1,0.3l-0.1-1.6l3.2-0.2v-1.1h-3.8L98.6,228L98.6,228z M112.8,235.7v2H98.1v-2h4.6v-1h-3.3v-3.8h1.8
					v2.1h1.5v-2.4h2v5.1h1.3v-5.1h2v2.4h1.4v-2.1h1.8v3.8H108v1H112.8z"/>
			</g>
			<g>
				<path class="st2" d="M124.6,237c-0.3-0.4-0.8-0.9-1.2-1.4c-0.6,1-1.4,1.9-2.6,2.7c-0.3-0.4-0.9-1-1.3-1.3
					c1.8-1.1,2.6-2.5,2.9-3.8h-2.3v-1.8h2.5V231v-1.4h-0.4c-0.3,0.6-0.6,1.2-0.9,1.7c-0.3-0.3-1.1-0.8-1.5-1l0.1-0.1l-1,0.4v5.3
					c0,1.1-0.2,1.6-0.7,2c-0.6,0.4-1.4,0.4-2.6,0.4c-0.1-0.6-0.3-1.5-0.6-2.1c0.7,0,1.3,0,1.5,0s0.3-0.1,0.3-0.3v-4.6l-1.4,0.5
					l-0.6-2.3c0.6-0.2,1.2-0.4,2-0.6v-3.3h-1.6v-2.2h1.6v-3.8h2.1v3.8h1.3v2.2h-1.3v2.6l1.3-0.4l0.3,1.4c0.4-0.9,0.7-1.9,0.8-2.9
					l1.8,0.4c-0.1,0.4-0.2,0.8-0.3,1.2h3.2v1.8h-1.5v1.4v0.2h1.7v1.8h-1.9c0,0.2-0.1,0.4-0.1,0.6c0.6,0.5,1.4,1.2,1.7,1.7L124.6,237
					z M122.9,226.2c-1.9,0-2.3-0.7-2.3-2.5v-4h2v1.5h3.2v1.7h-3.2v0.8c0,0.6,0.1,0.8,0.4,0.8h1.8c0.4,0,0.9,0,1.3-0.1
					c0,0.5,0.1,1.2,0.2,1.7c-0.3,0.1-0.9,0.1-1.4,0.1H122.9z M134,236.1c-0.2,0.4-0.5,1.3-0.5,1.8h-1.9c-1.7,0-3-0.4-4-2
					c-0.3,0.9-0.7,1.7-1.2,2.4c-0.3-0.3-1-0.9-1.4-1.1c1.4-1.6,1.7-4.2,1.8-7.3l1.8,0.1c0,1.3-0.1,2.4-0.3,3.5
					c0.2,0.7,0.5,1.2,0.9,1.6v-6.3h-2.7v-1.9h4.3c-0.9-0.8-2.5-1.9-3.7-2.7l1.3-1.3c0.4,0.2,0.8,0.5,1.2,0.7
					c0.4-0.5,0.8-1.1,1.1-1.6h-4v-1.8h5.2l0.3-0.1l1.3,0.9c-0.7,1.3-1.6,2.6-2.5,3.7c0.6,0.4,1.1,0.7,1.4,1l-1.1,1.2h1l0.3-0.1
					l1.1,0.3c-0.2,1.3-0.5,2.7-0.7,3.6l-1.4-0.3c0.1-0.4,0.2-1,0.3-1.6h-1v2.6h2.3v1.9h-2.3v2.9c0.3,0,0.6,0.1,0.9,0.1h2.2V236.1z"
					/>
			</g>
			<g>
				<path class="st2" d="M142.1,220.4c-0.5,1.4-1.2,2.9-2,4.3v13.6h-2.3v-10c-0.4,0.5-0.8,1-1.2,1.4c-0.2-0.6-0.9-1.9-1.3-2.5
					c1.8-1.8,3.5-4.6,4.5-7.5L142.1,220.4z M154,236.1c0,1-0.2,1.6-0.9,1.9c-0.7,0.3-1.7,0.3-3.2,0.3c-0.1-0.6-0.4-1.4-0.7-2
					c0.9,0.1,1.9,0,2.2,0s0.4-0.1,0.4-0.3v-0.7l-1.2,0.4c-0.1-0.3-0.2-0.6-0.3-0.9c-2.1,0.3-4.2,0.6-5.9,0.8l-0.4-2
					c0.8-0.1,1.7-0.2,2.7-0.3v-2.2h-3v7h-2.2v-7H141v-2h0.5v-0.8h2.2v0.8h3v-1.2h-4.2v-7.7h10.8v7.7h-4.4v1.2h5.2v7H154z
					 M144.6,223.5h2v-1.3h-2V223.5z M146.7,226.4v-1.3h-2v1.3H146.7z M150.9,222.3h-2.1v1.3h2.1V222.3z M150.9,225.2h-2.1v1.3h2.1
					V225.2z M150.6,231.8c0.4,0.9,0.9,2.1,1.2,3v-3.4h-3v1.9l1-0.1c-0.1-0.4-0.3-0.7-0.4-1L150.6,231.8z"/>
			</g>
			<g>
				<path class="st2" d="M174.2,230.1c-0.6,0.3-1.3,0.7-1.9,1c0.6,1.8,1.6,3.4,2.9,4.3c-0.5,0.4-1.2,1.2-1.5,1.8
					c-1.5-1.1-2.5-3.1-3.1-5.3l-0.5,0.2c0.7,2.2,0.3,4.4-0.5,5.2c-0.6,0.7-1.2,0.9-2,0.9c-0.4,0-0.8,0-1.3,0c0-0.6-0.2-1.4-0.6-2
					c0.5,0.1,1,0.1,1.3,0.1c0.4,0,0.7-0.1,0.9-0.4c0.3-0.3,0.4-1,0.4-1.8c-1.7,1.4-3.8,2.6-5.8,3.3c-0.3-0.5-0.9-1.3-1.3-1.7
					c2.5-0.7,5.3-2.1,6.7-3.6c-0.1-0.2-0.2-0.4-0.3-0.6c-1.5,1.2-3.5,2.2-5.1,2.8c-0.3-0.5-0.8-1.1-1.2-1.5c1.9-0.5,4.2-1.6,5.5-2.6
					c-0.2-0.2-0.4-0.4-0.5-0.6c-1.2,0.8-2.6,1.6-3.8,2c-0.3-0.4-0.8-1.1-1.2-1.5c1.3-0.4,2.7-1,3.9-1.6h-2.4v-2.8
					c-0.2,0.2-0.4,0.4-0.6,0.5c-0.3-0.5-0.9-1.2-1.4-1.6l0,0v13.6h-2.3v-10c-0.4,0.5-0.8,1-1.1,1.4c-0.2-0.6-0.9-1.9-1.3-2.5
					c1.7-1.8,3.4-4.7,4.3-7.5l2.2,0.7c-0.5,1.4-1.1,2.8-1.8,4.1c2-1.4,3.4-3.3,4.2-4.9l2.2,0.4c-0.2,0.3-0.4,0.7-0.6,1h3.1l0.4-0.1
					l1.3,1c-0.4,0.6-0.9,1.3-1.4,1.9h3.7v4.6h-5.9h-0.1c0.7,0.6,1.2,1.3,1.7,2c1.1-0.6,2.4-1.3,3.2-1.9L174.2,230.1z M165.4,222.8
					c-0.3,0.4-0.6,0.7-0.9,1.1h3c0.3-0.3,0.6-0.7,0.8-1.1H165.4z M164.8,226.8h2.2v-1.2h-2.2V226.8z M171.5,225.5h-2.4v1.2h2.4
					V225.5z"/>
			</g>
			<g>
				<path class="st2" d="M185.4,228c-0.1,0.1-0.3,0.3-0.4,0.4c-0.2-0.3-0.6-0.6-1-0.9v5.1h-2v-4.7c-0.3,0.3-0.6,0.6-0.9,0.9
					c-0.2-0.2-0.5-0.5-0.8-0.8c-0.1,3.2-0.4,7.6-1.9,10.5c-0.4-0.4-1.3-1.1-1.8-1.4c1.5-2.9,1.6-7.1,1.6-10.1v-6h7.6
					c-0.2-0.4-0.4-0.8-0.6-1.1l2.1-0.6c0.4,0.5,0.7,1.1,1,1.7h6.9v1.9H191c0.4,0.5,0.7,1,0.9,1.4l-0.5,0.2h3.3v1.4h-3v0.7h2.5v1.2
					h-2.5v0.8h2.5v1.1h-2.5v0.8h3.3v1.4h-7.3c1.1,0.5,2.3,1.2,3,1.9l-1.5,1.4c-0.6-0.6-2-1.5-3.1-2.1l0.6-0.6h-1.4L185.4,228
					L185.4,228z M179.8,236.8c1-0.8,1.7-2.2,2-3.4l1.9,0.7c-0.4,1.4-1,2.9-2.1,3.9L179.8,236.8z M180.4,226.6c1.1-1,2.1-2.3,2.8-3.6
					h-2.8V226.6z M185.2,223.4c-0.3,0.6-0.7,1.3-1.1,1.9v1.2c1-1,1.8-2.3,2.4-3.6h-2.6L185.2,223.4z M189.4,236.3
					c0.5,0,0.6-0.2,0.7-1.5c0.4,0.3,1.3,0.6,1.9,0.8c-0.2,2-0.8,2.6-2.4,2.6h-2.5c-2.2,0-2.7-0.6-2.7-2.4v-2.2h2.2v2.1
					c0,0.5,0.1,0.6,0.8,0.6L189.4,236.3L189.4,236.3z M190,224.6c-0.2-0.4-0.5-0.8-0.7-1.2l1.2-0.4h-3.2l1.2,0.3
					c-0.2,0.4-0.4,0.8-0.6,1.3L190,224.6L190,224.6z M189.8,225.9h-2.4v0.7h2.4V225.9z M189.8,227.8h-2.4v0.8h2.4V227.8z
					 M189.8,229.7h-2.4v0.8h2.4V229.7z M192.9,233.2c1,1.2,2.2,2.7,2.6,3.8l-1.9,0.9c-0.4-1.1-1.5-2.7-2.5-3.9L192.9,233.2z"/>
			</g>
			<g>
				<path class="st2" d="M203.9,230.8c-0.7,0.2-1.3,0.4-2,0.6v4.4c0,1.1-0.2,1.7-0.8,2.1s-1.5,0.5-2.8,0.4c-0.1-0.6-0.3-1.6-0.6-2.2
					c0.7,0,1.4,0,1.7,0c0.2,0,0.3-0.1,0.3-0.3V232l-2,0.6l-0.4-2.3c0.7-0.1,1.5-0.3,2.4-0.6v-4.1h-2.1v-2.2h2.1v-3.8h2.2v3.8h1.8
					v2.2h-1.8v3.5l1.7-0.4L203.9,230.8z M214.8,231c-0.5,1.8-1.3,3.2-2.3,4.3c1.1,0.5,2.4,0.9,3.8,1.1c-0.5,0.5-1.1,1.3-1.4,1.9
					c-1.6-0.3-3-0.9-4.2-1.5c-1.1,0.7-2.4,1.2-3.8,1.6c-0.2-0.5-0.9-1.4-1.3-1.8c1.2-0.2,2.3-0.6,3.3-1.1c-0.6-0.5-1.1-1-1.5-1.6
					c-0.8,1.7-1.9,3.2-3.7,4.4c-0.3-0.6-1-1.3-1.5-1.7c2.6-1.6,3.7-4.2,4.1-6.7h-2.4V228h2.7c0-0.3,0-0.6,0.1-0.9h-2.4v-1.9h1.2
					c-0.2-0.6-0.5-1.5-0.7-2.2l1.8-0.5c0.3,0.7,0.7,1.7,0.9,2.3l-1.1,0.4h2.3c-0.1-0.7-0.2-1.7-0.4-2.5l1.9-0.3
					c0.2,0.8,0.5,1.8,0.5,2.4l-1.9,0.4h2.5c0.6-0.9,1.2-2.2,1.6-3.2c-2.7,0.3-5.7,0.5-8.4,0.6c0-0.5-0.3-1.3-0.5-1.8
					c3.5-0.1,7.6-0.4,10.1-1l1.3,1.8c-0.8,0.1-1.6,0.3-2.5,0.4l2.2,0.6c-0.5,0.9-1.1,1.8-1.6,2.6h1.9v1.9H209c0,0.3,0,0.6-0.1,0.9
					h7.1v1.9h-7.3c-0.1,0.3-0.1,0.5-0.2,0.8h4.7l0.4-0.1L214.8,231z M208.7,232.3c0.5,0.8,1.2,1.4,2,2c0.6-0.6,1.1-1.2,1.5-2H208.7z
					"/>
			</g>
			<g>
				<path class="st2" d="M229.2,220.5c-0.1,0.2-0.3,0.4-0.4,0.6c2.6,2.8,5.4,4.1,8.2,5.1c-0.6,0.5-1.2,1.3-1.5,2.1
					c-2.8-1.2-5.4-2.7-8.1-5.6c-2.2,2.4-5.1,4.2-8,5.6c-0.3-0.6-1-1.5-1.6-2c3.6-1.4,7.2-3.8,9.2-6.8L229.2,220.5z M228.8,235.6h7.2
					v2.1h-17v-2.1h2.2v-7h2.4v7h2.8v-10.3h2.5v4.1h5.3v2.1h-5.3L228.8,235.6L228.8,235.6z"/>
			</g>
			<g>
				<path class="st2" d="M249,222.6h1.1v1.4H249v2h-3.7v0.6h3.9v1.3h-3.9v0.6h4.6v1.5h-11.1v-1.5h4.4V228h-3.5v-1.3h3.5v-0.6h-3.5
					v-1.3h3.5v-0.7h-4.5v-1.4h4.5V222h-3.4v-1.3h3.4v-1.1h2.1v1.1h3.7V222.6z M238.7,236c2.8-0.1,7.2-0.2,11.3-0.4l-0.1,1.8
					c-4,0.2-8.3,0.4-11.1,0.5L238.7,236z M249.1,230.6v4.6h-9.4v-4.6H249.1z M241.6,232.4h1.8v-0.7h-1.8V232.4z M241.6,234.1h1.8
					v-0.6h-1.8V234.1z M245.4,222.6h1.7V222h-1.7V222.6z M247,224.1h-1.7v0.7h1.7V224.1z M247.2,231.7h-1.8v0.7h1.8V231.7z
					 M247.2,233.5h-1.8v0.6h1.8V233.5z M252.8,233.3h-2.2V222h2.2V233.3z M256.7,220v15.5c0,1.3-0.3,1.9-1,2.3
					c-0.7,0.4-1.8,0.5-3.4,0.5c-0.1-0.6-0.4-1.7-0.7-2.3c1.1,0,2,0,2.4,0c0.3,0,0.4-0.1,0.4-0.4V220H256.7z"/>
			</g>
			<g>
				<path class="st2" d="M265.7,232.1c0-0.3-0.1-0.6-0.2-1c-4.3,0.6-5,0.8-5.5,1c-0.1-0.4-0.5-1.5-0.8-2.1c0.5-0.1,1-0.5,1.6-1.3
					c0.3-0.3,0.8-0.8,1.3-1.6c-1.6,0.2-2.1,0.3-2.4,0.4c-0.1-0.4-0.5-1.4-0.7-2c0.4-0.1,0.8-0.5,1.2-1.1c0.4-0.6,1.8-2.8,2.6-4.9
					l2.1,0.9c-0.8,1.6-1.8,3.4-2.9,4.8l1.5-0.1c0.5-0.8,1-1.7,1.5-2.6l2,1.3c-1.2,2-2.7,4.1-4.3,5.8l2.3-0.3c-0.1-0.5-0.3-1-0.5-1.5
					l1.7-0.6c0.5,1.3,1.1,3.1,1.3,4.2L265.7,232.1z M262,233.1c-0.1,1.8-0.5,3.7-0.9,4.9c-0.4-0.2-1.4-0.5-1.9-0.7
					c0.4-1.2,0.7-3,0.8-4.6L262,233.1z M264.3,232.7c0.3,1.4,0.5,3.1,0.6,4.3l-1.9,0.4c0-1.2-0.2-3-0.5-4.4L264.3,232.7z
					 M266.6,232.1c0.4,1,0.8,2.3,1,3.2l-1.8,0.6c-0.1-0.9-0.5-2.2-0.8-3.2L266.6,232.1z M277.9,235.8v2.1h-11.4v-2.1h1.5v-15.2h8.6
					v15.2H277.9z M270.2,222.8v2.9h4.2v-2.9H270.2z M274.4,227.8h-4.2v2.9h4.2V227.8z M270.2,235.8h4.2v-3h-4.2V235.8z"/>
			</g>
		</g>
	</g>
	<g>
		<path class="st2" d="M336.7,213.1c-1.9-1.4-5.9-3.6-8.7-5.1l3.4-4.8c2.8,1.2,6.8,3.1,8.8,4.5L336.7,213.1z M342.6,220.7
			c-2.2,5.7-4.9,11.9-7.5,17.2l-5.8-4c2.3-4.2,5.7-10.9,8.1-17.2L342.6,220.7z M368.6,228.6c3.6,1.9,8,4.5,10.4,6.3l-5.3,3.9
			c-2.5-2.1-7.7-5.4-11.5-7.5l3.8-2.7h-13.6l6,2.4c-3.6,3-9.2,6-13.7,7.8c-1.2-1.3-3.5-3.7-4.9-4.8c4.5-1.2,9.4-3.2,12.4-5.4h-7.3
			v-20h12v-2.7h-9.7v-3.7h-4.2V194l-3.4,4.6c-1.8-1.5-5.8-3.8-8.5-5.3l3.6-4.7c2.5,1.1,6.1,3,8.2,4.5v-0.9h13.3
			c-0.4-1.3-0.9-2.6-1.4-3.7l6.7-1c0.8,1.4,1.5,3.2,2,4.8h14.2v10.1h-4.6v3.7h-10.1v2.7h12.6v20H368.6z M349.1,197.4v3.4h22.5v-3.4
			H349.1z M350.7,216.4h6.3v-3h-6.3V216.4z M350.7,223.7h6.3v-2.9h-6.3V223.7z M363.2,213.4v3h6.5v-3H363.2z M369.7,220.9h-6.5v2.9
			h6.5V220.9z"/>
		<path class="st2" d="M402.7,224.8h-9.9v4.9h-5.9v-37.1h15.8V224.8z M392.8,198.6v20.2h3.9v-20.2H392.8z M434.1,213.8v25h-6.8v-1.7
			h-16.1v2h-6.5v-25.3H434.1z M432.3,210.9h-26v-21.2h26V210.9z M411.3,219.3v3.4h16.1v-3.4H411.3z M427.4,231.7V228h-16.1v3.6
			H427.4z M425.7,194.6h-13v3.3h13V194.6z M425.7,202.6h-13v3.4h13V202.6z"/>
		<path class="st2" d="M471.9,189.4c-0.3,0.3-0.5,0.7-0.8,1c5.1,4.4,14.1,8.2,22.8,9.9c-1.4,1.2-3.2,3.5-4.1,5
			c-1.1-0.3-2.3-0.7-3.4-1v14.2h-38.2v-13.9c-1.2,0.4-2.3,0.8-3.4,1c-0.7-1.2-2.4-3.8-3.5-5.1c10.1-2.4,19.9-6.9,24.9-13.3
			L471.9,189.4z M484.4,203.6c-2.6-0.9-5.1-2.1-7.5-3.4v1.4h-19.3v-1.1c-2.1,1.1-4.3,2.1-6.7,3H484.4z M451.3,220.3h32.3v18.6h-6.7
			v-1.3h-19.2v1.5h-6.4V220.3z M457.5,214.6c-0.3-1.7-1-4-1.9-5.7l4.2-1.2h-6.2v6.9H457.5z M457.7,224.6v2.2h19.2v-2.2H457.7z
			 M476.9,233.3v-2.2h-19.2v2.2H476.9z M464.4,207.6h-4.3c1,1.9,1.9,4.2,2.2,5.8l-3.5,1.1h5.6V207.6z M472.3,197.4
			c-1.6-1.2-3.2-2.4-4.6-3.6c-1.4,1.2-3,2.4-4.7,3.6H472.3z M469.7,207.6v6.9h5.1l-3.3-0.9c0.8-1.6,1.6-4.2,2.1-6H469.7z
			 M480.6,207.6h-5.7l4.3,1c-1.1,2.2-2.1,4.3-3,5.9h4.5V207.6z"/>
		<path class="st2" d="M547.1,207.2c-2.1,8.5-5.8,15.1-10.8,20.2c3.8,2.5,8.3,4.4,13.5,5.6c-1.5,1.5-3.5,4.3-4.6,6.2
			c-5.6-1.6-10.3-4-14.4-7.1c-4.7,3.5-10.2,5.9-16.3,7.7c-0.8-1.9-2.4-4.6-3.8-6.1c5.6-1.3,10.7-3.5,15-6.5
			c-3.7-4.3-6.6-9.5-8.9-15.6H516c-1.3,9-4.6,19-13.4,26.6c-0.9-1.7-3.3-4.4-4.7-5.7c10.9-9.3,12-23.2,12-32.1v-4.2h-8.7V190h34.8
			c-0.9,5.1-2,10.9-3.1,15.5h8.2l1.2-0.3L547.1,207.2z M516.8,200.6c0,1.5-0.1,3.1-0.1,4.8h8.9c0.8-2.8,1.5-5.9,2.3-9.1h-11V200.6z
			 M523.3,211.7c1.8,4.3,4.3,8.1,7.6,11.3c3.1-3.1,5.6-6.9,7.3-11.3H523.3z"/>
		<path class="st2" d="M565.4,214.3c-2.3-1.6-7-4.2-10.2-5.9l3.5-4.8c3,1.5,7.9,3.8,10.3,5.3L565.4,214.3z M555.9,234.1
			c2.9-4.1,7.1-10.9,10.4-17.3l4.8,4.4c-2.9,5.8-6.4,12-9.7,17.4L555.9,234.1z M567.7,199.3c-2.1-1.7-6.8-4.2-10-6l3.7-4.7
			c3.1,1.5,7.9,4,10.2,5.5L567.7,199.3z M592.1,210v6.9h11.2v21.9h-6.2v-2h-16.6v2.3h-5.9v-22.2h11.2V210h-14.6v-6.3h14.6v-6.4
			c-3.6,0.5-7.3,0.9-10.7,1.3c-0.2-1.6-1.1-4.1-1.8-5.6c9.3-0.9,19.6-2.8,25.7-5.2l5.1,5.2c-3.6,1.4-7.6,2.4-12,3.2v7.5h14v6.3
			H592.1z M597.1,222.9h-16.6v8.1h16.6V222.9z"/>
		<path class="st2" d="M661.7,200.1c0,0-0.1,2.1-0.1,2.9c-0.5,22.5-0.9,30.5-2.7,33c-1.3,1.8-2.5,2.4-4.3,2.7
			c-1.6,0.3-4.2,0.3-6.8,0.2c-0.1-1.8-0.8-4.5-1.9-6.3c2.4,0.2,4.5,0.3,5.6,0.3c0.8,0,1.4-0.2,1.9-0.9c1.2-1.5,1.7-8.2,2-26h-4.9
			c-0.7,14.7-3.2,26.1-12.5,33.4c-0.8-1.3-2.4-3.1-3.8-4.3c-7.9,0.8-15.8,1.6-21.8,2.1l-0.8-5.5c3.1-0.2,6.9-0.5,11.2-0.8v-3.3H613
			v-4.6h9.7V221h-9.5v-17h9.5v-2.1h-10.8v-4.7h10.8v-2.2c-3.2,0.2-6.3,0.4-9.3,0.4c-0.2-1.3-0.8-3.4-1.4-4.6
			c8.1-0.4,17.7-1.4,23.7-2.7l2.9,4.9c-2.9,0.6-6.3,1.1-9.9,1.5v2.7h10.6v3h5.2c0.1-3.6,0.1-7.4,0.1-11.5h6.3c0,4,0,7.9-0.1,11.5
			H661.7z M618.4,210.5h4.3v-2.4h-4.3V210.5z M622.7,216.9v-2.5h-4.3v2.5H622.7z M628.6,230.6c3.1-0.2,6.4-0.5,9.6-0.8
			c4.3-5.9,5.6-13.8,6-23.6h-5v-4.3h-10.6v2.1h9.7v17h-9.7v2.1h10v4.6h-10V230.6z M632.9,210.5v-2.4h-4.3v2.4H632.9z M628.6,214.4
			v2.5h4.3v-2.5H628.6z"/>
		<path class="st2" d="M684.3,217c-0.3,1.9-0.8,3.9-1.5,5.9c2.5,1.8,5.4,4.2,7,5.9l-3.4,4.6c-1.3-1.5-3.6-3.6-5.8-5.4
			c-1.9,3.2-4.8,6.3-8.9,8.6c-0.8-1.5-2.6-3.9-3.9-5.1c7.4-3.5,9.3-10,10.3-14.5H684.3z M712.5,215.7c-0.3,2-0.8,4.2-1.4,6.3
			c1.8,3.1,5.1,7.1,8.6,9.3c-1.3,1-3.4,3.2-4.3,4.7c-2.5-1.9-4.9-5-6.8-7.9c-1.8,3.2-4.4,6.2-8.2,8.6c-0.7-1.4-2-3.2-3.3-4.5v7h-6.5
			v-24.6c-5.8,0.4-11.4,0.6-16.4,0.7c-0.9-1.6-2.6-4.7-3.8-6c14.3,0.2,32.2-0.8,42.4-2.5l4.8,4.8c-5.7,1.1-13,1.9-20.5,2.5v16.8
			c6.5-4,8.2-10.6,9-15.3H712.5z M716,205.3h-44.4v-15.8H716V205.3z M684.3,195.3h-6.5v4.3h6.5V195.3z M696.8,195.3h-6.5v4.3h6.5
			V195.3z M709.5,195.3h-6.7v4.3h6.7V195.3z"/>
		<path class="st2" d="M775.8,190.3v4h-9.1c1,1.2,2.1,2.8,2.6,3.8l-5.6,1.6c-0.5-1.2-1.7-3-2.7-4.2l4.3-1.2h-7.7
			c-1.3,1.4-2.7,2.8-4,3.7v1.9h19.6v3.1h-19.6v1.5h15.7v2.7h-37.5v-2.7h15.5v-1.5H728v-3.1h19.4v-2.3h4.4c-1.3-0.8-3.1-1.8-4.3-2.3
			c0.5-0.3,1-0.7,1.5-1h-7c0.9,1.3,2,2.8,2.5,3.9l-5.6,1.6c-0.4-1.2-1.4-3-2.4-4.2l4.6-1.3h-6.1c-1.7,2-3.4,3.7-5.1,5.1
			c-1.3-1-3.8-2.7-5.3-3.5c3.2-2.1,6.2-5.3,7.8-8.5l6.1,1.7c-0.2,0.4-0.4,0.8-0.7,1.3h12v3.4c2.4-1.8,4.3-4.1,5.6-6.4l6.2,1.6
			c-0.3,0.5-0.5,1-0.9,1.5H775.8z M725.5,221.8h50v3.3h-6.3v2.2h5.4v3.5h-5.4v3.2c0,2.6-0.5,3.6-2.4,4.3c-1.8,0.8-4.1,0.8-7.1,0.8
			c-0.4-1.2-1.1-2.5-1.8-3.7l-3.7,2.3c-0.8-1.4-2.6-3.4-4.3-4.8l3.4-2h-4.9v-3.5H763v-2.2h-37.5V221.8z M771,208.7l4.6,0.9
			c-0.6,2.5-1.4,5.3-2.1,7.3l-5.5-1.3c0.2-1,0.5-2.3,0.7-3.7H726v-3.1H770L771,208.7z M729,226.5h18.1V237h-5.5v-1.1h-7.4v1.5H729
			V226.5z M747.1,217.6v-1.5h-12.9v-2.6h32v2.6h-13v1.5h16v2.7h-38.3v-2.7H747.1z M734.2,229.9v2.6h7.4v-2.6H734.2z M763,230.8h-8.2
			c1.4,1.2,2.8,2.6,3.7,3.7c1.6,0.1,3.1,0.1,3.6,0c0.7,0,0.9-0.2,0.9-0.8V230.8z"/>
		<path class="st2" d="M812.1,190.2c-0.4,0.5-0.8,1-1.2,1.5c7.2,7.6,14.8,11.3,22.7,14.1c-1.6,1.4-3.4,3.7-4.1,5.7
			c-7.6-3.3-14.8-7.3-22.3-15.3c-6.1,6.5-13.9,11.7-21.9,15.3c-0.9-1.7-2.8-4.1-4.5-5.6c9.8-3.8,19.9-10.4,25.4-18.6L812.1,190.2z
			 M811,231.8h19.7v5.9h-46.7v-5.9h5.9v-19.2h6.5v19.2h7.7v-28.2h6.9v11.3h14.7v5.9H811V231.8z"/>
		<path class="st2" d="M866.7,196h2.9v4h-2.9v5.5h-10.1v1.6h10.7v3.6h-10.7v1.6h12.8v4.1h-30.6v-4.1h12v-1.6H841v-3.6h9.7v-1.6h-9.6
			V202h9.6v-2h-12.4v-4h12.4v-1.8h-9.4v-3.5h9.4v-3h5.8v3h10.1V196z M838.3,232.8c7.8-0.2,19.9-0.6,31.1-1.1l-0.2,4.9
			c-11,0.5-22.7,1-30.5,1.3L838.3,232.8z M866.9,218.1v12.6h-25.7v-12.6H866.9z M846.3,222.9h5.1v-1.8h-5.1V222.9z M846.3,227.6h5.1
			v-1.8h-5.1V227.6z M856.5,196h4.6v-1.8h-4.6V196z M861.2,200h-4.6v2h4.6V200z M861.6,221.1h-4.8v1.8h4.8V221.1z M861.6,225.8h-4.8
			v1.8h4.8V225.8z M877.1,225.4h-5.9v-31h5.9V225.4z M887.7,188.9v42.7c0,3.5-0.7,5.2-2.7,6.2c-2,1-5,1.3-9.3,1.3
			c-0.2-1.8-1.1-4.6-2-6.4c2.9,0.1,5.6,0.1,6.5,0.1c0.9,0,1.2-0.3,1.2-1.2v-42.7H887.7z"/>
	</g>
</g>
<g>
	<g>
		<path class="st2" d="M616.2,88c0.5,0,0.9,0.4,0.9,0.9v5.9c0,0.5-0.4,0.9-0.9,0.9c-0.5,0-0.9-0.4-0.9-0.9v-2.2h-2.9v2.2
			c0,0.5-0.4,0.9-0.9,0.9c-0.5,0-0.9-0.4-0.9-0.9V89c0-0.5,0.4-0.9,0.9-0.9c0.5,0,0.9,0.4,0.9,0.9v2.2h2.9V89
			C615.3,88.5,615.7,88,616.2,88z"/>
		<path class="st2" d="M626.8,91.9c0,2.3-1.9,3.9-3.8,3.9c-1.9,0-3.8-1.6-3.8-3.9s1.9-3.9,3.8-3.9C624.9,88,626.8,89.6,626.8,91.9z
			 M621,91.9c0,1.3,0.9,2.2,1.9,2.2c1.1,0,1.9-0.9,1.9-2.2c0-1.3-0.8-2.2-1.9-2.2C621.9,89.7,621,90.6,621,91.9z"/>
		<path class="st2" d="M635.4,89v6c0,0.6-0.4,0.9-0.9,0.9c-0.4,0-0.7-0.2-0.9-0.5l-2.9-4v3.6c0,0.5-0.4,0.9-0.9,0.9
			c-0.5,0-0.9-0.4-0.9-0.9v-6c0-0.6,0.4-0.9,0.9-0.9c0.4,0,0.7,0.2,0.9,0.5l2.9,4V89c0-0.5,0.4-0.9,0.9-0.9
			C635,88,635.4,88.5,635.4,89z"/>
		<path class="st2" d="M644.8,92.7c-0.1,2.1-1.8,3.2-3.4,3.2c-2,0-3.9-1.6-3.9-3.9s2-3.9,3.9-3.9c0.7,0,1.3,0.2,1.7,0.4
			c0.5,0.3,0.8,0.6,0.8,1.1c0,0.5-0.4,0.8-0.8,0.8c-0.3,0-0.6-0.2-0.7-0.2c-0.1,0-0.4-0.3-1-0.3c-1.1,0-2,1-2,2.2
			c0,1.2,0.9,2.2,2,2.2c0.6,0,1.5-0.4,1.6-1.1h-0.9c-0.4,0-0.8-0.3-0.8-0.7c0-0.4,0.4-0.7,0.8-0.7h1.7
			C644.5,91.6,644.8,92,644.8,92.7z"/>
		<path class="st2" d="M657.5,95.1c0,0.4-0.4,0.8-0.8,0.8c-0.2,0-0.4-0.1-0.6-0.3l-2.4-2.8l-1.1,1.1V95c0,0.5-0.4,0.9-0.9,0.9
			c-0.5,0-0.9-0.4-0.9-0.9v-6.1c0-0.5,0.4-0.9,0.9-0.9c0.5,0,0.9,0.4,0.9,0.9v2.6l3.1-3.2c0.1-0.2,0.4-0.3,0.6-0.3
			c0.4,0,0.8,0.4,0.8,0.8c0,0.2-0.1,0.4-0.2,0.5l-2.2,2.3l2.5,3C657.4,94.7,657.5,94.9,657.5,95.1z"/>
		<path class="st2" d="M666.3,91.9c0,2.3-1.9,3.9-3.8,3.9c-1.9,0-3.8-1.6-3.8-3.9s1.9-3.9,3.8-3.9C664.3,88,666.3,89.6,666.3,91.9z
			 M660.5,91.9c0,1.3,0.9,2.2,1.9,2.2c1.1,0,1.9-0.9,1.9-2.2c0-1.3-0.8-2.2-1.9-2.2C661.3,89.7,660.5,90.6,660.5,91.9z"/>
		<path class="st2" d="M674.8,89v6c0,0.6-0.4,0.9-0.9,0.9c-0.4,0-0.7-0.2-0.9-0.5l-2.9-4v3.6c0,0.5-0.4,0.9-0.9,0.9
			c-0.5,0-0.9-0.4-0.9-0.9v-6c0-0.6,0.4-0.9,0.9-0.9c0.4,0,0.7,0.2,0.9,0.5l2.9,4V89c0-0.5,0.4-0.9,0.9-0.9
			C674.4,88,674.8,88.5,674.8,89z"/>
		<path class="st2" d="M684.2,92.7c-0.1,2.1-1.8,3.2-3.4,3.2c-2,0-3.9-1.6-3.9-3.9s2-3.9,3.9-3.9c0.7,0,1.3,0.2,1.7,0.4
			c0.5,0.3,0.8,0.6,0.8,1.1c0,0.5-0.4,0.8-0.8,0.8c-0.3,0-0.6-0.2-0.7-0.2c-0.1,0-0.4-0.3-1-0.3c-1.1,0-2,1-2,2.2
			c0,1.2,0.9,2.2,2,2.2c0.6,0,1.5-0.4,1.6-1.1h-0.9c-0.4,0-0.8-0.3-0.8-0.7c0-0.4,0.4-0.7,0.8-0.7h1.7
			C683.9,91.6,684.2,92,684.2,92.7z"/>
		<path class="st2" d="M617.5,101.9c0,0.2-0.1,0.4-0.1,0.5l-2.6,5.8c-0.2,0.5-0.5,0.7-0.9,0.7c-0.4,0-0.7-0.2-0.9-0.7l-2.6-5.8
			c-0.1-0.2-0.1-0.3-0.1-0.5c0-0.4,0.4-0.8,0.9-0.8c0.4,0,0.7,0.2,0.9,0.6l1.8,4.4l1.8-4.4c0.1-0.4,0.5-0.6,0.9-0.6
			C617.1,101.1,617.5,101.4,617.5,101.9z"/>
		<path class="st2" d="M621.2,102v6c0,0.5-0.4,0.9-0.9,0.9c-0.5,0-0.9-0.4-0.9-0.9v-6c0-0.5,0.4-0.9,0.9-0.9
			C620.8,101.1,621.2,101.5,621.2,102z"/>
		<path class="st2" d="M629.3,108c0,0.5-0.4,0.8-0.8,0.8c-0.3,0-0.5-0.1-0.7-0.3l-1.8-2.3h-0.8v1.8c0,0.5-0.4,0.9-0.9,0.9
			c-0.5,0-0.9-0.4-0.9-0.9v-5.9c0-0.6,0.4-1,1-1h2c1.7,0,2.8,1.2,2.8,2.6c0,1-0.5,1.8-1.4,2.2l1.3,1.6
			C629.2,107.6,629.3,107.8,629.3,108z M625.2,104.6h1.1c0.6,0,1.2-0.2,1.2-1c0-0.8-0.6-1-1.2-1h-1.1V104.6z"/>
		<path class="st2" d="M636.8,101.9c0,0.4-0.4,0.8-0.8,0.8h-1.4v5.3c0,0.5-0.4,0.9-0.9,0.9c-0.5,0-0.9-0.4-0.9-0.9v-5.3h-1.4
			c-0.4,0-0.8-0.4-0.8-0.8c0-0.5,0.4-0.8,0.8-0.8h4.5C636.4,101.1,636.8,101.4,636.8,101.9z"/>
		<path class="st2" d="M644.9,101.9v4.1c0,1.8-1.4,2.8-3.1,2.8c-1.7,0-3.1-1-3.1-2.8v-4.1c0-0.5,0.4-0.9,0.9-0.9
			c0.5,0,0.9,0.4,0.9,0.9v4.1c0,1,0.7,1.3,1.3,1.3c0.7,0,1.3-0.3,1.3-1.3v-4.1c0-0.5,0.4-0.9,0.9-0.9
			C644.6,101.1,644.9,101.4,644.9,101.9z"/>
		<path class="st2" d="M653.6,108c0,0.4-0.4,0.8-0.9,0.8c-0.4,0-0.7-0.2-0.9-0.6l-0.4-1h-2.9l-0.4,1c-0.2,0.4-0.5,0.6-0.9,0.6
			c-0.5,0-0.9-0.4-0.9-0.8c0-0.2,0.1-0.4,0.1-0.5l2.6-5.8c0.2-0.5,0.5-0.7,0.9-0.7c0.4,0,0.7,0.2,0.9,0.7l2.6,5.8
			C653.6,107.6,653.6,107.8,653.6,108z M650.8,105.8l-0.8-2l-0.8,2H650.8z"/>
		<path class="st2" d="M659.8,107.2c0.4,0,0.8,0.4,0.8,0.8c0,0.4-0.4,0.8-0.8,0.8h-3.3c-0.6,0-1-0.4-1-1V102c0-0.5,0.4-0.9,0.9-0.9
			c0.5,0,0.9,0.4,0.9,0.9v5.2H659.8z"/>
		<path class="st2" d="M668.4,102v6c0,0.5-0.4,0.9-0.9,0.9c-0.5,0-0.9-0.4-0.9-0.9v-6c0-0.5,0.4-0.9,0.9-0.9
			C668,101.1,668.4,101.5,668.4,102z"/>
		<path class="st2" d="M677.2,104.9c0,2.6-1.9,3.9-4,3.9h-1.6c-0.6,0-1-0.4-1-1v-5.7c0-0.6,0.4-1,1-1h1.6
			C675.3,101.1,677.2,102.4,677.2,104.9z M675.3,104.9c0-1.6-0.8-2.3-2.2-2.3h-0.8v4.7h0.8C674.6,107.3,675.3,106.6,675.3,104.9z"/>
		<path class="st2" d="M686.7,104.9c0,2.3-1.9,3.9-3.8,3.9c-1.9,0-3.8-1.6-3.8-3.9c0-2.3,1.9-3.9,3.8-3.9
			C684.8,101,686.7,102.6,686.7,104.9z M680.9,104.9c0,1.3,0.9,2.2,1.9,2.2c1.1,0,1.9-0.9,1.9-2.2c0-1.3-0.8-2.2-1.9-2.2
			C681.8,102.7,680.9,103.6,680.9,104.9z"/>
		<path class="st2" d="M693,107.2c0.4,0,0.8,0.4,0.8,0.8c0,0.4-0.4,0.8-0.8,0.8h-3.3c-0.6,0-1-0.4-1-1V102c0-0.5,0.4-0.9,0.9-0.9
			c0.5,0,0.9,0.4,0.9,0.9v5.2H693z"/>
		<path class="st2" d="M704.3,102.7h-2.7v1.8h2.2c0.4,0,0.8,0.3,0.8,0.8c0,0.4-0.4,0.8-0.8,0.8h-2.2v2c0,0.5-0.4,0.9-0.9,0.9
			c-0.5,0-0.9-0.4-0.9-0.9v-5.9c0-0.6,0.4-1,1-1h3.5c0.4,0,0.8,0.4,0.8,0.8C705.1,102.3,704.7,102.7,704.3,102.7z"/>
		<path class="st2" d="M713.3,108c0,0.4-0.4,0.8-0.9,0.8c-0.4,0-0.7-0.2-0.9-0.6l-0.4-1h-2.9l-0.4,1c-0.2,0.4-0.5,0.6-0.9,0.6
			c-0.5,0-0.9-0.4-0.9-0.8c0-0.2,0.1-0.4,0.1-0.5l2.6-5.8c0.2-0.5,0.5-0.7,0.9-0.7c0.4,0,0.7,0.2,0.9,0.7l2.6,5.8
			C713.3,107.6,713.3,107.8,713.3,108z M710.5,105.8l-0.8-2l-0.8,2H710.5z"/>
		<path class="st2" d="M721.7,102v6c0,0.6-0.4,0.9-0.9,0.9c-0.4,0-0.7-0.2-0.9-0.5l-2.9-4v3.6c0,0.5-0.4,0.9-0.9,0.9
			c-0.5,0-0.9-0.4-0.9-0.9v-6c0-0.6,0.4-0.9,0.9-0.9c0.4,0,0.7,0.2,0.9,0.5l2.9,4V102c0-0.5,0.4-0.9,0.9-0.9
			C721.3,101.1,721.7,101.5,721.7,102z"/>
		<path class="st2" d="M730.8,108c0,0.4-0.4,0.8-0.9,0.8c-0.4,0-0.7-0.2-0.9-0.6l-0.4-1h-2.9l-0.4,1c-0.2,0.4-0.5,0.6-0.9,0.6
			c-0.5,0-0.9-0.4-0.9-0.8c0-0.2,0.1-0.4,0.1-0.5l2.6-5.8c0.2-0.5,0.5-0.7,0.9-0.7c0.4,0,0.7,0.2,0.9,0.7l2.6,5.8
			C730.7,107.6,730.8,107.8,730.8,108z M728,105.8l-0.8-2l-0.8,2H728z"/>
		<path class="st2" d="M737.2,101.9c0,0.4-0.4,0.8-0.8,0.8h-1.4v5.3c0,0.5-0.4,0.9-0.9,0.9c-0.5,0-0.9-0.4-0.9-0.9v-5.3h-1.4
			c-0.4,0-0.8-0.4-0.8-0.8c0-0.5,0.4-0.8,0.8-0.8h4.5C736.9,101.1,737.2,101.4,737.2,101.9z"/>
		<path class="st2" d="M740.9,102v6c0,0.5-0.4,0.9-0.9,0.9c-0.5,0-0.9-0.4-0.9-0.9v-6c0-0.5,0.4-0.9,0.9-0.9
			C740.5,101.1,740.9,101.5,740.9,102z"/>
		<path class="st2" d="M749.4,107.4c0,0.5-0.3,0.8-0.8,1.1c-0.4,0.2-1,0.4-1.7,0.4c-2,0-3.9-1.6-3.9-3.9c0-2.3,2-3.9,3.9-3.9
			c0.7,0,1.3,0.2,1.7,0.4c0.5,0.3,0.8,0.6,0.8,1.1c0,0.5-0.4,0.8-0.8,0.8c-0.3,0-0.6-0.2-0.7-0.2c-0.1,0-0.4-0.3-1-0.3
			c-1.1,0-2,1-2,2.2c0,1.2,0.9,2.2,2,2.2c0.6,0,0.9-0.3,1-0.3c0.1-0.1,0.3-0.2,0.7-0.2C749,106.6,749.4,106.9,749.4,107.4z"/>
		<path class="st2" d="M755.7,101.7c0.3,0.3,0.4,0.5,0.4,0.8c0,0.4-0.3,0.7-0.7,0.7c-0.3,0-0.5-0.2-0.7-0.3
			c-0.3-0.2-0.5-0.3-0.8-0.3c-0.6,0-0.8,0.3-0.8,0.6c0,0.2,0.1,0.5,0.7,0.7l0.3,0.1c1.9,0.7,2.5,1.4,2.5,2.4c0,1.6-1.6,2.4-2.9,2.4
			c-0.8,0-1.7-0.3-2.2-0.9c-0.1-0.2-0.4-0.5-0.4-0.9c0-0.4,0.2-0.8,0.7-0.8c0.4,0,0.6,0.3,0.8,0.5c0.4,0.4,0.8,0.4,1.1,0.4
			c0.4,0,1-0.1,1-0.8c0-0.4-0.2-0.7-1.1-1l-0.3-0.1c-1.2-0.4-2-1-2-2.2c0-1.4,1.1-2.2,2.6-2.2C754.7,101,755.3,101.3,755.7,101.7z"
			/>
	</g>
	<g>
		<path class="st2" d="M616,68.2c-1.4,0.1-3,0.1-4.4,0.1c-0.4,0-1.2,0-1.2-0.8c0-0.8,0.8-0.8,1.1-0.8c0.4,0,2.3,0,2.7,0
			c2.9,0,4.8-0.2,6.4-0.4c0.2,0,1.3-0.2,1.6-0.2c0.4,0,0.8,0.3,0.8,0.8c0,0.6-0.5,0.7-0.7,0.8c-0.6,0.2-3,0.4-4.8,0.4v0.7h5.2
			c0.6,0,1.3,0,1.3,0.7s-0.7,0.7-1.3,0.7h-3.3c1,0.9,2.5,1.7,4.1,2.3c0.5,0.2,0.8,0.3,0.8,0.7c0,0.4-0.2,0.8-0.8,0.8
			c-0.3,0-0.5-0.1-1.2-0.3c0.2,0.4,0.2,0.7,0.2,0.8v4.2c0,1.4-1.3,1.4-1.7,1.4h-8c-0.4,0-1.7,0-1.7-1.4v-4.2c0-0.3,0.1-0.5,0.2-0.8
			c-0.4,0.2-0.8,0.4-1.1,0.4c-0.5,0-0.8-0.4-0.8-0.8c0-0.5,0.4-0.7,0.8-0.8c2.2-0.9,3.6-2.2,3.7-2.3h-3c-0.6,0-1.3,0-1.3-0.7
			s0.7-0.7,1.3-0.7h5V68.2z M617.5,71.6c0,0.6,0,1.3-0.8,1.3c-0.8,0-0.8-0.7-0.8-1.3v-1.3c-0.4,0.5-1.5,1.7-3.5,2.9
			c0.1,0,0.2,0,0.3,0h8h0.2c-2.1-1.1-3.1-2.3-3.5-2.9V71.6z M620.9,75.9v-0.8c0-0.3,0-0.4-0.5-0.4h-7c-0.5,0-0.5,0.1-0.5,0.4v0.8
			H620.9z M612.8,77.3v0.9c0,0.3,0,0.4,0.5,0.4h7c0.5,0,0.5-0.1,0.5-0.4v-0.9H612.8z"/>
		<path class="st2" d="M631.4,75c0,0.5-0.7,2.2-1.4,3.4c-0.9,1.6-1.2,1.6-1.5,1.6c-0.3,0-0.8-0.2-0.8-0.7c0-0.2,0.1-0.4,0.3-0.7
			c0.9-1.4,1.1-1.9,1.9-3.7c0.2-0.4,0.4-0.5,0.7-0.5C630.9,74.3,631.4,74.5,631.4,75z M630.3,73c-0.3,0-0.5-0.1-1.3-1
			c-0.1-0.1-0.7-0.7-0.8-0.8c-0.2-0.2-0.3-0.4-0.3-0.6c0-0.4,0.4-0.7,0.7-0.7c0.4,0,1,0.5,1.5,1c0.9,0.9,0.9,1,0.9,1.4
			C631.1,72.7,630.6,73,630.3,73z M630.6,69.3c-0.3,0-0.4-0.1-0.8-0.5c-0.7-0.8-0.9-1.1-1.2-1.3c-0.3-0.3-0.4-0.4-0.4-0.6
			c0-0.4,0.3-0.8,0.8-0.8c0.4,0,1.1,0.7,1.6,1.2c0.7,0.8,0.8,0.9,0.8,1.2C631.4,68.9,631.1,69.3,630.6,69.3z M634.2,70.2v-1.4H633
			c-0.6,0-1.3,0-1.3-0.8s0.7-0.8,1.3-0.8h1.2c0-0.8,0-1.4,0.8-1.4c0.8,0,0.8,0.6,0.8,1.4h2.3c0-0.9,0-1.5,0.8-1.5s0.8,0.6,0.8,1.5
			h1.3c0.6,0,1.3,0,1.3,0.8s-0.7,0.8-1.3,0.8h-1.3v1.4h1.5c0.6,0,1.3,0,1.3,0.8c0,0.8-0.7,0.8-1.3,0.8h-1.5c0.3,0.5,0.8,1.2,1.9,1.7
			c0.8,0.3,1,0.4,1,0.8c0,0.1,0,0.8-0.8,0.8c-0.3,0-0.9-0.1-1.6-0.6v1.3c0,1-0.6,1.3-1.2,1.3h-4.1c-0.2,0-0.4,0-0.4,0.4v0.8
			c0,0.6,0.5,0.6,0.8,0.6h4.5c0.3,0,0.9,0,1-1.1c0-0.4,0.1-1,0.8-1c0.2,0,0.7,0.1,0.7,0.8c0,1-0.2,2.8-2.3,2.8h-5
			c-0.9,0-2.1-0.3-2.1-1.7v-1.7c0-1,0.6-1.4,1.5-1.4h3.8c0.4,0,0.4-0.2,0.4-0.3v-0.5c0-0.3-0.2-0.3-0.4-0.3h-3c-0.7,0-0.8,0-1.1-0.3
			c-0.3,0.2-1.2,0.9-1.8,0.9c-0.5,0-0.7-0.5-0.7-0.7c0-0.4,0.1-0.5,0.9-1c1-0.6,1.6-1.3,1.8-1.6h-1.6c-0.6,0-1.3,0-1.3-0.8
			c0-0.8,0.7-0.8,1.3-0.8H634.2z M638.6,72.9c-0.2-0.2-0.4-0.6-0.6-1.1h-1.8c-0.3,0.4-0.7,0.9-0.9,1.1H638.6z M635.8,68.8v1.4h2.3
			v-1.4H635.8z"/>
		<path class="st2" d="M650.9,71.9c-0.8,0-1.2,0-1.2-0.6c0-0.6,0.5-0.6,1.2-0.6l1.7,0c0-0.2,0-0.4,0.4-0.6H649
			c-0.4,0-0.4,0.3-0.4,0.6v2.5c0,1.9,0,3.3-0.5,5.5c-0.3,1.3-0.5,1.7-1,1.7c-0.1,0-0.7,0-0.7-0.7c0-0.3,0.4-1.7,0.5-2
			c0.2-0.8,0.3-1.6,0.3-4.5v-3c0-1,0.7-1.6,1.3-1.6h4.6V67c0-0.6,0-1.3,0.8-1.3c0.8,0,0.8,0.7,0.8,1h4c0.8,0,1.2,0,1.2,0.7
			c0,0.6-0.5,0.6-1.2,0.6h-4v0.6h5.3c0.5,0,0.9,0.4,0.9,0.9c0,0.7-0.5,1.8-1,2.3c-0.2,0.2-0.4,0.4-0.7,0.4c-0.5,0-0.7-0.4-0.7-0.6
			c0-0.2,0.1-0.4,0.2-0.6c0.4-0.7,0.4-0.7,0.4-0.8c0-0.2-0.1-0.2-0.2-0.2h-5.1c0.3,0.2,0.3,0.4,0.3,0.6l2.6-0.1c0.8,0,1.3,0,1.3,0.6
			c0,0.6-0.4,0.6-1.2,0.6l-2.6,0.1v0.4c0,0.3,0,0.4,0.5,0.4h2.5c0.2,0,0.4-0.1,0.5-0.2c0.2-0.1,0.3-0.3,0.5-0.3
			c0.3,0,0.7,0.3,0.7,0.7c0,0.3-0.3,1.1-1.3,1.1h-3.5c-0.8,0-1.3-0.7-1.3-1.2v-0.8L650.9,71.9z M652.4,78.8v-1h-1.9
			c-0.3,0-0.5,0-0.7-0.1c-0.2-0.2-0.4-0.5-0.4-0.8v-1.2c0-0.7,0-1.3,0.7-1.3c0.7,0,0.7,0.4,0.7,1.3v0.4c0,0.2,0.2,0.4,0.4,0.4h1.2
			v-0.9c0-0.6,0-1.3,0.7-1.3c0.8,0,0.8,0.7,0.8,1.3v3.1h1.1v-3.1c0-0.6,0-1.3,0.7-1.3c0.7,0,0.7,0.7,0.7,1.3v0.9h1.1
			c0.4,0,0.4-0.3,0.4-0.5v-0.4c0-0.6,0-1.3,0.7-1.3c0.7,0,0.7,0.7,0.7,1.3v1.2c0,0.3-0.2,0.9-1,0.9h-2v1h3.1c0.5,0,1.3,0,1.3,0.7
			c0,0.7-0.7,0.7-1.3,0.7H650c-0.5,0-1.3,0-1.3-0.7c0-0.7,0.7-0.7,1.3-0.7H652.4z"/>
		<path class="st2" d="M669.5,76.6c-0.6,0-1.2,0-1.2-0.7c0-0.7,0.6-0.7,1.2-0.7h0.9v-1.4h-0.3c-0.2,0.5-0.3,0.9-0.8,0.9
			c-0.5,0-0.8-0.3-0.7-0.7c-0.2,0.2-0.3,0.2-1,0.5V79c0,0.9,0,1.5-1.8,1.5c-0.2,0-1,0-1-0.7c0-0.3,0.2-0.7,0.7-0.7
			c0.8,0,0.8,0,0.8-0.6v-3.3c-0.2,0.1-0.5,0.2-0.8,0.2c-0.4,0-0.8-0.3-0.8-0.9c0-0.2,0-0.5,0.6-0.7c0.2,0,0.8-0.2,1-0.3v-3
			c-0.8,0-1.5,0-1.5-0.7c0-0.8,0.7-0.8,1.5-0.8v-1.8c0-0.5,0-1.2,0.7-1.2c0.7,0,0.7,0.7,0.7,1.2v1.8c0.6,0,1.3,0,1.3,0.8
			c0,0.7-0.6,0.7-0.9,0.7h-0.3v2.5c0.4-0.2,0.5-0.2,0.6-0.2c0.3,0,0.6,0.2,0.7,0.6c0.1-0.2,0.4-1.3,0.4-1.5c0.1-0.3,0.2-0.4,0.4-0.5
			c-0.4-0.2-0.4-0.7-0.4-1.1v-3.2c0-0.5,0-1.3,0.7-1.3c0.7,0,0.7,0.7,0.7,1.5c0.5-0.1,1.1-0.2,1.7-0.5c0.2-0.1,0.4-0.1,0.6-0.1
			c0.3,0,0.4,0.1,0.4,0.2c0-0.7,0.7-0.7,1.3-0.7h3.5c0.2,0,1,0,1,1.1c0,1.2-1,2.3-2,3.1c0.1,0.2,0.4,0.5,0.4,0.8
			c0,0.3-0.1,0.4-0.2,0.5h1c0.6,0,0.9,0.5,0.9,1c0,0.5-0.4,1.4-0.6,1.9c-0.1,0.3-0.4,0.5-0.7,0.5c-0.4,0-0.7-0.4-0.7-0.7
			c0-0.2,0.3-0.9,0.3-1.1c0-0.2-0.1-0.2-0.3-0.2h-0.6v2.3h1.3c0.6,0,1.3,0,1.3,0.7c0,0.7-0.7,0.7-1.3,0.7h-1.3v2.1
			c0.3,0.1,1.8,0.1,2.1,0.1c0.3,0,0.7,0.1,0.7,0.7c0,0.8-0.7,0.8-1.6,0.8c-2.4,0-3.2-0.7-3.7-1.3c-0.4,1-0.7,1.2-1.1,1.2
			c-0.5,0-0.8-0.4-0.8-0.7c0-0.2,0-0.2,0.2-0.5c-0.4,0-0.8-0.3-1.2-0.8c-0.7,1.2-1.9,2.1-2.5,2.1c-0.5,0-0.7-0.4-0.7-0.7
			c0-0.4,0.2-0.5,0.9-1c0.5-0.4,1.1-1.2,1.3-2H669.5z M672.1,75.2c0.6,0,1.2,0,1.2,0.7c0,0.7-0.5,0.7-1.5,0.7
			c0.1,0.2,0.4,0.6,0.6,0.8c0.1,0.1,0.5,0.3,0.6,0.4c0.3-0.9,0.4-2,0.4-2.5c0-0.4,0-1.1,0.7-1.1c0.7,0,0.7,0.8,0.7,1.1
			c0,0.4-0.1,1.2-0.2,1.8c0.1,0.2,0.3,0.5,0.7,0.9v-5h-0.9c-0.5,0-1.3,0-1.3-0.7c0-0.7,0.7-0.7,1.3-0.7h1.8c0,0-0.1-0.1-0.1-0.1
			c-0.4-0.6-0.6-0.9-1.2-1.6c-0.5-0.7-0.6-0.7-0.6-1c0-0.5,0.4-0.7,0.7-0.7s0.6,0.1,1.2,1c0.5-0.4,1.1-0.8,1.1-1.4
			c0-0.1-0.1-0.1-0.3-0.1h-2.3c-0.7,0-0.8,0-1.1-0.3c0,0.3-0.1,0.5-0.2,0.5c-0.5,0.4-2.5,0.9-2.8,1v1c0,0.4,0.2,0.4,0.4,0.4h0.9
			c0.4,0,0.4-0.2,0.5-0.6c0.1-0.4,0.2-0.6,0.7-0.6c0.2,0,0.7,0.1,0.7,0.8c0,0.4-0.1,0.8-0.3,1.1c-0.3,0.6-0.8,0.6-1.2,0.6h-2.1
			c0.1,0.1,0.2,0.2,0.2,0.5c0,0.2,0,0.3-0.1,0.4h1.5c0.6,0,1.3,0,1.3,0.7c0,0.7-0.6,0.7-1.5,0.7v1.4H672.1z"/>
		<path class="st2" d="M686.2,79.3c0,0.6,0,1.3-0.8,1.3c-0.8,0-0.8-0.7-0.8-1.3v-6.4c-0.3,0.6-0.6,1-1.1,1c-0.4,0-0.8-0.4-0.8-0.7
			c0-0.3,0.1-0.4,0.8-1.7c1.1-1.8,1.5-3.6,1.8-4.9c0.1-0.4,0.2-0.8,0.8-0.8c0.4,0,0.8,0.3,0.8,0.9c0,0.9-0.6,2.5-0.8,3V79.3z
			 M692.9,73.2h3.1c1.5,0,1.5,0.9,1.5,1.4v4.2c0,0.5,0,1.8-2.2,1.8c-2,0-2.3-0.4-2.3-0.9c0-0.3,0.3-0.8,0.7-0.8
			c0.2,0,1.1,0.1,1.3,0.1c0.8,0,0.9-0.2,0.9-0.7v-3.1c0-0.3,0-0.4-0.5-0.4h-2.5v1.9c0.2,0,0.4-0.1,0.8-0.2c-0.2-0.4-0.3-0.7-0.3-0.9
			c0-0.4,0.4-0.6,0.7-0.6c0.5,0,0.7,0.4,1.2,1.4c0.4,0.8,0.5,1.1,0.5,1.3c0,0.4-0.3,0.8-0.8,0.8c-0.5,0-0.7-0.4-0.8-0.6
			c-1.3,0.3-3.3,0.7-4.6,0.7c-0.3,0-0.8,0-0.8-0.8c0-0.6,0.5-0.8,0.7-0.8c0.3,0,1.6-0.1,1.8-0.1v-2.1H689c-0.4,0-0.5,0-0.5,0.5v4
			c0,0.6,0,1.3-0.8,1.3c-0.7,0-0.7-0.7-0.7-1.3v-4.6c0-0.7,0.4-1.4,1.5-1.4h2.8v-0.8h-2.8c-0.2,0-1-0.2-1-1.1v-4.1
			c0-0.9,0.8-1.1,1-1.1h7.5c0.2,0,1,0.2,1,1.1v4.1c0,0.9-0.8,1.1-1,1.1h-3V73.2z M691.3,68.6v-1h-2.1c-0.2,0-0.2,0.1-0.2,0.3v0.7
			H691.3z M689,70v0.8c0,0.2,0,0.3,0.2,0.3h2.1v-1H689z M695.4,68.6v-0.7c0-0.2,0-0.3-0.2-0.3h-2.3v1H695.4z M692.9,70v1h2.3
			c0.2,0,0.2-0.1,0.2-0.3V70H692.9z"/>
		<path class="st2" d="M704.7,79.5c0,0.4,0,1.1-0.8,1.1c-0.7,0-0.8-0.5-0.8-1.1v-6.7c-0.3,0.5-0.6,0.9-1.1,0.9
			c-0.2,0-0.7-0.2-0.7-0.7c0-0.3,0.1-0.5,0.3-0.8c1.4-2.4,2-4.4,2.2-5.4c0.1-0.3,0.3-1,0.8-1c0.7,0,0.8,0.4,0.8,0.8
			c0,0.5-0.5,2-0.8,2.8V79.5z M713.1,72.9c0.1,0.6,0.2,1.2,0.5,1.9c0.2-0.2,0.3-0.2,0.8-0.7c0.4-0.3,0.5-0.4,0.8-0.4
			c0.3,0,0.7,0.2,0.7,0.7c0,0.3-0.1,0.4-0.5,0.8c-0.4,0.4-0.9,0.7-1.2,0.9c0.4,0.6,0.8,1.2,1.7,2c0.1,0.1,0.4,0.3,0.4,0.6
			c0,0.5-0.4,0.8-0.8,0.8c-0.2,0-0.4,0-1.2-0.9c-0.8-0.9-2-2.5-2.6-5.5c-0.5,0.3-0.6,0.4-1,0.6c1,1.4,1.6,3,1.6,4.3
			c0,1.8-0.8,2.5-2.1,2.5c-0.6,0-1.7-0.1-1.7-0.8c0-0.4,0.2-0.7,0.7-0.7c0.1,0,0.8,0.1,0.9,0.1c0.8,0,0.7-1.1,0.7-1.4
			c-1,0.6-3.6,1.9-4.3,1.9c-0.7,0-0.8-0.5-0.8-0.7c0-0.4,0.3-0.6,0.8-0.7c1.3-0.4,2.8-1,4-1.7c-0.1-0.2-0.2-0.4-0.2-0.5
			c-1.1,0.6-3.6,1.6-4.2,1.6c-0.6,0-0.7-0.4-0.7-0.7c0-0.4,0.4-0.6,0.7-0.7c2-0.6,2.4-0.7,3.6-1.3c-0.1-0.2-0.2-0.2-0.4-0.5
			c-1.2,0.5-2.8,0.9-3.3,0.9c-0.7,0-0.7-0.5-0.7-0.6c0-0.5,0.5-0.6,0.9-0.7c1.6-0.3,2.8-0.8,3.4-1.1H707c-0.9,0-1.2-0.7-1.2-0.9
			v-2.1c0-0.1,0.1-0.3,0.1-0.4c-0.5,0-0.6-0.5-0.6-0.7c0-0.4,0.4-0.6,0.4-0.7c1.4-0.9,1.7-1,2.5-1.7c0.5-0.4,0.7-0.7,1-0.7
			c0.4,0,0.8,0.3,0.8,0.8c0,0.1,0,0.2-0.1,0.3h2.3c0.3,0,1.2,0,1.2,0.9c0,0.4-0.6,1-0.9,1.3h1.8c1,0,1.2,0.8,1.2,0.9V72
			c0,0.1-0.1,0.9-1.2,0.9H713.1z M710.7,69c0.2-0.2,0.7-0.6,0.7-0.8c0,0,0-0.1-0.2-0.1h-2.5c-0.2,0.2-0.7,0.5-1.4,0.9H710.7z
			 M707.8,70.3c-0.3,0-0.4,0.1-0.4,0.4v0.7c0,0.2,0.1,0.3,0.4,0.3h2.2v-1.4H707.8z M713.7,71.6c0.3,0,0.4-0.1,0.4-0.3v-0.7
			c0-0.3-0.2-0.3-0.4-0.3h-2.2v1.4H713.7z"/>
		<path class="st2" d="M723.5,72.3c-0.4,0.4-0.5,0.6-0.9,0.6c-0.1,0-0.1,0-0.2,0c0,1.9-0.1,4.4-0.6,6.4c-0.2,0.6-0.3,1.1-0.9,1.1
			c-0.5,0-0.8-0.4-0.8-0.7c0-0.2,0.4-1.4,0.4-1.6c0.5-2.3,0.5-4.2,0.5-7.5c0-0.5,0-2.7,0.1-3c0-0.1,0.2-0.8,1.2-0.8h4.9
			c0-0.4,0-1.1,0.8-1.1c0.8,0,0.8,0.7,0.8,1.1h4.6c0.5,0,1.3,0,1.3,0.7c0,0.7-0.7,0.7-1.3,0.7h-10.5c-0.4,0-0.5,0.2-0.5,0.4v2.9
			c0.8-1.1,1-1.3,1.5-2.4c0.3-0.5,0.4-0.7,0.7-0.7c0.4,0,0.7,0.3,0.7,0.7c0,0.2,0,0.3-0.4,1.1v5c0,0.6,0,1.3-0.7,1.3
			c-0.6,0-0.6-0.7-0.6-1.3V72.3z M722.5,79.7c0-0.1,0.2-0.4,0.4-0.9c0.1-0.3,0.5-1.2,0.6-1.4c0.1-0.1,0.3-0.2,0.5-0.2
			c0.4,0,0.7,0.3,0.7,0.7c0,0.4-0.4,1.4-0.8,2c-0.1,0.2-0.3,0.5-0.8,0.4C722.6,80.3,722.5,79.9,722.5,79.7z M733,71.5
			c0.6,0,1.2,0,1.2,0.6c0,0.6-0.7,0.6-1.2,0.6h-2v0.7h2c0.7,0,1.2,0,1.2,0.6c0,0.6-0.6,0.6-1.2,0.6h-2v0.6h2.2c0.6,0,1.3,0,1.3,0.7
			c0,0.6-0.7,0.6-1.3,0.6h-4.6c1.3,0.8,1.3,1.1,1.3,1.4c0,0.4-0.3,0.6-0.6,0.6c-0.3,0-0.3-0.1-1-0.6c-0.8-0.6-0.8-0.7-0.8-1
			c0-0.2,0-0.2,0.1-0.3h-0.3c-0.2,0-1.2,0-1.2-1v-3.3c-0.1,0-0.2,0.1-0.3,0.1c-0.4,0-0.7-0.3-0.7-0.6c0-0.3,0.1-0.4,0.6-0.9
			c0.6-0.7,0.7-0.8,1.4-1.8c0.1-0.2,0.3-0.4,0.6-0.4c0.4,0,0.7,0.3,0.7,0.7c0,0.2-0.1,0.3-0.2,0.4h1.6c0-0.1,0.2-0.6,0.3-0.7
			c0.1-0.2,0.2-0.4,0.6-0.4c0.2,0,0.7,0.1,0.7,0.6c0,0.2,0,0.3-0.1,0.5h1.7c0.6,0,1.2,0,1.2,0.7c0,0.6-0.7,0.6-1.2,0.6H731v0.6H733z
			 M727,78.8c0,0.4,0.1,0.4,0.8,0.4h2c0.4,0,0.7,0,0.9-0.4c0.2-0.4,0.3-0.7,0.7-0.7c0.5,0,0.7,0.4,0.7,0.7c0,0.3-0.2,0.9-0.5,1.2
			c-0.3,0.3-0.8,0.5-1.7,0.5h-2.4c-1.9,0-1.8-0.8-1.8-1.4v-0.8c0-0.5,0-1.3,0.7-1.3c0.7,0,0.7,0.7,0.7,1.3V78.8z M729.6,71.5v-0.6
			H728c-0.4,0-0.4,0.1-0.4,0.6H729.6z M727.6,72.6v0.7h2v-0.7H727.6z M729.6,75.1v-0.6h-2v0.3c0,0.1,0,0.3,0.4,0.3H729.6z
			 M732.6,77.1c0.4,0,0.5,0.1,1.2,1.2c0.6,0.9,0.6,1,0.6,1.3c0,0.5-0.4,0.7-0.6,0.7c-0.4,0-0.5-0.3-1-1.1c-0.2-0.3-0.7-1-0.7-1.3
			C732,77.5,732.2,77.1,732.6,77.1z"/>
		<path class="st2" d="M751.9,72.2c0.5,0,1.3,0,1.3,0.7c0,0.7-0.8,0.7-1.3,0.7h-5.1c-0.1,0.2-0.1,0.4-0.3,0.9h5.1c0.8,0,1,0.7,1,1
			c0,0.7-0.9,1.9-2.2,2.9c0.8,0.3,1.1,0.4,2.1,0.6c0.2,0,0.8,0.2,0.8,0.8c0,0.3-0.2,0.7-0.8,0.7c-0.2,0-2-0.2-3.7-1.1
			c-2.2,1.1-4.1,1.2-4.2,1.2c-0.4,0-0.7-0.3-0.7-0.7c0-0.7,0.5-0.8,0.8-0.8c1.5-0.3,1.8-0.4,2.6-0.7c-1-0.8-1.5-1.4-1.7-1.9
			c-0.3,0.5-1.8,2.6-2.5,2.6c-0.4,0-0.8-0.4-0.8-0.8c0-0.3,0.2-0.4,0.5-0.8c0.8-0.9,1.8-1.9,2.5-3.8h-1.3c-0.7,0-1,0-1.2-0.4
			c0.1,0.7-0.3,0.8-1.3,1.2v4.8c0,0.6-0.1,1.3-1.4,1.3c-0.7,0-1.7-0.1-1.7-0.9c0-0.4,0.4-0.7,0.6-0.7c0.1,0,0.7,0.1,0.8,0.1
			c0.3,0,0.3-0.1,0.3-0.4v-3.7c-0.2,0-0.6,0.2-0.9,0.2c-0.5,0-0.8-0.4-0.8-0.8c0-0.6,0.6-0.8,0.7-0.8c0.3-0.1,0.9-0.2,1-0.2v-3.1
			h-0.5c-0.6,0-1.3,0-1.3-0.7s0.7-0.7,1.3-0.7h0.5V67c0-0.5,0-1.3,0.7-1.3c0.7,0,0.7,0.7,0.7,1.3v1.6c0.9,0,1.5,0,1.5,0.7
			s-0.6,0.7-1.5,0.7v2.7c0.5-0.2,0.5-0.2,0.7-0.2c0.1,0,0.4,0,0.6,0.4c-0.1-0.8,0.7-0.8,1.2-0.8h1.7c0.1-0.5,0.1-0.6,0.1-0.8h-1.5
			c-0.5,0-1.3,0-1.3-0.7c0-0.7,0.8-0.7,1.3-0.7h0.4c-0.3-0.2-0.7-1.4-0.7-1.5c0-0.3,0.2-0.7,0.7-0.7c0.4,0,0.6,0.3,0.7,0.5
			c0.2,0.4,0.4,0.9,0.4,1.2c0,0.2-0.1,0.4-0.3,0.5h2.1c-0.4-0.2-0.7-1.4-0.7-1.5c0-0.3,0.2-0.7,0.7-0.7c0.8,0,1.1,1.3,1.1,1.7
			c0,0.4-0.2,0.5-0.4,0.6h1.6c0.3-0.6,0.3-0.6,0.7-1.9c0-0.1,0.2-0.6,0.8-0.6c0.4,0,0.7,0.4,0.7,0.8c0,0.3-0.2,0.8-0.6,1.7h0.3
			c0.5,0,1.3,0,1.3,0.7c0,0.7-0.7,0.7-1.3,0.7h-4.4c0,0.2,0,0.3-0.1,0.8H751.9z M746.5,66.3c0.9,0,2.5,0,4.2-0.2
			c0.2,0,1.1-0.2,1.3-0.2c0.6,0,0.8,0.4,0.8,0.7c0,0.5-0.5,0.7-0.8,0.7c-1.2,0.2-3.2,0.4-6.2,0.4c-2.1,0-2.8,0-2.8-0.7
			c0-0.7,0.6-0.7,1.2-0.7C744.3,66.2,746.1,66.3,746.5,66.3z M747.1,75.8c0.2,0.3,0.8,1,1.8,1.7c1.3-0.8,1.4-1.4,1.4-1.5
			c0-0.1-0.1-0.2-0.3-0.2H747.1z"/>
		<path class="st2" d="M766.3,67.3c1.8,1.5,3.4,2.4,4.6,3.1c0.4,0.2,0.6,0.4,0.6,0.8c0,0.5-0.4,0.8-0.8,0.8c-0.7,0-4.3-2.5-6.1-4.1
			c-0.2-0.1-0.3-0.3-0.5-0.3c-0.2,0-0.2,0-0.7,0.4c-3.2,2.6-5.3,3.8-5.8,3.8c-0.4,0-0.8-0.4-0.8-0.8c0-0.5,0.3-0.6,0.8-0.9
			c1.4-0.7,3.3-1.9,4.7-3.2c0.6-0.5,1.2-1,1.4-1.1c0.2-0.1,0.3-0.1,0.4-0.1C764.4,65.8,764.5,65.8,766.3,67.3z M765,73.2h3.7
			c0.6,0,1.3,0,1.3,0.8c0,0.8-0.7,0.8-1.3,0.8H765v3.9h4.8c0.6,0,1.3,0,1.3,0.8c0,0.8-0.7,0.8-1.3,0.8h-11.5c-0.6,0-1.3,0-1.3-0.8
			c0-0.8,0.7-0.8,1.3-0.8h0.9v-5.5c0-0.5,0-1.3,0.8-1.3c0.8,0,0.8,0.8,0.8,1.3v5.5h2.6v-7.8c0-0.5,0-1.3,0.8-1.3
			c0.8,0,0.8,0.8,0.8,1.3V73.2z"/>
		<path class="st2" d="M783.6,68.1h0.8c0.2,0,0.5,0.2,0.5,0.5c0,0,0,0.6-0.6,0.6h-0.7v0.6c0,0.6-0.5,1-1.1,1h-1.9v0.5h2.2
			c0.9,0,1.2,0,1.2,0.5s-0.3,0.5-1.2,0.5h-2.2v0.5h2.9c0.8,0,1.2,0,1.2,0.5c0,0.5-0.4,0.5-1.2,0.5h-7.1c-0.8,0-1.2,0-1.2-0.5
			c0-0.5,0.4-0.5,1.2-0.5h2.8v-0.5h-2.1c-0.9,0-1.2,0-1.2-0.5s0.3-0.5,1.2-0.5h2.1v-0.5h-1.8c-0.7,0-1.2,0-1.2-0.5
			c0-0.5,0.5-0.5,1.2-0.5h1.8v-0.6h-2.7c-0.8,0-1.2,0-1.2-0.6c0-0.5,0.4-0.5,1.2-0.5h2.7v-0.5h-1.8c-0.8,0-1.2,0-1.2-0.5
			c0-0.5,0.4-0.5,1.2-0.5h1.8c0-0.2,0-1,0.7-1c0.7,0,0.7,0.8,0.7,1h1.8c0.7,0,1.2,0.6,1.2,1V68.1z M781.4,79.1
			c0.5,0,1.4-0.2,1.9-0.2c0.3,0,0.8,0,0.8,0.6c0,0.5-0.4,0.6-0.9,0.7c-0.4,0-3.3,0.3-5.8,0.3c-1.1,0-1.4,0-1.7-0.1
			c-0.2-0.1-0.3-0.4-0.3-0.6c0-0.7,0.7-0.6,1.2-0.6C778.6,79.2,780,79.2,781.4,79.1z M782.7,74.4c0.6,0,1.2,0.5,1.2,1.2v1.7
			c0,0.5-0.5,1.2-1.2,1.2h-5.5c-0.6,0-1.1-0.6-1.1-1.2v-1.7c0-0.6,0.6-1.2,1.1-1.2H782.7z M779.2,75.9v-0.5h-1.4
			c-0.3,0-0.3,0.3-0.3,0.5H779.2z M777.5,76.8v0.3c0,0.2,0.1,0.3,0.3,0.3h1.4v-0.6H777.5z M782.3,68.1c0-0.2,0-0.5-0.3-0.5h-1.4v0.5
			H782.3z M780.6,69.2v0.6h1.3c0.4,0,0.4-0.1,0.4-0.6H780.6z M782.4,75.9c0-0.3,0-0.5-0.3-0.5h-1.6v0.5H782.4z M780.6,76.8v0.6h1.6
			c0.1,0,0.3-0.1,0.3-0.3v-0.3H780.6z M789.6,79c0,1.5-1.4,1.5-1.7,1.5c-0.6,0-2-0.2-2.4-0.5c-0.2-0.1-0.3-0.4-0.3-0.6
			c0-0.4,0.3-0.7,0.7-0.7c0.3,0,1.3,0.2,1.6,0.2c0.5,0,0.6-0.2,0.6-0.6V67.1c0-0.7,0-1.3,0.8-1.3c0.8,0,0.8,0.5,0.8,1.3V79z
			 M786.6,75.3c0,0.9,0,1.2-0.7,1.2c-0.7,0-0.7-0.4-0.7-1.2v-7.6c0-0.9,0-1.3,0.7-1.3c0.7,0,0.7,0.4,0.7,1.3V75.3z"/>
		<path class="st2" d="M797.9,79.2c0,0.6,0,1.3-0.7,1.3s-0.7-0.7-0.7-1.3v-5.1c-0.5,0-1.8,0-2.1-0.1c-0.4,0-0.7-0.4-0.7-0.7
			c0-0.3,0.2-0.8,0.8-0.8c0.1,0,0.4,0,0.6,0c0.4-0.4,0.8-1.1,1.1-1.4c-0.7-0.7-0.9-0.8-2.2-2c-0.2-0.2-0.4-0.3-0.4-0.6
			c0-0.5,0.4-0.8,0.8-0.8c0.3,0,0.5,0.1,0.7,0.3c0.2-0.3,1-1.7,1.2-2c0.1-0.1,0.3-0.4,0.6-0.4c0.4,0,0.8,0.3,0.8,0.8
			c0,0.7-1,2-1.5,2.6c0.3,0.3,0.7,0.6,0.9,0.8c0.5-0.8,0.6-1,1.4-2.6c0.2-0.4,0.6-0.4,0.7-0.4c0.3,0,0.8,0.3,0.8,0.8
			c0,0.3-0.6,1.8-3.1,4.9c0.6,0,1.2-0.1,1.8-0.2c-0.2-0.8-0.2-0.9-0.2-1.1c0-0.4,0.4-0.6,0.7-0.6c0.5,0,0.7,0.5,0.8,0.8
			c0.2,0.8,0.5,2.2,0.5,2.5c0,0.5-0.3,0.7-0.7,0.7c-0.6,0-0.7-0.6-0.8-0.8c-0.4,0-0.8,0.1-1.2,0.1V79.2z M793.7,79
			c0-0.2,0.3-1.1,0.3-1.3c0.2-0.7,0.2-0.9,0.3-2.1c0-0.4,0.3-0.7,0.7-0.7c0.3,0,0.7,0.3,0.7,0.8c0,0.1,0,1.2-0.5,3
			c-0.2,0.9-0.4,1.1-0.9,1.1C794.2,79.7,793.7,79.5,793.7,79z M799.2,75c0.5,0,0.6,0.4,0.8,1.2c0.1,0.4,0.2,0.8,0.3,1.3
			c0,0.1,0.1,0.2,0.1,0.4c0,0.4-0.3,0.6-0.7,0.6c-0.5,0-0.6-0.3-0.7-0.5c-0.2-0.5-0.4-1.9-0.4-2.1C798.4,75.2,799,75,799.2,75z
			 M800.9,67.3c0-1,0.9-1.1,1.1-1.1h4.1c0.9,0,1.3,0.6,1.3,1.2v11.2c0.3,0,1,0,1,0.8c0,0.8-0.7,0.8-1.3,0.8h-6.1
			c-0.6,0-1.3,0-1.3-0.8c0-0.8,0.7-0.8,1-0.8h0.1V67.3z M802.5,70.1h3.3v-1.9c0-0.3-0.2-0.4-0.4-0.4h-2.5c-0.3,0-0.4,0.1-0.4,0.4
			V70.1z M805.8,71.6h-3.3v2.5h3.3V71.6z M805.8,75.7h-3.3v2.9h3.3V75.7z"/>
	</g>
	<g>
		<path class="st2" d="M571.3,45l3.3,14.1c0.1,0.4,0.4,0.7,0.7,0.8l13.5,5.3c0.9,0.3,1,1.6,0.2,2.1l-12.4,7.5
			c-0.3,0.2-0.5,0.5-0.6,0.9l-0.8,14.5c-0.1,1-1.2,1.4-1.9,0.8l-11-9.5c-0.3-0.2-0.7-0.3-1-0.2l-14,3.7c-0.9,0.2-1.7-0.7-1.4-1.6
			l5.6-13.4c0.1-0.4,0.1-0.8-0.1-1.1l-7.8-12.2c-0.5-0.8,0.1-1.9,1.1-1.8l14.4,1.2c0.4,0,0.8-0.1,1-0.4l9.2-11.2
			C569.8,43.8,571,44.1,571.3,45z"/>
		<g>
			<path class="st2" d="M631.2,2.8c-1.6-1.3-3.7-1.8-5.7-1.6c-1.6,0.2-2.9,1-4.2,1.8c-4.5,2.7-8.9,5.4-13,8.7
				c-8.9,7-16.9,14.8-24,23.6c-3.2,3.9-6.2,7.9-9.1,12c-0.3,0.4-0.4,1-0.3,1.5L576,54c5.4-6.1,11.4-11.7,17.6-17
				c4.3-3.6,8.8-7,13.5-10c4.7-3,9.6-5.7,14.6-8.1c2.1-1,4.4-1.8,6.6-2.7c1.4-0.6,2.7-1.2,3.8-2.4C635,10.6,634.6,5.4,631.2,2.8z"/>
			<path class="st2" d="M661.9,12.1c-1.7-1.1-3.7-1.7-5.7-1.6c-1.4,0.1-2.8,0.5-4.2,1c-2.4,0.7-4.8,1.4-7.2,2.1
				c-2.6,0.9-5.1,1.9-7.7,2.8c-5.3,2-10.4,4.5-15.4,7c-5.2,2.6-10.1,5.6-15,8.7c-4.8,3.1-9.6,6.4-14,9.9
				c-5.6,4.5-11.1,9.1-16.2,14.1l0.4,1.7l3.4,1.3c2.1-1.5,4.3-2.9,6.5-4.3c7.9-5,16.1-9.5,24.7-13.3c10.3-4.5,20.9-8.2,31.9-10.4
				c2.7-0.5,5.3-1.1,8-1.4c2-0.3,3.9-0.5,5.9-0.8c3.7-0.5,6.9-2.5,8.2-6.2C666.8,18.9,665.4,14.4,661.9,12.1z"/>
			<path class="st2" d="M652.5,44c0-4.2-3.6-7.7-7.9-7.6c-1.7,0.1-3.3,0.4-5,0.7c-2.6,0.3-5.2,0.9-7.7,1.4
				c-5.5,1.1-10.9,2.9-16.1,4.8c-5.4,1.9-10.8,4.3-15.9,6.9c-5.9,3.1-11.6,6.3-17.1,9.9l5.5,2.2c0.3,0.1,0.6,0.1,0.9,0
				c3.2-1.3,6.4-2.5,9.6-3.6c10.8-3.6,21.8-6,33.1-6.9c4.3-0.3,8.5-0.2,12.8-0.1C648.9,51.7,652.5,48.2,652.5,44z"/>
		</g>
	</g>
</g>
</svg>
