<?xml version="1.0" encoding="utf-8"?>
<!-- Generator: Adobe Illustrator 26.0.2, SVG Export Plug-In . SVG Version: 6.00 Build 0)  -->
<svg version="1.1" xmlns="http://www.w3.org/2000/svg" xmlns:xlink="http://www.w3.org/1999/xlink" x="0px" y="0px"
	 viewBox="0 0 50 50" style="enable-background:new 0 0 50 50;" xml:space="preserve">
<style type="text/css">
	.st0{fill:#FFFFFF;}
	.st1{fill:none;stroke:#FFFFFF;stroke-miterlimit:10;}
	.st2{fill:#222222;}
	.st3{fill:#6275B0;}
	.st4{fill:none;stroke:#5A79BA;stroke-miterlimit:10;}
	.st5{fill:#FFFBB9;}
	.st6{fill:#F7D4D9;}
	.st7{fill:#C1E7FF;}
	.st8{fill:#5A79BA;}
	.st9{fill:#EFA5AF;}
	.st10{fill:#FFFFFF;stroke:#5A79BA;stroke-width:2;stroke-miterlimit:10;}
	.st11{fill:none;stroke:#C3E5FF;stroke-width:2;stroke-linecap:round;stroke-linejoin:round;stroke-miterlimit:10;}
	.st12{fill:none;stroke:#EFA5AF;stroke-width:1.5;stroke-linecap:round;stroke-linejoin:round;stroke-miterlimit:10;}
	.st13{fill:none;stroke:#C3E5FF;stroke-width:1.5;stroke-linecap:round;stroke-linejoin:round;stroke-miterlimit:10;}
	.st14{fill:none;stroke:#5A79BA;stroke-width:2;stroke-linecap:round;stroke-linejoin:round;stroke-miterlimit:10;}
	.st15{fill:none;stroke:#EFA5AF;stroke-width:1.5;stroke-linejoin:round;stroke-miterlimit:10;}
	.st16{fill:none;stroke:#C3E5FF;stroke-width:1.5;stroke-miterlimit:10;}
	.st17{fill:#C3E5FF;}
	.st18{fill:#FFFFFF;stroke:#5A79BA;stroke-miterlimit:10;}
	.st19{fill:#FFFFFF;stroke:#EFA5AF;stroke-miterlimit:10;}
	.st20{fill:url(#SVGID_1_);}
	.st21{fill:url(#SVGID_00000052099385390576378300000014336451720273239437_);}
	.st22{fill:url(#SVGID_00000018228574009726327250000014118897577718427795_);}
	.st23{fill:url(#SVGID_00000128485513966619650890000010183728337200565390_);}
	.st24{fill:url(#SVGID_00000018229902244809591820000003228701771228863374_);}
	.st25{fill:url(#SVGID_00000106146942180753076390000017264951117091354762_);}
	.st26{fill:url(#SVGID_00000070819880543548267340000000214712065817887651_);}
	.st27{fill:url(#SVGID_00000088101414531490934510000002088557168020617349_);}
	.st28{fill:url(#SVGID_00000163037561847504256110000011313949300072611742_);}
	.st29{fill:url(#SVGID_00000071525146073577069150000017389639241266488467_);}
	.st30{fill:url(#SVGID_00000116926210116483599550000007062459158487243149_);}
	.st31{fill:url(#SVGID_00000060026642307435606480000010750457308968504765_);}
	.st32{fill:url(#SVGID_00000181081884618363033450000011921929391755307700_);}
	.st33{fill:url(#SVGID_00000132771433135212583900000014385151885030098828_);}
	.st34{fill:url(#SVGID_00000041988650308877048150000015266122215235971995_);}
	.st35{fill:url(#SVGID_00000161629379874060174600000016401383082534958980_);}
	.st36{fill:url(#SVGID_00000023983164702911914000000016712059756458120888_);}
	.st37{fill:url(#SVGID_00000016761463764765979340000018446324085662716343_);}
	.st38{fill:url(#SVGID_00000173123752876626021730000007822011663214523034_);}
	.st39{fill:url(#SVGID_00000081605455718982027590000000998946312222159527_);}
	.st40{fill:url(#SVGID_00000056425103668957120400000003734506873224305043_);}
	.st41{fill:url(#SVGID_00000137122990493108660890000002138820565150490550_);}
	.st42{fill:#255C84;}
	.st43{fill:#FFCB4A;stroke:#FFCB4A;stroke-miterlimit:10;}
	.st44{fill:none;stroke:#222222;stroke-width:2;stroke-miterlimit:10;}
	.st45{fill:none;stroke:#FFFFFF;stroke-width:2;stroke-miterlimit:10;}
</style>
<g id="BG">
</g>
<g id="GR">
	<g>
		<circle class="st9" cx="25" cy="25" r="25"/>
		<g id="pQKerT_00000090996924323730542900000000315507793730970034_">
			<g>
				<path class="st0" d="M24.96,17.78c2.11,0.08,4.23,0.16,6.34,0.25c0.5,0.02,1,0.09,1.49,0.18c1.19,0.22,1.95,1.02,2.17,2.26
					c0.31,1.72,0.37,3.47,0.32,5.21c-0.04,1.22-0.16,2.44-0.28,3.65c-0.09,0.9-0.45,1.66-1.24,2.17c-0.48,0.31-1.02,0.4-1.57,0.45
					c-2.13,0.22-4.27,0.27-6.4,0.26c-2.14-0.01-4.29-0.08-6.43-0.14c-0.7-0.02-1.4-0.11-2.09-0.21c-1.17-0.17-2-0.97-2.2-2.18
					c-0.15-0.92-0.24-1.86-0.31-2.79c-0.11-1.51-0.08-3.02,0.05-4.52c0.06-0.7,0.14-1.41,0.28-2.1c0.26-1.23,1.12-1.98,2.37-2.13
					c2-0.25,4.02-0.27,6.03-0.31c0.49-0.01,0.97,0,1.46,0C24.96,17.82,24.96,17.8,24.96,17.78z M22.96,28.12
					c1.8-1.03,3.56-2.05,5.35-3.08c-1.8-1.04-3.57-2.05-5.35-3.08C22.96,24.02,22.96,26.05,22.96,28.12z"/>
				<path class="st0" d="M22.96,28.12c0-2.07,0-4.1,0-6.17c1.78,1.03,3.55,2.04,5.35,3.08C26.52,26.06,24.75,27.08,22.96,28.12z"/>
				<path class="st9" d="M22.96,28.12c0-2.07,0-4.1,0-6.17c1.78,1.03,3.55,2.04,5.35,3.08C26.52,26.06,24.75,27.08,22.96,28.12z"/>
			</g>
		</g>
	</g>
</g>
<g id="OV">
</g>
</svg>
