<?xml version="1.0" encoding="utf-8"?>
<!-- Generator: Adobe Illustrator 26.0.2, SVG Export Plug-In . SVG Version: 6.00 Build 0)  -->
<svg version="1.1" xmlns="http://www.w3.org/2000/svg" xmlns:xlink="http://www.w3.org/1999/xlink" x="0px" y="0px"
	 viewBox="0 0 20 20" style="enable-background:new 0 0 20 20;" xml:space="preserve">
<style type="text/css">
	.st0{fill:#FFFFFF;}
	.st1{fill:none;stroke:#FFFFFF;stroke-miterlimit:10;}
	.st2{fill:#222222;}
	.st3{fill:#6275B0;}
	.st4{fill:none;stroke:#5A79BA;stroke-miterlimit:10;}
	.st5{fill:#FFFBB9;}
	.st6{fill:#F7D4D9;}
	.st7{fill:#C1E7FF;}
	.st8{fill:#5A79BA;}
	.st9{fill:#EFA5AF;}
	.st10{fill:#FFFFFF;stroke:#5A79BA;stroke-width:2;stroke-miterlimit:10;}
	.st11{fill:none;stroke:#C3E5FF;stroke-width:2;stroke-linecap:round;stroke-linejoin:round;stroke-miterlimit:10;}
	.st12{fill:none;stroke:#EFA5AF;stroke-width:1.5;stroke-linecap:round;stroke-linejoin:round;stroke-miterlimit:10;}
	.st13{fill:none;stroke:#C3E5FF;stroke-width:1.5;stroke-linecap:round;stroke-linejoin:round;stroke-miterlimit:10;}
	.st14{fill:none;stroke:#5A79BA;stroke-width:2;stroke-linecap:round;stroke-linejoin:round;stroke-miterlimit:10;}
	.st15{fill:none;stroke:#EFA5AF;stroke-width:1.5;stroke-linejoin:round;stroke-miterlimit:10;}
	.st16{fill:none;stroke:#C3E5FF;stroke-width:1.5;stroke-miterlimit:10;}
	.st17{fill:#C3E5FF;}
	.st18{fill:#FFFFFF;stroke:#5A79BA;stroke-miterlimit:10;}
	.st19{fill:#FFFFFF;stroke:#EFA5AF;stroke-miterlimit:10;}
	.st20{fill:url(#SVGID_1_);}
	.st21{fill:url(#SVGID_00000031174812971948410770000013370977536157919128_);}
	.st22{fill:url(#SVGID_00000152224300355956452860000006917198851488894136_);}
	.st23{fill:url(#SVGID_00000060021075574706937800000008792288696878715540_);}
	.st24{fill:url(#SVGID_00000065767905906945327880000004260804577993493653_);}
	.st25{fill:url(#SVGID_00000134938305867649132550000009377621649736775058_);}
	.st26{fill:url(#SVGID_00000101822805777892337640000003070400821385387914_);}
	.st27{fill:url(#SVGID_00000127033974502313209090000016313794330356575407_);}
	.st28{fill:url(#SVGID_00000060729328690331904420000010107131661863819707_);}
	.st29{fill:url(#SVGID_00000000916401445026150170000016443441985409194371_);}
	.st30{fill:url(#SVGID_00000095323387700822898120000015610615355124798137_);}
	.st31{fill:url(#SVGID_00000075138038806292422970000001924538606866751919_);}
	.st32{fill:url(#SVGID_00000134242367148112424520000017331143877086687625_);}
	.st33{fill:url(#SVGID_00000048476830946188476010000015256494547118424465_);}
	.st34{fill:url(#SVGID_00000067950479301704188350000003622858174141854879_);}
	.st35{fill:url(#SVGID_00000148659765188804855210000013107385143433994888_);}
	.st36{fill:url(#SVGID_00000047752015982449654910000002503606758651163289_);}
	.st37{fill:url(#SVGID_00000074410400916515526410000006195185675862539967_);}
	.st38{fill:url(#SVGID_00000039847316889668032940000013096791946382504853_);}
	.st39{fill:url(#SVGID_00000133514465837695602900000001704121471343207315_);}
	.st40{fill:url(#SVGID_00000070087830751917677520000004455525184085290174_);}
	.st41{fill:url(#SVGID_00000070090076439740890350000011089157491916572803_);}
	.st42{fill:#255C84;}
	.st43{fill:#FFCB4A;stroke:#FFCB4A;stroke-miterlimit:10;}
	.st44{fill:none;stroke:#222222;stroke-width:2;stroke-miterlimit:10;}
	.st45{fill:none;stroke:#FFFFFF;stroke-width:2;stroke-miterlimit:10;}
</style>
<g id="BG">
</g>
<g id="GR">
	<g id="h5PunY_00000105408048873745795670000002059778305098343091_">
		<g>
			<path class="st0" d="M12.61,2.5c0.25,0.02,0.5,0.04,0.76,0.06c0.17,0.01,0.35,0.03,0.53,0.05c0,0.8,0,1.58,0,2.39
				c-0.07,0-0.14,0-0.2,0c-0.5,0.01-1.01,0-1.51,0.03c-0.62,0.03-0.97,0.36-1,0.99c-0.03,0.65-0.01,1.31-0.01,1.98
				c0.87,0,1.74,0,2.63,0c-0.12,0.9-0.23,1.78-0.34,2.67c-0.77,0-1.52,0-2.29,0c0,2.29,0,4.56,0,6.84c-0.92,0-1.83,0-2.76,0
				c0-2.27,0-4.54,0-6.83c-0.77,0-1.53,0-2.3,0c0-0.9,0-1.77,0-2.67c0.76,0,1.52,0,2.3,0c0-0.08,0-0.13,0-0.19
				c0-0.7-0.01-1.4,0.01-2.1C8.46,4.87,8.7,4.1,9.3,3.47C9.75,3,10.31,2.72,10.95,2.59c0.17-0.04,0.34-0.06,0.52-0.09
				C11.85,2.5,12.23,2.5,12.61,2.5z"/>
		</g>
	</g>
</g>
<g id="OV">
</g>
</svg>
