<?xml version="1.0" encoding="utf-8"?>
<!-- Generator: Adobe Illustrator 26.0.2, SVG Export Plug-In . SVG Version: 6.00 Build 0)  -->
<svg version="1.1" xmlns="http://www.w3.org/2000/svg" xmlns:xlink="http://www.w3.org/1999/xlink" x="0px" y="0px"
	 viewBox="0 0 51 51" style="enable-background:new 0 0 51 51;" xml:space="preserve">
<style type="text/css">
	.st0{fill:#FFFFFF;}
	.st1{fill:none;stroke:#FFFFFF;stroke-miterlimit:10;}
	.st2{fill:#222222;}
	.st3{fill:#6275B0;}
	.st4{fill:none;stroke:#5A79BA;stroke-miterlimit:10;}
	.st5{fill:#FFFBB9;}
	.st6{fill:#F7D4D9;}
	.st7{fill:#C1E7FF;}
	.st8{fill:#5A79BA;}
	.st9{fill:#EFA5AF;}
	.st10{fill:#FFFFFF;stroke:#5A79BA;stroke-width:2;stroke-miterlimit:10;}
	.st11{fill:none;stroke:#C3E5FF;stroke-width:2;stroke-linecap:round;stroke-linejoin:round;stroke-miterlimit:10;}
	.st12{fill:none;stroke:#EFA5AF;stroke-width:1.5;stroke-linecap:round;stroke-linejoin:round;stroke-miterlimit:10;}
	.st13{fill:none;stroke:#C3E5FF;stroke-width:1.5;stroke-linecap:round;stroke-linejoin:round;stroke-miterlimit:10;}
	.st14{fill:none;stroke:#5A79BA;stroke-width:2;stroke-linecap:round;stroke-linejoin:round;stroke-miterlimit:10;}
	.st15{fill:none;stroke:#EFA5AF;stroke-width:1.5;stroke-linejoin:round;stroke-miterlimit:10;}
	.st16{fill:none;stroke:#C3E5FF;stroke-width:1.5;stroke-miterlimit:10;}
	.st17{fill:#C3E5FF;}
	.st18{fill:#FFFFFF;stroke:#5A79BA;stroke-miterlimit:10;}
	.st19{fill:#FFFFFF;stroke:#EFA5AF;stroke-miterlimit:10;}
	.st20{fill:url(#SVGID_1_);}
	.st21{fill:url(#SVGID_00000142888135274038365670000006866005701867611789_);}
	.st22{fill:url(#SVGID_00000169525762419121692970000000639217445217461136_);}
	.st23{fill:url(#SVGID_00000106122812417365960880000009444096514949567129_);}
	.st24{fill:url(#SVGID_00000162337731946132790270000000226393663919428516_);}
	.st25{fill:url(#SVGID_00000150791358810412784800000016476458032640078771_);}
	.st26{fill:url(#SVGID_00000018225527772872024560000011277578326032487824_);}
	.st27{fill:url(#SVGID_00000147186654212001450540000000719420525576617102_);}
	.st28{fill:url(#SVGID_00000005231151979267623860000018252964211102160512_);}
	.st29{fill:url(#SVGID_00000130617132773422250300000018160984920945626041_);}
	.st30{fill:url(#SVGID_00000000220258040877180900000009847382709884583857_);}
	.st31{fill:url(#SVGID_00000132800172026968974500000011546148616330791848_);}
	.st32{fill:url(#SVGID_00000124871042247841776460000012589549823405837488_);}
	.st33{fill:url(#SVGID_00000183246915158212621800000007529347330237311372_);}
	.st34{fill:url(#SVGID_00000127027608936637102870000011307586438981248937_);}
	.st35{fill:url(#SVGID_00000171000624676053624070000008748742599976242091_);}
	.st36{fill:url(#SVGID_00000004547256022460450850000014644474294021821573_);}
	.st37{fill:url(#SVGID_00000123424653932122864070000015460456324829348492_);}
	.st38{fill:url(#SVGID_00000106864317327769255420000001920113455165675142_);}
	.st39{fill:url(#SVGID_00000000196645102539722940000005242963837237756849_);}
	.st40{fill:url(#SVGID_00000181779951569343064670000005833781482354389425_);}
	.st41{fill:url(#SVGID_00000029019017816804427470000003118762984637944993_);}
	.st42{fill:#255C84;}
	.st43{fill:#FFCB4A;stroke:#FFCB4A;stroke-miterlimit:10;}
	.st44{fill:none;stroke:#222222;stroke-width:2;stroke-miterlimit:10;}
	.st45{fill:none;stroke:#FFFFFF;stroke-width:2;stroke-miterlimit:10;}
</style>
<g id="BG">
</g>
<g id="GR">
	<g>
		<circle class="st19" cx="25.5" cy="25.5" r="25"/>
		<g id="h5PunY_00000141445154073020160000000010282871994646209201_">
			<g>
				<path class="st9" d="M28.52,14.36c0.37,0.03,0.75,0.06,1.12,0.09c0.26,0.02,0.52,0.05,0.78,0.07c0,1.19,0,2.35,0,3.54
					c-0.11,0-0.21,0-0.3,0c-0.75,0.01-1.5,0-2.24,0.04c-0.93,0.05-1.44,0.54-1.48,1.47c-0.04,0.97-0.01,1.94-0.01,2.95
					c1.29,0,2.58,0,3.91,0c-0.17,1.34-0.34,2.65-0.51,3.97c-1.14,0-2.26,0-3.4,0c0,3.4,0,6.77,0,10.16c-1.37,0-2.72,0-4.1,0
					c0-3.38,0-6.75,0-10.15c-1.15,0-2.28,0-3.42,0c0-1.33,0-2.63,0-3.97c1.13,0,2.25,0,3.41,0c0-0.11,0-0.2,0-0.28
					c0-1.04-0.02-2.08,0.02-3.11c0.05-1.25,0.42-2.4,1.3-3.33c0.67-0.71,1.51-1.12,2.45-1.31c0.25-0.05,0.51-0.09,0.77-0.14
					C27.38,14.36,27.95,14.36,28.52,14.36z"/>
			</g>
		</g>
	</g>
</g>
<g id="OV">
</g>
</svg>
