<?xml version="1.0" encoding="utf-8"?>
<!-- Generator: Adobe Illustrator 26.0.2, SVG Export Plug-In . SVG Version: 6.00 Build 0)  -->
<svg version="1.1" xmlns="http://www.w3.org/2000/svg" xmlns:xlink="http://www.w3.org/1999/xlink" x="0px" y="0px"
	 viewBox="0 0 20 20" style="enable-background:new 0 0 20 20;" xml:space="preserve">
<style type="text/css">
	.st0{fill:#FFFFFF;}
	.st1{fill:none;stroke:#FFFFFF;stroke-miterlimit:10;}
	.st2{fill:#222222;}
	.st3{fill:#6275B0;}
	.st4{fill:none;stroke:#5A79BA;stroke-miterlimit:10;}
	.st5{fill:#FFFBB9;}
	.st6{fill:#F7D4D9;}
	.st7{fill:#C1E7FF;}
	.st8{fill:#5A79BA;}
	.st9{fill:#EFA5AF;}
	.st10{fill:#FFFFFF;stroke:#5A79BA;stroke-width:2;stroke-miterlimit:10;}
	.st11{fill:none;stroke:#C3E5FF;stroke-width:2;stroke-linecap:round;stroke-linejoin:round;stroke-miterlimit:10;}
	.st12{fill:none;stroke:#EFA5AF;stroke-width:1.5;stroke-linecap:round;stroke-linejoin:round;stroke-miterlimit:10;}
	.st13{fill:none;stroke:#C3E5FF;stroke-width:1.5;stroke-linecap:round;stroke-linejoin:round;stroke-miterlimit:10;}
	.st14{fill:none;stroke:#5A79BA;stroke-width:2;stroke-linecap:round;stroke-linejoin:round;stroke-miterlimit:10;}
	.st15{fill:none;stroke:#EFA5AF;stroke-width:1.5;stroke-linejoin:round;stroke-miterlimit:10;}
	.st16{fill:none;stroke:#C3E5FF;stroke-width:1.5;stroke-miterlimit:10;}
	.st17{fill:#C3E5FF;}
	.st18{fill:#FFFFFF;stroke:#5A79BA;stroke-miterlimit:10;}
	.st19{fill:#FFFFFF;stroke:#EFA5AF;stroke-miterlimit:10;}
	.st20{fill:url(#SVGID_1_);}
	.st21{fill:url(#SVGID_00000043434385562902237700000006887407277765341089_);}
	.st22{fill:url(#SVGID_00000147911497141456314350000004247731024333704842_);}
	.st23{fill:url(#SVGID_00000018197867704112364850000017054901249092960154_);}
	.st24{fill:url(#SVGID_00000096030899757630747340000016180086974926975668_);}
	.st25{fill:url(#SVGID_00000008125032537225540140000004354547877418280622_);}
	.st26{fill:url(#SVGID_00000011741956087419254580000016511527054818646440_);}
	.st27{fill:url(#SVGID_00000117659145052784713100000002078902269544180913_);}
	.st28{fill:url(#SVGID_00000131343417031038874530000014312022407791058355_);}
	.st29{fill:url(#SVGID_00000083767382033108232580000013597896660010370444_);}
	.st30{fill:url(#SVGID_00000091725336040955973400000014913086270628317314_);}
	.st31{fill:url(#SVGID_00000140707506391476772830000007518216751145116584_);}
	.st32{fill:url(#SVGID_00000021838440814947015570000016720865041624687750_);}
	.st33{fill:url(#SVGID_00000170274352508303713300000003520889093016359321_);}
	.st34{fill:url(#SVGID_00000127744320603077021960000008174362467727208842_);}
	.st35{fill:url(#SVGID_00000008149979226180699070000012639982313778538903_);}
	.st36{fill:url(#SVGID_00000183966139593531107290000018099879804912001168_);}
	.st37{fill:url(#SVGID_00000096044112208922681050000001527568400159167633_);}
	.st38{fill:url(#SVGID_00000042723931785737373310000008373235181258494112_);}
	.st39{fill:url(#SVGID_00000108990992889520673890000013681698306128848560_);}
	.st40{fill:url(#SVGID_00000081646791220699257560000007876234982644845221_);}
	.st41{fill:url(#SVGID_00000124873585294006779370000007996931652789397142_);}
	.st42{fill:#255C84;}
	.st43{fill:#FFCB4A;stroke:#FFCB4A;stroke-miterlimit:10;}
	.st44{fill:none;stroke:#222222;stroke-width:2;stroke-miterlimit:10;}
	.st45{fill:none;stroke:#FFFFFF;stroke-width:2;stroke-miterlimit:10;}
</style>
<g id="BG">
</g>
<g id="GR">
	<path class="st0" d="M16.94,3.56c-1.29-0.61-2.68-1.05-4.13-1.3c-0.18,0.32-0.39,0.75-0.53,1.1c-1.54-0.23-3.06-0.23-4.57,0
		c-0.14-0.34-0.36-0.78-0.53-1.1c-1.45,0.25-2.83,0.69-4.13,1.3C0.44,7.5-0.27,11.35,0.08,15.15c1.73,1.29,3.41,2.08,5.06,2.59
		c0.41-0.56,0.77-1.16,1.08-1.79c-0.6-0.23-1.17-0.51-1.71-0.83c0.14-0.11,0.28-0.22,0.42-0.33c3.29,1.54,6.87,1.54,10.12,0
		c0.14,0.11,0.28,0.22,0.42,0.33c-0.54,0.33-1.11,0.61-1.71,0.83c0.31,0.63,0.67,1.22,1.08,1.78c1.65-0.51,3.33-1.3,5.06-2.59
		C20.33,10.75,19.21,6.94,16.94,3.56z M6.68,12.81c-0.99,0-1.8-0.92-1.8-2.05s0.79-2.05,1.8-2.05c1.01,0,1.82,0.92,1.8,2.05
		C8.48,11.89,7.68,12.81,6.68,12.81z M13.32,12.81c-0.99,0-1.8-0.92-1.8-2.05s0.79-2.05,1.8-2.05c1.01,0,1.82,0.92,1.8,2.05
		C15.12,11.89,14.33,12.81,13.32,12.81z"/>
</g>
<g id="OV">
</g>
</svg>
