<?xml version="1.0" encoding="utf-8"?>
<!-- Generator: Adobe Illustrator 26.0.2, SVG Export Plug-In . SVG Version: 6.00 Build 0)  -->
<svg version="1.1" xmlns="http://www.w3.org/2000/svg" xmlns:xlink="http://www.w3.org/1999/xlink" x="0px" y="0px"
	 viewBox="0 0 51 51" style="enable-background:new 0 0 51 51;" xml:space="preserve">
<style type="text/css">
	.st0{fill:#FFFFFF;}
	.st1{fill:none;stroke:#FFFFFF;stroke-miterlimit:10;}
	.st2{fill:#222222;}
	.st3{fill:#6275B0;}
	.st4{fill:none;stroke:#5A79BA;stroke-miterlimit:10;}
	.st5{fill:#FFFBB9;}
	.st6{fill:#F7D4D9;}
	.st7{fill:#C1E7FF;}
	.st8{fill:#5A79BA;}
	.st9{fill:#EFA5AF;}
	.st10{fill:#FFFFFF;stroke:#5A79BA;stroke-width:2;stroke-miterlimit:10;}
	.st11{fill:none;stroke:#C3E5FF;stroke-width:2;stroke-linecap:round;stroke-linejoin:round;stroke-miterlimit:10;}
	.st12{fill:none;stroke:#EFA5AF;stroke-width:1.5;stroke-linecap:round;stroke-linejoin:round;stroke-miterlimit:10;}
	.st13{fill:none;stroke:#C3E5FF;stroke-width:1.5;stroke-linecap:round;stroke-linejoin:round;stroke-miterlimit:10;}
	.st14{fill:none;stroke:#5A79BA;stroke-width:2;stroke-linecap:round;stroke-linejoin:round;stroke-miterlimit:10;}
	.st15{fill:none;stroke:#EFA5AF;stroke-width:1.5;stroke-linejoin:round;stroke-miterlimit:10;}
	.st16{fill:none;stroke:#C3E5FF;stroke-width:1.5;stroke-miterlimit:10;}
	.st17{fill:#C3E5FF;}
	.st18{fill:#FFFFFF;stroke:#5A79BA;stroke-miterlimit:10;}
	.st19{fill:#FFFFFF;stroke:#EFA5AF;stroke-miterlimit:10;}
	.st20{fill:url(#SVGID_1_);}
	.st21{fill:url(#SVGID_00000142881321898289469560000007870320230450153392_);}
	.st22{fill:url(#SVGID_00000025433657016657357130000015237500778075670926_);}
	.st23{fill:url(#SVGID_00000168100138973407353970000015030935663881611906_);}
	.st24{fill:url(#SVGID_00000147928558252589770900000011951962053835664556_);}
	.st25{fill:url(#SVGID_00000156566228948101848570000015407410365172750498_);}
	.st26{fill:url(#SVGID_00000027598082494963381790000011407385492176713149_);}
	.st27{fill:url(#SVGID_00000007416484911302182480000007956856955496248738_);}
	.st28{fill:url(#SVGID_00000168801616525694804030000002433932027010706593_);}
	.st29{fill:url(#SVGID_00000014622014810146295480000016714137986226928525_);}
	.st30{fill:url(#SVGID_00000083784448646687217890000017642648859213143709_);}
	.st31{fill:url(#SVGID_00000141417318222377600610000001712123928543601550_);}
	.st32{fill:url(#SVGID_00000046320009928450340210000004279277824333077438_);}
	.st33{fill:url(#SVGID_00000063598559117086601950000002678316624673377410_);}
	.st34{fill:url(#SVGID_00000134943345909206200820000010609650247384304773_);}
	.st35{fill:url(#SVGID_00000018946732724704150060000014806252440599099791_);}
	.st36{fill:url(#SVGID_00000037664326929481187180000016087565201554190244_);}
	.st37{fill:url(#SVGID_00000104686319274711232310000012086787803155850924_);}
	.st38{fill:url(#SVGID_00000175287222391599667740000005340047035665597586_);}
	.st39{fill:url(#SVGID_00000160899546948798401730000003676837166474119081_);}
	.st40{fill:url(#SVGID_00000091002922094063700090000001358246298355129265_);}
	.st41{fill:url(#SVGID_00000035532561543752843800000012036624872694014612_);}
	.st42{fill:#255C84;}
	.st43{fill:#FFCB4A;stroke:#FFCB4A;stroke-miterlimit:10;}
	.st44{fill:none;stroke:#222222;stroke-width:2;stroke-miterlimit:10;}
	.st45{fill:none;stroke:#FFFFFF;stroke-width:2;stroke-miterlimit:10;}
</style>
<g id="BG">
</g>
<g id="GR">
	<g>
		<circle class="st19" cx="25.5" cy="25.5" r="25"/>
		<g id="IHJFyL_00000054979149536872980080000003051859167906538129_">
			<g>
				<path class="st9" d="M16.49,23.15c0.55,0.28,1.11,0.46,1.78,0.48c-1.01-0.73-1.58-1.67-1.73-2.85c-0.11-0.88,0.06-1.71,0.52-2.5
					c2.17,2.56,4.91,3.97,8.24,4.19c-0.01-0.4-0.05-0.79-0.04-1.17c0.05-1.64,1.31-3.21,2.9-3.62c1.49-0.38,2.8-0.04,3.92,1.01
					c0.06,0.05,0.17,0.08,0.24,0.07c0.78-0.16,1.52-0.44,2.21-0.82c0.05-0.03,0.1-0.05,0.19-0.09c-0.3,0.94-0.88,1.62-1.65,2.17
					c0.75-0.07,1.46-0.28,2.14-0.57c0.01,0.02,0.03,0.03,0.04,0.05c-0.32,0.38-0.63,0.77-0.97,1.13c-0.27,0.28-0.6,0.52-0.89,0.78
					c-0.06,0.06-0.12,0.16-0.12,0.25c0,4.14-1.63,7.46-5,9.89c-1.42,1.02-3.04,1.58-4.78,1.8c-1.64,0.21-3.26,0.11-4.85-0.35
					c-1-0.29-1.95-0.71-2.83-1.27c-0.02-0.01-0.04-0.03-0.08-0.07c2.17,0.19,4.11-0.33,5.87-1.65c-1.83-0.17-3.06-1.09-3.74-2.8
					c0.61,0.07,1.18,0.09,1.77-0.07C17.44,26.58,16.43,24.67,16.49,23.15z"/>
			</g>
		</g>
	</g>
</g>
<g id="OV">
</g>
</svg>
