<?xml version="1.0" encoding="utf-8"?>
<!-- Generator: Adobe Illustrator 26.0.2, SVG Export Plug-In . SVG Version: 6.00 Build 0)  -->
<svg version="1.1" xmlns="http://www.w3.org/2000/svg" xmlns:xlink="http://www.w3.org/1999/xlink" x="0px" y="0px"
	 viewBox="0 0 20 20" style="enable-background:new 0 0 20 20;" xml:space="preserve">
<style type="text/css">
	.st0{fill:#FFFFFF;}
	.st1{fill:none;stroke:#FFFFFF;stroke-miterlimit:10;}
	.st2{fill:#222222;}
	.st3{fill:#6275B0;}
	.st4{fill:none;stroke:#5A79BA;stroke-miterlimit:10;}
	.st5{fill:#FFFBB9;}
	.st6{fill:#F7D4D9;}
	.st7{fill:#C1E7FF;}
	.st8{fill:#5A79BA;}
	.st9{fill:#EFA5AF;}
	.st10{fill:#FFFFFF;stroke:#5A79BA;stroke-width:2;stroke-miterlimit:10;}
	.st11{fill:none;stroke:#C3E5FF;stroke-width:2;stroke-linecap:round;stroke-linejoin:round;stroke-miterlimit:10;}
	.st12{fill:none;stroke:#EFA5AF;stroke-width:1.5;stroke-linecap:round;stroke-linejoin:round;stroke-miterlimit:10;}
	.st13{fill:none;stroke:#C3E5FF;stroke-width:1.5;stroke-linecap:round;stroke-linejoin:round;stroke-miterlimit:10;}
	.st14{fill:none;stroke:#5A79BA;stroke-width:2;stroke-linecap:round;stroke-linejoin:round;stroke-miterlimit:10;}
	.st15{fill:none;stroke:#EFA5AF;stroke-width:1.5;stroke-linejoin:round;stroke-miterlimit:10;}
	.st16{fill:none;stroke:#C3E5FF;stroke-width:1.5;stroke-miterlimit:10;}
	.st17{fill:#C3E5FF;}
	.st18{fill:#FFFFFF;stroke:#5A79BA;stroke-miterlimit:10;}
	.st19{fill:#FFFFFF;stroke:#EFA5AF;stroke-miterlimit:10;}
	.st20{fill:url(#SVGID_1_);}
	.st21{fill:url(#SVGID_00000029041699153808675930000008835618741844808338_);}
	.st22{fill:url(#SVGID_00000067945433270721039990000001158646066882613431_);}
	.st23{fill:url(#SVGID_00000055694727499121962450000003758768245656860554_);}
	.st24{fill:url(#SVGID_00000075141714752067026120000009141914952369537447_);}
	.st25{fill:url(#SVGID_00000010283904946481027500000001936817976726645399_);}
	.st26{fill:url(#SVGID_00000053542659621500275910000017971218204541619598_);}
	.st27{fill:url(#SVGID_00000062186466615593040650000013649539970488383156_);}
	.st28{fill:url(#SVGID_00000077293133407609483550000016630750132867792788_);}
	.st29{fill:url(#SVGID_00000064348464800476978300000013782997056489564048_);}
	.st30{fill:url(#SVGID_00000152969731609077508580000012658066232504673673_);}
	.st31{fill:url(#SVGID_00000151506890963615465720000005818336538880601481_);}
	.st32{fill:url(#SVGID_00000089549041532677118740000007007366123477091746_);}
	.st33{fill:url(#SVGID_00000137811946559235301130000011783032600114004619_);}
	.st34{fill:url(#SVGID_00000127012944898772613260000012315492137942838172_);}
	.st35{fill:url(#SVGID_00000164514708612765508870000012073249968227094158_);}
	.st36{fill:url(#SVGID_00000067958138546338797180000010387911573551221944_);}
	.st37{fill:url(#SVGID_00000090262657808435154510000013865906508110826914_);}
	.st38{fill:url(#SVGID_00000067229318039269642420000011631923194229160383_);}
	.st39{fill:url(#SVGID_00000178177166691409386020000001555641052857364147_);}
	.st40{fill:url(#SVGID_00000062175593099686194710000006732416684233860522_);}
	.st41{fill:url(#SVGID_00000083063071709766081810000005583649226543738754_);}
	.st42{fill:#255C84;}
	.st43{fill:#FFCB4A;stroke:#FFCB4A;stroke-miterlimit:10;}
	.st44{fill:none;stroke:#222222;stroke-width:2;stroke-miterlimit:10;}
	.st45{fill:none;stroke:#FFFFFF;stroke-width:2;stroke-miterlimit:10;}
</style>
<g id="BG">
</g>
<g id="GR">
	<g id="IHJFyL_00000062168492654255595720000010618764904101300361_">
		<g>
			<path class="st0" d="M3.07,8.2C3.5,8.41,3.93,8.55,4.44,8.56C3.67,8,3.23,7.28,3.11,6.38C3.03,5.7,3.16,5.06,3.51,4.46
				C5.18,6.42,7.29,7.5,9.84,7.68c-0.01-0.31-0.04-0.6-0.03-0.9C9.85,5.52,10.82,4.31,12.04,4c1.14-0.29,2.15-0.03,3.01,0.77
				c0.04,0.04,0.13,0.06,0.19,0.05c0.6-0.12,1.16-0.33,1.7-0.63c0.04-0.02,0.08-0.04,0.14-0.07c-0.23,0.72-0.67,1.25-1.27,1.66
				c0.58-0.05,1.12-0.22,1.65-0.44c0.01,0.01,0.02,0.02,0.03,0.04c-0.25,0.29-0.48,0.59-0.75,0.87c-0.21,0.22-0.46,0.4-0.68,0.6
				c-0.05,0.05-0.09,0.13-0.09,0.19c0,3.18-1.26,5.73-3.84,7.6c-1.09,0.79-2.34,1.21-3.67,1.39c-1.26,0.17-2.5,0.09-3.72-0.27
				c-0.77-0.22-1.5-0.55-2.18-0.97c-0.02-0.01-0.03-0.02-0.06-0.05c1.67,0.15,3.16-0.26,4.51-1.27c-1.41-0.13-2.35-0.84-2.87-2.15
				c0.47,0.06,0.91,0.07,1.36-0.06C3.81,10.83,3.03,9.36,3.07,8.2z"/>
		</g>
	</g>
</g>
<g id="OV">
</g>
</svg>
